<?xml version="1.0" encoding="UTF-8" standalone="no"?>
<!DOCTYPE svg PUBLIC "-//W3C//DTD SVG 1.1//EN" "http://www.w3.org/Graphics/SVG/1.1/DTD/svg11.dtd">
<svg width="100%" height="100%" viewBox="0 0 100 100" version="1.1" xmlns="http://www.w3.org/2000/svg" xmlns:xlink="http://www.w3.org/1999/xlink" xml:space="preserve" xmlns:serif="http://www.serif.com/" style="fill-rule:evenodd;clip-rule:evenodd;stroke-linecap:round;stroke-linejoin:round;stroke-miterlimit:1.5;">
    <g transform="matrix(1,0,0,1,5.78902,0)">
        <path d="M30,35L30,25C30,25 30,22.5 30,20C30,17.239 32.239,15 35,15L75.189,15C76.516,15 77.789,15.528 78.727,16.467C79.665,17.407 80.191,18.681 80.189,20.008C80.185,22.505 80.18,25 80.18,25L80.015,75C80.015,75 80.011,77.505 80.008,80.008C80.003,82.766 77.766,85 75.008,85C72.505,85 70,85 70,85L40,85C40,85 37.5,85 35,85C32.239,85 30,82.761 30,80C30,77.5 30,75 30,75L30,65" style="fill:none;stroke:white;stroke-width:5px;"/>
        <g transform="matrix(1,0,0,1,1.97193,0)">
            <path d="M37,35L53,50L37,65" style="fill:none;stroke:white;stroke-width:5px;"/>
        </g>
        <g transform="matrix(1,0,0,1,1.97193,0)">
            <path d="M6.253,50L53,50" style="fill:none;stroke:white;stroke-width:5px;"/>
        </g>
    </g>
</svg>
