<?xml version="1.0" encoding="UTF-8" standalone="no"?><!DOCTYPE svg PUBLIC "-//W3C//DTD SVG 1.1//EN" "http://www.w3.org/Graphics/SVG/1.1/DTD/svg11.dtd"><svg width="100%" height="100%" viewBox="0 0 24 24" version="1.1" xmlns="http://www.w3.org/2000/svg" xmlns:xlink="http://www.w3.org/1999/xlink" xml:space="preserve" xmlns:serif="http://www.serif.com/" style="fill-rule:evenodd;clip-rule:evenodd;stroke-linecap:round;stroke-linejoin:round;stroke-miterlimit:1.5;"><g><path d="M15.174,8.4l0,-2.4c0,0 0,-0.6 0,-1.2c0,-0.663 -0.537,-1.2 -1.2,-1.2l-9.645,0c-0.319,0 -0.624,0.127 -0.85,0.352c-0.225,0.226 -0.351,0.531 -0.35,0.85c0.001,0.599 0.002,1.198 0.002,1.198l0.039,12c0,0 0.001,0.601 0.002,1.202c0.001,0.662 0.538,1.198 1.2,1.198c0.601,0 1.202,0 1.202,0l7.2,0c0,0 0.6,0 1.2,0c0.663,0 1.2,-0.537 1.2,-1.2c0,-0.6 0,-1.2 0,-1.2l0,-2.4" style="fill:none;stroke:#000;stroke-width:1.2px;"/><g><path d="M17.315,8.4l3.84,3.6l-3.84,3.6" style="fill:none;stroke:#000;stroke-width:1.2px;"/><path d="M9.936,12l11.219,0" style="fill:none;stroke:#000;stroke-width:1.2px;"/></g></g></svg>