<?xml version="1.0" encoding="UTF-8" standalone="no"?><!DOCTYPE svg PUBLIC "-//W3C//DTD SVG 1.1//EN" "http://www.w3.org/Graphics/SVG/1.1/DTD/svg11.dtd"><svg width="100%" height="100%" viewBox="0 0 100 100" version="1.1" xmlns="http://www.w3.org/2000/svg" xmlns:xlink="http://www.w3.org/1999/xlink" xml:space="preserve" xmlns:serif="http://www.serif.com/" style="fill-rule:evenodd;clip-rule:evenodd;stroke-linecap:round;stroke-linejoin:round;stroke-miterlimit:1.5;"><g><g><g><path d="M37.167,6.818c1.283,-1.592 3.244,-2.481 5.286,-2.398c2.043,0.083 3.925,1.129 5.074,2.819c0.147,0.215 0.231,0.339 0.231,0.339c0,0 2.429,-0.36 5.466,-0.812c2.645,-0.391 5.312,0.559 7.113,2.535c1.8,1.977 2.498,4.721 1.861,7.318c-0.446,1.822 -0.763,3.116 -0.763,3.116c0,0 1.077,1.191 2.45,2.706c1.484,1.641 2.226,3.821 2.051,6.026c-0.176,2.205 -1.254,4.239 -2.979,5.623c-0.901,0.723 -1.522,1.222 -1.522,1.222c0,0 0.455,0.838 1.084,1.996c2.05,3.772 0.77,8.489 -2.905,10.706c-2.359,1.424 -4.448,2.684 -4.448,2.684l0,0.001c-3.187,5.166 -9.619,7.302 -15.264,5.07c-1.593,-0.63 -2.735,-1.081 -2.735,-1.081c0,0 -1.571,0.292 -3.642,0.677c-5.932,1.103 -11.916,-1.643 -14.948,-6.858c-0.338,-0.582 -0.548,-0.943 -0.548,-0.943c-2.371,-0.418 -4.427,-1.882 -5.597,-3.986c-1.171,-2.104 -1.332,-4.623 -0.437,-6.857c0.093,-0.233 0.145,-0.364 0.145,-0.364c0,0 -0.206,-0.146 -0.553,-0.392c-1.876,-1.331 -3.06,-3.43 -3.229,-5.725c-0.168,-2.294 0.696,-4.544 2.357,-6.135c0.001,0 0.001,-0.001 0.001,-0.001c0,0 -0.218,-1.031 -0.516,-2.442c-0.441,-2.093 -0.03,-4.276 1.144,-6.064c1.174,-1.788 3.013,-3.034 5.108,-3.46c1.356,-0.277 2.337,-0.476 2.337,-0.476c0,0 0.715,-0.999 1.713,-2.394c3.494,-4.882 10.135,-6.292 15.31,-3.247c0.824,0.484 1.355,0.797 1.355,0.797Z" style="fill:none;stroke:#000;stroke-width:3.37px;"/><path d="M43.451,42.969c0,0 0.53,0.149 1.311,0.368c3.724,1.044 7.676,-0.614 9.539,-4.003" style="fill:none;stroke:#000;stroke-width:3.37px;"/><path d="M51.812,32.032c0,0 0.471,-0.307 1.111,-0.725c2.06,-1.345 3.009,-3.871 2.344,-6.239" style="fill:none;stroke:#000;stroke-width:3.37px;"/><path d="M23.649,41.949c0,0 0.376,0.472 0.875,1.097c1.461,1.826 3.92,2.522 6.119,1.73c0,0 0.001,0 0.001,0" style="fill:none;stroke:#000;stroke-width:3.37px;"/><path d="M36.718,55.084c0.289,3.236 0.939,11.012 1.001,15.834c0.064,4.804 -0.521,10.736 -0.553,14.401c-0.022,2.533 0.234,5.906 0.362,7.593" style="fill:none;stroke:#000;stroke-width:3.37px;"/></g><path d="M11.366,44.503l39.841,55.497l48.793,0l0,-70.29l-42.84,-23.784l4.392,5.586l1.126,3.884l-1.165,4.086l2.917,3.486l1.531,4.078l-0.759,4.039l-3.107,3.844l0.932,4.233l-0.388,6.019l-3.456,3.482l-4.582,2.46l-3.146,3.883l-7.65,1.592l-6.656,-1.747l-7.713,0.854l-8.31,-3.65l-2.99,-4.738l-6.77,-2.814Z" style="fill-opacity:0.18;"/></g><g><path d="M71.355,65.141l0,-15.975c0,-3.034 2.463,-5.496 5.496,-5.496c3.033,0 5.496,2.462 5.496,5.496l0,15.975c2.659,1.777 4.411,4.807 4.411,8.242c0,5.468 -4.439,9.908 -9.907,9.908c-5.468,0 -9.907,-4.44 -9.907,-9.908c0,-3.435 1.752,-6.465 4.411,-8.242" style="fill:#fff;stroke:#c9ecff;stroke-width:2.24px;"/><circle cx="76.851" cy="73.603" r="4.408" style="fill:#41c5f7;"/><path d="M76.851,69.195l0,-7.42" style="fill:none;stroke:#41c5f7;stroke-width:2.2px;"/></g></g></svg>