<?xml version="1.0" encoding="UTF-8" standalone="no"?><!DOCTYPE svg PUBLIC "-//W3C//DTD SVG 1.1//EN" "http://www.w3.org/Graphics/SVG/1.1/DTD/svg11.dtd"><svg width="100%" height="100%" viewBox="0 0 100 100" version="1.1" xmlns="http://www.w3.org/2000/svg" xmlns:xlink="http://www.w3.org/1999/xlink" xml:space="preserve" xmlns:serif="http://www.serif.com/" style="fill-rule:evenodd;clip-rule:evenodd;stroke-linejoin:round;stroke-miterlimit:2;"><g id="_1---kern" serif:id="1 - kern"><circle id="bg" cx="50" cy="50" r="50" style="fill:url(#_Linear1);"/><path id="bg1" serif:id="bg" d="M97.144,66.685c-6.875,19.402 -25.398,33.315 -47.144,33.315c-25.556,0 -46.66,-19.215 -49.64,-43.973l0,0.002c35.098,-5.242 67.412,-1.853 96.783,10.66l0.001,-0.004Z" style="fill:url(#_Linear2);"/><path d="M69.197,53.734l-0.019,-0.288c-0.001,-0.02 -0.029,-0.027 -0.044,-0.04l-0.034,-0.031c-0.051,-0.375 -0.095,-0.652 -0.062,-0.056l0.062,0.056l0.02,0.147l0.022,0.159l-0.016,-0.016c-0.024,-0.023 -0.069,-0.035 -0.071,-0.067l-0.017,-0.279c-0.13,-0.119 -0.264,-0.235 -0.398,-0.349c-1.575,-1.345 -3.387,-2.352 -5.087,-2.712c-2.396,-0.498 -5.501,-0.302 -8.772,0.533c-2.642,0.674 -5.384,1.786 -7.939,3.267l2.185,3.548c2.16,-1.412 4.502,-2.509 6.776,-3.222c2.647,-0.831 5.18,-1.187 7.168,-0.886c1.414,0.209 2.557,2.035 4.256,2.15c0.226,0.015 -0.052,-0.126 0.174,-0.111c0.174,0.012 0.271,0.22 0.403,0.334c1.699,1.464 3.077,3.168 3.215,4.356c0.235,2.028 -0.153,3.938 -0.899,5.96c-1.404,3.808 -3.99,7.962 -6.174,13.798l0.261,0.11c2.647,-5.678 5.557,-9.643 7.268,-13.346c1.026,-2.222 1.61,-4.354 1.531,-6.671c-0.056,-1.617 -1.618,-4.229 -3.809,-6.344Z" style="fill:url(#_Linear3);"/><path d="M65.33,52.245c-0.849,4.849 -5.276,10.21 -11.845,13.642c-9.111,4.762 -18.914,4.023 -21.878,-1.649c-2.964,-5.671 2.601,-13.175 11.139,-18.902c7.252,-4.865 16.217,-3.771 20.452,0.834l-15.264,9.662l17.396,-3.587Z" style="fill:url(#_Linear4);"/><path id="bg2" serif:id="bg" d="M7.243,75.919c21.187,-11.96 57.007,-16.138 87.823,-4.25c-8.079,16.757 -25.232,28.331 -45.066,28.331c-18.11,0 -33.984,-9.649 -42.757,-24.081Z" style="fill:url(#_Linear5);"/><path d="M69.197,53.734l-0.019,-0.288c-0.001,-0.02 -0.029,-0.027 -0.044,-0.04l-0.034,-0.031c-0.051,-0.375 -0.095,-0.652 -0.062,-0.056l0.062,0.056l0.02,0.147l0.022,0.159l-0.016,-0.016c-0.024,-0.023 -0.069,-0.035 -0.071,-0.067l-0.017,-0.279c-0.13,-0.119 -0.264,-0.235 -0.398,-0.349c-1.575,-1.345 -3.387,-2.352 -5.087,-2.712c-2.396,-0.498 -5.501,-0.302 -8.772,0.533c-2.642,0.674 -5.384,1.786 -7.939,3.267l2.185,3.548c2.16,-1.412 4.502,-2.509 6.776,-3.222c2.647,-0.831 5.18,-1.187 7.168,-0.886c1.414,0.209 2.557,2.035 4.256,2.15c0.226,0.015 -0.052,-0.126 0.174,-0.111c0.174,0.012 0.271,0.22 0.403,0.334c1.699,1.464 3.077,3.168 3.215,4.356c0.235,2.028 -0.153,3.938 -0.899,5.96c-1.404,3.808 -3.99,7.962 -6.174,13.798l0.261,0.11c2.647,-5.678 5.557,-9.643 7.268,-13.346c1.026,-2.222 1.61,-4.354 1.531,-6.671c-0.056,-1.617 -1.618,-4.229 -3.809,-6.344Z" style="fill:url(#_Linear6);"/></g><defs><linearGradient id="_Linear1" x1="0" y1="0" x2="1" y2="0" gradientUnits="userSpaceOnUse" gradientTransform="matrix(6.12323e-15,100,-100,6.12323e-15,50,0)"><stop offset="0" style="stop-color:#205da1;stop-opacity:1"/><stop offset="1" style="stop-color:#9ecaec;stop-opacity:1"/></linearGradient><linearGradient id="_Linear2" x1="0" y1="0" x2="1" y2="0" gradientUnits="userSpaceOnUse" gradientTransform="matrix(6.12323e-15,100,-100,6.12323e-15,50,0)"><stop offset="0" style="stop-color:#674426;stop-opacity:1"/><stop offset="1" style="stop-color:#180c00;stop-opacity:1"/></linearGradient><linearGradient id="_Linear3" x1="0" y1="0" x2="1" y2="0" gradientUnits="userSpaceOnUse" gradientTransform="matrix(-2.35023,10.6084,-10.6084,-2.35023,70.8181,65.6908)"><stop offset="0" style="stop-color:#381101;stop-opacity:1"/><stop offset="1" style="stop-color:#1d0c05;stop-opacity:1"/></linearGradient><linearGradient id="_Linear4" x1="0" y1="0" x2="1" y2="0" gradientUnits="userSpaceOnUse" gradientTransform="matrix(25.7626,23.3881,-14.5579,16.0359,30.8441,40.618)"><stop offset="0" style="stop-color:#ce8263;stop-opacity:1"/><stop offset="1" style="stop-color:#3e1504;stop-opacity:1"/></linearGradient><linearGradient id="_Linear5" x1="0" y1="0" x2="1" y2="0" gradientUnits="userSpaceOnUse" gradientTransform="matrix(6.12986,55.3637,-55.3637,6.12986,43.8701,44.6363)"><stop offset="0" style="stop-color:#5a3c23;stop-opacity:1"/><stop offset="1" style="stop-color:#180c00;stop-opacity:1"/></linearGradient><linearGradient id="_Linear6" x1="0" y1="0" x2="1" y2="0" gradientUnits="userSpaceOnUse" gradientTransform="matrix(-4.41338,11.4535,-11.4535,-4.41338,70.9035,68.801)"><stop offset="0" style="stop-color:#381101;stop-opacity:0"/><stop offset="1" style="stop-color:#1d0c05;stop-opacity:1"/></linearGradient></defs></svg>