<?xml version="1.0" encoding="UTF-8" standalone="no"?><!DOCTYPE svg PUBLIC "-//W3C//DTD SVG 1.1//EN" "http://www.w3.org/Graphics/SVG/1.1/DTD/svg11.dtd"><svg width="100%" height="100%" viewBox="0 0 100 100" version="1.1" xmlns="http://www.w3.org/2000/svg" xmlns:xlink="http://www.w3.org/1999/xlink" xml:space="preserve" xmlns:serif="http://www.serif.com/" style="fill-rule:evenodd;clip-rule:evenodd;stroke-linejoin:round;stroke-miterlimit:2;"><g id="_2---keimling" serif:id="2 - keimling"><circle id="bg" cx="50" cy="50" r="50" style="fill:url(#_Linear1);"/><clipPath id="_clip2"><circle id="bg1" serif:id="bg" cx="50" cy="50" r="50"/></clipPath><g clip-path="url(#_clip2)"><path d="M94.901,74.636c-6.875,19.402 -25.397,33.315 -47.144,33.315c-25.556,0 -46.66,-19.215 -49.639,-43.973l-0,0.002c35.098,-5.242 67.412,-1.853 96.782,10.66l0.001,-0.004Z" style="fill:url(#_Linear3);"/></g><path id="stem" d="M51.375,72.595c-0.078,-0.001 -0.196,-0.028 -0.269,-0.031c-0.405,-0.02 -0.85,-0.142 -1.281,-0.286c-1.23,-0.411 -2.343,-1.068 -2.343,-1.068l-1.608,2.788c-0,0 3.563,1.924 5.767,1.676c1.464,-0.165 2.583,-0.919 2.8,-2.743c0.373,-3.415 -0.658,-10.112 -1.239,-17.731c-0.184,-2.412 -0.251,-4.921 -0.305,-7.437c-0.034,-1.649 -0.016,-3.301 -0.014,-4.936c0.003,-4.011 0.107,-7.914 0.82,-11.393l-1.574,-0.389c-1.09,3.785 -1.717,8.116 -1.824,12.577c-0.095,3.937 0.307,7.95 0.559,11.746c0.488,7.367 1.025,13.883 0.527,17.165c-0.003,0.019 -0.009,0.042 -0.016,0.062Zm0.013,0.001c0.049,-0 0.077,-0.012 0.061,-0.05c-0.01,-0.025 -0.039,0.013 -0.061,0.05Z" style="fill:url(#_Linear4);"/><path d="M52.964,31.817c0.415,0.39 2.356,-0.82 3.535,-1.231c1.63,-0.568 4.702,-1.052 6.248,-2.177c1.48,-1.077 2.851,-3.23 3.03,-4.576c0.176,-1.326 -1.189,-3.34 -1.956,-3.504c-0.768,-0.163 -1.605,1.899 -2.652,2.525c-1.046,0.626 -2.609,0.462 -3.629,1.231c-1.194,0.9 -2.772,2.877 -3.535,4.166c-0.63,1.066 -1.457,3.177 -1.041,3.566Z" style="fill:url(#_Linear5);"/><path d="M52.86,31.467c0.316,-0.736 -0.59,-3.484 -1.909,-4.371c-1.428,-0.96 -5.076,-1.684 -6.659,-1.389c-1.392,0.259 -2.052,1.999 -2.841,3.156c-0.789,1.157 -2.467,3.209 -1.893,3.787c0.573,0.579 4.066,0.132 5.333,-0.315c1.032,-0.364 1.578,-2.231 2.273,-2.367c0.694,-0.137 1.105,1.339 1.893,1.546c0.95,0.25 3.488,0.69 3.803,-0.047Z" style="fill:url(#_Linear6);"/><g id="roots"><path d="M46.32,73.034c-0,-0 0.748,2.163 1.442,4.319c0.33,1.024 0.664,2.041 0.847,2.828c0.763,2.305 -0.02,4.236 0.325,6.46c0.088,0.565 0.211,1.151 0.462,1.762c0.346,0.857 0.826,1.591 1.387,2.257c1.292,1.531 2.99,2.679 4.201,4.148l0.152,-0.115c-1.065,-1.558 -2.65,-2.836 -3.779,-4.472c-0.443,-0.642 -0.803,-1.342 -1.032,-2.138c-0.226,-0.834 -0.25,-1.586 -0.157,-2.302c0.154,-1.197 0.618,-2.257 0.856,-3.428c0.174,-0.857 0.209,-1.742 0.088,-2.724c-0.179,-0.857 -0.481,-1.979 -0.842,-3.089c-0.721,-2.212 -1.618,-4.39 -1.618,-4.39l-2.332,0.884Z" style="fill:url(#_Linear7);"/><path d="M49.648,84.768c0.447,-0 0.858,0.053 1.243,0.07c0.458,0.021 0.869,-0.009 1.255,0.061c0.612,0.109 1.123,0.334 1.573,0.598l0.027,-0.039c-0.44,-0.35 -0.974,-0.613 -1.603,-0.865c-0.239,-0.097 -0.477,-0.205 -0.749,-0.287c-0.166,-0.05 -0.336,-0.096 -0.519,-0.124c-0.38,-0.057 -0.792,-0.047 -1.233,-0.038l0.006,0.624Z" style="fill:#3d1200;"/><path d="M49.333,86.773c-0.128,0.359 -0.302,0.67 -0.445,0.975c-0.164,0.352 -0.275,0.691 -0.481,0.976c-0.299,0.414 -0.68,0.725 -1.099,0.982l0.022,0.043c0.495,-0.205 0.923,-0.517 1.345,-0.883c0.179,-0.156 0.359,-0.302 0.527,-0.488c0.105,-0.118 0.206,-0.241 0.292,-0.382c0.183,-0.297 0.306,-0.648 0.428,-1.019l-0.589,-0.204Z" style="fill:#3b1100;"/></g><g id="acorn"><ellipse cx="43.046" cy="69.847" rx="7.835" ry="4.914" style="fill:url(#_Linear8);"/></g><clipPath id="_clip9"><circle id="bg2" serif:id="bg" cx="50" cy="50" r="50"/></clipPath><g clip-path="url(#_clip9)"><path d="M1.782,85.802c24.226,-13.675 65.183,-18.452 100.42,-4.859c-9.238,19.16 -28.851,32.394 -51.53,32.394c-20.707,0 -38.858,-11.032 -48.89,-27.535Z" style="fill:url(#_Linear10);"/></g></g><defs><linearGradient id="_Linear1" x1="0" y1="0" x2="1" y2="0" gradientUnits="userSpaceOnUse" gradientTransform="matrix(6.12323e-15,100,-100,6.12323e-15,50,0)"><stop offset="0" style="stop-color:#205da1;stop-opacity:1"/><stop offset="1" style="stop-color:#9ecaec;stop-opacity:1"/></linearGradient><linearGradient id="_Linear3" x1="0" y1="0" x2="1" y2="0" gradientUnits="userSpaceOnUse" gradientTransform="matrix(4.0356,71.3558,-71.3558,4.0356,43.7218,36.5953)"><stop offset="0" style="stop-color:#653b17;stop-opacity:1"/><stop offset="1" style="stop-color:#180c00;stop-opacity:1"/></linearGradient><linearGradient id="_Linear4" x1="0" y1="0" x2="1" y2="0" gradientUnits="userSpaceOnUse" gradientTransform="matrix(0.687295,-39.949,39.949,0.687295,51.1062,74.776)"><stop offset="0" style="stop-color:#702100;stop-opacity:1"/><stop offset="0.17" style="stop-color:#454209;stop-opacity:1"/><stop offset="0.37" style="stop-color:#1e5f12;stop-opacity:1"/><stop offset="1" style="stop-color:#0f6b15;stop-opacity:1"/></linearGradient><linearGradient id="_Linear5" x1="0" y1="0" x2="1" y2="0" gradientUnits="userSpaceOnUse" gradientTransform="matrix(0.504964,10.7304,-9.62037,0.452726,50.6915,22.4124)"><stop offset="0" style="stop-color:#437a1f;stop-opacity:1"/><stop offset="1" style="stop-color:#036813;stop-opacity:1"/></linearGradient><linearGradient id="_Linear6" x1="0" y1="0" x2="1" y2="0" gradientUnits="userSpaceOnUse" gradientTransform="matrix(0.504964,10.7304,-9.62037,0.452726,50.6915,22.4124)"><stop offset="0" style="stop-color:#437a1f;stop-opacity:1"/><stop offset="1" style="stop-color:#036813;stop-opacity:1"/></linearGradient><linearGradient id="_Linear7" x1="0" y1="0" x2="1" y2="0" gradientUnits="userSpaceOnUse" gradientTransform="matrix(5.12292,18.7913,-18.7913,5.12292,48.6219,75.7627)"><stop offset="0" style="stop-color:#481500;stop-opacity:1"/><stop offset="0.5" style="stop-color:#3b1100;stop-opacity:1"/><stop offset="1" style="stop-color:#361000;stop-opacity:1"/></linearGradient><linearGradient id="_Linear8" x1="0" y1="0" x2="1" y2="0" gradientUnits="userSpaceOnUse" gradientTransform="matrix(10.1722,6.88633,-6.88633,10.1722,38.0828,66.63)"><stop offset="0" style="stop-color:#9b4700;stop-opacity:1"/><stop offset="1" style="stop-color:#481500;stop-opacity:1"/></linearGradient><linearGradient id="_Linear10" x1="0" y1="0" x2="1" y2="0" gradientUnits="userSpaceOnUse" gradientTransform="matrix(4.82804,44.5756,-44.5756,4.82804,45.8439,68.7618)"><stop offset="0" style="stop-color:#543113;stop-opacity:1"/><stop offset="1" style="stop-color:#180c00;stop-opacity:1"/></linearGradient></defs></svg>