<?xml version="1.0" encoding="UTF-8" standalone="no"?><!DOCTYPE svg PUBLIC "-//W3C//DTD SVG 1.1//EN" "http://www.w3.org/Graphics/SVG/1.1/DTD/svg11.dtd"><svg width="100%" height="100%" viewBox="0 0 100 100" version="1.1" xmlns="http://www.w3.org/2000/svg" xmlns:xlink="http://www.w3.org/1999/xlink" xml:space="preserve" xmlns:serif="http://www.serif.com/" style="fill-rule:evenodd;clip-rule:evenodd;stroke-linecap:round;stroke-linejoin:round;stroke-miterlimit:1.5;"><g id="_3---jungbaum" serif:id="3 - jungbaum"><circle id="bg" cx="50" cy="50" r="50" style="fill:url(#_Linear1);"/><clipPath id="_clip2"><circle id="bg1" serif:id="bg" cx="50.407" cy="50.319" r="50"/></clipPath><g clip-path="url(#_clip2)"><path d="M3.944,73.417c30.113,-10.22 61.286,-11.654 93.759,-2.245c-6.752,19.632 -25.388,33.753 -47.296,33.753c-21.064,-0 -39.103,-13.054 -46.463,-31.508Z" style="fill:url(#_Linear3);"/></g><clipPath id="_clip4"><circle id="dirt" cx="50.407" cy="50.319" r="50"/></clipPath><g clip-path="url(#_clip4)"><path d="M10.452,87.3c26.529,-14.319 55.246,-19.327 86.764,-12.448c-7.126,18.922 -25.406,32.399 -46.809,32.399c-16.323,0 -30.83,-7.839 -39.955,-19.951Z" style="fill:url(#_Linear5);"/></g><g><path d="M37.534,44.105c-0,-0 -2.065,0.086 -2.77,-0.048c-0.538,-0.102 -1.064,-0.733 -1.458,-0.755c-0.365,-0.021 -0.541,0.644 -0.906,0.619c-0.48,-0.032 -1.454,-0.939 -1.976,-0.813c-0.522,0.126 -0.918,1.192 -1.156,1.569c-0.134,0.211 -0.348,0.183 -0.277,0.694c0.052,0.372 0.239,0.445 0.416,0.62c0.281,0.277 0.831,1.044 1.267,1.045c0.437,-0 0.931,-0.957 1.354,-1.044c0.422,-0.087 0.762,0.609 1.185,0.521c0.428,-0.089 0.846,-0.833 1.381,-1.056c0.731,-0.303 3.005,-0.766 3.005,-0.766l-0.065,-0.586Z" style="fill:url(#_Linear6);"/><path d="M39.332,44.516c0,0 -1.746,0.95 -2.366,1.194c-0.428,0.169 -0.946,0.06 -1.353,0.271c-0.407,0.21 -0.654,0.761 -1.087,0.992c-0.447,0.238 -1.357,0.09 -1.591,0.433c-0.234,0.343 0.137,1.159 0.187,1.625c0.042,0.39 -0.242,0.798 0.116,1.171c0.26,0.27 0.889,0.286 1.079,0.447c0.164,0.138 0.978,0.235 1.355,-0.033c0.356,-0.253 0.055,-0.975 0.308,-1.341c0.253,-0.366 0.917,-0.532 1.211,-0.856c0.273,-0.299 0.314,-0.756 0.554,-1.083c0.423,-0.578 1.984,-2.383 1.984,-2.383l-0.397,-0.437Z" style="fill:url(#_Linear7);"/><path d="M52.532,59.15c-0,0 -1.796,-0.852 -2.358,-1.21c-0.388,-0.247 -0.606,-0.73 -1.015,-0.935c-0.41,-0.205 -1.001,-0.08 -1.442,-0.295c-0.455,-0.221 -0.872,-1.044 -1.286,-1.031c-0.415,0.013 -0.857,0.792 -1.204,1.107c-0.29,0.264 -0.788,0.275 -0.878,0.783c-0.066,0.369 0.291,0.887 0.273,1.135c-0.015,0.214 0.385,0.929 0.824,1.077c0.414,0.139 0.821,-0.53 1.266,-0.541c0.445,-0.01 0.97,0.429 1.404,0.476c0.403,0.045 0.796,-0.191 1.202,-0.19c0.716,0.003 3.094,0.202 3.094,0.202l0.12,-0.578Z" style="fill:url(#_Linear8);"/><path d="M50.019,28.169c-0,0 -1.972,-0.621 -2.589,-0.987c-0.471,-0.279 -0.751,-1.051 -1.114,-1.207c-0.336,-0.144 -0.727,0.422 -1.062,0.275c-0.441,-0.194 -1.048,-1.379 -1.582,-1.438c-0.534,-0.059 -1.268,0.809 -1.621,1.082c-0.197,0.153 -0.389,0.054 -0.496,0.559c-0.078,0.367 0.073,0.499 0.18,0.724c0.169,0.356 0.425,1.265 0.836,1.413c0.411,0.149 1.2,-0.582 1.628,-0.52c0.427,0.062 0.51,0.832 0.937,0.893c0.432,0.062 1.079,-0.495 1.658,-0.522c0.791,-0.037 3.086,0.302 3.086,0.302l0.139,-0.574Z" style="fill:url(#_Linear9);"/><path d="M52.719,34.483c-0,-0 2.371,0.205 3.203,0.432c0.648,0.177 1.121,0.859 1.789,0.927c0.705,0.073 1.636,-0.627 2.44,-0.491c0.804,0.135 1.711,1.474 2.385,1.304c0.674,-0.17 1.292,-1.76 1.658,-2.324c0.215,-0.332 0.587,-0.758 0.535,-1.06c-0.052,-0.302 -0.532,-0.546 -0.848,-0.753c-0.521,-0.343 -1.657,-1.277 -2.279,-1.304c-0.615,-0.026 -0.881,1.105 -1.452,1.143c-0.57,0.039 -1.339,-0.954 -1.969,-0.913c-0.631,0.041 -1.149,0.886 -1.812,1.157c-0.918,0.376 -3.696,1.099 -3.696,1.099l0.046,0.783Z" style="fill:url(#_Linear10);"/><path d="M49.578,39.02c0,0 -1.729,-0.193 -2.516,-0.069c-0.774,0.122 -1.505,0.79 -2.206,0.813c-0.701,0.023 -1.299,-0.629 -2.001,-0.676c-0.704,-0.046 -1.664,0.632 -2.222,0.399c-0.559,-0.232 -0.057,-1.368 -1.13,-1.792c-0.369,-0.146 -0.687,-0.633 -0.672,-0.916c0.014,-0.284 0.414,-0.628 0.756,-0.788c0.283,-0.131 0.138,-0.838 0.6,-1.053c0.219,-0.102 0.653,0.111 0.996,0.094c0.382,-0.02 1.273,-0.523 1.559,-0.328c0.51,0.346 0.425,1.204 0.847,1.395c0.422,0.191 1.067,-0.38 1.685,-0.249c0.058,0.012 1.361,1.199 1.92,1.53c0.854,0.505 2.503,1.31 2.503,1.31l-0.119,0.33Z" style="fill:url(#_Linear11);"/><path d="M45.02,45.28c-0,-0 -1.83,-1.523 -2.383,-2.184c-0.432,-0.515 -0.493,-1.449 -0.939,-1.782c-0.447,-0.334 -1.32,0.188 -1.737,-0.22c-0.583,-0.57 -1.02,-2.829 -1.761,-3.202c-0.742,-0.374 -1.996,0.751 -2.688,0.961c-0.475,0.144 -1.33,0.019 -1.46,0.297c-0.13,0.278 0.459,0.911 0.681,1.37c0.302,0.624 0.632,1.995 1.128,2.372c0.49,0.373 1.354,-0.404 1.844,-0.11c0.49,0.294 0.555,1.548 1.096,1.874c0.54,0.327 1.448,-0.071 2.148,0.085c0.968,0.215 3.661,1.207 3.661,1.207l0.41,-0.668Z" style="fill:url(#_Linear12);"/><path d="M68.482,48.227c0,0 1.484,-0.848 1.983,-1.226c0.386,-0.292 0.585,-0.868 1.011,-1.042c0.425,-0.173 1.106,0.273 1.544,0.003c0.457,-0.281 0.75,-1.524 1.197,-1.69c0.446,-0.167 1.078,0.492 1.481,0.693c0.319,0.158 0.86,0.257 0.938,0.511c0.078,0.254 -0.282,0.691 -0.469,1.012c-0.193,0.334 -0.323,0.828 -0.692,0.989c-0.399,0.173 -1.313,-0.09 -1.7,0.052c-0.042,0.016 -0.906,0.917 -0.953,0.934c-0.427,0.159 -0.922,-0.101 -1.382,-0.069c-0.69,0.049 -2.758,0.362 -2.758,0.362l-0.2,-0.529Z" style="fill:url(#_Linear13);"/><path d="M66.581,48.585c0,-0 0.646,-1.649 0.803,-2.278c0.121,-0.486 -0.056,-1.069 0.138,-1.497c0.194,-0.428 0.836,-0.626 1.025,-1.073c0.19,-0.448 -0.103,-1.166 0.111,-1.611c0.195,-0.407 1.259,-0.491 1.624,-0.554c0.369,-0.064 0.684,-0.246 0.881,-0.161c0.197,0.084 0.241,0.431 0.301,0.669c0.096,0.382 0.473,1.201 0.277,1.627c-0.195,0.427 -1.186,0.597 -1.451,0.932c-0.136,0.171 0.292,0.802 0.074,1.337c-0.177,0.438 -0.907,0.484 -1.289,0.822c-0.546,0.484 -1.989,2.084 -1.989,2.084l-0.505,-0.297Z" style="fill:url(#_Linear14);"/><path d="M67.878,48.413c0,0 1.771,0.002 2.414,-0.081c0.497,-0.064 0.975,-0.441 1.445,-0.416c0.469,0.025 0.887,0.551 1.373,0.565c0.485,0.013 1.048,-0.52 1.54,-0.483c0.29,0.021 0.356,0.426 0.61,0.664c0.09,0.084 0.536,0.151 0.605,0.304c0.066,0.144 -0.03,0.448 -0.005,0.641c0.023,0.178 0.231,0.353 0.157,0.516c-0.078,0.171 -0.388,0.384 -0.625,0.511c-0.354,0.189 -0.687,0.749 -1.101,0.715c-0.415,-0.033 -0.979,-0.792 -1.388,-0.917c-0.209,-0.064 -0.64,0.564 -1.218,0.556c-0.472,-0.006 -0.781,-0.67 -1.234,-0.902c-0.65,-0.333 -2.666,-1.095 -2.666,-1.095l0.093,-0.578Z" style="fill:url(#_Linear15);"/><path d="M50.173,28.876c-0,-0 2.14,-0.054 2.907,0.065c0.597,0.092 1.193,0.688 1.693,0.649c0.5,-0.038 0.781,-0.91 1.306,-0.881c0.733,0.04 2.367,1.31 3.09,1.124c0.724,-0.187 0.906,-1.693 1.249,-2.245c0.237,-0.379 0.89,-0.801 0.813,-1.066c-0.077,-0.265 -0.851,-0.345 -1.274,-0.524c-0.574,-0.243 -1.61,-0.975 -2.169,-0.937c-0.553,0.038 -0.677,1.076 -1.183,1.168c-0.506,0.091 -1.294,-0.719 -1.853,-0.619c-0.56,0.1 -0.939,0.907 -1.504,1.217c-0.784,0.428 -3.195,1.353 -3.195,1.353l0.12,0.696Z" style="fill:url(#_Linear16);"/><path d="M48.102,47.238c-0,0 -1.727,0.64 -2.447,0.724c-0.624,0.072 -1.409,-0.386 -1.873,-0.223c-0.463,0.163 -0.455,1.041 -0.908,1.201c-0.218,0.077 -1.567,-0.442 -2.05,-0.242c-0.412,0.17 -0.377,1.107 -0.764,1.112c-0.839,0.009 -1.382,-0.651 -1.771,-0.379c-0.249,0.173 -0.136,0.842 -0.251,1.196c-0.114,0.353 -0.456,0.392 -0.389,0.735c0.076,0.386 0.578,0.609 0.519,0.863c-0.128,0.542 -0.216,0.861 -0.068,1.093c0.147,0.233 0.634,0.206 0.953,0.302c0.485,0.146 1.176,0.975 1.953,0.572c0.415,-0.214 0.291,-1.135 0.664,-1.726c0.155,-0.245 1.217,0.284 1.529,0.107c0.388,-0.22 0.25,-1.204 0.437,-1.319c0.566,-0.35 1.562,0.356 1.992,0.12c0.431,-0.236 0.241,-1.113 0.59,-1.535c0.474,-0.575 2.257,-1.911 2.257,-1.911l-0.373,-0.69Z" style="fill:url(#_Linear17);"/><path d="M57.466,53.18c0,-0 1.73,0.631 2.332,1.033c0.523,0.35 0.824,1.207 1.283,1.383c0.459,0.176 1.021,-0.497 1.47,-0.326c0.216,0.082 0.907,1.352 1.404,1.512c0.425,0.137 1.005,-0.599 1.303,-0.352c0.646,0.537 0.631,1.391 1.104,1.436c0.302,0.029 0.649,-0.553 0.965,-0.749c0.317,-0.195 0.602,-0.003 0.773,-0.307c0.193,-0.344 -0.045,-0.839 0.164,-0.994c0.449,-0.33 0.722,-0.516 0.76,-0.789c0.038,-0.272 -0.349,-0.568 -0.53,-0.848c-0.275,-0.425 -0.265,-1.504 -1.118,-1.701c-0.455,-0.105 -0.957,0.677 -1.624,0.885c-0.277,0.087 -0.743,-1.004 -1.095,-1.071c-0.438,-0.084 -0.97,0.755 -1.188,0.722c-0.657,-0.1 -0.959,-1.283 -1.44,-1.383c-0.48,-0.099 -0.904,0.692 -1.443,0.788c-0.734,0.13 -2.957,-0.006 -2.957,-0.006l-0.163,0.767Z" style="fill:url(#_Linear18);"/><path d="M56.52,54.18c-0,-0 1.535,-1.409 2.246,-1.898c0.624,-0.428 1.606,-0.646 2.02,-1.033c0.333,-0.312 0.058,-0.91 0.462,-1.289c0.194,-0.182 1.747,-0.339 2.163,-0.774c0.356,-0.371 -0.004,-1.264 0.403,-1.448c0.881,-0.399 1.393,-0.002 1.678,-0.469c0.182,-0.299 -0.024,-0.585 -0.067,-1.012c-0.043,-0.426 0.571,-0.673 0.341,-1.004c-0.259,-0.372 -0.669,-0.359 -0.724,-0.654c-0.117,-0.631 -0.464,-1.247 -0.786,-1.472c-0.315,-0.22 -0.764,0.085 -1.146,0.123c-0.608,0.06 -1.869,-0.547 -2.502,0.238c-0.338,0.419 0.395,1.397 0.275,2.193c-0.049,0.331 -1.336,0.377 -1.583,0.708c-0.307,0.412 -0.184,1.577 -0.328,1.786c-0.435,0.632 -1.035,0.351 -1.313,0.749c-0.278,0.398 -0.152,1.119 -0.357,1.639c-0.308,0.783 -1.495,3.062 -1.495,3.062l0.713,0.555Z" style="fill:url(#_Linear19);"/></g><g><path d="M52.409,47.609c-2.314,-1.013 -4.672,-1.81 -7.067,-2.419c-0.604,-0.154 -1.21,-0.302 -1.819,-0.432c-1.218,-0.258 -2.445,-0.485 -3.69,-0.605c-0.33,-0.031 -0.662,-0.054 -0.995,-0.063c-0.5,-0.013 -0.996,0.004 -1.498,0.021c-0.162,-0.009 -0.3,0.116 -0.308,0.277c-0.008,0.162 0.116,0.3 0.278,0.308c0.458,0.064 0.907,0.144 1.362,0.214c0.303,0.047 0.603,0.094 0.906,0.134c1.768,0.238 3.524,0.498 5.245,0.936c2.44,0.622 4.821,1.501 7.158,2.579c0.263,0.117 0.571,0 0.689,-0.262c0.118,-0.262 0.001,-0.571 -0.261,-0.688Z" style="fill:#4e2a0a;"/><path d="M49.565,46.998l-1.775,0.836" style="fill:none;stroke:#4e2a0a;stroke-width:1.04px;"/><path d="M53.1,56.717c1.46,-1.215 2.949,-2.329 4.508,-3.279c1.068,-0.651 2.173,-1.214 3.287,-1.738c0.562,-0.264 1.13,-0.51 1.699,-0.752c0.57,-0.243 1.143,-0.479 1.719,-0.705c1.734,-0.679 3.5,-1.264 5.319,-1.711c0.147,-0.032 0.241,-0.177 0.209,-0.324c-0.031,-0.146 -0.176,-0.24 -0.323,-0.209c-1.876,0.344 -3.716,0.8 -5.509,1.417c-0.599,0.205 -1.192,0.431 -1.777,0.677c-0.584,0.245 -1.157,0.515 -1.728,0.795c-1.128,0.555 -2.228,1.182 -3.326,1.837c-1.603,0.956 -3.192,1.993 -4.73,3.179c-0.224,0.18 -0.26,0.508 -0.08,0.733c0.18,0.224 0.508,0.26 0.732,0.08Z" style="fill:#4e2a0a;"/><path d="M52.675,33.74l-0.016,-0.027c-0.005,-0.009 -0.028,0.013 -0.056,0.027c-0.1,0.05 -0.31,0.145 -0.555,0.28c-0.591,0.324 -1.374,0.817 -1.374,0.817c-0.237,0.162 -0.297,0.487 -0.135,0.724c0.163,0.237 0.488,0.297 0.725,0.134c-0,0 0.741,-0.553 1.256,-0.989c0.213,-0.18 0.377,-0.342 0.46,-0.418c0.023,-0.021 0.052,-0.034 0.045,-0.042c-0.012,-0.015 -0.024,-0.024 -0.037,-0.028c0.199,-0.142 0.211,-0.303 0.127,-0.426c-0.102,-0.147 -0.303,-0.184 -0.45,-0.083l0.01,0.031Z" style="fill:#4e2a0a;"/><path d="M51.643,39.134l-2.322,-0.718c-0.149,-0.062 -0.321,0.008 -0.383,0.158c-0.062,0.149 0.008,0.321 0.158,0.383l2.147,1.139c0.266,0.111 0.571,-0.015 0.681,-0.281c0.11,-0.265 -0.016,-0.57 -0.281,-0.681Z" style="fill:#4e2a0a;"/><path d="M54.288,74.269c0.041,-2.254 0.044,-4.75 -0.038,-7.393c-0.109,-3.496 -0.355,-7.247 -0.636,-11.04c-0.219,-2.946 -0.494,-5.913 -0.755,-8.805c-0.43,-4.76 -0.804,-9.32 -1.359,-13.187c-0.292,-2.03 -0.647,-3.863 -0.964,-5.452c-0.045,-0.274 -0.304,-0.46 -0.578,-0.415c-0.274,0.045 -0.46,0.303 -0.415,0.577c0.168,1.353 0.3,2.884 0.478,4.551c0.398,3.718 0.918,8.112 1.262,12.764c0.133,1.801 0.242,3.64 0.34,5.49c0.244,4.643 0.356,9.355 0.431,13.734c0.056,3.291 0.093,6.392 0.025,9.131c-0.013,0.61 0.472,1.115 1.082,1.127c0.61,0.013 1.115,-0.472 1.127,-1.082Z" style="fill:#4e2a0a;"/></g><g id="roots"><path d="M56.17,74.4c-0.069,0.658 -0.183,1.713 -0.092,2.703c0.066,0.726 0.233,1.418 0.568,1.936c0.195,0.302 0.483,0.584 0.847,0.824c0.597,0.394 1.388,0.713 2.073,1.024c0.46,0.208 0.876,0.383 1.069,0.636c0.163,0.21 0.208,0.492 0.199,0.787c-0.018,0.567 -0.2,1.167 -0.317,1.544c-0.051,0.133 0.015,0.282 0.148,0.333c0.133,0.051 0.282,-0.015 0.333,-0.148c0.185,-0.398 0.472,-1.035 0.574,-1.658c0.08,-0.491 0.021,-0.966 -0.206,-1.353c-0.157,-0.265 -0.449,-0.519 -0.817,-0.767c-0.464,-0.313 -1.066,-0.617 -1.623,-0.945c-0.488,-0.288 -0.944,-0.58 -1.147,-0.953c-0.202,-0.366 -0.253,-0.848 -0.265,-1.342c-0.021,-0.887 0.148,-1.818 0.249,-2.399c0.061,-0.439 -0.246,-0.846 -0.685,-0.907c-0.44,-0.061 -0.846,0.246 -0.908,0.685Z" style="fill:#2d0d00;"/><path d="M53.221,75.145c0.903,-0.053 2.316,-0.139 3.58,-0.093c0.844,0.031 1.617,0.092 2.048,0.317c0.046,0.023 0.03,0.084 0.038,0.137c0.023,0.139 0.029,0.292 0.028,0.45c-0.003,0.564 -0.049,1.173 0.07,1.64c0.118,0.461 0.353,0.828 0.768,1.05c0.349,0.186 0.828,0.289 1.393,0.302c1.264,0.028 3.061,-0.374 4.299,-0.136c0.733,0.119 1.537,0.4 2.303,0.676c0.925,0.332 1.78,0.657 2.34,0.889c0.101,0.055 0.227,0.017 0.281,-0.083c0.055,-0.101 0.018,-0.227 -0.083,-0.282c-0.598,-0.409 -1.544,-1.093 -2.604,-1.633c-0.651,-0.331 -1.344,-0.581 -1.981,-0.748c-1.28,-0.31 -3.174,-0.01 -4.493,-0.097c-0.301,-0.02 -0.56,-0.055 -0.742,-0.162c-0.063,-0.037 -0.034,-0.121 -0.043,-0.197c-0.018,-0.142 -0.014,-0.297 -0.007,-0.456c0.023,-0.568 0.082,-1.179 -0.022,-1.651c-0.106,-0.483 -0.359,-0.856 -0.785,-1.097c-0.461,-0.261 -1.21,-0.437 -2.078,-0.533c-1.455,-0.161 -3.282,-0.117 -4.385,-0.09c-0.495,0.021 -0.881,0.44 -0.86,0.936c0.02,0.496 0.439,0.881 0.935,0.861Z" style="fill:#2d0d00;"/><path d="M47.576,79.914c0.449,0.218 1.173,0.567 1.835,0.968c0.388,0.234 0.758,0.479 1.02,0.729c0.309,0.297 0.601,0.634 0.834,1.005c0.222,0.354 0.401,0.732 0.482,1.132c0.151,0.725 -0.247,1.634 -0.325,2.484c-0.026,0.284 -0.03,0.562 0.01,0.829c0.079,0.451 0.221,0.954 0.445,1.425c0.348,0.733 0.817,1.382 1.1,1.799c0.057,0.117 0.199,0.165 0.315,0.107c0.117,-0.057 0.165,-0.198 0.107,-0.315c-0.128,-0.393 -0.293,-0.985 -0.465,-1.621c-0.141,-0.518 -0.279,-1.055 -0.297,-1.529c-0.062,-0.818 0.398,-1.723 0.524,-2.537c0.047,-0.309 0.051,-0.607 0.011,-0.889c-0.083,-0.579 -0.297,-1.139 -0.586,-1.663c-0.276,-0.498 -0.63,-0.956 -1.011,-1.361c-0.32,-0.34 -0.772,-0.688 -1.254,-1.015c-0.69,-0.467 -1.447,-0.884 -1.917,-1.144c-0.44,-0.228 -0.983,-0.056 -1.212,0.384c-0.228,0.44 -0.056,0.983 0.384,1.212Z" style="fill:#2d0d00;"/><path d="M52.214,73.727c-0.28,0.556 -0.729,1.461 -1.309,2.278c-0.314,0.442 -0.657,0.864 -1.042,1.165c-1.065,0.838 -3.468,1.304 -4.896,2.088c-0.625,0.344 -1.102,0.741 -1.353,1.192c-0.323,0.599 -0.417,1.354 -0.243,2.163c0.294,1.36 1.225,2.86 1.785,3.76c0.088,0.174 0.3,0.244 0.474,0.156c0.174,-0.088 0.243,-0.3 0.155,-0.474c-0.309,-0.78 -0.767,-2.006 -0.964,-3.146c-0.109,-0.634 -0.148,-1.233 0.135,-1.65c0.144,-0.222 0.435,-0.362 0.766,-0.517c0.842,-0.395 1.992,-0.672 3.027,-0.991c0.91,-0.28 1.734,-0.607 2.29,-0.998c0.547,-0.386 1.059,-0.929 1.518,-1.513c0.694,-0.883 1.252,-1.868 1.596,-2.474c0.286,-0.535 0.085,-1.202 -0.45,-1.489c-0.535,-0.286 -1.202,-0.085 -1.489,0.45Z" style="fill:#2d0d00;"/><path d="M52.428,84.099c0.439,0.013 1.133,0.032 1.77,0.104c0.42,0.047 0.813,0.11 1.072,0.219c0.22,0.094 0.403,0.26 0.553,0.46c0.165,0.222 0.295,0.478 0.39,0.725c0.087,0.226 0.145,0.527 0.184,0.84c0.062,0.504 0.08,1.037 0.091,1.37c-0.001,0.115 0.092,0.209 0.206,0.209c0.115,0.001 0.208,-0.092 0.209,-0.206c0.015,-0.344 0.037,-0.894 0.011,-1.417c-0.018,-0.366 -0.063,-0.717 -0.143,-0.986c-0.112,-0.371 -0.286,-0.759 -0.527,-1.078c-0.181,-0.242 -0.406,-0.439 -0.667,-0.574c-0.299,-0.154 -0.76,-0.274 -1.258,-0.368c-0.654,-0.124 -1.373,-0.199 -1.827,-0.247c-0.262,-0.017 -0.489,0.181 -0.506,0.442c-0.018,0.262 0.18,0.489 0.442,0.507Z" style="fill:#2d0d00;"/></g><clipPath id="_clip20"><circle id="dirt-cover" serif:id="dirt cover" cx="50.407" cy="50.319" r="50"/></clipPath><g clip-path="url(#_clip20)"><path d="M10.452,87.3c26.529,-14.319 55.246,-19.327 86.764,-12.448c-7.126,18.922 -25.406,32.399 -46.809,32.399c-16.323,0 -30.83,-7.839 -39.955,-19.951Z" style="fill:url(#_Linear21);"/></g></g><defs><linearGradient id="_Linear1" x1="0" y1="0" x2="1" y2="0" gradientUnits="userSpaceOnUse" gradientTransform="matrix(6.12323e-15,100,-100,6.12323e-15,50,0)"><stop offset="0" style="stop-color:#205da1;stop-opacity:1"/><stop offset="1" style="stop-color:#9ecaec;stop-opacity:1"/></linearGradient><linearGradient id="_Linear3" x1="0" y1="0" x2="1" y2="0" gradientUnits="userSpaceOnUse" gradientTransform="matrix(2.54923,16.0347,-16.0347,2.54923,57.8606,58.2778)"><stop offset="0" style="stop-color:#4aa31d;stop-opacity:1"/><stop offset="1" style="stop-color:#325c10;stop-opacity:1"/></linearGradient><linearGradient id="_Linear5" x1="0" y1="0" x2="1" y2="0" gradientUnits="userSpaceOnUse" gradientTransform="matrix(3.47165,36.3549,-36.3549,3.47165,96.9352,70.6043)"><stop offset="0" style="stop-color:#733500;stop-opacity:1"/><stop offset="1" style="stop-color:#180c00;stop-opacity:1"/></linearGradient><linearGradient id="_Linear6" x1="0" y1="0" x2="1" y2="0" gradientUnits="userSpaceOnUse" gradientTransform="matrix(0.780141,37.6201,-37.6201,0.780141,50.411,22.9749)"><stop offset="0" style="stop-color:#437a1f;stop-opacity:1"/><stop offset="1" style="stop-color:#036813;stop-opacity:1"/></linearGradient><linearGradient id="_Linear7" x1="0" y1="0" x2="1" y2="0" gradientUnits="userSpaceOnUse" gradientTransform="matrix(0.780141,37.6201,-37.6201,0.780141,50.411,22.9749)"><stop offset="0" style="stop-color:#437a1f;stop-opacity:1"/><stop offset="1" style="stop-color:#036813;stop-opacity:1"/></linearGradient><linearGradient id="_Linear8" x1="0" y1="0" x2="1" y2="0" gradientUnits="userSpaceOnUse" gradientTransform="matrix(-29.9575,22.7691,-22.7691,-29.9575,76.4678,55.4315)"><stop offset="0" style="stop-color:#437a1f;stop-opacity:1"/><stop offset="1" style="stop-color:#036813;stop-opacity:1"/></linearGradient><linearGradient id="_Linear9" x1="0" y1="0" x2="1" y2="0" gradientUnits="userSpaceOnUse" gradientTransform="matrix(0.780141,37.6201,-37.6201,0.780141,50.411,22.9749)"><stop offset="0" style="stop-color:#437a1f;stop-opacity:1"/><stop offset="1" style="stop-color:#036813;stop-opacity:1"/></linearGradient><linearGradient id="_Linear10" x1="0" y1="0" x2="1" y2="0" gradientUnits="userSpaceOnUse" gradientTransform="matrix(0.780141,37.6201,-37.6201,0.780141,50.411,22.9749)"><stop offset="0" style="stop-color:#437a1f;stop-opacity:1"/><stop offset="1" style="stop-color:#036813;stop-opacity:1"/></linearGradient><linearGradient id="_Linear11" x1="0" y1="0" x2="1" y2="0" gradientUnits="userSpaceOnUse" gradientTransform="matrix(0.780141,37.6201,-37.6201,0.780141,50.411,22.9749)"><stop offset="0" style="stop-color:#437a1f;stop-opacity:1"/><stop offset="1" style="stop-color:#036813;stop-opacity:1"/></linearGradient><linearGradient id="_Linear12" x1="0" y1="0" x2="1" y2="0" gradientUnits="userSpaceOnUse" gradientTransform="matrix(0.780141,37.6201,-37.6201,0.780141,50.411,22.9749)"><stop offset="0" style="stop-color:#437a1f;stop-opacity:1"/><stop offset="1" style="stop-color:#036813;stop-opacity:1"/></linearGradient><linearGradient id="_Linear13" x1="0" y1="0" x2="1" y2="0" gradientUnits="userSpaceOnUse" gradientTransform="matrix(0.780141,37.6201,-37.6201,0.780141,50.411,22.9749)"><stop offset="0" style="stop-color:#437a1f;stop-opacity:1"/><stop offset="1" style="stop-color:#036813;stop-opacity:1"/></linearGradient><linearGradient id="_Linear14" x1="0" y1="0" x2="1" y2="0" gradientUnits="userSpaceOnUse" gradientTransform="matrix(0.780141,37.6201,-37.6201,0.780141,50.411,22.9749)"><stop offset="0" style="stop-color:#437a1f;stop-opacity:1"/><stop offset="1" style="stop-color:#036813;stop-opacity:1"/></linearGradient><linearGradient id="_Linear15" x1="0" y1="0" x2="1" y2="0" gradientUnits="userSpaceOnUse" gradientTransform="matrix(0.780141,37.6201,-37.6201,0.780141,50.0323,22.884)"><stop offset="0" style="stop-color:#437a1f;stop-opacity:1"/><stop offset="1" style="stop-color:#036813;stop-opacity:1"/></linearGradient><linearGradient id="_Linear16" x1="0" y1="0" x2="1" y2="0" gradientUnits="userSpaceOnUse" gradientTransform="matrix(0.780141,37.6201,-37.6201,0.780141,50.411,22.9749)"><stop offset="0" style="stop-color:#437a1f;stop-opacity:1"/><stop offset="1" style="stop-color:#036813;stop-opacity:1"/></linearGradient><linearGradient id="_Linear17" x1="0" y1="0" x2="1" y2="0" gradientUnits="userSpaceOnUse" gradientTransform="matrix(0.780141,37.6201,-37.6201,0.780141,50.411,22.9749)"><stop offset="0" style="stop-color:#437a1f;stop-opacity:1"/><stop offset="1" style="stop-color:#036813;stop-opacity:1"/></linearGradient><linearGradient id="_Linear18" x1="0" y1="0" x2="1" y2="0" gradientUnits="userSpaceOnUse" gradientTransform="matrix(0.780141,37.6201,-37.6201,0.780141,50.411,22.9749)"><stop offset="0" style="stop-color:#437a1f;stop-opacity:1"/><stop offset="1" style="stop-color:#036813;stop-opacity:1"/></linearGradient><linearGradient id="_Linear19" x1="0" y1="0" x2="1" y2="0" gradientUnits="userSpaceOnUse" gradientTransform="matrix(0.780141,37.6201,-37.6201,0.780141,50.411,22.9749)"><stop offset="0" style="stop-color:#437a1f;stop-opacity:1"/><stop offset="1" style="stop-color:#036813;stop-opacity:1"/></linearGradient><linearGradient id="_Linear21" x1="0" y1="0" x2="1" y2="0" gradientUnits="userSpaceOnUse" gradientTransform="matrix(6.23153,34.462,-34.462,6.23153,53.8336,72.789)"><stop offset="0" style="stop-color:#478818;stop-opacity:1"/><stop offset="0.57" style="stop-color:#273308;stop-opacity:0.31"/><stop offset="1" style="stop-color:#180c00;stop-opacity:0"/></linearGradient></defs></svg>