<?xml version="1.0" encoding="UTF-8" standalone="no"?>
<!DOCTYPE svg PUBLIC "-//W3C//DTD SVG 1.1//EN" "http://www.w3.org/Graphics/SVG/1.1/DTD/svg11.dtd">
<svg width="100%" height="100%" viewBox="0 0 500 500" version="1.1" xmlns="http://www.w3.org/2000/svg" xmlns:xlink="http://www.w3.org/1999/xlink" xml:space="preserve" xmlns:serif="http://www.serif.com/" style="fill-rule:evenodd;clip-rule:evenodd;stroke-linejoin:round;stroke-miterlimit:2;">
    <circle cx="250" cy="250" r="250" style="fill:url(#_Linear1);"/>
    <path d="M116.718,461.499C91.578,445.613 69.46,425.37 51.43,401.833L51.437,401.837C128.41,381.54 219.287,387.996 284.535,422.909C245.285,448.55 198.402,463.46 148.063,463.46C137.448,463.46 126.987,462.797 116.718,461.51L116.718,461.499Z" style="fill:url(#_Linear2);"/>
    <path d="M354.808,477.015C304.864,474.653 244.879,465.825 206.519,428.807C269.976,378.471 379.477,364.673 453.432,395.257L453.44,395.257C428.324,430.355 394.354,458.696 354.808,477.003L354.808,477.015Z" style="fill:url(#_Linear3);"/>
    <path d="M386.472,459.449C347.222,485.09 300.338,500 250,500C196.722,500 147.315,483.298 106.732,454.849C190.72,416.622 307.411,417.146 386.472,459.449Z" style="fill:url(#_Linear4);"/>
    <defs>
        <linearGradient id="_Linear1" x1="0" y1="0" x2="1" y2="0" gradientUnits="userSpaceOnUse" gradientTransform="matrix(3.06162e-14,500,-500,3.06162e-14,250,0)"><stop offset="0" style="stop-color:rgb(0,120,252);stop-opacity:1"/><stop offset="1" style="stop-color:rgb(156,224,255);stop-opacity:1"/></linearGradient>
        <linearGradient id="_Linear2" x1="0" y1="0" x2="1" y2="0" gradientUnits="userSpaceOnUse" gradientTransform="matrix(-8.87826,118.351,-118.351,-8.87826,222.923,379.077)"><stop offset="0" style="stop-color:rgb(121,213,81);stop-opacity:1"/><stop offset="1" style="stop-color:rgb(26,89,29);stop-opacity:1"/></linearGradient>
        <linearGradient id="_Linear3" x1="0" y1="0" x2="1" y2="0" gradientUnits="userSpaceOnUse" gradientTransform="matrix(10.4505,114.096,-114.096,10.4505,344.467,367.719)"><stop offset="0" style="stop-color:rgb(80,169,70);stop-opacity:1"/><stop offset="1" style="stop-color:rgb(16,61,11);stop-opacity:1"/></linearGradient>
        <linearGradient id="_Linear4" x1="0" y1="0" x2="1" y2="0" gradientUnits="userSpaceOnUse" gradientTransform="matrix(4.47488e-15,73.0804,-73.0804,4.47488e-15,250,426.92)"><stop offset="0" style="stop-color:rgb(93,151,61);stop-opacity:1"/><stop offset="1" style="stop-color:rgb(39,86,11);stop-opacity:1"/></linearGradient>
    </defs>
</svg>
