<?xml version="1.0" encoding="UTF-8" standalone="no"?><!DOCTYPE svg PUBLIC "-//W3C//DTD SVG 1.1//EN" "http://www.w3.org/Graphics/SVG/1.1/DTD/svg11.dtd"><svg width="100%" height="100%" viewBox="0 0 100 100" version="1.1" xmlns="http://www.w3.org/2000/svg" xmlns:xlink="http://www.w3.org/1999/xlink" xml:space="preserve" xmlns:serif="http://www.serif.com/" style="fill-rule:evenodd;clip-rule:evenodd;stroke-linejoin:round;stroke-miterlimit:2;"><g id="_4---Baum" serif:id="4 - Baum"><circle id="bg" cx="50" cy="50" r="50" style="fill:url(#_Linear1);"/><clipPath id="_clip2"><path id="bg1" serif:id="bg" d="M49.593,-0.319c27.596,-0 50,22.404 50,50c0,27.595 -22.404,50 -50,50c-27.596,-0 -50,-22.405 -50,-50c0,-27.596 22.404,-50 50,-50Z"/></clipPath><g clip-path="url(#_clip2)"><path d="M3.174,80.865c27.732,-5.702 55.429,-3.525 83.077,8.375c-8.134,16.597 -26.157,27.012 -45.512,24.592c-18.608,-2.327 -33.102,-15.851 -37.565,-32.967Z" style="fill:url(#_Linear3);"/></g><clipPath id="_clip4"><path id="dirt" d="M49.593,-0.319c27.596,-0 50,22.404 50,50c0,27.595 -22.404,50 -50,50c-27.596,-0 -50,-22.405 -50,-50c0,-27.596 22.404,-50 50,-50Z"/></clipPath><g clip-path="url(#_clip4)"><path d="M17.712,93.312c25.807,-15.583 54.249,-21.972 86.062,-16.623c-6.203,19.244 -23.811,33.588 -45.19,34.622c-16.303,0.788 -31.172,-6.341 -40.872,-17.999Z" style="fill:url(#_Linear5);"/></g><g id="roots"><path d="M52.501,79.196c0.012,0.697 0.028,1.805 0.166,2.826c0.103,0.768 0.272,1.489 0.537,1.988c0.153,0.288 0.353,0.531 0.599,0.733c0.381,0.312 0.859,0.539 1.335,0.768c0.37,0.178 0.743,0.347 1.005,0.636c0.304,0.329 0.61,0.768 0.898,1.232c0.475,0.767 0.898,1.585 1.16,2.097c0.057,0.131 0.209,0.191 0.339,0.134c0.131,-0.056 0.191,-0.208 0.134,-0.339c-0.199,-0.554 -0.518,-1.444 -0.905,-2.284c-0.257,-0.554 -0.548,-1.078 -0.844,-1.483c-0.505,-0.674 -1.401,-1.021 -2.079,-1.527c-0.198,-0.148 -0.366,-0.316 -0.466,-0.541c-0.177,-0.397 -0.247,-0.963 -0.288,-1.558c-0.066,-0.965 -0.014,-2.004 0.017,-2.657c0.007,-0.444 -0.348,-0.81 -0.792,-0.816c-0.444,-0.007 -0.809,0.348 -0.816,0.791Z" style="fill:#2d0d00;"/><path d="M50.018,79.875c0.781,-0.038 2.011,-0.1 3.125,-0.057c0.731,0.028 1.41,0.082 1.827,0.254c0.164,0.068 0.174,0.272 0.231,0.458c0.136,0.442 0.246,0.924 0.461,1.297c0.173,0.3 0.397,0.55 0.705,0.713c0.399,0.211 0.835,0.353 1.355,0.425c0.521,0.073 1.134,0.084 1.892,0.051l1.096,0.037c0.638,0.101 1.336,0.345 2.005,0.576c0.815,0.282 1.57,0.544 2.065,0.737c0.101,0.055 0.227,0.018 0.282,-0.083c0.054,-0.101 0.017,-0.227 -0.084,-0.282c-0.52,-0.37 -1.335,-0.99 -2.263,-1.476c-0.571,-0.298 -1.185,-0.516 -1.746,-0.665c-0.178,-0.045 -0.369,-0.075 -0.569,-0.099c-0.257,-0.03 -0.529,-0.041 -0.81,-0.045c-0.66,-0.005 -1.191,-0.039 -1.641,-0.125c-0.338,-0.064 -0.62,-0.165 -0.874,-0.316c-0.185,-0.109 -0.197,-0.35 -0.255,-0.574c-0.122,-0.466 -0.222,-0.959 -0.426,-1.332c-0.182,-0.332 -0.441,-0.585 -0.793,-0.747c-0.429,-0.197 -1.072,-0.333 -1.8,-0.416c-1.292,-0.148 -2.88,-0.136 -3.834,-0.128c-0.495,0.014 -0.887,0.428 -0.873,0.924c0.014,0.496 0.428,0.887 0.924,0.873Z" style="fill:#2d0d00;"/><path d="M47.836,80.748c-0.379,0.701 -1.011,1.878 -1.304,2.936c-0.169,0.61 -0.233,1.189 -0.136,1.657c0.078,0.381 0.276,0.74 0.584,1.061c0.426,0.442 1.076,0.829 1.618,1.215c0.256,0.183 0.516,0.322 0.58,0.535c0.072,0.237 -0.072,0.491 -0.209,0.76c-0.213,0.416 -0.479,0.834 -0.633,1.218c-0.137,0.341 -0.204,0.662 -0.158,0.951c0.094,0.426 0.329,0.853 0.693,1.204c0.464,0.448 1.057,0.792 1.435,1.01c0.103,0.08 0.251,0.061 0.331,-0.042c0.079,-0.103 0.06,-0.251 -0.043,-0.331c-0.276,-0.281 -0.696,-0.731 -1.01,-1.221c-0.157,-0.246 -0.267,-0.503 -0.272,-0.755c-0.015,-0.195 0.144,-0.392 0.285,-0.621c0.3,-0.484 0.676,-1.005 0.848,-1.502c0.122,-0.351 0.142,-0.698 0.062,-1.029c-0.081,-0.34 -0.307,-0.667 -0.628,-0.979c-0.352,-0.343 -0.845,-0.674 -1.283,-1.023c-0.295,-0.234 -0.594,-0.443 -0.639,-0.733c-0.055,-0.353 0.102,-0.795 0.286,-1.252c0.329,-0.815 0.837,-1.642 1.154,-2.166c0.246,-0.431 0.096,-0.981 -0.335,-1.227c-0.43,-0.246 -0.98,-0.096 -1.226,0.334Z" style="fill:#2d0d00;"/><path d="M48.385,78.097c-0.202,0.486 -0.499,1.278 -0.934,2.01c-0.22,0.37 -0.429,0.745 -0.71,1.014c-0.836,0.787 -2.468,1.276 -3.611,2.027c-0.408,0.268 -0.777,0.54 -1.054,0.869c-0.445,0.542 -0.808,1.215 -1.06,1.949c-0.374,1.088 -0.561,2.23 -0.671,2.947l-0.087,0.326l0.651,0.174l0.087,-0.325c0.247,-0.633 0.648,-1.641 1.212,-2.559c0.305,-0.498 0.673,-0.939 1.088,-1.264c0.925,-0.745 2.609,-0.879 3.881,-1.309c0.489,-0.165 0.914,-0.386 1.282,-0.619c0.54,-0.335 1.033,-0.832 1.511,-1.348c0.701,-0.757 1.266,-1.609 1.63,-2.133l0.88,-1.607l-3.215,-1.76l-0.88,1.608Z" style="fill:#2d0d00;"/><path d="M53.586,84.064c-0.032,0.46 -0.085,1.198 -0.08,1.911c0.003,0.48 0.03,0.949 0.103,1.321c0.127,0.64 0.767,1.261 0.999,1.825c0.043,0.106 0.076,0.208 0.053,0.308c-0.056,0.237 -0.279,0.477 -0.546,0.708c-0.423,0.367 -0.96,0.695 -1.301,0.904c-0.1,0.057 -0.135,0.184 -0.078,0.283c0.056,0.1 0.183,0.135 0.283,0.078c0.434,-0.228 1.155,-0.613 1.648,-1.044c0.281,-0.247 0.484,-0.517 0.562,-0.778c0.065,-0.214 0.04,-0.44 -0.04,-0.677c-0.18,-0.534 -0.761,-1.131 -0.84,-1.729c-0.044,-0.334 -0.038,-0.751 -0.013,-1.178c0.04,-0.687 0.136,-1.394 0.195,-1.835c0.027,-0.261 -0.163,-0.494 -0.424,-0.521c-0.261,-0.027 -0.494,0.163 -0.521,0.424Z" style="fill:#2d0d00;"/><path d="M58.288,82.935c0.358,0.266 0.918,0.681 1.386,1.095c0.298,0.264 0.571,0.506 0.668,0.711c-0.012,-0.025 -0.021,-0.083 0.004,-0.076c0.082,0.022 -0.077,0.163 -0.135,0.247c-0.114,0.167 -0.238,0.336 -0.321,0.51c-0.081,0.172 -0.141,0.344 -0.141,0.521c0.012,0.3 0.068,0.701 0.19,1.113c0.165,0.561 0.406,1.119 0.554,1.484c0.016,0.07 0.086,0.114 0.155,0.097c0.07,-0.016 0.113,-0.085 0.097,-0.155c-0.026,-0.383 -0.049,-0.974 -0.065,-1.544c-0.011,-0.356 -0.017,-0.691 0.023,-0.937c0.019,-0.155 0.186,-0.26 0.302,-0.394c0.166,-0.192 0.306,-0.394 0.383,-0.59c0.09,-0.233 0.084,-0.469 -0.008,-0.717c-0.097,-0.255 -0.332,-0.58 -0.638,-0.919c-0.493,-0.546 -1.19,-1.141 -1.609,-1.501c-0.291,-0.233 -0.717,-0.186 -0.95,0.105c-0.233,0.291 -0.186,0.717 0.105,0.95Z" style="fill:#2d0d00;"/><path d="M53.417,77.921c0,0 -0.685,-0.82 -0.743,-1.322c-0.186,-1.611 -0.376,-8.343 -0.376,-8.343c0,-0 0.493,-0.345 0.58,-0.595c0.086,-0.25 0.037,-0.716 -0.06,-0.904c-0.088,-0.169 -0.524,-0.225 -0.524,-0.225l-0.009,-3.017l-0.281,-7.453c-0,0 -2.869,0.012 -2.87,0.095c-0.008,3.18 -0.018,7.357 -0.018,7.357l-0.235,7.677c0,-0 -0.364,0.152 -0.464,0.309c-0.101,0.158 -0.212,0.473 -0.141,0.636c0.071,0.162 0.566,0.338 0.566,0.338c-0,0 0.016,3.183 -0.13,4.262c-0.105,0.773 -0.748,2.216 -0.748,2.216c-0.019,1.006 1.495,0.738 2.502,0.757c1.006,0.02 2.931,-0.781 2.951,-1.788Z" style="fill:url(#_Linear6);"/></g><path d="M35.84,56.422c1.18,0.707 3.582,0.728 4.747,1.546c1.101,0.774 1.001,2.833 2.239,3.36c1.423,0.604 4.629,-0.041 6.295,0.267c1.318,0.244 2.534,1.707 3.698,1.583c1.164,-0.125 1.97,-2.065 3.287,-2.33c1.324,-0.267 3.148,1.168 4.656,0.728c1.722,-0.501 4.302,-2.187 5.671,-3.737c1.35,-1.528 2.296,-3.538 2.546,-5.562c0.279,-2.254 -0.656,-5.939 -0.874,-7.961c-0.15,-1.391 -0.358,-2.778 -0.436,-4.174c-0.098,-1.742 0.576,-4.655 -0.151,-6.279c-0.727,-1.624 -3.031,-2.72 -4.213,-3.466c-0.86,-0.544 -2.078,-0.387 -2.88,-1.014c-0.853,-0.666 -1.984,-1.768 -2.24,-2.986c-0.285,-1.36 1.046,-3.868 0.527,-5.171c-0.519,-1.304 -2.82,-1.754 -3.641,-2.651c-0.679,-0.741 -0.313,-2.462 -1.282,-2.73c-1.427,-0.394 -5.38,-0.318 -7.283,0.366c-1.748,0.628 -3.175,2.431 -4.135,3.738c-0.87,1.185 -1.253,2.768 -1.624,4.101c-0.354,1.268 -0.056,3.136 -0.605,3.901c-0.54,0.752 -2.058,0.234 -2.689,0.687c-0.626,0.45 -0.998,1.271 -1.099,2.035c-0.11,0.834 0.703,2.004 0.441,2.97c-0.318,1.172 -1.71,2.801 -2.347,4.066c-0.573,1.138 -1.207,2.49 -1.474,3.524c-0.223,0.866 0.083,1.811 -0.126,2.681c-0.286,1.198 -1.471,2.98 -1.594,4.508c-0.124,1.529 0.478,3.779 0.854,4.663c0.201,0.473 1.018,0.299 1.401,0.641c0.622,0.556 1.312,2.085 2.331,2.696Z" style="fill:url(#_Linear7);"/><clipPath id="_clip8"><path id="dirt-cover" serif:id="dirt cover" d="M49.593,-0.319c27.596,-0 50,22.404 50,50c0,27.595 -22.404,50 -50,50c-27.596,-0 -50,-22.405 -50,-50c0,-27.596 22.404,-50 50,-50Z"/></clipPath><g clip-path="url(#_clip8)"><path d="M17.712,93.312c25.807,-15.583 54.249,-21.972 86.062,-16.623c-6.203,19.244 -23.811,33.588 -45.19,34.622c-16.303,0.788 -31.172,-6.341 -40.872,-17.999Z" style="fill:url(#_Linear9);"/></g></g><defs><linearGradient id="_Linear1" x1="0" y1="0" x2="1" y2="0" gradientUnits="userSpaceOnUse" gradientTransform="matrix(6.12323e-15,100,-100,6.12323e-15,50,0)"><stop offset="0" style="stop-color:#205da1;stop-opacity:1"/><stop offset="1" style="stop-color:#9ecaec;stop-opacity:1"/></linearGradient><linearGradient id="_Linear3" x1="0" y1="0" x2="1" y2="0" gradientUnits="userSpaceOnUse" gradientTransform="matrix(0.480627,14.4469,-14.4469,0.480627,52.4775,73.447)"><stop offset="0" style="stop-color:#4aa31d;stop-opacity:1"/><stop offset="1" style="stop-color:#2a4e0e;stop-opacity:1"/></linearGradient><linearGradient id="_Linear5" x1="0" y1="0" x2="1" y2="0" gradientUnits="userSpaceOnUse" gradientTransform="matrix(5.22329,36.1448,-36.1448,5.22329,103.289,72.4599)"><stop offset="0" style="stop-color:#733500;stop-opacity:1"/><stop offset="1" style="stop-color:#180c00;stop-opacity:1"/></linearGradient><linearGradient id="_Linear6" x1="0" y1="0" x2="1" y2="0" gradientUnits="userSpaceOnUse" gradientTransform="matrix(-0.410797,18.4313,-18.4313,-0.410797,50.8872,60.5322)"><stop offset="0" style="stop-color:#461800;stop-opacity:1"/><stop offset="0.1" style="stop-color:#5d2d06;stop-opacity:1"/><stop offset="0.2" style="stop-color:#74410c;stop-opacity:1"/><stop offset="0.5" style="stop-color:#7e4a0f;stop-opacity:1"/><stop offset="1" style="stop-color:#2d0d00;stop-opacity:1"/></linearGradient><linearGradient id="_Linear7" x1="0" y1="0" x2="1" y2="0" gradientUnits="userSpaceOnUse" gradientTransform="matrix(0.444826,49.1052,-49.1052,0.444826,50.3811,15.7958)"><stop offset="0" style="stop-color:#68941e;stop-opacity:1"/><stop offset="1" style="stop-color:#036813;stop-opacity:1"/></linearGradient><linearGradient id="_Linear9" x1="0" y1="0" x2="1" y2="0" gradientUnits="userSpaceOnUse" gradientTransform="matrix(7.88854,34.1208,-34.1208,7.88854,60.3428,76.7236)"><stop offset="0" style="stop-color:#478818;stop-opacity:1"/><stop offset="0.57" style="stop-color:#273308;stop-opacity:0.31"/><stop offset="1" style="stop-color:#180c00;stop-opacity:0"/></linearGradient></defs></svg>