<?xml version="1.0" encoding="UTF-8" standalone="no"?><!DOCTYPE svg PUBLIC "-//W3C//DTD SVG 1.1//EN" "http://www.w3.org/Graphics/SVG/1.1/DTD/svg11.dtd"><svg width="100%" height="100%" viewBox="0 0 175 175" version="1.1" xmlns="http://www.w3.org/2000/svg" xmlns:xlink="http://www.w3.org/1999/xlink" xml:space="preserve" xmlns:serif="http://www.serif.com/" style="fill-rule:evenodd;clip-rule:evenodd;stroke-linejoin:round;stroke-miterlimit:1.41421;"><g><path d="M76.894,48.217l10.606,-48.217l10.606,48.217" style="fill:#abc5ff;"/><path d="M76.894,126.783l10.606,48.217l10.606,-48.217" style="fill:#abc5ff;"/><path d="M126.783,76.894l48.217,10.606l-48.217,10.606" style="fill:#abc5ff;"/><path d="M48.217,76.894l-48.217,10.606l48.217,10.606" style="fill:#abc5ff;"/><path d="M122.7,67.088l49.319,-2.235l-43.829,22.724" style="fill:#abc5ff;"/><path d="M46.81,87.423l-43.829,22.724l49.319,-2.235" style="fill:#abc5ff;"/><path d="M116.217,58.673l47.06,-14.923l-36.453,33.293" style="fill:#abc5ff;"/><path d="M48.176,97.957l-36.453,33.293l47.06,-14.923" style="fill:#abc5ff;"/><path d="M107.778,52.223l41.594,-26.595l-26.595,41.594" style="fill:#abc5ff;"/><path d="M52.223,107.778l-26.595,41.594l41.594,-26.595" style="fill:#abc5ff;"/><path d="M97.957,48.176l33.293,-36.453l-14.923,47.06" style="fill:#abc5ff;"/><path d="M58.673,116.217l-14.923,47.06l33.293,-36.453" style="fill:#abc5ff;"/><path d="M87.423,46.81l22.724,-43.829l-2.235,49.319" style="fill:#abc5ff;"/><path d="M67.088,122.7l-2.235,49.319l22.724,-43.829" style="fill:#abc5ff;"/><path d="M67.088,52.3l-2.235,-49.319l22.724,43.829" style="fill:#abc5ff;"/><path d="M87.423,128.19l22.724,43.829l-2.235,-49.319" style="fill:#abc5ff;"/><path d="M58.673,58.783l-14.923,-47.06l33.293,36.453" style="fill:#abc5ff;"/><path d="M97.957,126.824l33.293,36.453l-14.923,-47.06" style="fill:#abc5ff;"/><path d="M52.223,67.222l-26.595,-41.594l41.594,26.595" style="fill:#abc5ff;"/><path d="M107.778,122.777l41.594,26.595l-26.595,-41.594" style="fill:#abc5ff;"/><path d="M48.176,77.043l-36.453,-33.293l47.06,14.923" style="fill:#abc5ff;"/><path d="M116.217,116.327l47.06,14.923l-36.453,-33.293" style="fill:#abc5ff;"/><path d="M46.81,87.577l-43.829,-22.724l49.319,2.235" style="fill:#abc5ff;"/><path d="M122.7,107.912l49.319,2.235l-43.829,-22.724" style="fill:#abc5ff;"/><circle cx="87.5" cy="87.5" r="45.15" style="fill:#abc5ff;"/></g><g><path d="M91.439,44.374l14.308,-24.972l-0.096,28.78" style="fill:#9690ff;"/><path d="M83.561,130.626l-14.308,24.972l0.096,-28.78" style="fill:#9690ff;"/><path d="M112.475,52.122l24.876,-14.473l-14.473,24.876" style="fill:#9690ff;"/><path d="M62.525,122.878l-24.876,14.473l14.473,-24.876" style="fill:#9690ff;"/><path d="M126.818,69.349l28.78,-0.096l-24.972,14.308" style="fill:#9690ff;"/><path d="M48.182,105.651l-28.78,0.096l24.972,-14.308" style="fill:#9690ff;"/><path d="M130.626,91.439l24.972,14.308l-28.78,-0.096" style="fill:#9690ff;"/><path d="M44.374,83.561l-24.972,-14.308l28.78,0.096" style="fill:#9690ff;"/><path d="M122.878,112.475l14.473,24.876l-24.876,-14.473" style="fill:#9690ff;"/><path d="M52.122,62.525l-14.473,-24.876l24.876,14.473" style="fill:#9690ff;"/><path d="M105.651,126.818l0.096,28.78l-14.308,-24.972" style="fill:#9690ff;"/><path d="M69.349,48.182l-0.096,-28.78l14.308,24.972" style="fill:#9690ff;"/><path d="M99.131,44.092c23.958,6.419 38.196,31.082 31.777,55.039c-6.419,23.958 -31.082,38.196 -55.039,31.777c-23.958,-6.419 -38.196,-31.082 -31.777,-55.039c6.419,-23.958 31.082,-38.196 55.039,-31.777Z" style="fill:#9690ff;"/></g><g><g id="Layer1"></g><path d="M69.311,64.853l18.189,-39.853l18.189,39.853" style="fill:#967cff;"/><path d="M105.689,109.147l-18.189,39.853l-18.189,-39.853" style="fill:#967cff;"/><path d="M82.822,58.726l35.678,-25.42l-4.175,43.609" style="fill:#967cff;"/><path d="M92.178,115.274l-35.678,25.42l4.175,-43.609" style="fill:#967cff;"/><path d="M97.585,60.175l43.609,-4.175l-25.42,35.678" style="fill:#967cff;"/><path d="M77.415,113.825l-43.609,4.175l25.42,-35.678" style="fill:#967cff;"/><path d="M109.647,68.811l39.853,18.189l-39.853,18.189" style="fill:#967cff;"/><path d="M65.353,105.189l-39.853,-18.189l39.853,-18.189" style="fill:#967cff;"/><path d="M115.774,82.322l25.42,35.678l-43.609,-4.175" style="fill:#967cff;"/><path d="M59.226,91.678l-25.42,-35.678l43.609,4.175" style="fill:#967cff;"/><path d="M114.325,97.085l4.175,43.609l-35.678,-25.42" style="fill:#967cff;"/><path d="M60.675,76.915l-4.175,-43.609l35.678,25.42" style="fill:#967cff;"/><circle cx="87.5" cy="87.5" r="28.348" style="fill:#967cff;"/></g></svg>