<?xml version="1.0" encoding="UTF-8" standalone="no"?><!DOCTYPE svg PUBLIC "-//W3C//DTD SVG 1.1//EN" "http://www.w3.org/Graphics/SVG/1.1/DTD/svg11.dtd"><svg width="100%" height="100%" viewBox="0 0 100 100" version="1.1" xmlns="http://www.w3.org/2000/svg" xmlns:xlink="http://www.w3.org/1999/xlink" xml:space="preserve" xmlns:serif="http://www.serif.com/" style="fill-rule:evenodd;clip-rule:evenodd;stroke-linejoin:round;stroke-miterlimit:2;"><g id="_4---Baumriese" serif:id="4 - Baumriese"><circle id="bg" cx="50" cy="50" r="50" style="fill:url(#_Linear1);"/><clipPath id="_clip2"><path id="bg1" serif:id="bg" d="M49.912,0c27.596,0 50,22.404 50,50c0,27.596 -22.404,50 -50,50c-27.595,0 -50,-22.404 -50,-50c0,-27.596 22.405,-50 50,-50Z"/></clipPath><g clip-path="url(#_clip2)"><path d="M3.493,81.184c27.732,-5.701 55.429,-3.525 83.077,8.375c-8.134,16.597 -26.157,27.013 -45.511,24.592c-18.608,-2.327 -33.102,-15.851 -37.566,-32.967Z" style="fill:url(#_Linear3);"/></g><clipPath id="_clip4"><path id="dirt" d="M49.968,0.034c27.596,0 50,22.405 50,50c0,27.596 -22.404,50 -50,50c-27.595,0 -50,-22.404 -50,-50c0,-27.595 22.405,-50 50,-50Z"/></clipPath><g clip-path="url(#_clip4)"><path d="M18.087,93.666c25.807,-15.583 54.249,-21.972 86.062,-16.623c-6.203,19.244 -23.811,33.588 -45.189,34.622c-16.304,0.788 -31.172,-6.341 -40.873,-17.999Z" style="fill:url(#_Linear5);"/></g><g><clipPath id="_clip6"><circle cx="49.912" cy="50" r="50"/></clipPath><g clip-path="url(#_clip6)"><path d="M41.493,79.341c-1.079,1.408 -2.754,3.618 -4.272,5.915c-1.019,1.541 -1.999,3.03 -2.563,4.399c-0.551,1.271 -0.943,2.672 -1.183,4.088c-0.393,2.317 -0.463,4.575 -0.492,5.969c-0.051,0.493 0.306,0.934 0.798,0.986c0.492,0.052 0.934,-0.305 0.986,-0.798c0.247,-1.288 0.652,-3.374 1.396,-5.454c0.396,-1.107 0.919,-2.179 1.551,-3.12c0.712,-1.021 1.766,-2.09 2.92,-3.128c1.92,-1.726 4.081,-3.188 5.427,-4.164c1.295,-1.261 1.323,-3.336 0.062,-4.631c-1.26,-1.295 -3.335,-1.323 -4.63,-0.062Z" style="fill:#4a3e06;"/><path d="M42.382,92.78c-0.535,0.266 -1.476,0.47 -2.525,0.64c-1.612,0.261 -3.445,0.425 -4.628,0.532c-0.248,0.009 -0.441,0.217 -0.431,0.465c0.009,0.247 0.217,0.44 0.465,0.431c1.41,0.02 3.721,0.045 5.544,-0.105c1.123,-0.093 2.066,-0.286 2.59,-0.543c0.558,-0.27 0.764,-0.738 0.819,-1.3c0.039,-0.402 -0.087,-0.903 -0.22,-1.426c-0.089,-0.348 -0.234,-0.708 -0.119,-0.979c0.226,-0.519 0.671,-1.176 1.162,-1.865c0.755,-1.059 1.645,-2.126 2.204,-2.812c0.504,-0.75 0.305,-1.768 -0.446,-2.272c-0.75,-0.505 -1.768,-0.305 -2.272,0.445c-0.444,0.814 -1.141,2.09 -1.727,3.32c-0.442,0.928 -0.835,1.808 -1.002,2.474c-0.097,0.375 -0.123,0.784 -0.022,1.214c0.111,0.473 0.336,0.981 0.503,1.444c0.036,0.102 0.082,0.256 0.105,0.337Z" style="fill:#4a3e06;"/><path d="M49.123,83.898c-0.019,1.372 0.028,3.587 -0.237,6.2c-0.131,1.299 -0.336,2.651 -0.61,4.039c-0.215,0.987 -0.757,1.942 -1.483,2.797c-1.375,1.621 -3.154,2.954 -4.268,3.785c-0.421,0.26 -0.552,0.813 -0.293,1.234c0.26,0.421 0.813,0.552 1.234,0.293c1.362,-0.682 3.515,-1.804 5.323,-3.273c1.305,-1.06 2.335,-2.337 2.935,-3.727c0.81,-1.752 1.438,-3.497 2.038,-5.1c0.81,-2.163 1.424,-3.972 1.82,-5.164c0.299,-1.782 -0.905,-3.473 -2.688,-3.772c-1.782,-0.299 -3.472,0.906 -3.771,2.688Z" style="fill:#4a3e06;"/><path d="M58.662,75.105c-0.548,-1.437 -2.055,-2.332 -3.625,-2.056c-1.781,0.313 -2.972,2.012 -2.659,3.792c0.542,1.877 1.76,3.461 4.113,4.208c3.143,0.998 8.683,0.547 11.773,2.227c3.028,1.755 5.672,6.062 8.195,8.299c1.061,0.941 2.096,1.582 3.126,1.704c0.488,0.086 0.953,-0.239 1.04,-0.726c0.086,-0.488 -0.24,-0.953 -0.727,-1.039c-0.684,-0.163 -1.288,-0.733 -1.925,-1.452c-2.39,-2.701 -4.692,-7.57 -7.668,-9.842c-2.011,-1.606 -5.356,-2.407 -8.334,-3.314c-1.366,-0.416 -2.546,-1.986 -3.309,-1.801Z" style="fill:#514405;"/><path d="M28.58,23.876c0.01,2.3 0.112,4.464 0.417,6.659c0.134,0.966 0.31,1.904 0.565,2.833c0.577,2.096 1.477,4.06 2.409,5.973c1.427,2.93 3.247,5.606 5.206,8.217c2.849,3.799 6.169,7.332 10.334,10.434c1.837,1.206 4.307,0.693 5.512,-1.144c1.206,-1.837 0.693,-4.307 -1.144,-5.512c-4.247,-2.453 -7.877,-5.284 -10.631,-8.804c-2.584,-3.304 -4.079,-7.241 -5.77,-11.189c-1.138,-2.656 -2.485,-5.18 -3.447,-8.064c-0.165,-0.952 -1.071,-1.592 -2.024,-1.427c-0.952,0.165 -1.592,1.072 -1.427,2.024Z" style="fill:url(#_Linear7);"/><path d="M54.464,45.459c1.486,-1.675 2.855,-3.013 4.351,-3.88c0.729,-0.422 1.487,-0.71 2.243,-0.933c0.752,-0.222 1.512,-0.229 2.271,-0.363c0.509,-0.09 1.018,-0.183 1.529,-0.295c4.844,-1.063 10.162,-1.616 17.275,-4.032c1.074,-0.28 1.718,-1.38 1.438,-2.454c-0.28,-1.074 -1.38,-1.718 -2.454,-1.438c-5.104,0.922 -9.205,0.851 -12.884,1.052c-2.125,0.115 -4.134,0.203 -6.022,0.733c-1.841,0.517 -3.428,1.532 -5.186,2.53c-2.16,1.225 -4.488,2.605 -6.886,4.878c-1.159,1.194 -1.132,3.104 0.062,4.263c1.193,1.16 3.103,1.132 4.263,-0.061Z" style="fill:url(#_Linear8);"/><path d="M73.657,15.399c-1.411,1.458 -3.069,2.803 -4.894,4.239c-1.522,1.197 -3.22,2.296 -4.934,3.589c-2.317,1.748 -4.669,3.759 -7.348,5.646c-0.361,0.239 -0.672,0.545 -0.916,0.901c-1.198,1.874 -2.111,3.762 -3.122,5.485c-1.764,3.006 -3.566,5.618 -4.641,8.463c-1.319,3.493 -1.796,7.011 -2.239,10.41c-0.294,2.281 1.32,4.371 3.6,4.665c2.281,0.293 4.371,-1.32 4.665,-3.601c0.377,-3.071 1.128,-6.144 1.987,-9.424c0.522,-1.994 0.88,-4.084 1.699,-6.22c0.247,-0.642 0.484,-1.299 0.819,-1.931c0.62,-1.168 1.434,-2.277 2.294,-3.424c2.294,-1.408 4.477,-2.773 6.422,-4.264c0.967,-0.742 1.875,-1.512 2.713,-2.314c3.238,-3.096 5.695,-6.269 7.607,-9.351c0.792,-1.025 0.603,-2.499 -0.422,-3.291c-1.024,-0.792 -2.499,-0.603 -3.29,0.422Z" style="fill:url(#_Linear9);"/><path d="M49.695,54.664c-12.068,-0.792 -22.25,-6.619 -32.351,-10.854" style="fill:url(#_Linear10);"/><path d="M49.968,50.506c-4.417,0.045 -8.617,-0.489 -12.652,-1.639c-3.243,-0.924 -6.305,-2.305 -9.406,-3.48c-3.29,-1.248 -6.556,-2.347 -9.803,-3.397c-1.004,-0.422 -2.162,0.052 -2.584,1.057c-0.421,1.005 0.053,2.162 1.058,2.584c3,1.566 5.916,3.356 9.021,4.95c2.066,1.061 4.216,1.981 6.381,2.896c1.638,0.693 3.315,1.299 4.994,1.932c3.973,1.496 8.037,2.764 12.445,3.413c2.295,0.15 4.28,-1.59 4.431,-3.885c0.151,-2.295 -1.59,-4.28 -3.885,-4.431Z" style="fill:url(#_Linear11);"/><path d="M49.695,54.664c16.373,-0.004 27.289,-6.002 43.311,-7.482" style="fill:url(#_Linear12);"/><path d="M49.696,58.831c3.282,-0.244 6.327,-0.625 9.235,-1.256c2.464,-0.534 4.761,-1.263 7.079,-1.915c1.114,-0.314 2.227,-0.597 3.339,-0.875c4.329,-1.082 8.653,-1.949 13.133,-3.043c3.403,-0.831 6.873,-1.814 10.722,-2.409c1.187,-0.11 2.062,-1.162 1.953,-2.349c-0.11,-1.187 -1.163,-2.062 -2.35,-1.953c-3.345,0.085 -6.481,0.282 -9.492,0.783c-5.913,0.984 -11.21,2.996 -16.855,4.051c-1.374,0.256 -2.766,0.379 -4.183,0.525c-3.96,0.408 -8.051,0.485 -12.583,0.107c-2.3,0.001 -4.166,1.869 -4.165,4.168c0,2.3 1.868,4.166 4.167,4.166Z" style="fill:url(#_Linear13);"/><path d="M57.39,57.314c0.044,-0.967 -15.391,-1.69 -15.324,-0.725c0.13,1.873 0.665,5.416 0.533,8.301c-0.1,2.192 -0.282,2.872 -0.696,5.015c-0.138,0.715 -1.079,0.733 -1.159,1.435c-0.068,0.6 -1.25,2.997 -0.525,3.863c0.725,0.867 0.68,1.194 0.641,1.712c-0.231,3.105 -0.233,5.267 -0.233,5.267c0.062,5.185 4.322,3.883 9.506,3.821c5.185,-0.061 9.344,1.14 9.283,-4.045c-0,0 -0.095,-3.843 -0.755,-8.625c-0.289,-2.1 -0.946,-4.254 -1.342,-6.431c-0.055,-0.297 0.782,-0.702 0.97,-1.211c0.272,-0.732 -0.289,-1.55 -0.478,-1.98c-0.207,-0.47 -0.828,-0.01 -0.827,-0.504c0.004,-2.287 0.336,-4.352 0.406,-5.893Z" style="fill:url(#_Linear14);"/><path d="M58.231,86.006c1.456,1.157 2.355,1.918 2.801,2.77c1.058,2.019 0.822,3.453 2.166,4.933c0.708,0.823 1.59,1.625 2.559,2.337c1.495,1.098 3.072,2.016 4.063,2.577c0.403,0.286 0.963,0.191 1.249,-0.213c0.287,-0.403 0.192,-0.963 -0.212,-1.25c-0.805,-0.705 -2.092,-1.84 -3.25,-3.143c-0.634,-0.714 -1.18,-1.487 -1.587,-2.246c-0.387,-0.746 -0.232,-1.39 -0.235,-2.134c-0.005,-1.038 -0.136,-2.131 -0.551,-3.629c-0.337,-1.214 -1.007,-2.535 -2.087,-4.33c-1.195,-1.356 -3.266,-1.488 -4.622,-0.294c-1.357,1.195 -1.488,3.266 -0.294,4.622Z" style="fill:#4a3e06;"/><path d="M51.674,88.812c-0.038,0.051 0.135,0.215 0.233,0.408c0.585,1.159 1.861,3.696 3.514,4.882c0.476,0.364 1.325,0.826 2.353,1.106c0.777,0.211 1.638,0.35 2.491,0.275c0.282,-0.025 0.467,0.343 0.682,0.699c0.302,0.498 0.549,1.074 0.717,1.469c0.082,0.233 0.338,0.356 0.571,0.273c0.234,-0.082 0.356,-0.338 0.274,-0.572c-0.182,-0.644 -0.501,-1.693 -0.949,-2.369c-0.356,-0.536 -0.833,-0.814 -1.322,-0.836c-0.677,-0.032 -1.337,-0.237 -1.921,-0.49c-0.71,-0.307 -1.277,-0.722 -1.579,-1.035c-1.111,-1.22 -1.639,-3.475 -1.896,-4.497c-0.074,-0.295 -0.132,-0.504 -0.162,-0.605c-0.269,-0.913 -1.063,-0.97 -1.192,-1.013c-0.885,-0.185 -1.753,0.383 -1.938,1.267c-0.076,0.365 -0.025,0.726 0.124,1.038Z" style="fill:#4a3e06;"/></g></g><g><clipPath id="_clip15"><circle cx="50" cy="50" r="50"/></clipPath><g clip-path="url(#_clip15)"><path d="M3.998,48.665c0.437,1.6 0.672,3.804 2.192,4.468c1.672,0.73 5.338,0.67 7.84,-0.085c2.656,-0.8 6.885,-3.048 8.093,-4.72c1.05,-1.453 -1.885,-3.853 -0.843,-5.312c1.124,-1.573 7.096,-2.515 7.587,-4.13c0.492,-1.616 -2.708,-4.112 -4.636,-5.564c-2.108,-1.588 -5.069,-4.436 -8.009,-3.963c-2.965,0.478 -7.489,5.129 -9.779,6.829c-1.393,1.034 -3.629,1.67 -3.962,3.372c-0.408,2.08 0.899,6.843 1.517,9.105Z" style="fill:url(#_Linear16);"/><path d="M77.257,38.717c0.733,3.094 2.332,8.402 4.974,9.948c2.641,1.545 9.245,-1.799 10.875,-0.675c1.63,1.124 -1.11,5.93 -1.096,7.419c0.006,0.641 0.544,1.592 1.18,1.517c1.225,-0.143 4.313,-1.186 6.168,-2.375c2.429,-1.556 8.68,-3.333 8.403,-6.959c-0.426,-5.569 -6.832,-22.147 -10.96,-26.45c-3.188,-3.325 -10.643,-0.861 -13.804,0.632c-2.953,1.394 -4.207,5.501 -5.164,8.325c-0.924,2.727 -1.24,5.816 -0.576,8.618Z" style="fill:url(#_Linear17);"/><path d="M7.204,20.736c0.701,2.903 3.133,6.66 5.143,7.335c2.009,0.674 4.361,-3.315 6.912,-3.288c2.712,0.028 6.899,4.257 9.358,3.456c2.459,-0.801 4.11,-5.57 5.395,-8.262c1.181,-2.472 4.117,-5.82 2.316,-7.885c-2.066,-2.369 -9.917,-5.678 -14.715,-6.331c-4.716,-0.641 -11.67,-0.082 -14.072,2.414c-2.401,2.496 -1.138,9.245 -0.337,12.561Z" style="fill:url(#_Linear18);"/><path d="M65.603,47.708c1.012,-1.18 1.747,-7.383 1.602,-11.128c-0.154,-4.005 -0.407,-11.676 -2.529,-12.898c-2.122,-1.223 -8.402,3.245 -10.201,5.564c-1.709,2.203 -1.7,5.943 -0.59,8.345c1.11,2.403 5.297,4.384 7.25,6.07c1.521,1.313 3.457,5.227 4.468,4.047Z" style="fill:url(#_Linear19);"/><path d="M70.507,15.457c0.266,1.477 0.805,2.974 1.251,3.925c0.718,1.535 2.21,3.592 3.877,3.288c2.08,-0.379 6.308,-4.986 8.599,-5.564c1.797,-0.453 4.683,3.151 5.147,2.097c0.464,-1.053 -0.315,-6.548 -2.365,-8.42c-0.845,-0.772 -2.219,-1.421 -3.733,-1.902c1.179,-2.257 1.552,-6.42 -0.712,-7.366c-5.887,-2.459 -24.308,-7.376 -34.733,-7.166c-9.688,0.196 -24.153,5.213 -27.82,8.431c-3.09,2.711 2.206,9.456 5.817,10.875c3.611,1.419 13.966,-3.92 15.849,-2.361c1.883,1.56 -4.623,9.302 -4.552,11.718c0.055,1.899 3.082,2.602 4.973,2.782c2.066,0.197 4.985,-0.913 7.419,-1.601c2.88,-0.815 7.236,-1.686 9.863,-3.288c2.462,-1.501 3.415,-5.466 5.902,-6.323c1.468,-0.506 3.337,0.307 5.218,0.875Z" style="fill:url(#_Linear20);"/></g></g><clipPath id="_clip21"><path id="dirt-cover" serif:id="dirt cover" d="M49.968,0.035c27.595,0 50,22.404 50,50c-0,27.596 -22.405,50 -50,50c-27.596,0 -50,-22.404 -50,-50c-0,-27.596 22.404,-50 50,-50Z"/></clipPath><g clip-path="url(#_clip21)"><path d="M18.087,93.667c25.806,-15.583 54.248,-21.972 86.062,-16.623c-6.204,19.243 -23.812,33.588 -45.19,34.621c-16.304,0.789 -31.172,-6.34 -40.872,-17.998Z" style="fill:url(#_Linear22);"/></g></g><defs><linearGradient id="_Linear1" x1="0" y1="0" x2="1" y2="0" gradientUnits="userSpaceOnUse" gradientTransform="matrix(6.12323e-15,100,-100,6.12323e-15,50,0)"><stop offset="0" style="stop-color:#008bfb;stop-opacity:1"/><stop offset="1" style="stop-color:#9ecaec;stop-opacity:1"/></linearGradient><linearGradient id="_Linear3" x1="0" y1="0" x2="1" y2="0" gradientUnits="userSpaceOnUse" gradientTransform="matrix(0.480627,14.4469,-14.4469,0.480627,52.7968,73.7663)"><stop offset="0" style="stop-color:#4aa31d;stop-opacity:1"/><stop offset="1" style="stop-color:#2a4e0e;stop-opacity:1"/></linearGradient><linearGradient id="_Linear5" x1="0" y1="0" x2="1" y2="0" gradientUnits="userSpaceOnUse" gradientTransform="matrix(5.22329,36.1448,-36.1448,5.22329,103.664,72.8137)"><stop offset="0" style="stop-color:#733500;stop-opacity:1"/><stop offset="1" style="stop-color:#180c00;stop-opacity:1"/></linearGradient><linearGradient id="_Linear7" x1="0" y1="0" x2="1" y2="0" gradientUnits="userSpaceOnUse" gradientTransform="matrix(-2.37486,-9.24945,9.24945,-2.37486,31.9824,31.1904)"><stop offset="0" style="stop-color:#6b5800;stop-opacity:1"/><stop offset="1" style="stop-color:#392f00;stop-opacity:1"/></linearGradient><linearGradient id="_Linear8" x1="0" y1="0" x2="1" y2="0" gradientUnits="userSpaceOnUse" gradientTransform="matrix(28.1233,-6.56211,6.56211,28.1233,53.6062,40.5023)"><stop offset="0" style="stop-color:#6b5800;stop-opacity:1"/><stop offset="0.31" style="stop-color:#392f00;stop-opacity:1"/><stop offset="0.51" style="stop-color:#5e4e00;stop-opacity:1"/><stop offset="0.71" style="stop-color:#6b5800;stop-opacity:1"/><stop offset="1" style="stop-color:#392f00;stop-opacity:1"/></linearGradient><linearGradient id="_Linear9" x1="0" y1="0" x2="1" y2="0" gradientUnits="userSpaceOnUse" gradientTransform="matrix(22.0612,-23.4361,23.4361,22.0612,52.4187,41.4398)"><stop offset="0" style="stop-color:#6b5800;stop-opacity:1"/><stop offset="0.2" style="stop-color:#473b00;stop-opacity:1"/><stop offset="0.48" style="stop-color:#423600;stop-opacity:1"/><stop offset="0.73" style="stop-color:#6b5800;stop-opacity:1"/><stop offset="0.83" style="stop-color:#6b5800;stop-opacity:1"/><stop offset="1" style="stop-color:#392f00;stop-opacity:1"/></linearGradient><linearGradient id="_Linear10" x1="0" y1="0" x2="1" y2="0" gradientUnits="userSpaceOnUse" gradientTransform="matrix(-8.12452,-4.49973,4.49973,-8.12452,27.5452,48.8143)"><stop offset="0" style="stop-color:#fff;stop-opacity:1"/><stop offset="1" style="stop-color:#a6a6a6;stop-opacity:1"/></linearGradient><linearGradient id="_Linear11" x1="0" y1="0" x2="1" y2="0" gradientUnits="userSpaceOnUse" gradientTransform="matrix(-9.81192,-3.93727,3.93727,-9.81192,27.5452,48.2519)"><stop offset="0" style="stop-color:#6b5800;stop-opacity:1"/><stop offset="1" style="stop-color:#392f00;stop-opacity:1"/></linearGradient><linearGradient id="_Linear12" x1="0" y1="0" x2="1" y2="0" gradientUnits="userSpaceOnUse" gradientTransform="matrix(10.7494,-4.44848,4.44848,10.7494,78.56,50)"><stop offset="0" style="stop-color:#6b5800;stop-opacity:1"/><stop offset="1" style="stop-color:#392f00;stop-opacity:1"/></linearGradient><linearGradient id="_Linear13" x1="0" y1="0" x2="1" y2="0" gradientUnits="userSpaceOnUse" gradientTransform="matrix(7.81203,-9.69817,9.69817,7.81203,78.31,50)"><stop offset="0" style="stop-color:#6b5800;stop-opacity:1"/><stop offset="1" style="stop-color:#392f00;stop-opacity:1"/></linearGradient><linearGradient id="_Linear14" x1="0" y1="0" x2="1" y2="0" gradientUnits="userSpaceOnUse" gradientTransform="matrix(1.34392,20.4768,-20.4768,1.34392,50,61.2071)"><stop offset="0" style="stop-color:#6b5800;stop-opacity:1"/><stop offset="1" style="stop-color:#4a3e06;stop-opacity:1"/></linearGradient><linearGradient id="_Linear16" x1="0" y1="0" x2="1" y2="0" gradientUnits="userSpaceOnUse" gradientTransform="matrix(1.97584,56.114,-56.114,1.97584,71.6531,2.23788)"><stop offset="0" style="stop-color:#68941e;stop-opacity:1"/><stop offset="1" style="stop-color:#036813;stop-opacity:1"/></linearGradient><linearGradient id="_Linear17" x1="0" y1="0" x2="1" y2="0" gradientUnits="userSpaceOnUse" gradientTransform="matrix(1.97584,56.114,-56.114,1.97584,71.6531,2.23788)"><stop offset="0" style="stop-color:#68941e;stop-opacity:1"/><stop offset="1" style="stop-color:#036813;stop-opacity:1"/></linearGradient><linearGradient id="_Linear18" x1="0" y1="0" x2="1" y2="0" gradientUnits="userSpaceOnUse" gradientTransform="matrix(1.97584,56.114,-56.114,1.97584,71.6531,2.23788)"><stop offset="0" style="stop-color:#68941e;stop-opacity:1"/><stop offset="1" style="stop-color:#036813;stop-opacity:1"/></linearGradient><linearGradient id="_Linear19" x1="0" y1="0" x2="1" y2="0" gradientUnits="userSpaceOnUse" gradientTransform="matrix(1.97584,56.114,-56.114,1.97584,71.6531,2.23788)"><stop offset="0" style="stop-color:#68941e;stop-opacity:1"/><stop offset="1" style="stop-color:#036813;stop-opacity:1"/></linearGradient><linearGradient id="_Linear20" x1="0" y1="0" x2="1" y2="0" gradientUnits="userSpaceOnUse" gradientTransform="matrix(1.97584,56.114,-56.114,1.97584,71.6531,2.23788)"><stop offset="0" style="stop-color:#68941e;stop-opacity:1"/><stop offset="1" style="stop-color:#036813;stop-opacity:1"/></linearGradient><linearGradient id="_Linear22" x1="0" y1="0" x2="1" y2="0" gradientUnits="userSpaceOnUse" gradientTransform="matrix(7.88854,34.1208,-34.1208,7.88854,60.7174,77.078)"><stop offset="0" style="stop-color:#478818;stop-opacity:1"/><stop offset="0.57" style="stop-color:#273308;stop-opacity:0.31"/><stop offset="1" style="stop-color:#180c00;stop-opacity:0"/></linearGradient></defs></svg>