<?xml version="1.0" encoding="UTF-8" standalone="no"?><!DOCTYPE svg PUBLIC "-//W3C//DTD SVG 1.1//EN" "http://www.w3.org/Graphics/SVG/1.1/DTD/svg11.dtd"><svg width="100%" height="100%" viewBox="0 0 175 175" version="1.1" xmlns="http://www.w3.org/2000/svg" xmlns:xlink="http://www.w3.org/1999/xlink" xml:space="preserve" xmlns:serif="http://www.serif.com/" style="fill-rule:evenodd;clip-rule:evenodd;stroke-linejoin:round;stroke-miterlimit:1.41421;"><g><path d="M91.439,44.374l14.308,-24.972l-0.096,28.78" style="fill:#ff840f;"/><path d="M83.561,130.626l-14.308,24.972l0.096,-28.78" style="fill:#ff840f;"/><path d="M112.475,52.122l24.876,-14.473l-14.473,24.876" style="fill:#ff840f;"/><path d="M62.525,122.878l-24.876,14.473l14.473,-24.876" style="fill:#ff840f;"/><path d="M126.818,69.349l28.78,-0.096l-24.972,14.308" style="fill:#ff840f;"/><path d="M48.182,105.651l-28.78,0.096l24.972,-14.308" style="fill:#ff840f;"/><path d="M130.626,91.439l24.972,14.308l-28.78,-0.096" style="fill:#ff840f;"/><path d="M44.374,83.561l-24.972,-14.308l28.78,0.096" style="fill:#ff840f;"/><path d="M122.878,112.475l14.473,24.876l-24.876,-14.473" style="fill:#ff840f;"/><path d="M52.122,62.525l-14.473,-24.876l24.876,14.473" style="fill:#ff840f;"/><path d="M105.651,126.818l0.096,28.78l-14.308,-24.972" style="fill:#ff840f;"/><path d="M69.349,48.182l-0.096,-28.78l14.308,24.972" style="fill:#ff840f;"/><path d="M99.131,44.092c23.958,6.419 38.196,31.082 31.777,55.039c-6.419,23.958 -31.082,38.196 -55.039,31.777c-23.958,-6.419 -38.196,-31.082 -31.777,-55.039c6.419,-23.958 31.082,-38.196 55.039,-31.777Z" style="fill:#ff840f;"/></g></svg>