<?xml version="1.0" encoding="UTF-8" standalone="no"?><!DOCTYPE svg PUBLIC "-//W3C//DTD SVG 1.1//EN" "http://www.w3.org/Graphics/SVG/1.1/DTD/svg11.dtd"><svg width="100%" height="100%" viewBox="0 0 175 175" version="1.1" xmlns="http://www.w3.org/2000/svg" xmlns:xlink="http://www.w3.org/1999/xlink" xml:space="preserve" xmlns:serif="http://www.serif.com/" style="fill-rule:evenodd;clip-rule:evenodd;stroke-linejoin:round;stroke-miterlimit:1.41421;"><g><path d="M76.894,48.217l10.606,-48.217l10.606,48.217" style="fill:#ffb06d;"/><path d="M76.894,126.783l10.606,48.217l10.606,-48.217" style="fill:#ffb06d;"/><path d="M126.783,76.894l48.217,10.606l-48.217,10.606" style="fill:#ffb06d;"/><path d="M48.217,76.894l-48.217,10.606l48.217,10.606" style="fill:#ffb06d;"/><path d="M122.7,67.088l49.319,-2.235l-43.829,22.724" style="fill:#ffb06d;"/><path d="M46.81,87.423l-43.829,22.724l49.319,-2.235" style="fill:#ffb06d;"/><path d="M116.217,58.673l47.06,-14.923l-36.453,33.293" style="fill:#ffb06d;"/><path d="M48.176,97.957l-36.453,33.293l47.06,-14.923" style="fill:#ffb06d;"/><path d="M107.778,52.223l41.594,-26.595l-26.595,41.594" style="fill:#ffb06d;"/><path d="M52.223,107.778l-26.595,41.594l41.594,-26.595" style="fill:#ffb06d;"/><path d="M97.957,48.176l33.293,-36.453l-14.923,47.06" style="fill:#ffb06d;"/><path d="M58.673,116.217l-14.923,47.06l33.293,-36.453" style="fill:#ffb06d;"/><path d="M87.423,46.81l22.724,-43.829l-2.235,49.319" style="fill:#ffb06d;"/><path d="M67.088,122.7l-2.235,49.319l22.724,-43.829" style="fill:#ffb06d;"/><path d="M67.088,52.3l-2.235,-49.319l22.724,43.829" style="fill:#ffb06d;"/><path d="M87.423,128.19l22.724,43.829l-2.235,-49.319" style="fill:#ffb06d;"/><path d="M58.673,58.783l-14.923,-47.06l33.293,36.453" style="fill:#ffb06d;"/><path d="M97.957,126.824l33.293,36.453l-14.923,-47.06" style="fill:#ffb06d;"/><path d="M52.223,67.222l-26.595,-41.594l41.594,26.595" style="fill:#ffb06d;"/><path d="M107.778,122.777l41.594,26.595l-26.595,-41.594" style="fill:#ffb06d;"/><path d="M48.176,77.043l-36.453,-33.293l47.06,14.923" style="fill:#ffb06d;"/><path d="M116.217,116.327l47.06,14.923l-36.453,-33.293" style="fill:#ffb06d;"/><path d="M46.81,87.577l-43.829,-22.724l49.319,2.235" style="fill:#ffb06d;"/><path d="M122.7,107.912l49.319,2.235l-43.829,-22.724" style="fill:#ffb06d;"/><circle cx="87.5" cy="87.5" r="45.15" style="fill:#ffb06d;"/></g></svg>