<?xml version="1.0" encoding="UTF-8" standalone="no"?><!DOCTYPE svg PUBLIC "-//W3C//DTD SVG 1.1//EN" "http://www.w3.org/Graphics/SVG/1.1/DTD/svg11.dtd"><svg width="100%" height="100%" viewBox="0 0 100 100" version="1.1" xmlns="http://www.w3.org/2000/svg" xmlns:xlink="http://www.w3.org/1999/xlink" xml:space="preserve" xmlns:serif="http://www.serif.com/" style="fill-rule:evenodd;clip-rule:evenodd;stroke-linecap:round;stroke-linejoin:round;stroke-miterlimit:1.5;">

<style>
.arrow {
  animation: -anim-arrow 2s;
  opacity: 0;
}

@keyframes -anim-arrow {
  0% {
    transform: translateY(100px);
	opacity: 0;
  }
  75% {
    transform: translateY(0);
	opacity: 1;
  }
  100% {
    transform: translateY(-100px);
	opacity: 0;
  }
}

.level {
	animation: -anim-level-intro 3s, -anim-level 3.5s infinite linear;
	animation-delay: 0s, 3s;
	transform-origin: 50% 50%;
}

@keyframes -anim-level {
  0% {
    transform: rotate(0);
  }
  100% {
    transform: rotate(360deg);
  }
}

@keyframes -anim-level-intro {
  0%, 67% {
    transform: scale(0.7);
	opacity: 0;
  }
  100% {
    transform: scale(1);
	opacity: 1;
  }
}

  </style>
  
<g class="level"><path id="border" d="M63.237,81.877l18.64,0l0.046,-18.706l13.18,-13.181l-13.226,-13.227l0,-18.64l-18.706,0l-13.181,-13.226l-13.227,13.226l-18.64,0l-0.046,18.706l-13.18,13.181l13.226,13.227l0,18.64l18.706,0l13.181,13.226l13.227,-13.226" style="fill:url(#_Linear1);"/><path id="border1" serif:id="border" d="M63.237,81.877l18.64,0l0.046,-18.706l13.18,-13.181l-13.226,-13.227l0,-18.64l-18.706,0l-13.181,-13.226l-13.227,13.226l-18.64,0l-0.046,18.706l-13.18,13.181l13.226,13.227l0,18.64l18.706,0l13.181,13.226l13.227,-13.226" style="fill:none;stroke:#0072e9;stroke-width:5px;"/></g><path class="arrow" d="M50,12.5l-37.5,37.5l18.75,0l0,37.5l37.5,0l0,-37.5l18.75,0l-37.5,-37.5Z" style="fill:none;stroke:#0072e9;stroke-width:5px;"/><defs><linearGradient id="_Linear1" x1="0" y1="0" x2="1" y2="0" gradientUnits="userSpaceOnUse" gradientTransform="matrix(100,100,-100,100,0,0)"><stop offset="0" style="stop-color:#52a7ff;stop-opacity:1"/><stop offset="1" style="stop-color:#006bdb;stop-opacity:1"/></linearGradient></defs></svg>