<?xml version="1.0" encoding="UTF-8" standalone="no"?>
<!DOCTYPE svg PUBLIC "-//W3C//DTD SVG 1.1//EN" "http://www.w3.org/Graphics/SVG/1.1/DTD/svg11.dtd">
<svg width="100%" height="100%" viewBox="0 0 1042 432" version="1.1" xmlns="http://www.w3.org/2000/svg" xmlns:xlink="http://www.w3.org/1999/xlink" xml:space="preserve" xmlns:serif="http://www.serif.com/" style="fill-rule:evenodd;clip-rule:evenodd;stroke-linejoin:round;stroke-miterlimit:2;">
    <g>
        <g id="Balken_Blau">
            <g>
                <path d="M333.937,289.695C282.887,366.275 179.447,386.955 102.877,335.915C26.337,284.865 5.647,181.395 56.697,104.846C107.747,28.276 211.217,7.596 287.757,58.636C364.327,109.715 384.987,213.155 333.937,289.695Z" style="fill:white;fill-opacity:0.75;fill-rule:nonzero;"/>
                <g transform="matrix(1.0003,0,0,1,681.869,244.801)">
                    <text x="0px" y="0px" style="font-family:'Quicksand-Medium', 'Quicksand';font-weight:500;font-size:154.299px;fill:rgb(211,234,248);">2</text>
                </g>
                <g>
                    <path d="M342.457,284.735L332.627,299.475L336.397,301.985C339.917,297.255 343.197,292.345 346.237,287.255L342.457,284.735Z" style="fill:rgb(18,77,135);fill-rule:nonzero;"/>
                    <path d="M202.467,21.745C105.517,17.805 23.747,93.195 19.807,190.145C15.857,287.084 91.247,368.865 188.197,372.805C248.477,375.244 302.917,347.015 336.397,301.985L332.627,299.475L342.457,284.735L346.237,287.255C360.777,262.925 369.627,234.715 370.857,204.405C374.797,107.455 299.387,25.685 202.467,21.745ZM333.937,289.695C282.887,366.275 179.447,386.955 102.877,335.915C26.337,284.865 5.647,181.395 56.697,104.846C107.747,28.276 211.217,7.596 287.757,58.636C364.327,109.715 384.987,213.155 333.937,289.695Z" style="fill:rgb(19,76,109);fill-rule:nonzero;"/>
                    <path d="M482.96,364.969C492.178,371.116 494.663,383.572 488.524,392.787C482.372,402.002 469.92,404.486 460.702,398.342L361.165,331.971C351.947,325.825 349.455,313.376 355.603,304.155C361.752,294.936 374.204,292.449 383.419,298.593L482.96,364.969Z" style="fill:rgb(19,76,109);fill-rule:nonzero;"/>
                    <path d="M365.117,299.846L355.287,314.596L352.407,312.675L336.397,301.985L332.627,299.476L342.457,284.735L346.237,287.255L362.247,297.936L365.117,299.846Z" style="fill:rgb(19,76,109);fill-rule:nonzero;"/>
                    <path d="M451.146,350.813C453.051,352.083 453.53,354.702 452.222,356.671C450.911,358.627 448.306,359.184 446.408,357.925L377.226,311.792C375.328,310.518 374.846,307.903 376.154,305.939C377.461,303.977 380.063,303.413 381.972,304.683L451.146,350.813Z" style="fill:white;fill-opacity:0.5;fill-rule:nonzero;"/>
                    <path d="M480.478,370.372C482.223,371.534 482.578,374.07 481.27,376.037C479.958,377.996 477.487,378.644 475.735,377.484L455.524,364.002C453.772,362.834 453.417,360.308 454.732,358.338C456.043,356.371 458.514,355.727 460.266,356.89L480.478,370.372Z" style="fill:white;fill-opacity:0.5;fill-rule:nonzero;"/>
                </g>
                <g transform="matrix(1,0,0,1,-0.0101028,0.00374465)">
                    <g>
                        <path d="M321.964,194.894C321.964,214.345 306.17,230.139 286.72,230.139C286.153,230.139 285.556,230.139 284.989,230.108C285.023,230.607 285.023,231.071 285.023,231.57C285.023,253.611 267.167,271.471 245.128,271.471C234.981,271.471 225.708,267.712 218.688,261.461L218.688,297.872C218.688,310.566 229.027,320.912 241.73,320.912L242.993,320.912C246.653,320.912 249.644,323.901 249.644,327.566C249.644,331.25 246.653,334.212 242.993,334.212L241.73,334.212C221.679,334.212 205.39,317.917 205.39,297.871L205.39,235.16C205.287,233.964 205.219,232.76 205.219,231.568C205.219,228.303 205.622,225.119 206.387,222.059C207.52,237.712 220.583,250.055 236.511,250.055C251.875,250.055 264.579,238.58 266.473,223.722C266.634,222.452 266.736,221.158 266.736,219.829C266.736,218.032 266.568,216.24 266.272,214.541C267.699,214.807 269.194,214.937 270.728,214.937C274.152,214.937 277.44,214.245 280.438,213.012C289.479,209.188 295.863,200.245 295.863,189.802C295.863,181.426 291.738,173.977 285.426,169.457C281.298,166.427 276.215,164.666 270.728,164.666C269.994,164.666 269.297,164.7 268.598,164.772C268.83,164.631 269.097,164.467 269.332,164.27C275.717,159.579 279.834,152.064 279.834,143.552C279.834,129.386 268.366,117.885 254.166,117.885L253.702,117.885C250.674,117.949 247.782,118.517 245.092,119.547C245.222,118.379 245.29,117.219 245.29,116.02C245.29,114.391 245.16,112.794 244.891,111.2C242.597,96.669 229.995,85.532 214.802,85.532C208.052,85.532 201.801,87.761 196.748,91.513C200.336,77.85 212.774,67.809 227.534,67.809C245.161,67.809 259.423,82.07 259.423,99.663C259.423,101.391 259.289,103.089 259.024,104.751C261.383,104.252 263.814,103.981 266.337,103.981C285.959,103.981 301.882,119.878 301.882,139.497C301.882,147.411 299.291,154.727 294.9,160.641C310.39,164.303 321.964,178.271 321.964,194.894Z" style="fill:rgb(134,189,40);fill-rule:nonzero;"/>
                    </g>
                    <path d="M140.217,230.869C134.734,230.869 129.978,233.965 127.615,238.486L106.468,238.486L95.697,223.091C96.694,221.127 97.257,218.936 97.257,216.576C97.257,208.689 90.876,202.305 83.03,202.305C75.119,202.305 68.698,208.689 68.698,216.576C68.698,224.445 75.119,230.83 83.03,230.83C83.628,230.83 84.225,230.801 84.792,230.735L99.521,251.78L127.616,251.78C129.979,256.341 134.735,259.431 140.218,259.431C148.101,259.431 154.486,253.015 154.486,245.131C154.485,237.253 148.1,230.869 140.217,230.869ZM86.918,222.16C86.918,222.16 86.887,222.16 86.887,222.19C85.754,222.924 84.426,223.387 82.995,223.387C79.205,223.387 76.146,220.328 76.146,216.576C76.146,212.814 79.205,209.756 83.029,209.756C86.788,209.756 89.813,212.815 89.813,216.576C89.813,218.829 88.683,220.861 86.986,222.125C86.952,222.126 86.952,222.16 86.918,222.16ZM140.217,251.989C136.461,251.989 133.368,248.927 133.405,245.133C133.405,241.374 136.461,238.32 140.217,238.32C143.976,238.32 147.035,241.375 147.035,245.133C147.035,248.928 143.976,251.989 140.217,251.989Z" style="fill:rgb(24,98,141);fill-rule:nonzero;"/>
                    <path d="M227.5,130.585C219.621,130.585 213.236,137.007 213.236,144.887C213.236,146.15 213.403,147.379 213.735,148.539L211.741,150.269L190.863,168.161L190.863,87.163C195.414,84.801 198.504,80.048 198.504,74.557C198.504,66.68 192.088,60.299 184.242,60.299C176.363,60.299 169.944,66.68 169.944,74.557C169.944,80.014 173.037,84.769 177.554,87.163L177.554,215.573L171.542,223.586L152.887,196.857L152.887,124.542L136.229,100.766C137.226,98.803 137.79,96.577 137.79,94.211C137.79,86.337 131.409,79.95 123.528,79.95C115.649,79.95 109.23,86.337 109.23,94.211C109.23,102.094 115.649,108.513 123.528,108.513C124.164,108.513 124.757,108.475 125.358,108.376L139.588,128.729L139.588,186.25L121.701,186.25L97.894,152.466C98.857,150.538 99.42,148.35 99.39,146.017C99.421,138.138 93.04,131.753 85.153,131.753C77.276,131.753 70.895,138.138 70.858,146.017C70.896,153.897 77.276,160.317 85.153,160.317C85.792,160.317 86.45,160.283 87.051,160.176L114.785,199.553L138.561,199.553L164.922,237.358L164.523,297.801L164.523,297.873C164.523,310.567 154.15,320.942 141.45,320.942L140.186,320.942C136.526,320.942 133.535,323.902 133.535,327.593C133.535,331.25 136.526,334.244 140.186,334.244L141.45,334.244C161.501,334.244 177.76,317.955 177.825,297.906L177.825,297.872L178.224,236.82L178.224,236.785L190.863,220.024L190.863,185.686L217.322,162.974L222.744,158.317C224.208,158.85 225.837,159.15 227.499,159.15C235.379,159.15 241.764,152.763 241.764,144.886C241.765,137.007 235.38,130.585 227.5,130.585ZM128.014,99.301C126.816,100.394 125.222,101.029 123.528,101.029C119.739,101.029 116.676,98.004 116.676,94.211C116.676,90.455 119.739,87.396 123.528,87.396C127.284,87.396 130.346,90.456 130.346,94.211C130.346,96.275 129.449,98.102 128.014,99.301ZM89.509,151.236C88.352,152.233 86.819,152.834 85.153,152.834C81.401,152.834 78.341,149.806 78.341,146.016C78.341,142.26 81.4,139.202 85.153,139.202C88.916,139.202 91.937,142.261 91.937,146.016C91.937,148.144 91.008,150.007 89.509,151.236ZM184.208,81.38C180.453,81.38 177.394,78.316 177.394,74.557C177.394,70.808 180.453,67.746 184.208,67.746C188.001,67.746 191.057,70.809 191.057,74.557C191.058,78.316 188.001,81.38 184.208,81.38ZM227.5,151.7C225.039,151.7 222.915,150.404 221.713,148.474L221.713,148.443C221.051,147.379 220.682,146.182 220.682,144.886C220.682,141.096 223.745,138.071 227.5,138.071C231.29,138.071 234.315,141.096 234.315,144.886C234.315,148.642 231.29,151.7 227.5,151.7Z" style="fill:rgb(24,98,141);fill-rule:nonzero;"/>
                </g>
                <g transform="matrix(1,0,0,1,548.585,320.714)">
                    <text x="0px" y="0px" style="font-family:'Quicksand-Regular', 'Quicksand';font-size:72.495px;fill:white;">C<tspan x="48.789px 93.373px 137.958px 155.357px 197.114px 218.355px 266.999px 311.366px 354.065px 421.63px " y="0px 0px 0px 0px 0px 0px 0px 0px 0px 0px ">oole Bäume</tspan></text>
                </g>
                <g transform="matrix(1,0,0,1,622.94,400.615)">
                    <text x="0px" y="0px" style="font-family:'Quicksand-Regular', 'Quicksand';font-size:72.495px;fill:white;">&amp;<tspan x="50.674px 71.915px 114.107px 155.864px 199.216px 234.666px 279.25px 307.016px 348.773px " y="0px 0px 0px 0px 0px 0px 0px 0px 0px "> Sensoren</tspan></text>
                </g>
                <g transform="matrix(1.0003,0,0,1,382.65,214.817)">
                    <text x="0px" y="0px" style="font-family:'Quicksand-Regular', 'Quicksand';font-size:220.427px;fill:rgb(211,234,248);">C<tspan x="132.92px " y="0px ">O</tspan></text>
                    <g transform="matrix(1,0,0,1,382.15,0)">
                        <text x="0px" y="0px" style="font-family:'Quicksand-Regular', 'Quicksand';font-size:220.427px;fill:white;">B<tspan x="132.479px " y="0px ">S</tspan></text>
                    </g>
                </g>
            </g>
        </g>
    </g>
</svg>
