<?xml version="1.0" encoding="UTF-8" standalone="no"?>
<!DOCTYPE svg PUBLIC "-//W3C//DTD SVG 1.1//EN" "http://www.w3.org/Graphics/SVG/1.1/DTD/svg11.dtd">
<svg width="100%" height="100%" viewBox="0 0 1042 432" version="1.1" xmlns="http://www.w3.org/2000/svg" xmlns:xlink="http://www.w3.org/1999/xlink" xml:space="preserve" xmlns:serif="http://www.serif.com/" style="fill-rule:evenodd;clip-rule:evenodd;stroke-linejoin:round;stroke-miterlimit:2;">
    <g>
        <g id="Balken_Blau">
            <g>
                <path d="M333.937,289.695C282.887,366.275 179.447,386.955 102.877,335.915C26.337,284.865 5.647,181.395 56.697,104.846C107.747,28.276 211.217,7.596 287.757,58.636C364.327,109.715 384.987,213.155 333.937,289.695Z" style="fill:white;fill-opacity:0.75;fill-rule:nonzero;"/>
                <g transform="matrix(1.0003,0,0,1,681.869,244.801)">
                    <g transform="matrix(154.299,0,0,154.299,0,0)">
                        <path d="M0.479,-0.075C0.49,-0.075 0.499,-0.071 0.506,-0.064C0.513,-0.057 0.517,-0.048 0.517,-0.037C0.517,-0.026 0.513,-0.018 0.506,-0.011C0.499,-0.004 0.49,0 0.479,0L0.116,0C0.104,0 0.094,-0.004 0.086,-0.011C0.079,-0.018 0.075,-0.027 0.075,-0.039C0.075,-0.05 0.079,-0.059 0.087,-0.068L0.313,-0.315C0.346,-0.35 0.371,-0.382 0.388,-0.412C0.405,-0.443 0.414,-0.472 0.414,-0.501C0.414,-0.528 0.408,-0.552 0.397,-0.572C0.385,-0.592 0.369,-0.608 0.348,-0.619C0.327,-0.629 0.303,-0.635 0.275,-0.635C0.248,-0.635 0.223,-0.628 0.199,-0.614C0.174,-0.6 0.155,-0.578 0.141,-0.549C0.136,-0.542 0.131,-0.537 0.126,-0.534C0.12,-0.531 0.114,-0.529 0.108,-0.529C0.099,-0.529 0.09,-0.533 0.081,-0.54C0.072,-0.547 0.068,-0.555 0.068,-0.564C0.068,-0.571 0.07,-0.578 0.075,-0.585C0.079,-0.592 0.084,-0.599 0.09,-0.606C0.111,-0.639 0.138,-0.665 0.173,-0.683C0.208,-0.701 0.243,-0.71 0.28,-0.71C0.325,-0.71 0.364,-0.701 0.397,-0.684C0.429,-0.667 0.454,-0.643 0.47,-0.612C0.488,-0.581 0.496,-0.545 0.496,-0.506C0.496,-0.481 0.492,-0.455 0.483,-0.429C0.473,-0.402 0.46,-0.375 0.441,-0.347C0.422,-0.319 0.399,-0.29 0.37,-0.259L0.195,-0.065L0.185,-0.075L0.479,-0.075Z" style="fill:rgb(211,234,248);fill-rule:nonzero;"/>
                    </g>
                </g>
                <g>
                    <path d="M342.457,284.735L332.627,299.475L336.397,301.985C339.917,297.255 343.197,292.345 346.237,287.255L342.457,284.735Z" style="fill:rgb(18,77,135);fill-rule:nonzero;"/>
                    <path d="M202.467,21.745C105.517,17.805 23.747,93.195 19.807,190.145C15.857,287.084 91.247,368.865 188.197,372.805C248.477,375.244 302.917,347.015 336.397,301.985L332.627,299.475L342.457,284.735L346.237,287.255C360.777,262.925 369.627,234.715 370.857,204.405C374.797,107.455 299.387,25.685 202.467,21.745ZM333.937,289.695C282.887,366.275 179.447,386.955 102.877,335.915C26.337,284.865 5.647,181.395 56.697,104.846C107.747,28.276 211.217,7.596 287.757,58.636C364.327,109.715 384.987,213.155 333.937,289.695Z" style="fill:rgb(19,76,109);fill-rule:nonzero;"/>
                    <path d="M482.96,364.969C492.178,371.116 494.663,383.572 488.524,392.787C482.372,402.002 469.92,404.486 460.702,398.342L361.165,331.971C351.947,325.825 349.455,313.376 355.603,304.155C361.752,294.936 374.204,292.449 383.419,298.593L482.96,364.969Z" style="fill:rgb(19,76,109);fill-rule:nonzero;"/>
                    <path d="M365.117,299.846L355.287,314.596L352.407,312.675L336.397,301.985L332.627,299.476L342.457,284.735L346.237,287.255L362.247,297.936L365.117,299.846Z" style="fill:rgb(19,76,109);fill-rule:nonzero;"/>
                    <path d="M451.146,350.813C453.051,352.083 453.53,354.702 452.222,356.671C450.911,358.627 448.306,359.184 446.408,357.925L377.226,311.792C375.328,310.518 374.846,307.903 376.154,305.939C377.461,303.977 380.063,303.413 381.972,304.683L451.146,350.813Z" style="fill:white;fill-opacity:0.5;fill-rule:nonzero;"/>
                    <path d="M480.478,370.372C482.223,371.534 482.578,374.07 481.27,376.037C479.958,377.996 477.487,378.644 475.735,377.484L455.524,364.002C453.772,362.834 453.417,360.308 454.732,358.338C456.043,356.371 458.514,355.727 460.266,356.89L480.478,370.372Z" style="fill:white;fill-opacity:0.5;fill-rule:nonzero;"/>
                </g>
                <g transform="matrix(1,0,0,1,-0.0101028,0.00374465)">
                    <g>
                        <path d="M321.964,194.894C321.964,214.345 306.17,230.139 286.72,230.139C286.153,230.139 285.556,230.139 284.989,230.108C285.023,230.607 285.023,231.071 285.023,231.57C285.023,253.611 267.167,271.471 245.128,271.471C234.981,271.471 225.708,267.712 218.688,261.461L218.688,297.872C218.688,310.566 229.027,320.912 241.73,320.912L242.993,320.912C246.653,320.912 249.644,323.901 249.644,327.566C249.644,331.25 246.653,334.212 242.993,334.212L241.73,334.212C221.679,334.212 205.39,317.917 205.39,297.871L205.39,235.16C205.287,233.964 205.219,232.76 205.219,231.568C205.219,228.303 205.622,225.119 206.387,222.059C207.52,237.712 220.583,250.055 236.511,250.055C251.875,250.055 264.579,238.58 266.473,223.722C266.634,222.452 266.736,221.158 266.736,219.829C266.736,218.032 266.568,216.24 266.272,214.541C267.699,214.807 269.194,214.937 270.728,214.937C274.152,214.937 277.44,214.245 280.438,213.012C289.479,209.188 295.863,200.245 295.863,189.802C295.863,181.426 291.738,173.977 285.426,169.457C281.298,166.427 276.215,164.666 270.728,164.666C269.994,164.666 269.297,164.7 268.598,164.772C268.83,164.631 269.097,164.467 269.332,164.27C275.717,159.579 279.834,152.064 279.834,143.552C279.834,129.386 268.366,117.885 254.166,117.885L253.702,117.885C250.674,117.949 247.782,118.517 245.092,119.547C245.222,118.379 245.29,117.219 245.29,116.02C245.29,114.391 245.16,112.794 244.891,111.2C242.597,96.669 229.995,85.532 214.802,85.532C208.052,85.532 201.801,87.761 196.748,91.513C200.336,77.85 212.774,67.809 227.534,67.809C245.161,67.809 259.423,82.07 259.423,99.663C259.423,101.391 259.289,103.089 259.024,104.751C261.383,104.252 263.814,103.981 266.337,103.981C285.959,103.981 301.882,119.878 301.882,139.497C301.882,147.411 299.291,154.727 294.9,160.641C310.39,164.303 321.964,178.271 321.964,194.894Z" style="fill:rgb(134,189,40);fill-rule:nonzero;"/>
                    </g>
                    <path d="M140.217,230.869C134.734,230.869 129.978,233.965 127.615,238.486L106.468,238.486L95.697,223.091C96.694,221.127 97.257,218.936 97.257,216.576C97.257,208.689 90.876,202.305 83.03,202.305C75.119,202.305 68.698,208.689 68.698,216.576C68.698,224.445 75.119,230.83 83.03,230.83C83.628,230.83 84.225,230.801 84.792,230.735L99.521,251.78L127.616,251.78C129.979,256.341 134.735,259.431 140.218,259.431C148.101,259.431 154.486,253.015 154.486,245.131C154.485,237.253 148.1,230.869 140.217,230.869ZM86.918,222.16C86.918,222.16 86.887,222.16 86.887,222.19C85.754,222.924 84.426,223.387 82.995,223.387C79.205,223.387 76.146,220.328 76.146,216.576C76.146,212.814 79.205,209.756 83.029,209.756C86.788,209.756 89.813,212.815 89.813,216.576C89.813,218.829 88.683,220.861 86.986,222.125C86.952,222.126 86.952,222.16 86.918,222.16ZM140.217,251.989C136.461,251.989 133.368,248.927 133.405,245.133C133.405,241.374 136.461,238.32 140.217,238.32C143.976,238.32 147.035,241.375 147.035,245.133C147.035,248.928 143.976,251.989 140.217,251.989Z" style="fill:rgb(24,98,141);fill-rule:nonzero;"/>
                    <path d="M227.5,130.585C219.621,130.585 213.236,137.007 213.236,144.887C213.236,146.15 213.403,147.379 213.735,148.539L211.741,150.269L190.863,168.161L190.863,87.163C195.414,84.801 198.504,80.048 198.504,74.557C198.504,66.68 192.088,60.299 184.242,60.299C176.363,60.299 169.944,66.68 169.944,74.557C169.944,80.014 173.037,84.769 177.554,87.163L177.554,215.573L171.542,223.586L152.887,196.857L152.887,124.542L136.229,100.766C137.226,98.803 137.79,96.577 137.79,94.211C137.79,86.337 131.409,79.95 123.528,79.95C115.649,79.95 109.23,86.337 109.23,94.211C109.23,102.094 115.649,108.513 123.528,108.513C124.164,108.513 124.757,108.475 125.358,108.376L139.588,128.729L139.588,186.25L121.701,186.25L97.894,152.466C98.857,150.538 99.42,148.35 99.39,146.017C99.421,138.138 93.04,131.753 85.153,131.753C77.276,131.753 70.895,138.138 70.858,146.017C70.896,153.897 77.276,160.317 85.153,160.317C85.792,160.317 86.45,160.283 87.051,160.176L114.785,199.553L138.561,199.553L164.922,237.358L164.523,297.801L164.523,297.873C164.523,310.567 154.15,320.942 141.45,320.942L140.186,320.942C136.526,320.942 133.535,323.902 133.535,327.593C133.535,331.25 136.526,334.244 140.186,334.244L141.45,334.244C161.501,334.244 177.76,317.955 177.825,297.906L177.825,297.872L178.224,236.82L178.224,236.785L190.863,220.024L190.863,185.686L217.322,162.974L222.744,158.317C224.208,158.85 225.837,159.15 227.499,159.15C235.379,159.15 241.764,152.763 241.764,144.886C241.765,137.007 235.38,130.585 227.5,130.585ZM128.014,99.301C126.816,100.394 125.222,101.029 123.528,101.029C119.739,101.029 116.676,98.004 116.676,94.211C116.676,90.455 119.739,87.396 123.528,87.396C127.284,87.396 130.346,90.456 130.346,94.211C130.346,96.275 129.449,98.102 128.014,99.301ZM89.509,151.236C88.352,152.233 86.819,152.834 85.153,152.834C81.401,152.834 78.341,149.806 78.341,146.016C78.341,142.26 81.4,139.202 85.153,139.202C88.916,139.202 91.937,142.261 91.937,146.016C91.937,148.144 91.008,150.007 89.509,151.236ZM184.208,81.38C180.453,81.38 177.394,78.316 177.394,74.557C177.394,70.808 180.453,67.746 184.208,67.746C188.001,67.746 191.057,70.809 191.057,74.557C191.058,78.316 188.001,81.38 184.208,81.38ZM227.5,151.7C225.039,151.7 222.915,150.404 221.713,148.474L221.713,148.443C221.051,147.379 220.682,146.182 220.682,144.886C220.682,141.096 223.745,138.071 227.5,138.071C231.29,138.071 234.315,141.096 234.315,144.886C234.315,148.642 231.29,151.7 227.5,151.7Z" style="fill:rgb(24,98,141);fill-rule:nonzero;"/>
                </g>
                <g transform="matrix(1,0,0,1,565.173,320.714)">
                    <g>
                        <g transform="matrix(72.495,0,0,72.495,0,0)">
                            <path d="M0.605,-0.648C0.613,-0.643 0.618,-0.636 0.619,-0.627C0.62,-0.619 0.618,-0.611 0.613,-0.603C0.608,-0.597 0.602,-0.594 0.595,-0.593C0.588,-0.592 0.581,-0.594 0.574,-0.597C0.549,-0.614 0.522,-0.627 0.493,-0.636C0.464,-0.645 0.432,-0.65 0.399,-0.65C0.358,-0.65 0.321,-0.643 0.285,-0.628C0.251,-0.614 0.22,-0.594 0.194,-0.567C0.168,-0.54 0.148,-0.508 0.134,-0.471C0.119,-0.434 0.112,-0.394 0.112,-0.35C0.112,-0.305 0.119,-0.264 0.134,-0.227C0.149,-0.19 0.169,-0.158 0.196,-0.131C0.222,-0.104 0.252,-0.084 0.287,-0.07C0.322,-0.056 0.359,-0.049 0.399,-0.049C0.432,-0.049 0.463,-0.054 0.492,-0.063C0.521,-0.072 0.548,-0.085 0.573,-0.101C0.58,-0.105 0.587,-0.107 0.595,-0.106C0.602,-0.105 0.608,-0.101 0.613,-0.094C0.619,-0.087 0.621,-0.079 0.62,-0.07C0.618,-0.062 0.613,-0.056 0.606,-0.051C0.589,-0.04 0.57,-0.03 0.547,-0.021C0.524,-0.012 0.5,-0.004 0.475,0.001C0.45,0.007 0.424,0.01 0.399,0.01C0.351,0.01 0.306,0.001 0.264,-0.016C0.222,-0.033 0.185,-0.058 0.152,-0.09C0.119,-0.121 0.094,-0.159 0.076,-0.203C0.057,-0.247 0.048,-0.296 0.048,-0.35C0.048,-0.402 0.057,-0.45 0.075,-0.494C0.093,-0.537 0.118,-0.575 0.15,-0.607C0.182,-0.639 0.219,-0.664 0.262,-0.682C0.305,-0.7 0.35,-0.709 0.399,-0.709C0.437,-0.709 0.474,-0.704 0.509,-0.693C0.544,-0.682 0.576,-0.667 0.605,-0.648Z" style="fill:white;fill-rule:nonzero;"/>
                        </g>
                        <g transform="matrix(1,0,0,1,48.789,0)">
                            <g transform="matrix(72.495,0,0,72.495,0,0)">
                                <path d="M0.551,-0.256C0.551,-0.205 0.54,-0.16 0.518,-0.119C0.495,-0.079 0.465,-0.048 0.427,-0.025C0.389,-0.002 0.346,0.01 0.298,0.01C0.251,0.01 0.208,-0.002 0.17,-0.025C0.131,-0.048 0.101,-0.079 0.079,-0.119C0.056,-0.16 0.045,-0.205 0.045,-0.256C0.045,-0.307 0.056,-0.353 0.079,-0.393C0.101,-0.433 0.131,-0.465 0.17,-0.488C0.208,-0.511 0.251,-0.523 0.298,-0.523C0.346,-0.523 0.389,-0.511 0.427,-0.488C0.465,-0.465 0.495,-0.433 0.518,-0.393C0.54,-0.353 0.551,-0.307 0.551,-0.256ZM0.491,-0.256C0.491,-0.297 0.483,-0.333 0.466,-0.365C0.449,-0.396 0.427,-0.421 0.398,-0.44C0.369,-0.458 0.335,-0.467 0.298,-0.467C0.261,-0.467 0.229,-0.458 0.2,-0.44C0.171,-0.421 0.148,-0.396 0.131,-0.365C0.114,-0.333 0.105,-0.297 0.105,-0.256C0.105,-0.215 0.114,-0.179 0.131,-0.148C0.148,-0.117 0.171,-0.092 0.2,-0.074C0.229,-0.055 0.261,-0.046 0.298,-0.046C0.335,-0.046 0.369,-0.055 0.398,-0.074C0.427,-0.092 0.449,-0.117 0.466,-0.148C0.483,-0.179 0.491,-0.215 0.491,-0.256Z" style="fill:white;fill-rule:nonzero;"/>
                            </g>
                            <g transform="matrix(72.495,0,0,72.495,43.1345,0)">
                                <path d="M0.551,-0.256C0.551,-0.205 0.54,-0.16 0.518,-0.119C0.495,-0.079 0.465,-0.048 0.427,-0.025C0.389,-0.002 0.346,0.01 0.298,0.01C0.251,0.01 0.208,-0.002 0.17,-0.025C0.131,-0.048 0.101,-0.079 0.079,-0.119C0.056,-0.16 0.045,-0.205 0.045,-0.256C0.045,-0.307 0.056,-0.353 0.079,-0.393C0.101,-0.433 0.131,-0.465 0.17,-0.488C0.208,-0.511 0.251,-0.523 0.298,-0.523C0.346,-0.523 0.389,-0.511 0.427,-0.488C0.465,-0.465 0.495,-0.433 0.518,-0.393C0.54,-0.353 0.551,-0.307 0.551,-0.256ZM0.491,-0.256C0.491,-0.297 0.483,-0.333 0.466,-0.365C0.449,-0.396 0.427,-0.421 0.398,-0.44C0.369,-0.458 0.335,-0.467 0.298,-0.467C0.261,-0.467 0.229,-0.458 0.2,-0.44C0.171,-0.421 0.148,-0.396 0.131,-0.365C0.114,-0.333 0.105,-0.297 0.105,-0.256C0.105,-0.215 0.114,-0.179 0.131,-0.148C0.148,-0.117 0.171,-0.092 0.2,-0.074C0.229,-0.055 0.261,-0.046 0.298,-0.046C0.335,-0.046 0.369,-0.055 0.398,-0.074C0.427,-0.092 0.449,-0.117 0.466,-0.148C0.483,-0.179 0.491,-0.215 0.491,-0.256Z" style="fill:white;fill-rule:nonzero;"/>
                            </g>
                            <g transform="matrix(72.495,0,0,72.495,86.2691,0)">
                                <path d="M0.145,-0.03C0.145,-0.022 0.142,-0.015 0.136,-0.009C0.13,-0.003 0.123,0 0.115,0C0.106,0 0.099,-0.003 0.094,-0.009C0.088,-0.015 0.085,-0.022 0.085,-0.03L0.085,-0.71C0.085,-0.718 0.088,-0.725 0.094,-0.731C0.1,-0.737 0.107,-0.74 0.115,-0.74C0.124,-0.74 0.131,-0.737 0.137,-0.731C0.142,-0.725 0.145,-0.718 0.145,-0.71L0.145,-0.03Z" style="fill:white;fill-rule:nonzero;"/>
                            </g>
                            <g transform="matrix(72.495,0,0,72.495,102.218,0)">
                                <path d="M0.306,0.01C0.255,0.01 0.209,-0.001 0.17,-0.023C0.131,-0.045 0.1,-0.076 0.078,-0.115C0.056,-0.154 0.045,-0.2 0.045,-0.253C0.045,-0.31 0.056,-0.358 0.079,-0.398C0.101,-0.438 0.13,-0.469 0.166,-0.491C0.201,-0.512 0.239,-0.523 0.279,-0.523C0.308,-0.523 0.337,-0.518 0.365,-0.507C0.392,-0.497 0.417,-0.482 0.438,-0.462C0.459,-0.441 0.477,-0.416 0.49,-0.387C0.503,-0.358 0.51,-0.324 0.511,-0.285C0.511,-0.277 0.508,-0.27 0.502,-0.265C0.496,-0.259 0.489,-0.256 0.481,-0.256L0.08,-0.256L0.068,-0.31L0.462,-0.31L0.449,-0.298L0.449,-0.318C0.446,-0.349 0.435,-0.376 0.418,-0.398C0.401,-0.42 0.38,-0.437 0.356,-0.448C0.331,-0.459 0.306,-0.465 0.279,-0.465C0.259,-0.465 0.238,-0.461 0.218,-0.453C0.197,-0.445 0.178,-0.433 0.161,-0.416C0.143,-0.399 0.13,-0.377 0.119,-0.35C0.108,-0.324 0.103,-0.293 0.103,-0.257C0.103,-0.218 0.111,-0.182 0.127,-0.15C0.143,-0.118 0.166,-0.093 0.196,-0.074C0.226,-0.055 0.262,-0.046 0.305,-0.046C0.328,-0.046 0.348,-0.049 0.367,-0.056C0.386,-0.063 0.402,-0.071 0.417,-0.083C0.431,-0.094 0.443,-0.105 0.452,-0.117C0.459,-0.123 0.466,-0.126 0.473,-0.126C0.48,-0.126 0.487,-0.123 0.492,-0.118C0.497,-0.113 0.499,-0.107 0.499,-0.1C0.499,-0.092 0.496,-0.085 0.489,-0.079C0.469,-0.055 0.443,-0.034 0.411,-0.017C0.379,0.001 0.344,0.01 0.306,0.01Z" style="fill:white;fill-rule:nonzero;"/>
                            </g>
                            <g transform="matrix(72.495,0,0,72.495,162.316,0)">
                                <path d="M0.389,-0.7C0.445,-0.7 0.489,-0.685 0.521,-0.655C0.552,-0.624 0.568,-0.582 0.568,-0.528C0.568,-0.5 0.562,-0.473 0.55,-0.448C0.538,-0.423 0.52,-0.402 0.497,-0.387C0.474,-0.371 0.445,-0.362 0.41,-0.36L0.406,-0.38C0.431,-0.38 0.455,-0.377 0.478,-0.37C0.502,-0.363 0.523,-0.351 0.542,-0.336C0.561,-0.321 0.576,-0.302 0.587,-0.279C0.598,-0.256 0.604,-0.228 0.604,-0.195C0.604,-0.16 0.598,-0.131 0.587,-0.106C0.575,-0.081 0.559,-0.06 0.54,-0.045C0.52,-0.03 0.497,-0.018 0.472,-0.011C0.447,-0.004 0.42,0 0.393,0L0.124,0C0.116,0 0.109,-0.003 0.103,-0.009C0.097,-0.015 0.094,-0.022 0.094,-0.03L0.094,-0.67C0.094,-0.678 0.097,-0.685 0.103,-0.691C0.109,-0.697 0.116,-0.7 0.124,-0.7L0.389,-0.7ZM0.381,-0.641L0.146,-0.641L0.158,-0.659L0.158,-0.376L0.147,-0.391L0.381,-0.391C0.416,-0.392 0.445,-0.403 0.469,-0.425C0.492,-0.447 0.504,-0.48 0.504,-0.523C0.504,-0.56 0.493,-0.589 0.472,-0.61C0.451,-0.63 0.42,-0.641 0.381,-0.641ZM0.388,-0.331L0.153,-0.331L0.158,-0.337L0.158,-0.05L0.152,-0.059L0.39,-0.059C0.433,-0.059 0.468,-0.07 0.497,-0.092C0.526,-0.113 0.54,-0.148 0.54,-0.195C0.54,-0.228 0.533,-0.255 0.519,-0.275C0.505,-0.295 0.486,-0.309 0.463,-0.318C0.44,-0.327 0.415,-0.331 0.388,-0.331Z" style="fill:white;fill-rule:nonzero;"/>
                            </g>
                            <g transform="matrix(72.495,0,0,72.495,209.511,0)">
                                <path d="M0.494,-0.511C0.503,-0.511 0.51,-0.508 0.516,-0.502C0.521,-0.496 0.524,-0.489 0.524,-0.48L0.524,-0.03C0.524,-0.022 0.521,-0.015 0.515,-0.009C0.509,-0.003 0.502,0 0.494,0C0.485,0 0.477,-0.003 0.472,-0.009C0.467,-0.015 0.464,-0.022 0.464,-0.03L0.464,-0.149L0.481,-0.157C0.481,-0.138 0.476,-0.119 0.466,-0.1C0.455,-0.081 0.441,-0.063 0.423,-0.046C0.405,-0.029 0.384,-0.016 0.36,-0.006C0.335,0.005 0.309,0.01 0.28,0.01C0.235,0.01 0.195,-0.002 0.16,-0.025C0.124,-0.048 0.096,-0.08 0.076,-0.121C0.055,-0.162 0.045,-0.207 0.045,-0.258C0.045,-0.31 0.055,-0.356 0.076,-0.396C0.097,-0.435 0.125,-0.466 0.16,-0.489C0.195,-0.512 0.235,-0.523 0.279,-0.523C0.308,-0.523 0.335,-0.518 0.36,-0.508C0.385,-0.498 0.406,-0.484 0.425,-0.467C0.444,-0.45 0.458,-0.43 0.469,-0.407C0.48,-0.385 0.485,-0.362 0.485,-0.338L0.464,-0.353L0.464,-0.48C0.464,-0.489 0.467,-0.496 0.472,-0.502C0.477,-0.508 0.485,-0.511 0.494,-0.511ZM0.286,-0.046C0.321,-0.046 0.353,-0.055 0.38,-0.074C0.407,-0.092 0.429,-0.117 0.445,-0.15C0.46,-0.182 0.468,-0.218 0.468,-0.258C0.468,-0.297 0.46,-0.333 0.445,-0.364C0.429,-0.395 0.407,-0.42 0.38,-0.439C0.353,-0.458 0.321,-0.467 0.286,-0.467C0.251,-0.467 0.22,-0.458 0.193,-0.44C0.165,-0.422 0.143,-0.397 0.128,-0.366C0.112,-0.335 0.104,-0.299 0.104,-0.258C0.104,-0.218 0.112,-0.182 0.127,-0.15C0.142,-0.117 0.164,-0.092 0.192,-0.074C0.219,-0.055 0.251,-0.046 0.286,-0.046ZM0.369,-0.592C0.356,-0.592 0.345,-0.596 0.339,-0.603C0.332,-0.61 0.328,-0.619 0.328,-0.632L0.328,-0.642C0.328,-0.655 0.332,-0.665 0.339,-0.672C0.346,-0.679 0.357,-0.682 0.37,-0.682C0.383,-0.682 0.393,-0.679 0.4,-0.672C0.406,-0.665 0.41,-0.655 0.41,-0.642L0.41,-0.632C0.41,-0.619 0.406,-0.609 0.399,-0.602C0.392,-0.595 0.382,-0.592 0.369,-0.592ZM0.197,-0.592C0.184,-0.592 0.173,-0.596 0.167,-0.603C0.16,-0.61 0.156,-0.619 0.156,-0.632L0.156,-0.642C0.156,-0.655 0.16,-0.665 0.167,-0.672C0.174,-0.679 0.184,-0.682 0.197,-0.682C0.21,-0.682 0.221,-0.679 0.228,-0.672C0.234,-0.665 0.238,-0.655 0.238,-0.642L0.238,-0.632C0.238,-0.619 0.234,-0.609 0.227,-0.602C0.22,-0.595 0.21,-0.592 0.197,-0.592Z" style="fill:white;fill-rule:nonzero;"/>
                            </g>
                            <g transform="matrix(72.495,0,0,72.495,252.428,0)">
                                <path d="M0.461,-0.508C0.47,-0.508 0.477,-0.505 0.483,-0.499C0.488,-0.493 0.491,-0.486 0.491,-0.478L0.491,-0.196C0.491,-0.13 0.472,-0.08 0.435,-0.045C0.398,-0.01 0.347,0.007 0.284,0.007C0.221,0.007 0.172,-0.01 0.135,-0.045C0.098,-0.08 0.079,-0.13 0.079,-0.196L0.079,-0.478C0.079,-0.486 0.082,-0.493 0.087,-0.499C0.093,-0.505 0.1,-0.508 0.109,-0.508C0.118,-0.508 0.125,-0.505 0.131,-0.499C0.136,-0.493 0.139,-0.486 0.139,-0.478L0.139,-0.196C0.139,-0.148 0.152,-0.112 0.178,-0.086C0.203,-0.062 0.239,-0.049 0.284,-0.049C0.33,-0.049 0.366,-0.062 0.392,-0.086C0.418,-0.112 0.431,-0.148 0.431,-0.196L0.431,-0.478C0.431,-0.486 0.434,-0.493 0.439,-0.499C0.444,-0.505 0.452,-0.508 0.461,-0.508Z" style="fill:white;fill-rule:nonzero;"/>
                            </g>
                            <g transform="matrix(72.495,0,0,72.495,293.677,0)">
                                <path d="M0.309,-0.515C0.35,-0.515 0.386,-0.504 0.415,-0.483C0.444,-0.461 0.464,-0.429 0.475,-0.386L0.461,-0.382L0.467,-0.4C0.476,-0.42 0.49,-0.439 0.51,-0.457C0.531,-0.474 0.554,-0.488 0.58,-0.499C0.606,-0.51 0.632,-0.515 0.659,-0.515C0.701,-0.515 0.735,-0.506 0.76,-0.488C0.786,-0.47 0.805,-0.446 0.817,-0.416C0.828,-0.385 0.834,-0.351 0.834,-0.313L0.834,-0.03C0.834,-0.022 0.831,-0.015 0.826,-0.009C0.82,-0.003 0.813,0 0.804,0C0.795,0 0.788,-0.003 0.783,-0.009C0.777,-0.015 0.774,-0.022 0.774,-0.03L0.774,-0.31C0.774,-0.337 0.77,-0.362 0.761,-0.385C0.752,-0.408 0.739,-0.426 0.72,-0.439C0.701,-0.452 0.676,-0.459 0.645,-0.459C0.618,-0.459 0.592,-0.452 0.567,-0.439C0.542,-0.426 0.521,-0.408 0.505,-0.385C0.49,-0.362 0.482,-0.337 0.482,-0.31L0.482,-0.03C0.482,-0.022 0.479,-0.015 0.473,-0.009C0.468,-0.003 0.461,0 0.452,0C0.443,0 0.436,-0.003 0.431,-0.009C0.425,-0.015 0.422,-0.022 0.422,-0.03L0.422,-0.313C0.422,-0.34 0.418,-0.365 0.41,-0.387C0.402,-0.409 0.389,-0.427 0.371,-0.44C0.353,-0.453 0.329,-0.459 0.298,-0.459C0.271,-0.459 0.245,-0.453 0.221,-0.44C0.196,-0.427 0.177,-0.409 0.162,-0.387C0.147,-0.365 0.139,-0.34 0.139,-0.313L0.139,-0.03C0.139,-0.022 0.136,-0.015 0.13,-0.009C0.124,-0.003 0.117,0 0.109,0C0.1,0 0.092,-0.003 0.087,-0.009C0.082,-0.015 0.079,-0.022 0.079,-0.03L0.079,-0.478C0.079,-0.486 0.082,-0.493 0.087,-0.499C0.093,-0.505 0.1,-0.508 0.109,-0.508C0.118,-0.508 0.125,-0.505 0.131,-0.499C0.136,-0.493 0.139,-0.486 0.139,-0.478L0.139,-0.385L0.112,-0.348C0.114,-0.368 0.121,-0.388 0.132,-0.408C0.142,-0.428 0.157,-0.446 0.175,-0.462C0.193,-0.478 0.214,-0.491 0.236,-0.5C0.26,-0.51 0.284,-0.515 0.309,-0.515Z" style="fill:white;fill-rule:nonzero;"/>
                            </g>
                            <g transform="matrix(72.495,0,0,72.495,359.793,0)">
                                <path d="M0.306,0.01C0.255,0.01 0.209,-0.001 0.17,-0.023C0.131,-0.045 0.1,-0.076 0.078,-0.115C0.056,-0.154 0.045,-0.2 0.045,-0.253C0.045,-0.31 0.056,-0.358 0.079,-0.398C0.101,-0.438 0.13,-0.469 0.166,-0.491C0.201,-0.512 0.239,-0.523 0.279,-0.523C0.308,-0.523 0.337,-0.518 0.365,-0.507C0.392,-0.497 0.417,-0.482 0.438,-0.462C0.459,-0.441 0.477,-0.416 0.49,-0.387C0.503,-0.358 0.51,-0.324 0.511,-0.285C0.511,-0.277 0.508,-0.27 0.502,-0.265C0.496,-0.259 0.489,-0.256 0.481,-0.256L0.08,-0.256L0.068,-0.31L0.462,-0.31L0.449,-0.298L0.449,-0.318C0.446,-0.349 0.435,-0.376 0.418,-0.398C0.401,-0.42 0.38,-0.437 0.356,-0.448C0.331,-0.459 0.306,-0.465 0.279,-0.465C0.259,-0.465 0.238,-0.461 0.218,-0.453C0.197,-0.445 0.178,-0.433 0.161,-0.416C0.143,-0.399 0.13,-0.377 0.119,-0.35C0.108,-0.324 0.103,-0.293 0.103,-0.257C0.103,-0.218 0.111,-0.182 0.127,-0.15C0.143,-0.118 0.166,-0.093 0.196,-0.074C0.226,-0.055 0.262,-0.046 0.305,-0.046C0.328,-0.046 0.348,-0.049 0.367,-0.056C0.386,-0.063 0.402,-0.071 0.417,-0.083C0.431,-0.094 0.443,-0.105 0.452,-0.117C0.459,-0.123 0.466,-0.126 0.473,-0.126C0.48,-0.126 0.487,-0.123 0.492,-0.118C0.497,-0.113 0.499,-0.107 0.499,-0.1C0.499,-0.092 0.496,-0.085 0.489,-0.079C0.469,-0.055 0.443,-0.034 0.411,-0.017C0.379,0.001 0.344,0.01 0.306,0.01Z" style="fill:white;fill-rule:nonzero;"/>
                            </g>
                        </g>
                    </g>
                </g>
                <g transform="matrix(1,0,0,1,622.94,400.615)">
                    <g>
                        <g transform="matrix(72.495,0,0,72.495,0,0)">
                            <path d="M0.272,0.01C0.225,0.01 0.183,-0.001 0.146,-0.023C0.109,-0.045 0.081,-0.073 0.061,-0.108C0.04,-0.143 0.03,-0.179 0.03,-0.218C0.03,-0.247 0.036,-0.276 0.048,-0.303C0.059,-0.33 0.077,-0.355 0.101,-0.377C0.124,-0.398 0.154,-0.415 0.191,-0.428L0.234,-0.385C0.182,-0.373 0.145,-0.352 0.124,-0.323C0.103,-0.294 0.092,-0.261 0.092,-0.226C0.092,-0.196 0.099,-0.168 0.113,-0.141C0.127,-0.114 0.148,-0.091 0.176,-0.074C0.204,-0.057 0.238,-0.048 0.279,-0.048C0.322,-0.048 0.36,-0.055 0.391,-0.07C0.422,-0.084 0.448,-0.103 0.469,-0.127C0.49,-0.15 0.507,-0.177 0.52,-0.206C0.533,-0.236 0.542,-0.266 0.548,-0.297C0.549,-0.304 0.552,-0.309 0.557,-0.313C0.561,-0.316 0.567,-0.318 0.575,-0.318C0.584,-0.318 0.592,-0.315 0.597,-0.308C0.602,-0.301 0.604,-0.293 0.603,-0.283C0.597,-0.247 0.586,-0.212 0.57,-0.177C0.554,-0.142 0.532,-0.111 0.505,-0.083C0.478,-0.054 0.445,-0.032 0.406,-0.015C0.367,0.002 0.323,0.01 0.272,0.01ZM0.627,-0.003C0.624,-0.003 0.621,-0.004 0.618,-0.005C0.615,-0.006 0.612,-0.007 0.609,-0.008C0.568,-0.04 0.529,-0.071 0.492,-0.101C0.454,-0.13 0.417,-0.162 0.38,-0.197C0.343,-0.232 0.304,-0.272 0.263,-0.317C0.24,-0.344 0.219,-0.37 0.2,-0.396C0.181,-0.421 0.166,-0.447 0.155,-0.471C0.144,-0.497 0.138,-0.521 0.138,-0.546C0.138,-0.577 0.146,-0.605 0.161,-0.629C0.176,-0.655 0.198,-0.674 0.226,-0.689C0.254,-0.703 0.287,-0.71 0.326,-0.71C0.374,-0.71 0.414,-0.701 0.445,-0.683C0.476,-0.665 0.498,-0.644 0.511,-0.619C0.512,-0.618 0.513,-0.616 0.514,-0.613C0.515,-0.609 0.516,-0.605 0.516,-0.6C0.516,-0.594 0.514,-0.588 0.508,-0.583C0.503,-0.578 0.497,-0.575 0.488,-0.575C0.483,-0.575 0.478,-0.576 0.474,-0.578C0.471,-0.58 0.468,-0.583 0.466,-0.586C0.453,-0.606 0.435,-0.623 0.413,-0.635C0.392,-0.649 0.363,-0.655 0.326,-0.655C0.285,-0.655 0.254,-0.645 0.233,-0.625C0.212,-0.604 0.201,-0.578 0.201,-0.546C0.201,-0.525 0.207,-0.503 0.218,-0.481C0.229,-0.458 0.244,-0.434 0.262,-0.411C0.279,-0.388 0.298,-0.365 0.317,-0.343C0.344,-0.313 0.372,-0.284 0.402,-0.256C0.431,-0.227 0.461,-0.201 0.49,-0.176C0.519,-0.151 0.546,-0.129 0.572,-0.109C0.598,-0.089 0.621,-0.071 0.641,-0.056C0.646,-0.053 0.649,-0.049 0.651,-0.045C0.653,-0.041 0.654,-0.036 0.654,-0.031C0.654,-0.026 0.652,-0.02 0.647,-0.013C0.642,-0.006 0.636,-0.003 0.627,-0.003Z" style="fill:white;fill-rule:nonzero;"/>
                        </g>
                        <g transform="matrix(1,0,0,1,84.9034,0)">
                            <g transform="matrix(72.495,0,0,72.495,0,0)">
                                <path d="M0.287,0.01C0.236,0.011 0.192,0.003 0.155,-0.014C0.118,-0.031 0.082,-0.056 0.048,-0.089C0.045,-0.092 0.042,-0.095 0.04,-0.099C0.037,-0.103 0.036,-0.108 0.036,-0.113C0.036,-0.121 0.039,-0.128 0.046,-0.135C0.052,-0.142 0.059,-0.145 0.067,-0.145C0.075,-0.145 0.082,-0.142 0.089,-0.135C0.115,-0.107 0.145,-0.086 0.178,-0.071C0.211,-0.056 0.246,-0.049 0.284,-0.049C0.316,-0.049 0.344,-0.054 0.37,-0.064C0.395,-0.074 0.414,-0.088 0.429,-0.107C0.444,-0.126 0.451,-0.147 0.451,-0.172C0.451,-0.203 0.443,-0.228 0.426,-0.247C0.409,-0.266 0.387,-0.281 0.36,-0.294C0.333,-0.306 0.302,-0.317 0.269,-0.327C0.242,-0.335 0.216,-0.344 0.191,-0.355C0.166,-0.365 0.144,-0.378 0.125,-0.393C0.106,-0.407 0.091,-0.426 0.08,-0.448C0.069,-0.47 0.064,-0.497 0.064,-0.528C0.064,-0.563 0.073,-0.595 0.092,-0.622C0.111,-0.649 0.137,-0.671 0.172,-0.687C0.206,-0.702 0.246,-0.71 0.291,-0.71C0.33,-0.71 0.368,-0.703 0.405,-0.69C0.441,-0.677 0.47,-0.657 0.491,-0.631C0.501,-0.62 0.506,-0.611 0.506,-0.602C0.506,-0.595 0.503,-0.589 0.496,-0.582C0.489,-0.575 0.482,-0.572 0.474,-0.572C0.467,-0.572 0.462,-0.574 0.457,-0.579C0.446,-0.593 0.431,-0.606 0.414,-0.617C0.397,-0.627 0.378,-0.636 0.357,-0.642C0.336,-0.648 0.314,-0.651 0.291,-0.651C0.26,-0.651 0.232,-0.646 0.206,-0.636C0.182,-0.627 0.162,-0.613 0.148,-0.595C0.133,-0.577 0.126,-0.555 0.126,-0.53C0.126,-0.502 0.134,-0.479 0.15,-0.461C0.166,-0.443 0.187,-0.428 0.213,-0.417C0.239,-0.405 0.267,-0.394 0.296,-0.384C0.325,-0.376 0.352,-0.367 0.379,-0.357C0.405,-0.346 0.428,-0.333 0.449,-0.318C0.469,-0.303 0.485,-0.283 0.497,-0.26C0.508,-0.237 0.514,-0.207 0.514,-0.172C0.514,-0.138 0.504,-0.107 0.485,-0.08C0.466,-0.053 0.439,-0.031 0.406,-0.015C0.372,0.001 0.332,0.009 0.287,0.01Z" style="fill:white;fill-rule:nonzero;"/>
                            </g>
                            <g transform="matrix(72.495,0,0,72.495,40.7422,0)">
                                <path d="M0.306,0.01C0.255,0.01 0.209,-0.001 0.17,-0.023C0.131,-0.045 0.1,-0.076 0.078,-0.115C0.056,-0.154 0.045,-0.2 0.045,-0.253C0.045,-0.31 0.056,-0.358 0.079,-0.398C0.101,-0.438 0.13,-0.469 0.166,-0.491C0.201,-0.512 0.239,-0.523 0.279,-0.523C0.308,-0.523 0.337,-0.518 0.365,-0.507C0.392,-0.497 0.417,-0.482 0.438,-0.462C0.459,-0.441 0.477,-0.416 0.49,-0.387C0.503,-0.358 0.51,-0.324 0.511,-0.285C0.511,-0.277 0.508,-0.27 0.502,-0.265C0.496,-0.259 0.489,-0.256 0.481,-0.256L0.08,-0.256L0.068,-0.31L0.462,-0.31L0.449,-0.298L0.449,-0.318C0.446,-0.349 0.435,-0.376 0.418,-0.398C0.401,-0.42 0.38,-0.437 0.356,-0.448C0.331,-0.459 0.306,-0.465 0.279,-0.465C0.259,-0.465 0.238,-0.461 0.218,-0.453C0.197,-0.445 0.178,-0.433 0.161,-0.416C0.143,-0.399 0.13,-0.377 0.119,-0.35C0.108,-0.324 0.103,-0.293 0.103,-0.257C0.103,-0.218 0.111,-0.182 0.127,-0.15C0.143,-0.118 0.166,-0.093 0.196,-0.074C0.226,-0.055 0.262,-0.046 0.305,-0.046C0.328,-0.046 0.348,-0.049 0.367,-0.056C0.386,-0.063 0.402,-0.071 0.417,-0.083C0.431,-0.094 0.443,-0.105 0.452,-0.117C0.459,-0.123 0.466,-0.126 0.473,-0.126C0.48,-0.126 0.487,-0.123 0.492,-0.118C0.497,-0.113 0.499,-0.107 0.499,-0.1C0.499,-0.092 0.496,-0.085 0.489,-0.079C0.469,-0.055 0.443,-0.034 0.411,-0.017C0.379,0.001 0.344,0.01 0.306,0.01Z" style="fill:white;fill-rule:nonzero;"/>
                            </g>
                            <g transform="matrix(72.495,0,0,72.495,81.0494,0)">
                                <path d="M0.32,-0.523C0.364,-0.523 0.399,-0.514 0.426,-0.497C0.452,-0.479 0.471,-0.455 0.483,-0.425C0.494,-0.394 0.5,-0.361 0.5,-0.324L0.5,-0.03C0.5,-0.022 0.497,-0.015 0.491,-0.009C0.485,-0.003 0.478,0 0.47,0C0.461,0 0.453,-0.003 0.448,-0.009C0.443,-0.015 0.44,-0.022 0.44,-0.03L0.44,-0.321C0.44,-0.348 0.436,-0.372 0.427,-0.394C0.418,-0.416 0.404,-0.434 0.385,-0.447C0.365,-0.46 0.339,-0.467 0.307,-0.467C0.278,-0.467 0.251,-0.46 0.226,-0.447C0.2,-0.434 0.179,-0.416 0.163,-0.394C0.147,-0.372 0.139,-0.348 0.139,-0.321L0.139,-0.03C0.139,-0.022 0.136,-0.015 0.13,-0.009C0.124,-0.003 0.117,0 0.109,0C0.1,0 0.092,-0.003 0.087,-0.009C0.082,-0.015 0.079,-0.022 0.079,-0.03L0.079,-0.478C0.079,-0.486 0.082,-0.493 0.087,-0.499C0.093,-0.505 0.1,-0.508 0.109,-0.508C0.118,-0.508 0.125,-0.505 0.131,-0.499C0.136,-0.493 0.139,-0.486 0.139,-0.478L0.139,-0.394L0.116,-0.358C0.117,-0.379 0.124,-0.4 0.137,-0.42C0.149,-0.439 0.165,-0.457 0.184,-0.472C0.203,-0.488 0.225,-0.5 0.249,-0.509C0.272,-0.519 0.296,-0.523 0.32,-0.523Z" style="fill:white;fill-rule:nonzero;"/>
                            </g>
                            <g transform="matrix(72.495,0,0,72.495,122.952,0)">
                                <path d="M0.05,-0.081C0.045,-0.089 0.042,-0.097 0.043,-0.105C0.043,-0.112 0.047,-0.118 0.055,-0.123C0.06,-0.128 0.067,-0.13 0.074,-0.129C0.081,-0.128 0.087,-0.125 0.093,-0.119C0.111,-0.096 0.133,-0.077 0.159,-0.063C0.184,-0.048 0.215,-0.041 0.25,-0.041C0.269,-0.041 0.287,-0.044 0.306,-0.051C0.324,-0.057 0.339,-0.067 0.351,-0.08C0.363,-0.093 0.369,-0.109 0.369,-0.129C0.369,-0.15 0.363,-0.166 0.351,-0.179C0.339,-0.192 0.324,-0.202 0.305,-0.209C0.285,-0.216 0.265,-0.223 0.244,-0.228C0.221,-0.234 0.199,-0.241 0.178,-0.249C0.157,-0.256 0.138,-0.266 0.122,-0.278C0.105,-0.289 0.092,-0.303 0.082,-0.32C0.072,-0.337 0.067,-0.357 0.067,-0.381C0.067,-0.409 0.075,-0.434 0.09,-0.455C0.105,-0.476 0.126,-0.493 0.153,-0.505C0.179,-0.517 0.209,-0.523 0.242,-0.523C0.259,-0.523 0.277,-0.521 0.296,-0.517C0.315,-0.512 0.334,-0.505 0.353,-0.495C0.372,-0.485 0.388,-0.471 0.403,-0.454C0.409,-0.448 0.412,-0.441 0.412,-0.434C0.412,-0.426 0.409,-0.419 0.402,-0.413C0.397,-0.409 0.391,-0.407 0.384,-0.407C0.377,-0.407 0.371,-0.41 0.366,-0.415C0.35,-0.433 0.331,-0.447 0.309,-0.456C0.287,-0.465 0.263,-0.47 0.238,-0.47C0.219,-0.47 0.201,-0.467 0.184,-0.461C0.167,-0.454 0.152,-0.445 0.141,-0.432C0.13,-0.419 0.124,-0.403 0.124,-0.382C0.125,-0.363 0.132,-0.347 0.145,-0.335C0.157,-0.323 0.173,-0.313 0.194,-0.305C0.214,-0.297 0.237,-0.29 0.262,-0.283C0.283,-0.278 0.304,-0.271 0.324,-0.264C0.343,-0.257 0.361,-0.248 0.376,-0.236C0.391,-0.226 0.403,-0.212 0.411,-0.195C0.421,-0.178 0.425,-0.157 0.425,-0.132C0.425,-0.103 0.417,-0.077 0.401,-0.056C0.384,-0.035 0.362,-0.018 0.335,-0.007C0.308,0.004 0.277,0.01 0.244,0.01C0.208,0.01 0.173,0.003 0.14,-0.011C0.106,-0.025 0.076,-0.048 0.05,-0.081Z" style="fill:white;fill-rule:nonzero;"/>
                            </g>
                            <g transform="matrix(72.495,0,0,72.495,156.952,0)">
                                <path d="M0.551,-0.256C0.551,-0.205 0.54,-0.16 0.518,-0.119C0.495,-0.079 0.465,-0.048 0.427,-0.025C0.389,-0.002 0.346,0.01 0.298,0.01C0.251,0.01 0.208,-0.002 0.17,-0.025C0.131,-0.048 0.101,-0.079 0.079,-0.119C0.056,-0.16 0.045,-0.205 0.045,-0.256C0.045,-0.307 0.056,-0.353 0.079,-0.393C0.101,-0.433 0.131,-0.465 0.17,-0.488C0.208,-0.511 0.251,-0.523 0.298,-0.523C0.346,-0.523 0.389,-0.511 0.427,-0.488C0.465,-0.465 0.495,-0.433 0.518,-0.393C0.54,-0.353 0.551,-0.307 0.551,-0.256ZM0.491,-0.256C0.491,-0.297 0.483,-0.333 0.466,-0.365C0.449,-0.396 0.427,-0.421 0.398,-0.44C0.369,-0.458 0.335,-0.467 0.298,-0.467C0.261,-0.467 0.229,-0.458 0.2,-0.44C0.171,-0.421 0.148,-0.396 0.131,-0.365C0.114,-0.333 0.105,-0.297 0.105,-0.256C0.105,-0.215 0.114,-0.179 0.131,-0.148C0.148,-0.117 0.171,-0.092 0.2,-0.074C0.229,-0.055 0.261,-0.046 0.298,-0.046C0.335,-0.046 0.369,-0.055 0.398,-0.074C0.427,-0.092 0.449,-0.117 0.466,-0.148C0.483,-0.179 0.491,-0.215 0.491,-0.256Z" style="fill:white;fill-rule:nonzero;"/>
                            </g>
                            <g transform="matrix(72.495,0,0,72.495,200.086,0)">
                                <path d="M0.109,0C0.1,0 0.092,-0.003 0.087,-0.009C0.082,-0.015 0.079,-0.022 0.079,-0.03L0.079,-0.478C0.079,-0.486 0.082,-0.493 0.087,-0.499C0.093,-0.505 0.1,-0.508 0.109,-0.508C0.118,-0.508 0.125,-0.505 0.131,-0.499C0.136,-0.493 0.139,-0.486 0.139,-0.478L0.139,-0.328L0.124,-0.325C0.126,-0.348 0.132,-0.372 0.141,-0.395C0.151,-0.418 0.164,-0.439 0.181,-0.458C0.198,-0.477 0.218,-0.493 0.241,-0.505C0.264,-0.517 0.289,-0.523 0.318,-0.523C0.33,-0.523 0.342,-0.521 0.353,-0.516C0.364,-0.51 0.37,-0.502 0.37,-0.491C0.37,-0.481 0.367,-0.473 0.362,-0.468C0.357,-0.463 0.35,-0.46 0.343,-0.46C0.337,-0.46 0.331,-0.462 0.324,-0.465C0.317,-0.468 0.307,-0.47 0.296,-0.47C0.277,-0.47 0.259,-0.465 0.24,-0.454C0.221,-0.443 0.204,-0.428 0.189,-0.409C0.174,-0.39 0.162,-0.37 0.153,-0.346C0.143,-0.324 0.139,-0.3 0.139,-0.277L0.139,-0.03C0.139,-0.022 0.136,-0.015 0.13,-0.009C0.124,-0.003 0.117,0 0.109,0Z" style="fill:white;fill-rule:nonzero;"/>
                            </g>
                            <g transform="matrix(72.495,0,0,72.495,226.402,0)">
                                <path d="M0.306,0.01C0.255,0.01 0.209,-0.001 0.17,-0.023C0.131,-0.045 0.1,-0.076 0.078,-0.115C0.056,-0.154 0.045,-0.2 0.045,-0.253C0.045,-0.31 0.056,-0.358 0.079,-0.398C0.101,-0.438 0.13,-0.469 0.166,-0.491C0.201,-0.512 0.239,-0.523 0.279,-0.523C0.308,-0.523 0.337,-0.518 0.365,-0.507C0.392,-0.497 0.417,-0.482 0.438,-0.462C0.459,-0.441 0.477,-0.416 0.49,-0.387C0.503,-0.358 0.51,-0.324 0.511,-0.285C0.511,-0.277 0.508,-0.27 0.502,-0.265C0.496,-0.259 0.489,-0.256 0.481,-0.256L0.08,-0.256L0.068,-0.31L0.462,-0.31L0.449,-0.298L0.449,-0.318C0.446,-0.349 0.435,-0.376 0.418,-0.398C0.401,-0.42 0.38,-0.437 0.356,-0.448C0.331,-0.459 0.306,-0.465 0.279,-0.465C0.259,-0.465 0.238,-0.461 0.218,-0.453C0.197,-0.445 0.178,-0.433 0.161,-0.416C0.143,-0.399 0.13,-0.377 0.119,-0.35C0.108,-0.324 0.103,-0.293 0.103,-0.257C0.103,-0.218 0.111,-0.182 0.127,-0.15C0.143,-0.118 0.166,-0.093 0.196,-0.074C0.226,-0.055 0.262,-0.046 0.305,-0.046C0.328,-0.046 0.348,-0.049 0.367,-0.056C0.386,-0.063 0.402,-0.071 0.417,-0.083C0.431,-0.094 0.443,-0.105 0.452,-0.117C0.459,-0.123 0.466,-0.126 0.473,-0.126C0.48,-0.126 0.487,-0.123 0.492,-0.118C0.497,-0.113 0.499,-0.107 0.499,-0.1C0.499,-0.092 0.496,-0.085 0.489,-0.079C0.469,-0.055 0.443,-0.034 0.411,-0.017C0.379,0.001 0.344,0.01 0.306,0.01Z" style="fill:white;fill-rule:nonzero;"/>
                            </g>
                            <g transform="matrix(72.495,0,0,72.495,266.709,0)">
                                <path d="M0.32,-0.523C0.364,-0.523 0.399,-0.514 0.426,-0.497C0.452,-0.479 0.471,-0.455 0.483,-0.425C0.494,-0.394 0.5,-0.361 0.5,-0.324L0.5,-0.03C0.5,-0.022 0.497,-0.015 0.491,-0.009C0.485,-0.003 0.478,0 0.47,0C0.461,0 0.453,-0.003 0.448,-0.009C0.443,-0.015 0.44,-0.022 0.44,-0.03L0.44,-0.321C0.44,-0.348 0.436,-0.372 0.427,-0.394C0.418,-0.416 0.404,-0.434 0.385,-0.447C0.365,-0.46 0.339,-0.467 0.307,-0.467C0.278,-0.467 0.251,-0.46 0.226,-0.447C0.2,-0.434 0.179,-0.416 0.163,-0.394C0.147,-0.372 0.139,-0.348 0.139,-0.321L0.139,-0.03C0.139,-0.022 0.136,-0.015 0.13,-0.009C0.124,-0.003 0.117,0 0.109,0C0.1,0 0.092,-0.003 0.087,-0.009C0.082,-0.015 0.079,-0.022 0.079,-0.03L0.079,-0.478C0.079,-0.486 0.082,-0.493 0.087,-0.499C0.093,-0.505 0.1,-0.508 0.109,-0.508C0.118,-0.508 0.125,-0.505 0.131,-0.499C0.136,-0.493 0.139,-0.486 0.139,-0.478L0.139,-0.394L0.116,-0.358C0.117,-0.379 0.124,-0.4 0.137,-0.42C0.149,-0.439 0.165,-0.457 0.184,-0.472C0.203,-0.488 0.225,-0.5 0.249,-0.509C0.272,-0.519 0.296,-0.523 0.32,-0.523Z" style="fill:white;fill-rule:nonzero;"/>
                            </g>
                        </g>
                    </g>
                </g>
                <g transform="matrix(1.0003,0,0,1,382.65,214.817)">
                    <g>
                        <g transform="matrix(220.427,0,0,220.427,0,0)">
                            <path d="M0.605,-0.648C0.613,-0.643 0.618,-0.636 0.619,-0.627C0.62,-0.619 0.618,-0.611 0.613,-0.603C0.608,-0.597 0.602,-0.594 0.595,-0.593C0.588,-0.592 0.581,-0.594 0.574,-0.597C0.549,-0.614 0.522,-0.627 0.493,-0.636C0.464,-0.645 0.432,-0.65 0.399,-0.65C0.358,-0.65 0.321,-0.643 0.285,-0.628C0.251,-0.614 0.22,-0.594 0.194,-0.567C0.168,-0.54 0.148,-0.508 0.134,-0.471C0.119,-0.434 0.112,-0.394 0.112,-0.35C0.112,-0.305 0.119,-0.264 0.134,-0.227C0.149,-0.19 0.169,-0.158 0.196,-0.131C0.222,-0.104 0.252,-0.084 0.287,-0.07C0.322,-0.056 0.359,-0.049 0.399,-0.049C0.432,-0.049 0.463,-0.054 0.492,-0.063C0.521,-0.072 0.548,-0.085 0.573,-0.101C0.58,-0.105 0.587,-0.107 0.595,-0.106C0.602,-0.105 0.608,-0.101 0.613,-0.094C0.619,-0.087 0.621,-0.079 0.62,-0.07C0.618,-0.062 0.613,-0.056 0.606,-0.051C0.589,-0.04 0.57,-0.03 0.547,-0.021C0.524,-0.012 0.5,-0.004 0.475,0.001C0.45,0.007 0.424,0.01 0.399,0.01C0.351,0.01 0.306,0.001 0.264,-0.016C0.222,-0.033 0.185,-0.058 0.152,-0.09C0.119,-0.121 0.094,-0.159 0.076,-0.203C0.057,-0.247 0.048,-0.296 0.048,-0.35C0.048,-0.402 0.057,-0.45 0.075,-0.494C0.093,-0.537 0.118,-0.575 0.15,-0.607C0.182,-0.639 0.219,-0.664 0.262,-0.682C0.305,-0.7 0.35,-0.709 0.399,-0.709C0.437,-0.709 0.474,-0.704 0.509,-0.693C0.544,-0.682 0.576,-0.667 0.605,-0.648Z" style="fill:rgb(211,234,248);fill-rule:nonzero;"/>
                        </g>
                        <g transform="matrix(1,0,0,1,132.92,0)">
                            <g transform="matrix(220.427,0,0,220.427,0,0)">
                                <path d="M0.718,-0.35C0.718,-0.297 0.71,-0.249 0.694,-0.205C0.677,-0.162 0.654,-0.124 0.624,-0.092C0.594,-0.059 0.559,-0.034 0.518,-0.017C0.476,0.001 0.432,0.01 0.383,0.01C0.334,0.01 0.29,0.001 0.249,-0.017C0.207,-0.034 0.172,-0.059 0.142,-0.092C0.112,-0.124 0.089,-0.162 0.073,-0.205C0.056,-0.249 0.048,-0.297 0.048,-0.35C0.048,-0.403 0.056,-0.451 0.073,-0.495C0.089,-0.538 0.112,-0.576 0.142,-0.609C0.172,-0.641 0.207,-0.666 0.249,-0.684C0.29,-0.701 0.334,-0.71 0.383,-0.71C0.432,-0.71 0.476,-0.701 0.518,-0.684C0.559,-0.666 0.594,-0.641 0.624,-0.609C0.654,-0.576 0.677,-0.538 0.694,-0.495C0.71,-0.451 0.718,-0.403 0.718,-0.35ZM0.654,-0.35C0.654,-0.409 0.643,-0.462 0.62,-0.506C0.597,-0.552 0.565,-0.587 0.524,-0.612C0.483,-0.637 0.436,-0.65 0.383,-0.65C0.33,-0.65 0.283,-0.637 0.243,-0.612C0.202,-0.587 0.17,-0.552 0.147,-0.506C0.124,-0.462 0.112,-0.409 0.112,-0.35C0.112,-0.291 0.124,-0.238 0.147,-0.194C0.17,-0.149 0.202,-0.113 0.243,-0.088C0.283,-0.063 0.33,-0.05 0.383,-0.05C0.436,-0.05 0.483,-0.063 0.524,-0.088C0.565,-0.113 0.597,-0.149 0.62,-0.194C0.643,-0.238 0.654,-0.291 0.654,-0.35Z" style="fill:rgb(211,234,248);fill-rule:nonzero;"/>
                            </g>
                        </g>
                    </g>
                    <g transform="matrix(1,0,0,1,382.15,0)">
                        <g>
                            <g transform="matrix(220.427,0,0,220.427,0,0)">
                                <path d="M0.389,-0.7C0.445,-0.7 0.489,-0.685 0.521,-0.655C0.552,-0.624 0.568,-0.582 0.568,-0.528C0.568,-0.5 0.562,-0.473 0.55,-0.448C0.538,-0.423 0.52,-0.402 0.497,-0.387C0.474,-0.371 0.445,-0.362 0.41,-0.36L0.406,-0.38C0.431,-0.38 0.455,-0.377 0.478,-0.37C0.502,-0.363 0.523,-0.351 0.542,-0.336C0.561,-0.321 0.576,-0.302 0.587,-0.279C0.598,-0.256 0.604,-0.228 0.604,-0.195C0.604,-0.16 0.598,-0.131 0.587,-0.106C0.575,-0.081 0.559,-0.06 0.54,-0.045C0.52,-0.03 0.497,-0.018 0.472,-0.011C0.447,-0.004 0.42,0 0.393,0L0.124,0C0.116,0 0.109,-0.003 0.103,-0.009C0.097,-0.015 0.094,-0.022 0.094,-0.03L0.094,-0.67C0.094,-0.678 0.097,-0.685 0.103,-0.691C0.109,-0.697 0.116,-0.7 0.124,-0.7L0.389,-0.7ZM0.381,-0.641L0.146,-0.641L0.158,-0.659L0.158,-0.376L0.147,-0.391L0.381,-0.391C0.416,-0.392 0.445,-0.403 0.469,-0.425C0.492,-0.447 0.504,-0.48 0.504,-0.523C0.504,-0.56 0.493,-0.589 0.472,-0.61C0.451,-0.63 0.42,-0.641 0.381,-0.641ZM0.388,-0.331L0.153,-0.331L0.158,-0.337L0.158,-0.05L0.152,-0.059L0.39,-0.059C0.433,-0.059 0.468,-0.07 0.497,-0.092C0.526,-0.113 0.54,-0.148 0.54,-0.195C0.54,-0.228 0.533,-0.255 0.519,-0.275C0.505,-0.295 0.486,-0.309 0.463,-0.318C0.44,-0.327 0.415,-0.331 0.388,-0.331Z" style="fill:white;fill-rule:nonzero;"/>
                            </g>
                            <g transform="matrix(1,0,0,1,132.479,0)">
                                <g transform="matrix(220.427,0,0,220.427,0,0)">
                                    <path d="M0.287,0.01C0.236,0.011 0.192,0.003 0.155,-0.014C0.118,-0.031 0.082,-0.056 0.048,-0.089C0.045,-0.092 0.042,-0.095 0.04,-0.099C0.037,-0.103 0.036,-0.108 0.036,-0.113C0.036,-0.121 0.039,-0.128 0.046,-0.135C0.052,-0.142 0.059,-0.145 0.067,-0.145C0.075,-0.145 0.082,-0.142 0.089,-0.135C0.115,-0.107 0.145,-0.086 0.178,-0.071C0.211,-0.056 0.246,-0.049 0.284,-0.049C0.316,-0.049 0.344,-0.054 0.37,-0.064C0.395,-0.074 0.414,-0.088 0.429,-0.107C0.444,-0.126 0.451,-0.147 0.451,-0.172C0.451,-0.203 0.443,-0.228 0.426,-0.247C0.409,-0.266 0.387,-0.281 0.36,-0.294C0.333,-0.306 0.302,-0.317 0.269,-0.327C0.242,-0.335 0.216,-0.344 0.191,-0.355C0.166,-0.365 0.144,-0.378 0.125,-0.393C0.106,-0.407 0.091,-0.426 0.08,-0.448C0.069,-0.47 0.064,-0.497 0.064,-0.528C0.064,-0.563 0.073,-0.595 0.092,-0.622C0.111,-0.649 0.137,-0.671 0.172,-0.687C0.206,-0.702 0.246,-0.71 0.291,-0.71C0.33,-0.71 0.368,-0.703 0.405,-0.69C0.441,-0.677 0.47,-0.657 0.491,-0.631C0.501,-0.62 0.506,-0.611 0.506,-0.602C0.506,-0.595 0.503,-0.589 0.496,-0.582C0.489,-0.575 0.482,-0.572 0.474,-0.572C0.467,-0.572 0.462,-0.574 0.457,-0.579C0.446,-0.593 0.431,-0.606 0.414,-0.617C0.397,-0.627 0.378,-0.636 0.357,-0.642C0.336,-0.648 0.314,-0.651 0.291,-0.651C0.26,-0.651 0.232,-0.646 0.206,-0.636C0.182,-0.627 0.162,-0.613 0.148,-0.595C0.133,-0.577 0.126,-0.555 0.126,-0.53C0.126,-0.502 0.134,-0.479 0.15,-0.461C0.166,-0.443 0.187,-0.428 0.213,-0.417C0.239,-0.405 0.267,-0.394 0.296,-0.384C0.325,-0.376 0.352,-0.367 0.379,-0.357C0.405,-0.346 0.428,-0.333 0.449,-0.318C0.469,-0.303 0.485,-0.283 0.497,-0.26C0.508,-0.237 0.514,-0.207 0.514,-0.172C0.514,-0.138 0.504,-0.107 0.485,-0.08C0.466,-0.053 0.439,-0.031 0.406,-0.015C0.372,0.001 0.332,0.009 0.287,0.01Z" style="fill:white;fill-rule:nonzero;"/>
                                </g>
                            </g>
                        </g>
                    </g>
                </g>
            </g>
        </g>
    </g>
</svg>
