<?xml version="1.0" encoding="UTF-8" standalone="no"?>
<!DOCTYPE svg PUBLIC "-//W3C//DTD SVG 1.1//EN" "http://www.w3.org/Graphics/SVG/1.1/DTD/svg11.dtd">
<svg width="100%" height="100%" viewBox="0 0 100 100" version="1.1" xmlns="http://www.w3.org/2000/svg" xmlns:xlink="http://www.w3.org/1999/xlink" xml:space="preserve" xmlns:serif="http://www.serif.com/" style="fill-rule:evenodd;clip-rule:evenodd;stroke-linejoin:round;stroke-miterlimit:2;">
    <path d="M50,0C77.596,0 100,22.404 100,50C100,77.596 77.596,100 50,100C22.404,100 0,77.596 0,50C0,22.404 22.404,0 50,0ZM58.256,32.885C56.234,32.885 54.595,34.533 54.595,36.556C54.595,36.88 54.638,37.195 54.723,37.493L54.212,37.937L48.853,42.529L48.853,21.741C50.021,21.135 50.814,19.915 50.814,18.506C50.814,16.484 49.168,14.846 47.154,14.846C45.132,14.846 43.484,16.484 43.484,18.506C43.484,19.906 44.278,21.127 45.438,21.741L45.438,54.697L43.895,56.754L39.107,49.894L39.107,31.334L34.832,25.232C35.088,24.728 35.232,24.157 35.232,23.55C35.232,21.529 33.595,19.89 31.572,19.89C29.55,19.89 27.902,21.529 27.902,23.55C27.902,25.573 29.55,27.22 31.572,27.22C31.735,27.22 31.887,27.211 32.042,27.185L35.694,32.409L35.694,47.171L31.103,47.171L24.993,38.501C25.24,38.006 25.385,37.444 25.377,36.846C25.385,34.824 23.747,33.185 21.723,33.185C19.702,33.185 18.064,34.824 18.054,36.846C18.064,38.868 19.702,40.516 21.723,40.516C21.887,40.516 22.056,40.507 22.21,40.48L29.328,50.586L35.43,50.586L42.196,60.288L42.093,75.819C42.093,79.077 39.431,81.74 36.172,81.74L35.847,81.74C34.908,81.74 34.14,82.499 34.14,83.447C34.14,84.385 34.908,85.154 35.847,85.154L36.172,85.154C41.318,85.154 45.49,80.973 45.507,75.828L45.61,60.141L48.853,55.839L48.853,47.027L55.644,41.198L57.035,40.002C57.411,40.139 57.829,40.216 58.256,40.216C60.278,40.216 61.917,38.577 61.917,36.555C61.917,34.533 60.278,32.885 58.256,32.885ZM82.5,49.39C82.5,54.382 78.447,58.435 73.455,58.435C73.309,58.435 73.156,58.435 73.01,58.427C73.019,58.555 73.019,58.675 73.019,58.803C73.019,64.459 68.437,69.043 62.78,69.043C60.176,69.043 57.796,68.078 55.995,66.474L55.995,75.819C55.995,79.077 58.648,81.732 61.908,81.732L62.232,81.732C63.172,81.732 63.939,82.499 63.939,83.44C63.939,84.385 63.172,85.145 62.232,85.145L61.908,85.145C56.762,85.145 52.582,80.963 52.582,75.819L52.582,59.724C52.555,59.417 52.538,59.108 52.538,58.802C52.538,57.964 52.641,57.147 52.837,56.362C53.128,60.379 56.481,63.547 60.569,63.547C64.512,63.547 67.772,60.602 68.258,56.788C68.3,56.463 68.326,56.13 68.326,55.789C68.326,55.328 68.283,54.868 68.207,54.432C68.573,54.5 68.957,54.534 69.35,54.534C70.229,54.534 71.073,54.356 71.842,54.04C74.163,53.058 75.801,50.763 75.801,48.083C75.801,45.933 74.743,44.022 73.123,42.861C72.063,42.084 70.759,41.632 69.35,41.632C69.162,41.632 68.983,41.641 68.804,41.659C68.863,41.623 68.932,41.581 68.992,41.53C70.631,40.326 71.687,38.398 71.687,36.213C71.687,32.577 68.744,29.626 65.1,29.626L64.981,29.626C64.204,29.642 63.461,29.788 62.771,30.052C62.804,29.752 62.822,29.455 62.822,29.147C62.822,28.729 62.788,28.319 62.719,27.91C62.131,24.181 58.896,21.322 54.997,21.322C53.265,21.322 51.661,21.894 50.364,22.857C51.285,19.351 54.477,16.774 58.265,16.774C62.789,16.774 66.449,20.434 66.449,24.949C66.449,25.393 66.415,25.828 66.347,26.255C66.952,26.127 67.576,26.057 68.223,26.057C73.259,26.057 77.346,30.137 77.346,35.172C77.346,37.203 76.681,39.081 75.554,40.599C79.53,41.539 82.5,45.124 82.5,49.39ZM35.855,58.623C34.448,58.623 33.227,59.417 32.621,60.578L27.194,60.578L24.429,56.627C24.685,56.122 24.83,55.56 24.83,54.954C24.83,52.93 23.192,51.292 21.178,51.292C19.148,51.292 17.5,52.93 17.5,54.954C17.5,56.974 19.148,58.613 21.178,58.613C21.332,58.613 21.485,58.605 21.63,58.588L25.411,63.989L32.621,63.989C33.228,65.16 34.448,65.953 35.855,65.953C37.879,65.953 39.517,64.306 39.517,62.283C39.517,60.261 37.878,58.623 35.855,58.623ZM35.855,64.043C34.891,64.043 34.097,63.257 34.107,62.284C34.107,61.319 34.891,60.535 35.855,60.535C36.82,60.535 37.605,61.319 37.605,62.284C37.605,63.257 36.82,64.043 35.855,64.043ZM22.176,56.388C22.176,56.388 22.168,56.388 22.168,56.395C21.877,56.584 21.537,56.702 21.169,56.702C20.197,56.702 19.412,55.917 19.412,54.954C19.412,53.989 20.197,53.204 21.178,53.204C22.143,53.204 22.919,53.989 22.919,54.954C22.919,55.533 22.629,56.054 22.194,56.379C22.185,56.379 22.185,56.388 22.176,56.388ZM22.841,38.185C22.544,38.441 22.151,38.595 21.723,38.595C20.76,38.595 19.975,37.818 19.975,36.845C19.975,35.881 20.76,35.097 21.723,35.097C22.689,35.097 23.464,35.882 23.464,36.845C23.464,37.392 23.226,37.87 22.841,38.185ZM58.256,38.304C57.624,38.304 57.079,37.972 56.771,37.476L56.771,37.468C56.601,37.195 56.506,36.888 56.506,36.555C56.506,35.583 57.292,34.806 58.256,34.806C59.229,34.806 60.005,35.583 60.005,36.555C60.005,37.519 59.229,38.304 58.256,38.304ZM32.723,24.856C32.416,25.137 32.007,25.3 31.572,25.3C30.6,25.3 29.813,24.523 29.813,23.55C29.813,22.586 30.6,21.801 31.572,21.801C32.536,21.801 33.322,22.586 33.322,23.55C33.322,24.08 33.092,24.548 32.723,24.856ZM47.145,20.257C46.182,20.257 45.397,19.47 45.397,18.506C45.397,17.544 46.182,16.758 47.145,16.758C48.119,16.758 48.903,17.544 48.903,18.506C48.903,19.47 48.119,20.257 47.145,20.257Z" style="fill:white;"/>
</svg>
