<?xml version="1.0" encoding="UTF-8" standalone="no"?><!DOCTYPE svg PUBLIC "-//W3C//DTD SVG 1.1//EN" "http://www.w3.org/Graphics/SVG/1.1/DTD/svg11.dtd"><svg width="100%" height="100%" viewBox="0 0 100 100" version="1.1" xmlns="http://www.w3.org/2000/svg" xmlns:xlink="http://www.w3.org/1999/xlink" xml:space="preserve" xmlns:serif="http://www.serif.com/" style="fill-rule:evenodd;clip-rule:evenodd;stroke-linejoin:round;stroke-miterlimit:1.5;"><path d="M80,10c0,-2.76 -2.24,-5 -5,-5l-50,0c-2.76,0 -5,2.24 -5,5l0,80c0,2.76 2.24,5 5,5l50,0c2.76,0 5,-2.24 5,-5l0,-80Z" style="fill:none;stroke:#000;stroke-width:2px;"/><path d="M75,20c0,-2.76 -2.24,-5 -5,-5l-40,0c-2.76,0 -5,2.24 -5,5l0,60c0,2.76 2.24,5 5,5l40,0c2.76,0 5,-2.24 5,-5l0,-60Z" style="fill:none;stroke:#000;stroke-width:2px;"/><path d="M30,70l40,0" style="fill:none;stroke:#000;stroke-width:2px;stroke-linecap:round;"/><path d="M30,80l40,0" style="fill:none;stroke:#000;stroke-width:2px;stroke-linecap:round;"/><path d="M30,60l40,0" style="fill:none;stroke:#000;stroke-width:2px;stroke-linecap:round;"/><g><path d="M50.118,25.304c0.397,-0.493 1.004,-0.768 1.637,-0.742c0.632,0.025 1.215,0.349 1.571,0.873c0.046,0.066 0.072,0.105 0.072,0.105c0,0 0.752,-0.112 1.692,-0.252c0.82,-0.121 1.646,0.173 2.203,0.786c0.558,0.612 0.774,1.461 0.577,2.266c-0.138,0.564 -0.237,0.965 -0.237,0.965c0,0 0.334,0.369 0.759,0.838c0.46,0.508 0.69,1.183 0.635,1.866c-0.054,0.683 -0.388,1.313 -0.922,1.742c-0.279,0.224 -0.472,0.378 -0.472,0.378c0,0 0.141,0.26 0.336,0.618c0.635,1.168 0.239,2.629 -0.9,3.316c-0.73,0.441 -1.377,0.831 -1.377,0.831l0,0.001c-0.987,1.599 -2.979,2.261 -4.727,1.57c-0.494,-0.195 -0.847,-0.335 -0.847,-0.335c0,0 -0.487,0.09 -1.129,0.21c-1.837,0.341 -3.69,-0.509 -4.629,-2.125c-0.105,-0.18 -0.17,-0.292 -0.17,-0.292c-0.734,-0.129 -1.371,-0.582 -1.733,-1.234c-0.363,-0.651 -0.412,-1.432 -0.135,-2.124c0.028,-0.072 0.045,-0.112 0.045,-0.112c0,0 -0.064,-0.046 -0.172,-0.122c-0.581,-0.412 -0.947,-1.062 -1,-1.773c-0.052,-0.71 0.216,-1.407 0.73,-1.9c0.001,0 0.001,0 0.001,0c0,0 -0.068,-0.319 -0.16,-0.756c-0.137,-0.649 -0.01,-1.325 0.354,-1.878c0.364,-0.554 0.933,-0.94 1.582,-1.072c0.42,-0.086 0.724,-0.148 0.724,-0.148c0,0 0.221,-0.309 0.53,-0.741c1.082,-1.512 3.139,-1.948 4.742,-1.006c0.255,0.15 0.42,0.247 0.42,0.247Z" style="fill:none;stroke:#000;stroke-width:1.38px;stroke-linecap:round;"/><path d="M52.064,36.501c0,0 0.164,0.046 0.406,0.113c1.153,0.324 2.377,-0.19 2.954,-1.239" style="fill:none;stroke:#000;stroke-width:1.38px;stroke-linecap:round;"/><path d="M54.653,33.113c0,0 0.146,-0.095 0.344,-0.224c0.638,-0.417 0.932,-1.199 0.726,-1.932" style="fill:none;stroke:#000;stroke-width:1.38px;stroke-linecap:round;"/><path d="M45.931,36.185c0,0 0.116,0.146 0.271,0.339c0.452,0.566 1.214,0.781 1.895,0.536c0,0 0,0 0,0" style="fill:none;stroke:#000;stroke-width:1.38px;stroke-linecap:round;"/><path d="M50,40.657c0.06,0.672 0.181,2.017 0.194,3.02c0.013,0.998 -0.109,2.231 -0.115,2.993c-0.005,0.527 0.048,1.228 0.075,1.578" style="fill:none;stroke:#000;stroke-width:1.93px;stroke-linecap:round;"/></g></svg>