<?xml version="1.0" encoding="UTF-8" standalone="no"?>
<!DOCTYPE svg PUBLIC "-//W3C//DTD SVG 1.1//EN" "http://www.w3.org/Graphics/SVG/1.1/DTD/svg11.dtd">
<svg width="100%" height="100%" viewBox="0 0 100 100" version="1.1" xmlns="http://www.w3.org/2000/svg" xmlns:xlink="http://www.w3.org/1999/xlink" xml:space="preserve" xmlns:serif="http://www.serif.com/" style="fill-rule:evenodd;clip-rule:evenodd;stroke-linecap:round;stroke-linejoin:round;stroke-miterlimit:1.5;">
    <g transform="matrix(0.833051,0,0,0.833051,8.34749,8.34741)">
        <path d="M76.856,40.001L36.099,80.759L4.985,95.015L19.241,63.901L59.999,23.144L76.856,40.001Z" style="fill:none;stroke:rgb(124,124,125);stroke-width:10.8px;"/>
    </g>
    <g transform="matrix(0.833051,0,0,0.833051,8.34749,8.34741)">
        <path d="M69.097,14.046C69.097,14.046 73.514,9.629 76.351,6.792C78.759,4.382 82.666,4.382 85.076,6.792C87.577,9.293 90.707,12.423 93.208,14.924C95.618,17.334 95.618,21.241 93.208,23.649C90.371,26.486 85.954,30.903 85.954,30.903L69.097,14.046Z" style="fill:none;stroke:rgb(124,124,125);stroke-width:10.8px;"/>
    </g>
</svg>
