<?xml version="1.0" encoding="UTF-8" standalone="no"?><!DOCTYPE svg PUBLIC "-//W3C//DTD SVG 1.1//EN" "http://www.w3.org/Graphics/SVG/1.1/DTD/svg11.dtd"><svg width="100%" height="100%" viewBox="0 0 100 100" version="1.1" xmlns="http://www.w3.org/2000/svg" xmlns:xlink="http://www.w3.org/1999/xlink" xml:space="preserve" xmlns:serif="http://www.serif.com/" style="fill-rule:evenodd;clip-rule:evenodd;stroke-linecap:round;stroke-linejoin:round;stroke-miterlimit:1.5;"><g><path d="M50,67.256l0,-17.917" style="fill:none;stroke:#007bff;stroke-width:8px;"/><path d="M50,32.826l0,-0.081" style="fill:none;stroke:#007bff;stroke-width:8px;"/></g><path d="M50.308,2.315l0.308,0.003l0.307,0.005l0.307,0.007l0.306,0.008l0.306,0.011l0.306,0.013l0.304,0.014l0.305,0.017l0.304,0.018l0.303,0.02l0.303,0.022l0.302,0.024l0.302,0.026l0.301,0.028l0.301,0.03l0.3,0.031l0.299,0.033l0.299,0.036l0.299,0.037l0.298,0.038l0.297,0.041l0.297,0.043l0.296,0.044l0.296,0.046l0.295,0.048l0.294,0.05l0.294,0.051l0.293,0.054l0.292,0.055l0.292,0.057l0.291,0.059l0.291,0.06l0.29,0.062l0.289,0.064l0.289,0.066l0.288,0.068l0.287,0.069l0.287,0.071l0.286,0.073l0.285,0.074l0.284,0.076l0.284,0.078l0.283,0.079l0.283,0.082l0.282,0.083l0.281,0.084l0.28,0.087l0.279,0.087l0.279,0.09l0.278,0.091l0.277,0.093l0.277,0.095l0.276,0.096l0.275,0.098l0.274,0.1l0.273,0.101l0.273,0.103l0.272,0.104l0.271,0.106l0.27,0.108l0.27,0.109l0.268,0.111l0.268,0.112l0.267,0.114l0.266,0.116l0.265,0.117l0.265,0.118l0.263,0.121l0.263,0.121l0.262,0.124l0.261,0.124l0.26,0.127l0.259,0.128l0.259,0.129l0.257,0.131l0.257,0.133l0.256,0.134l0.254,0.135l0.254,0.137l0.253,0.139l0.252,0.14l0.251,0.141l0.25,0.143l0.249,0.144l0.248,0.146l0.248,0.147l0.246,0.149l0.245,0.15l0.245,0.152l0.243,0.153l0.242,0.154l0.242,0.156l0.24,0.157l0.24,0.159l0.238,0.16l0.237,0.161l0.237,0.163l0.235,0.164l0.234,0.166l0.233,0.167l0.232,0.168l0.232,0.17l0.23,0.171l0.229,0.172l0.228,0.174l0.226,0.175l0.226,0.176l0.225,0.178l0.223,0.179l0.223,0.18l0.221,0.182l0.221,0.183l0.219,0.184l0.218,0.186l0.217,0.186l0.215,0.188l0.215,0.19l0.214,0.19l0.212,0.192l0.211,0.193l0.21,0.195l0.209,0.195l0.208,0.197l0.206,0.198l0.205,0.199l0.204,0.201l0.203,0.202l0.202,0.203l0.201,0.204l0.199,0.205l0.198,0.206l0.197,0.208l0.195,0.209l0.195,0.21l0.193,0.211l0.192,0.212l0.19,0.214l0.19,0.215l0.188,0.215l0.186,0.217l0.186,0.218l0.184,0.219l0.183,0.221l0.182,0.221l0.18,0.223l0.179,0.223l0.178,0.225l0.176,0.226l0.175,0.226l0.174,0.228l0.172,0.229l0.171,0.23l0.17,0.232l0.168,0.232l0.167,0.233l0.166,0.234l0.164,0.235l0.163,0.237l0.161,0.237l0.16,0.238l0.159,0.24l0.157,0.24l0.156,0.242l0.154,0.242l0.153,0.243l0.152,0.245l0.15,0.245l0.149,0.246l0.147,0.248l0.146,0.248l0.144,0.249l0.143,0.25l0.141,0.251l0.14,0.252l0.139,0.253l0.137,0.254l0.135,0.254l0.134,0.256l0.133,0.257l0.131,0.257l0.129,0.259l0.128,0.259l0.127,0.26l0.124,0.261l0.124,0.262l0.121,0.263l0.121,0.263l0.118,0.265l0.117,0.265l0.116,0.266l0.114,0.267l0.112,0.268l0.111,0.268l0.109,0.27l0.108,0.27l0.106,0.271l0.104,0.272l0.103,0.273l0.101,0.273l0.1,0.274l0.098,0.275l0.096,0.276l0.095,0.277l0.093,0.277l0.091,0.278l0.09,0.279l0.087,0.279l0.087,0.28l0.084,0.281l0.083,0.282l0.082,0.283l0.079,0.283l0.078,0.284l0.076,0.284l0.074,0.285l0.073,0.286l0.071,0.287l0.069,0.287l0.068,0.288l0.066,0.289l0.064,0.289l0.062,0.29l0.06,0.291l0.059,0.291l0.057,0.292l0.055,0.292l0.054,0.293l0.051,0.294l0.05,0.294l0.048,0.295l0.046,0.296l0.044,0.296l0.043,0.297l0.041,0.297l0.038,0.298l0.037,0.299l0.036,0.299l0.033,0.299l0.031,0.3l0.03,0.301l0.028,0.301l0.026,0.302l0.024,0.302l0.022,0.303l0.02,0.303l0.018,0.304l0.017,0.305l0.014,0.304l0.013,0.306l0.011,0.306l0.008,0.306l0.007,0.307l0.005,0.307l0.003,0.308l0.001,0.308l-0.001,0.308l-0.003,0.308l-0.005,0.307l-0.007,0.307l-0.008,0.306l-0.011,0.306l-0.013,0.306l-0.014,0.304l-0.017,0.305l-0.018,0.304l-0.02,0.303l-0.022,0.303l-0.024,0.302l-0.026,0.302l-0.028,0.301l-0.03,0.301l-0.031,0.3l-0.033,0.299l-0.036,0.299l-0.037,0.299l-0.038,0.298l-0.041,0.297l-0.043,0.297l-0.044,0.296l-0.046,0.296l-0.048,0.295l-0.05,0.294l-0.051,0.294l-0.054,0.293l-0.055,0.292l-0.057,0.292l-0.059,0.291l-0.06,0.291l-0.062,0.29l-0.064,0.289l-0.066,0.289l-0.068,0.288l-0.069,0.287l-0.071,0.287l-0.073,0.286l-0.074,0.285l-0.076,0.284l-0.078,0.284l-0.079,0.283l-0.082,0.283l-0.083,0.282l-0.084,0.281l-0.087,0.28l-0.087,0.279l-0.09,0.279l-0.091,0.278l-0.093,0.277l-0.095,0.277l-0.096,0.276l-0.098,0.275l-0.1,0.274l-0.101,0.273l-0.103,0.273l-0.104,0.272l-0.106,0.271l-0.108,0.27l-0.109,0.27l-0.111,0.268l-0.112,0.268l-0.114,0.267l-0.116,0.266l-0.117,0.265l-0.118,0.265l-0.121,0.263l-0.121,0.263l-0.124,0.262l-0.124,0.261l-0.127,0.26l-0.128,0.259l-0.129,0.259l-0.131,0.257l-0.133,0.257l-0.134,0.256l-0.135,0.254l-0.137,0.254l-0.139,0.253l-0.14,0.252l-0.141,0.251l-0.143,0.25l-0.144,0.249l-0.146,0.248l-0.147,0.248l-0.149,0.246l-0.15,0.245l-0.152,0.245l-0.153,0.243l-0.154,0.242l-0.156,0.242l-0.157,0.24l-0.159,0.24l-0.16,0.238l-0.161,0.237l-0.163,0.237l-0.164,0.235l-0.166,0.234l-0.167,0.233l-0.168,0.232l-0.17,0.232l-0.171,0.23l-0.172,0.229l-0.174,0.228l-0.175,0.226l-0.176,0.226l-0.178,0.225l-0.179,0.223l-0.18,0.223l-0.182,0.221l-0.183,0.221l-0.184,0.219l-0.186,0.218l-0.186,0.217l-0.188,0.215l-0.19,0.215l-0.19,0.214l-0.192,0.212l-0.193,0.211l-0.195,0.21l-0.195,0.209l-0.197,0.208l-0.198,0.206l-0.199,0.205l-0.201,0.204l-0.202,0.203l-0.203,0.202l-0.204,0.201l-0.205,0.199l-0.206,0.198l-0.208,0.197l-0.209,0.195l-0.21,0.195l-0.211,0.193l-0.212,0.192l-0.214,0.19l-0.215,0.19l-0.215,0.188l-0.217,0.186l-0.218,0.186l-0.219,0.184l-0.221,0.183l-0.221,0.182l-0.223,0.18l-0.223,0.179l-0.225,0.178l-0.226,0.176l-0.226,0.175l-0.228,0.174l-0.229,0.172l-0.23,0.171l-0.232,0.17l-0.232,0.168l-0.233,0.167l-0.234,0.166l-0.235,0.164l-0.237,0.163l-0.237,0.161l-0.238,0.16l-0.24,0.159l-0.24,0.157l-0.242,0.156l-0.242,0.154l-0.243,0.153l-0.245,0.152l-0.245,0.15l-0.246,0.149l-0.248,0.147l-0.248,0.146l-0.249,0.144l-0.25,0.143l-0.251,0.141l-0.252,0.14l-0.253,0.139l-0.254,0.137l-0.254,0.135l-0.256,0.134l-0.257,0.133l-0.257,0.131l-0.259,0.129l-0.259,0.128l-0.26,0.127l-0.261,0.124l-0.262,0.124l-0.263,0.121l-0.263,0.121l-0.265,0.118l-0.265,0.117l-0.266,0.116l-0.267,0.114l-0.268,0.112l-0.268,0.111l-0.27,0.109l-0.27,0.108l-0.271,0.106l-0.272,0.104l-0.273,0.103l-0.273,0.101l-0.274,0.1l-0.275,0.098l-0.276,0.096l-0.277,0.095l-0.277,0.093l-0.278,0.091l-0.279,0.09l-0.279,0.087l-0.28,0.087l-0.281,0.084l-0.282,0.083l-0.283,0.082l-0.283,0.079l-0.284,0.078l-0.284,0.076l-0.285,0.074l-0.286,0.073l-0.287,0.071l-0.287,0.069l-0.288,0.068l-0.289,0.066l-0.289,0.064l-0.29,0.062l-0.291,0.06l-0.291,0.059l-0.292,0.057l-0.292,0.055l-0.293,0.054l-0.294,0.051l-0.294,0.05l-0.295,0.048l-0.296,0.046l-0.296,0.044l-0.297,0.043l-0.297,0.041l-0.298,0.038l-0.299,0.037l-0.299,0.036l-0.299,0.033l-0.3,0.031l-0.301,0.03l-0.301,0.028l-0.302,0.026l-0.302,0.024l-0.303,0.022l-0.303,0.02l-0.304,0.018l-0.305,0.017l-0.304,0.014l-0.306,0.013l-0.306,0.011l-0.306,0.008l-0.307,0.007l-0.307,0.005l-0.308,0.003l-0.308,0.001l-0.308,-0.001l-0.308,-0.003l-0.307,-0.005l-0.307,-0.007l-0.306,-0.008l-0.306,-0.011l-0.306,-0.013l-0.304,-0.014l-0.305,-0.017l-0.304,-0.018l-0.303,-0.02l-0.303,-0.022l-0.302,-0.024l-0.302,-0.026l-0.301,-0.028l-0.301,-0.03l-0.3,-0.031l-0.299,-0.033l-0.299,-0.036l-0.299,-0.037l-0.298,-0.038l-0.297,-0.041l-0.297,-0.043l-0.296,-0.044l-0.296,-0.046l-0.295,-0.048l-0.294,-0.05l-0.294,-0.051l-0.293,-0.054l-0.292,-0.055l-0.292,-0.057l-0.291,-0.059l-0.291,-0.06l-0.29,-0.062l-0.289,-0.064l-0.289,-0.066l-0.288,-0.068l-0.287,-0.069l-0.287,-0.071l-0.286,-0.073l-0.285,-0.074l-0.284,-0.076l-0.284,-0.078l-0.283,-0.079l-0.283,-0.082l-0.282,-0.083l-0.281,-0.084l-0.28,-0.087l-0.279,-0.087l-0.279,-0.09l-0.278,-0.091l-0.277,-0.093l-0.277,-0.095l-0.276,-0.096l-0.275,-0.098l-0.274,-0.1l-0.273,-0.101l-0.273,-0.103l-0.272,-0.104l-0.271,-0.106l-0.27,-0.108l-0.27,-0.109l-0.268,-0.111l-0.268,-0.112l-0.267,-0.114l-0.266,-0.116l-0.265,-0.117l-0.265,-0.118l-0.263,-0.121l-0.263,-0.121l-0.262,-0.124l-0.261,-0.124l-0.26,-0.127l-0.259,-0.128l-0.259,-0.129l-0.257,-0.131l-0.257,-0.133l-0.256,-0.134l-0.254,-0.135l-0.254,-0.137l-0.253,-0.139l-0.252,-0.14l-0.251,-0.141l-0.25,-0.143l-0.249,-0.144l-0.248,-0.146l-0.248,-0.147l-0.246,-0.149l-0.245,-0.15l-0.245,-0.152l-0.243,-0.153l-0.242,-0.154l-0.242,-0.156l-0.24,-0.157l-0.24,-0.159l-0.238,-0.16l-0.237,-0.161l-0.237,-0.163l-0.235,-0.164l-0.234,-0.166l-0.233,-0.167l-0.232,-0.168l-0.232,-0.17l-0.23,-0.171l-0.229,-0.172l-0.228,-0.174l-0.226,-0.175l-0.226,-0.176l-0.225,-0.178l-0.223,-0.179l-0.223,-0.18l-0.221,-0.182l-0.221,-0.183l-0.219,-0.184l-0.218,-0.186l-0.217,-0.186l-0.215,-0.188l-0.215,-0.19l-0.214,-0.19l-0.212,-0.192l-0.211,-0.193l-0.21,-0.195l-0.209,-0.195l-0.208,-0.197l-0.206,-0.198l-0.205,-0.199l-0.204,-0.201l-0.203,-0.202l-0.202,-0.203l-0.201,-0.204l-0.199,-0.205l-0.198,-0.206l-0.197,-0.208l-0.195,-0.209l-0.195,-0.21l-0.193,-0.211l-0.192,-0.212l-0.19,-0.214l-0.19,-0.215l-0.188,-0.215l-0.186,-0.217l-0.186,-0.218l-0.184,-0.219l-0.183,-0.221l-0.182,-0.221l-0.18,-0.223l-0.179,-0.223l-0.178,-0.225l-0.176,-0.226l-0.175,-0.226l-0.174,-0.228l-0.172,-0.229l-0.171,-0.23l-0.17,-0.232l-0.168,-0.232l-0.167,-0.233l-0.166,-0.234l-0.164,-0.235l-0.163,-0.237l-0.161,-0.237l-0.16,-0.238l-0.159,-0.24l-0.157,-0.24l-0.156,-0.242l-0.154,-0.242l-0.153,-0.243l-0.152,-0.245l-0.15,-0.245l-0.149,-0.246l-0.147,-0.248l-0.146,-0.248l-0.144,-0.249l-0.143,-0.25l-0.141,-0.251l-0.14,-0.252l-0.139,-0.253l-0.137,-0.254l-0.135,-0.254l-0.134,-0.256l-0.133,-0.257l-0.131,-0.257l-0.129,-0.259l-0.128,-0.259l-0.127,-0.26l-0.124,-0.261l-0.124,-0.262l-0.121,-0.263l-0.121,-0.263l-0.118,-0.265l-0.117,-0.265l-0.116,-0.266l-0.114,-0.267l-0.112,-0.268l-0.111,-0.268l-0.109,-0.27l-0.108,-0.27l-0.106,-0.271l-0.104,-0.272l-0.103,-0.273l-0.101,-0.273l-0.1,-0.274l-0.098,-0.275l-0.096,-0.276l-0.095,-0.277l-0.093,-0.277l-0.091,-0.278l-0.09,-0.279l-0.087,-0.279l-0.087,-0.28l-0.084,-0.281l-0.083,-0.282l-0.082,-0.283l-0.079,-0.283l-0.078,-0.284l-0.076,-0.284l-0.074,-0.285l-0.073,-0.286l-0.071,-0.287l-0.069,-0.287l-0.068,-0.288l-0.066,-0.289l-0.064,-0.289l-0.062,-0.29l-0.06,-0.291l-0.059,-0.291l-0.057,-0.292l-0.055,-0.292l-0.054,-0.293l-0.051,-0.294l-0.05,-0.294l-0.048,-0.295l-0.046,-0.296l-0.044,-0.296l-0.043,-0.297l-0.041,-0.297l-0.038,-0.298l-0.037,-0.299l-0.036,-0.299l-0.033,-0.299l-0.031,-0.3l-0.03,-0.301l-0.028,-0.301l-0.026,-0.302l-0.024,-0.302l-0.022,-0.303l-0.02,-0.303l-0.018,-0.304l-0.017,-0.305l-0.014,-0.304l-0.013,-0.306l-0.011,-0.306l-0.008,-0.306l-0.007,-0.307l-0.005,-0.307l-0.003,-0.308l-0.001,-0.308l0.001,-0.308l0.003,-0.308l0.005,-0.307l0.007,-0.307l0.008,-0.306l0.011,-0.306l0.013,-0.306l0.014,-0.304l0.017,-0.305l0.018,-0.304l0.02,-0.303l0.022,-0.303l0.024,-0.302l0.026,-0.302l0.028,-0.301l0.03,-0.301l0.031,-0.3l0.033,-0.299l0.036,-0.299l0.037,-0.299l0.038,-0.298l0.041,-0.297l0.043,-0.297l0.044,-0.296l0.046,-0.296l0.048,-0.295l0.05,-0.294l0.051,-0.294l0.054,-0.293l0.055,-0.292l0.057,-0.292l0.059,-0.291l0.06,-0.291l0.062,-0.29l0.064,-0.289l0.066,-0.289l0.068,-0.288l0.069,-0.287l0.071,-0.287l0.073,-0.286l0.074,-0.285l0.076,-0.284l0.078,-0.284l0.079,-0.283l0.082,-0.283l0.083,-0.282l0.084,-0.281l0.087,-0.28l0.087,-0.279l0.09,-0.279l0.091,-0.278l0.093,-0.277l0.095,-0.277l0.096,-0.276l0.098,-0.275l0.1,-0.274l0.101,-0.273l0.103,-0.273l0.104,-0.272l0.106,-0.271l0.108,-0.27l0.109,-0.27l0.111,-0.268l0.112,-0.268l0.114,-0.267l0.116,-0.266l0.117,-0.265l0.118,-0.265l0.121,-0.263l0.121,-0.263l0.124,-0.262l0.124,-0.261l0.127,-0.26l0.128,-0.259l0.129,-0.259l0.131,-0.257l0.133,-0.257l0.134,-0.256l0.135,-0.254l0.137,-0.254l0.139,-0.253l0.14,-0.252l0.141,-0.251l0.143,-0.25l0.144,-0.249l0.146,-0.248l0.147,-0.248l0.149,-0.246l0.15,-0.245l0.152,-0.245l0.153,-0.243l0.154,-0.242l0.156,-0.242l0.157,-0.24l0.159,-0.24l0.16,-0.238l0.161,-0.237l0.163,-0.237l0.164,-0.235l0.166,-0.234l0.167,-0.233l0.168,-0.232l0.17,-0.232l0.171,-0.23l0.172,-0.229l0.174,-0.228l0.175,-0.226l0.176,-0.226l0.178,-0.225l0.179,-0.223l0.18,-0.223l0.182,-0.221l0.183,-0.221l0.184,-0.219l0.186,-0.218l0.186,-0.217l0.188,-0.215l0.19,-0.215l0.19,-0.214l0.192,-0.212l0.193,-0.211l0.195,-0.21l0.195,-0.209l0.197,-0.208l0.198,-0.206l0.199,-0.205l0.201,-0.204l0.202,-0.203l0.203,-0.202l0.204,-0.201l0.205,-0.199l0.206,-0.198l0.208,-0.197l0.209,-0.195l0.21,-0.195l0.211,-0.193l0.212,-0.192l0.214,-0.19l0.215,-0.19l0.215,-0.188l0.217,-0.186l0.218,-0.186l0.219,-0.184l0.221,-0.183l0.221,-0.182l0.223,-0.18l0.223,-0.179l0.225,-0.178l0.226,-0.176l0.226,-0.175l0.228,-0.174l0.229,-0.172l0.23,-0.171l0.232,-0.17l0.232,-0.168l0.233,-0.167l0.234,-0.166l0.235,-0.164l0.237,-0.163l0.237,-0.161l0.238,-0.16l0.24,-0.159l0.24,-0.157l0.242,-0.156l0.242,-0.154l0.243,-0.153l0.245,-0.152l0.245,-0.15l0.246,-0.149l0.248,-0.147l0.248,-0.146l0.249,-0.144l0.25,-0.143l0.251,-0.141l0.252,-0.14l0.253,-0.139l0.254,-0.137l0.254,-0.135l0.256,-0.134l0.257,-0.133l0.257,-0.131l0.259,-0.129l0.259,-0.128l0.26,-0.127l0.261,-0.124l0.262,-0.124l0.263,-0.121l0.263,-0.121l0.265,-0.118l0.265,-0.117l0.266,-0.116l0.267,-0.114l0.268,-0.112l0.268,-0.111l0.27,-0.109l0.27,-0.108l0.271,-0.106l0.272,-0.104l0.273,-0.103l0.273,-0.101l0.274,-0.1l0.275,-0.098l0.276,-0.096l0.277,-0.095l0.277,-0.093l0.278,-0.091l0.279,-0.09l0.279,-0.087l0.28,-0.087l0.281,-0.084l0.282,-0.083l0.283,-0.082l0.283,-0.079l0.284,-0.078l0.284,-0.076l0.285,-0.074l0.286,-0.073l0.287,-0.071l0.287,-0.069l0.288,-0.068l0.289,-0.066l0.289,-0.064l0.29,-0.062l0.291,-0.06l0.291,-0.059l0.292,-0.057l0.292,-0.055l0.293,-0.054l0.294,-0.051l0.294,-0.05l0.295,-0.048l0.296,-0.046l0.296,-0.044l0.297,-0.043l0.297,-0.041l0.298,-0.038l0.299,-0.037l0.299,-0.036l0.299,-0.033l0.3,-0.031l0.301,-0.03l0.301,-0.028l0.302,-0.026l0.302,-0.024l0.303,-0.022l0.303,-0.02l0.304,-0.018l0.305,-0.017l0.304,-0.014l0.306,-0.013l0.306,-0.011l0.306,-0.008l0.307,-0.007l0.307,-0.005l0.308,-0.003l0.308,-0.001l0.308,0.001Zm-0.584,5l-0.277,0.003l-0.275,0.004l-0.275,0.006l-0.275,0.008l-0.274,0.01l-0.274,0.011l-0.273,0.013l-0.273,0.015l-0.272,0.016l-0.272,0.018l-0.271,0.02l-0.271,0.021l-0.27,0.024l-0.27,0.024l-0.269,0.027l-0.269,0.028l-0.268,0.03l-0.267,0.031l-0.268,0.034l-0.266,0.034l-0.266,0.037l-0.266,0.038l-0.265,0.04l-0.264,0.041l-0.264,0.043l-0.264,0.044l-0.262,0.046l-0.263,0.048l-0.261,0.05l-0.261,0.05l-0.261,0.053l-0.26,0.054l-0.259,0.056l-0.259,0.057l-0.258,0.059l-0.258,0.06l-0.256,0.062l-0.257,0.064l-0.256,0.065l-0.255,0.066l-0.254,0.068l-0.254,0.07l-0.253,0.071l-0.253,0.073l-0.252,0.074l-0.251,0.075l-0.251,0.078l-0.25,0.078l-0.249,0.08l-0.248,0.082l-0.248,0.083l-0.248,0.085l-0.246,0.086l-0.246,0.087l-0.246,0.089l-0.244,0.091l-0.244,0.092l-0.243,0.093l-0.243,0.095l-0.241,0.096l-0.241,0.098l-0.241,0.099l-0.239,0.101l-0.239,0.101l-0.238,0.104l-0.237,0.105l-0.237,0.106l-0.236,0.107l-0.235,0.109l-0.234,0.111l-0.234,0.111l-0.232,0.113l-0.232,0.115l-0.231,0.116l-0.231,0.117l-0.229,0.118l-0.229,0.12l-0.228,0.122l-0.227,0.122l-0.227,0.124l-0.225,0.125l-0.225,0.127l-0.224,0.128l-0.223,0.129l-0.222,0.131l-0.221,0.131l-0.221,0.133l-0.219,0.135l-0.219,0.136l-0.218,0.137l-0.217,0.138l-0.216,0.139l-0.215,0.141l-0.215,0.142l-0.213,0.143l-0.213,0.145l-0.211,0.146l-0.211,0.147l-0.21,0.148l-0.209,0.15l-0.208,0.15l-0.207,0.152l-0.206,0.154l-0.205,0.154l-0.204,0.156l-0.203,0.156l-0.202,0.158l-0.202,0.159l-0.2,0.161l-0.199,0.161l-0.198,0.163l-0.198,0.164l-0.196,0.165l-0.195,0.166l-0.195,0.167l-0.193,0.169l-0.192,0.17l-0.192,0.17l-0.19,0.172l-0.189,0.173l-0.188,0.174l-0.187,0.176l-0.186,0.176l-0.185,0.177l-0.184,0.179l-0.183,0.179l-0.182,0.181l-0.181,0.182l-0.179,0.183l-0.179,0.184l-0.177,0.185l-0.176,0.186l-0.176,0.187l-0.174,0.188l-0.173,0.189l-0.172,0.19l-0.17,0.192l-0.17,0.192l-0.169,0.193l-0.167,0.195l-0.166,0.195l-0.165,0.196l-0.164,0.198l-0.163,0.198l-0.161,0.199l-0.161,0.2l-0.159,0.202l-0.158,0.202l-0.156,0.203l-0.156,0.204l-0.154,0.205l-0.154,0.206l-0.152,0.207l-0.15,0.208l-0.15,0.209l-0.148,0.21l-0.147,0.211l-0.146,0.211l-0.145,0.213l-0.143,0.213l-0.142,0.215l-0.141,0.215l-0.139,0.216l-0.138,0.217l-0.137,0.218l-0.136,0.219l-0.135,0.219l-0.133,0.221l-0.131,0.221l-0.131,0.222l-0.129,0.223l-0.128,0.224l-0.127,0.225l-0.125,0.225l-0.124,0.227l-0.122,0.227l-0.122,0.228l-0.12,0.229l-0.118,0.229l-0.117,0.231l-0.116,0.231l-0.115,0.232l-0.113,0.232l-0.111,0.234l-0.111,0.234l-0.109,0.235l-0.107,0.236l-0.106,0.237l-0.105,0.237l-0.104,0.238l-0.101,0.239l-0.101,0.239l-0.099,0.241l-0.098,0.241l-0.096,0.241l-0.095,0.243l-0.093,0.243l-0.092,0.244l-0.091,0.244l-0.089,0.246l-0.087,0.246l-0.086,0.246l-0.085,0.248l-0.083,0.248l-0.082,0.248l-0.08,0.249l-0.078,0.25l-0.078,0.251l-0.075,0.251l-0.074,0.252l-0.073,0.253l-0.071,0.253l-0.07,0.254l-0.068,0.254l-0.066,0.255l-0.065,0.256l-0.064,0.257l-0.062,0.256l-0.06,0.258l-0.059,0.258l-0.057,0.259l-0.056,0.259l-0.054,0.26l-0.053,0.261l-0.05,0.261l-0.05,0.261l-0.048,0.263l-0.046,0.262l-0.044,0.264l-0.043,0.264l-0.041,0.264l-0.04,0.265l-0.038,0.266l-0.037,0.266l-0.034,0.266l-0.034,0.268l-0.031,0.267l-0.03,0.268l-0.028,0.269l-0.027,0.269l-0.024,0.27l-0.024,0.27l-0.021,0.271l-0.02,0.271l-0.018,0.272l-0.016,0.272l-0.015,0.273l-0.013,0.273l-0.011,0.274l-0.01,0.274l-0.008,0.275l-0.006,0.275l-0.004,0.275l-0.003,0.277l-0.001,0.276l0.001,0.276l0.003,0.277l0.004,0.275l0.006,0.275l0.008,0.275l0.01,0.274l0.011,0.274l0.013,0.273l0.015,0.273l0.016,0.272l0.018,0.272l0.02,0.271l0.021,0.271l0.024,0.27l0.024,0.27l0.027,0.269l0.028,0.269l0.03,0.268l0.031,0.267l0.034,0.268l0.034,0.266l0.037,0.266l0.038,0.266l0.04,0.265l0.041,0.264l0.043,0.264l0.044,0.264l0.046,0.262l0.048,0.263l0.05,0.261l0.05,0.261l0.053,0.261l0.054,0.26l0.056,0.259l0.057,0.259l0.059,0.258l0.06,0.258l0.062,0.256l0.064,0.257l0.065,0.256l0.066,0.255l0.068,0.254l0.07,0.254l0.071,0.253l0.073,0.253l0.074,0.252l0.075,0.251l0.078,0.251l0.078,0.25l0.08,0.249l0.082,0.248l0.083,0.248l0.085,0.248l0.086,0.246l0.087,0.246l0.089,0.246l0.091,0.244l0.092,0.244l0.093,0.243l0.095,0.243l0.096,0.241l0.098,0.241l0.099,0.241l0.101,0.239l0.101,0.239l0.104,0.238l0.105,0.237l0.106,0.237l0.107,0.236l0.109,0.235l0.111,0.234l0.111,0.234l0.113,0.232l0.115,0.232l0.116,0.231l0.117,0.231l0.118,0.229l0.12,0.229l0.122,0.228l0.122,0.227l0.124,0.227l0.125,0.225l0.127,0.225l0.128,0.224l0.129,0.223l0.131,0.222l0.131,0.221l0.133,0.221l0.135,0.219l0.136,0.219l0.137,0.218l0.138,0.217l0.139,0.216l0.141,0.215l0.142,0.215l0.143,0.213l0.145,0.213l0.146,0.211l0.147,0.211l0.148,0.21l0.15,0.209l0.15,0.208l0.152,0.207l0.154,0.206l0.154,0.205l0.156,0.204l0.156,0.203l0.158,0.202l0.159,0.202l0.161,0.2l0.161,0.199l0.163,0.198l0.164,0.198l0.165,0.196l0.166,0.195l0.167,0.195l0.169,0.193l0.17,0.192l0.17,0.192l0.172,0.19l0.173,0.189l0.174,0.188l0.176,0.187l0.176,0.186l0.177,0.185l0.179,0.184l0.179,0.183l0.181,0.182l0.182,0.181l0.183,0.179l0.184,0.179l0.185,0.177l0.186,0.176l0.187,0.176l0.188,0.174l0.189,0.173l0.19,0.172l0.192,0.17l0.192,0.17l0.193,0.169l0.195,0.167l0.195,0.166l0.196,0.165l0.198,0.164l0.198,0.163l0.199,0.161l0.2,0.161l0.202,0.159l0.202,0.158l0.203,0.156l0.204,0.156l0.205,0.154l0.206,0.154l0.207,0.152l0.208,0.15l0.209,0.15l0.21,0.148l0.211,0.147l0.211,0.146l0.213,0.145l0.213,0.143l0.215,0.142l0.215,0.141l0.216,0.139l0.217,0.138l0.218,0.137l0.219,0.136l0.219,0.135l0.221,0.133l0.221,0.132l0.222,0.13l0.223,0.129l0.224,0.128l0.225,0.127l0.225,0.125l0.227,0.124l0.227,0.122l0.228,0.122l0.229,0.12l0.229,0.118l0.231,0.117l0.231,0.116l0.232,0.115l0.232,0.113l0.234,0.111l0.234,0.111l0.235,0.109l0.236,0.107l0.237,0.106l0.237,0.105l0.238,0.104l0.239,0.101l0.239,0.101l0.241,0.099l0.241,0.098l0.241,0.096l0.243,0.095l0.243,0.093l0.244,0.092l0.244,0.091l0.246,0.089l0.246,0.087l0.246,0.086l0.247,0.085l0.249,0.083l0.248,0.082l0.249,0.08l0.25,0.078l0.251,0.078l0.251,0.075l0.252,0.074l0.253,0.073l0.253,0.071l0.254,0.07l0.254,0.068l0.256,0.066l0.255,0.065l0.256,0.064l0.257,0.062l0.258,0.06l0.258,0.059l0.259,0.057l0.259,0.056l0.26,0.054l0.261,0.053l0.261,0.05l0.261,0.05l0.263,0.048l0.262,0.046l0.264,0.044l0.264,0.043l0.264,0.041l0.265,0.04l0.266,0.038l0.266,0.037l0.266,0.034l0.267,0.034l0.268,0.031l0.268,0.03l0.269,0.028l0.269,0.027l0.27,0.024l0.27,0.024l0.271,0.021l0.271,0.02l0.272,0.018l0.272,0.016l0.273,0.015l0.273,0.013l0.274,0.011l0.274,0.01l0.275,0.008l0.275,0.006l0.275,0.004l0.276,0.003l0.277,0.001l0.277,-0.001l0.276,-0.003l0.275,-0.004l0.275,-0.006l0.275,-0.008l0.274,-0.01l0.274,-0.011l0.273,-0.013l0.273,-0.015l0.272,-0.016l0.272,-0.018l0.271,-0.02l0.271,-0.021l0.27,-0.024l0.27,-0.024l0.269,-0.027l0.269,-0.028l0.268,-0.03l0.268,-0.031l0.267,-0.034l0.266,-0.034l0.266,-0.037l0.266,-0.038l0.265,-0.04l0.264,-0.041l0.264,-0.043l0.264,-0.044l0.262,-0.046l0.263,-0.048l0.261,-0.05l0.261,-0.05l0.261,-0.053l0.26,-0.054l0.259,-0.056l0.259,-0.057l0.258,-0.059l0.258,-0.06l0.257,-0.062l0.256,-0.064l0.255,-0.065l0.256,-0.066l0.254,-0.068l0.254,-0.07l0.253,-0.071l0.253,-0.073l0.252,-0.074l0.251,-0.075l0.251,-0.078l0.25,-0.078l0.249,-0.08l0.248,-0.082l0.249,-0.083l0.247,-0.085l0.246,-0.086l0.246,-0.087l0.246,-0.089l0.244,-0.091l0.244,-0.092l0.243,-0.093l0.243,-0.095l0.241,-0.096l0.241,-0.098l0.241,-0.099l0.239,-0.101l0.239,-0.101l0.238,-0.104l0.237,-0.105l0.237,-0.106l0.236,-0.107l0.235,-0.109l0.234,-0.111l0.234,-0.111l0.232,-0.113l0.232,-0.115l0.231,-0.116l0.231,-0.117l0.229,-0.118l0.229,-0.12l0.228,-0.122l0.227,-0.122l0.227,-0.124l0.225,-0.125l0.225,-0.127l0.224,-0.128l0.223,-0.129l0.222,-0.13l0.221,-0.132l0.221,-0.133l0.219,-0.135l0.219,-0.136l0.218,-0.137l0.217,-0.138l0.216,-0.139l0.215,-0.141l0.215,-0.142l0.213,-0.143l0.213,-0.145l0.211,-0.146l0.211,-0.147l0.21,-0.148l0.209,-0.15l0.208,-0.15l0.207,-0.152l0.206,-0.154l0.205,-0.154l0.204,-0.156l0.203,-0.156l0.202,-0.158l0.202,-0.159l0.2,-0.161l0.199,-0.161l0.198,-0.163l0.198,-0.164l0.196,-0.165l0.195,-0.166l0.195,-0.167l0.193,-0.169l0.192,-0.17l0.192,-0.17l0.19,-0.172l0.189,-0.173l0.188,-0.174l0.187,-0.176l0.186,-0.176l0.185,-0.177l0.184,-0.179l0.183,-0.179l0.182,-0.181l0.181,-0.182l0.179,-0.183l0.179,-0.184l0.177,-0.185l0.176,-0.186l0.176,-0.187l0.174,-0.188l0.173,-0.189l0.172,-0.19l0.17,-0.192l0.17,-0.192l0.169,-0.193l0.167,-0.195l0.166,-0.195l0.165,-0.196l0.164,-0.198l0.163,-0.198l0.161,-0.199l0.161,-0.2l0.159,-0.202l0.158,-0.202l0.156,-0.203l0.156,-0.204l0.154,-0.205l0.154,-0.206l0.152,-0.207l0.15,-0.208l0.15,-0.209l0.148,-0.21l0.147,-0.211l0.146,-0.211l0.145,-0.213l0.143,-0.213l0.142,-0.215l0.141,-0.215l0.139,-0.216l0.138,-0.217l0.137,-0.218l0.136,-0.219l0.135,-0.219l0.133,-0.221l0.132,-0.221l0.13,-0.222l0.129,-0.223l0.128,-0.224l0.127,-0.225l0.125,-0.225l0.124,-0.227l0.122,-0.227l0.122,-0.228l0.12,-0.229l0.118,-0.229l0.117,-0.231l0.116,-0.231l0.115,-0.232l0.113,-0.232l0.111,-0.234l0.111,-0.234l0.109,-0.235l0.107,-0.236l0.106,-0.237l0.105,-0.237l0.104,-0.238l0.101,-0.239l0.101,-0.239l0.099,-0.241l0.098,-0.241l0.096,-0.241l0.095,-0.243l0.093,-0.243l0.092,-0.244l0.091,-0.244l0.089,-0.246l0.087,-0.246l0.086,-0.246l0.085,-0.247l0.083,-0.249l0.082,-0.248l0.08,-0.249l0.078,-0.25l0.078,-0.251l0.075,-0.251l0.074,-0.252l0.073,-0.253l0.071,-0.253l0.07,-0.254l0.068,-0.254l0.066,-0.256l0.065,-0.255l0.064,-0.256l0.062,-0.257l0.06,-0.258l0.059,-0.258l0.057,-0.259l0.056,-0.259l0.054,-0.26l0.053,-0.261l0.05,-0.261l0.05,-0.261l0.048,-0.263l0.046,-0.262l0.044,-0.264l0.043,-0.264l0.041,-0.264l0.04,-0.265l0.038,-0.266l0.037,-0.266l0.034,-0.266l0.034,-0.267l0.031,-0.268l0.03,-0.268l0.028,-0.269l0.027,-0.269l0.024,-0.27l0.024,-0.27l0.021,-0.271l0.02,-0.271l0.018,-0.272l0.016,-0.272l0.015,-0.273l0.013,-0.273l0.011,-0.274l0.01,-0.274l0.008,-0.275l0.006,-0.275l0.004,-0.275l0.003,-0.276l0.001,-0.277l-0.001,-0.277l-0.003,-0.276l-0.004,-0.275l-0.006,-0.275l-0.008,-0.275l-0.01,-0.274l-0.011,-0.274l-0.013,-0.273l-0.015,-0.273l-0.016,-0.272l-0.018,-0.272l-0.02,-0.271l-0.021,-0.271l-0.024,-0.27l-0.024,-0.27l-0.027,-0.269l-0.028,-0.269l-0.03,-0.268l-0.031,-0.268l-0.034,-0.267l-0.034,-0.266l-0.037,-0.266l-0.038,-0.266l-0.04,-0.265l-0.041,-0.264l-0.043,-0.264l-0.044,-0.264l-0.046,-0.262l-0.048,-0.263l-0.05,-0.261l-0.05,-0.261l-0.053,-0.261l-0.054,-0.26l-0.056,-0.259l-0.057,-0.259l-0.059,-0.258l-0.06,-0.258l-0.062,-0.257l-0.064,-0.256l-0.065,-0.255l-0.066,-0.256l-0.068,-0.254l-0.07,-0.254l-0.071,-0.253l-0.073,-0.253l-0.074,-0.252l-0.075,-0.251l-0.078,-0.251l-0.078,-0.25l-0.08,-0.249l-0.082,-0.248l-0.083,-0.249l-0.085,-0.247l-0.086,-0.246l-0.087,-0.246l-0.089,-0.246l-0.091,-0.244l-0.092,-0.244l-0.093,-0.243l-0.095,-0.243l-0.096,-0.241l-0.098,-0.241l-0.099,-0.241l-0.101,-0.239l-0.101,-0.239l-0.104,-0.238l-0.105,-0.237l-0.106,-0.237l-0.107,-0.236l-0.109,-0.235l-0.111,-0.234l-0.111,-0.234l-0.113,-0.232l-0.115,-0.232l-0.116,-0.231l-0.117,-0.231l-0.118,-0.229l-0.12,-0.229l-0.122,-0.228l-0.122,-0.227l-0.124,-0.227l-0.125,-0.225l-0.127,-0.225l-0.128,-0.224l-0.129,-0.223l-0.13,-0.222l-0.132,-0.221l-0.133,-0.221l-0.135,-0.219l-0.136,-0.219l-0.137,-0.218l-0.138,-0.217l-0.139,-0.216l-0.141,-0.215l-0.142,-0.215l-0.143,-0.213l-0.145,-0.213l-0.146,-0.211l-0.147,-0.211l-0.148,-0.21l-0.15,-0.209l-0.15,-0.208l-0.152,-0.207l-0.154,-0.206l-0.154,-0.205l-0.156,-0.204l-0.156,-0.203l-0.158,-0.202l-0.159,-0.202l-0.161,-0.2l-0.161,-0.199l-0.163,-0.198l-0.164,-0.198l-0.165,-0.196l-0.166,-0.195l-0.167,-0.195l-0.169,-0.193l-0.17,-0.192l-0.17,-0.192l-0.172,-0.19l-0.173,-0.189l-0.174,-0.188l-0.176,-0.187l-0.176,-0.186l-0.177,-0.185l-0.179,-0.184l-0.179,-0.183l-0.181,-0.182l-0.182,-0.181l-0.183,-0.179l-0.184,-0.179l-0.185,-0.177l-0.186,-0.176l-0.187,-0.176l-0.188,-0.174l-0.189,-0.173l-0.19,-0.172l-0.192,-0.17l-0.192,-0.17l-0.193,-0.169l-0.195,-0.167l-0.195,-0.166l-0.196,-0.165l-0.198,-0.164l-0.198,-0.163l-0.199,-0.161l-0.2,-0.161l-0.202,-0.159l-0.202,-0.158l-0.203,-0.156l-0.204,-0.156l-0.205,-0.154l-0.206,-0.154l-0.207,-0.152l-0.208,-0.15l-0.209,-0.15l-0.21,-0.148l-0.211,-0.147l-0.211,-0.146l-0.213,-0.145l-0.213,-0.143l-0.215,-0.142l-0.215,-0.141l-0.216,-0.139l-0.217,-0.138l-0.218,-0.137l-0.219,-0.136l-0.219,-0.135l-0.221,-0.133l-0.221,-0.131l-0.222,-0.131l-0.223,-0.129l-0.224,-0.128l-0.225,-0.127l-0.225,-0.125l-0.227,-0.124l-0.227,-0.122l-0.228,-0.122l-0.229,-0.12l-0.229,-0.118l-0.231,-0.117l-0.231,-0.116l-0.232,-0.115l-0.232,-0.113l-0.234,-0.111l-0.234,-0.111l-0.235,-0.109l-0.236,-0.107l-0.237,-0.106l-0.237,-0.105l-0.238,-0.104l-0.239,-0.101l-0.239,-0.101l-0.241,-0.099l-0.241,-0.098l-0.241,-0.096l-0.243,-0.095l-0.243,-0.093l-0.244,-0.092l-0.244,-0.091l-0.246,-0.089l-0.246,-0.087l-0.246,-0.086l-0.248,-0.085l-0.248,-0.083l-0.248,-0.082l-0.249,-0.08l-0.25,-0.078l-0.251,-0.078l-0.251,-0.075l-0.252,-0.074l-0.253,-0.073l-0.253,-0.071l-0.254,-0.07l-0.254,-0.068l-0.255,-0.066l-0.256,-0.065l-0.257,-0.064l-0.256,-0.062l-0.258,-0.06l-0.258,-0.059l-0.259,-0.057l-0.259,-0.056l-0.26,-0.054l-0.261,-0.053l-0.261,-0.05l-0.261,-0.05l-0.263,-0.048l-0.262,-0.046l-0.264,-0.044l-0.264,-0.043l-0.264,-0.041l-0.265,-0.04l-0.266,-0.038l-0.266,-0.037l-0.266,-0.034l-0.268,-0.034l-0.267,-0.031l-0.268,-0.03l-0.269,-0.028l-0.269,-0.027l-0.27,-0.024l-0.27,-0.024l-0.271,-0.021l-0.271,-0.02l-0.272,-0.018l-0.272,-0.016l-0.273,-0.015l-0.273,-0.013l-0.274,-0.011l-0.274,-0.01l-0.275,-0.008l-0.275,-0.006l-0.275,-0.004l-0.277,-0.003l-0.276,-0.001l-0.276,0.001Z" style="fill:#007bff;"/></svg>