<?xml version="1.0" encoding="UTF-8" standalone="no"?>
<!DOCTYPE svg PUBLIC "-//W3C//DTD SVG 1.1//EN" "http://www.w3.org/Graphics/SVG/1.1/DTD/svg11.dtd">
<svg width="100%" height="100%" viewBox="0 0 393 142" version="1.1" xmlns="http://www.w3.org/2000/svg" xmlns:xlink="http://www.w3.org/1999/xlink" xml:space="preserve" xmlns:serif="http://www.serif.com/" style="fill-rule:evenodd;clip-rule:evenodd;stroke-linejoin:round;stroke-miterlimit:2;">
    <g>
        <path d="M365.32,117.87C365.37,116.67 366.38,113.98 369.42,113.98C372.3,113.98 373.38,116.62 373.43,117.87L365.32,117.87ZM369.42,112.76C366.16,112.76 364.02,115.42 364.02,118.52C364.02,121.64 366.37,124.28 369.64,124.28C371.44,124.28 373.17,123.32 374.22,122.05L373.38,121.19C372.64,122.13 371.32,123.06 369.64,123.06C366.74,123.06 365.37,120.68 365.27,119.03L374.7,119.03C374.72,118.77 374.72,118.74 374.72,118.53C374.73,115.16 372.33,112.76 369.42,112.76M358.14,109.49C358.14,110.02 358.57,110.45 359.1,110.45C359.63,110.45 360.06,110.02 360.06,109.49C360.06,108.96 359.63,108.53 359.1,108.53C358.58,108.53 358.14,108.97 358.14,109.49M358.48,123.99L359.73,123.99L359.73,113.05L358.48,113.05L358.48,123.99ZM352,120.51C352,120.51 350.87,123.05 348.04,123.05C345.59,123.05 343.91,121.06 343.91,118.51C343.91,115.97 345.59,113.97 348.04,113.97C350.87,113.97 352,116.51 352,116.51L352,120.51ZM352.12,113.05L352.12,115.07C352.12,115.07 350.92,112.77 348.04,112.77C345.02,112.77 342.62,115.12 342.62,118.53C342.62,121.94 345.02,124.29 348.04,124.29C350.46,124.29 351.64,122.68 352,122.18L352,124.32C352,126.77 350.7,128.59 347.9,128.59C345.12,128.59 343.72,126.69 343.72,126.69L342.88,127.58C342.88,127.58 344.68,129.81 347.9,129.81C351.09,129.81 353.25,127.7 353.25,124.27L353.25,113.06L352.12,113.06L352.12,113.05ZM334,123.05C331.26,123.05 329.73,120.99 329.73,118.51C329.73,116.03 331.27,113.97 334,113.97C336.73,113.97 338.27,116.03 338.27,118.51C338.27,120.99 336.74,123.05 334,123.05M334,112.76C330.74,112.76 328.43,115.35 328.43,118.52C328.43,121.69 330.73,124.28 334,124.28C337.27,124.28 339.57,121.69 339.57,118.52C339.57,115.35 337.27,112.76 334,112.76M322.82,123.99L324.07,123.99L324.07,105.85L322.87,105.85L322.82,123.99ZM312.88,123.05C310.14,123.05 308.61,120.99 308.61,118.51C308.61,116.03 310.15,113.97 312.88,113.97C315.62,113.97 317.15,116.03 317.15,118.51C317.15,120.99 315.62,123.05 312.88,123.05M312.88,112.76C309.62,112.76 307.31,115.35 307.31,118.52C307.31,121.69 309.61,124.28 312.88,124.28C316.14,124.28 318.45,121.69 318.45,118.52C318.45,115.35 316.14,112.76 312.88,112.76M299.23,112.76C296.54,112.76 295.49,115.04 295.49,115.04L295.49,113.05L294.36,113.05L294.36,123.99L295.61,123.99L295.61,116.43C295.61,116.43 296.57,113.98 298.99,113.98C300.77,113.98 302.09,114.94 302.09,117.2L302.09,123.99L303.34,123.99L303.34,117.01C303.33,114.03 301.27,112.76 299.23,112.76M281.71,114.85L281.71,105.85L280.46,105.85L280.46,123.99L281.71,123.99L281.71,116.43C281.71,116.43 282.67,113.98 285.09,113.98C286.87,113.98 288.19,114.94 288.19,117.2L288.19,123.99L289.44,123.99L289.44,117.01C289.44,114.03 287.38,112.76 285.34,112.76C282.76,112.76 281.71,114.85 281.71,114.85M271.84,123.05C269.22,123.05 267.5,120.94 267.5,118.51C267.5,116.09 269.23,113.97 271.84,113.97C274.14,113.97 275.32,115.6 275.32,115.6L276.21,114.81C276.21,114.81 274.7,112.75 271.84,112.75C268.58,112.75 266.2,115.34 266.2,118.51C266.2,121.68 268.58,124.27 271.84,124.27C274.82,124.27 276.33,122.04 276.33,122.04L275.47,121.22C275.47,121.23 274.27,123.05 271.84,123.05M253.75,117.87C253.8,116.67 254.81,113.98 257.85,113.98C260.73,113.98 261.81,116.62 261.86,117.87L253.75,117.87ZM257.85,112.76C254.59,112.76 252.45,115.42 252.45,118.52C252.45,121.64 254.8,124.28 258.07,124.28C259.87,124.28 261.6,123.32 262.65,122.05L261.81,121.19C261.07,122.13 259.75,123.06 258.07,123.06C255.17,123.06 253.8,120.68 253.7,119.03L263.13,119.03C263.15,118.77 263.15,118.74 263.15,118.53C263.15,115.16 260.75,112.76 257.85,112.76M245.14,123.99L246.4,123.99L246.4,108.34L251.46,108.34L251.46,107.19L240.08,107.19L240.08,108.34L245.14,108.34L245.14,123.99ZM227.03,120.51C227.03,120.51 225.83,123.05 223.09,123.05C220.64,123.05 218.94,121.06 218.94,118.51C218.94,115.97 220.64,113.97 223.09,113.97C225.85,113.97 227.03,116.51 227.03,116.51L227.03,120.51ZM228.28,124L228.28,105.85L227.06,105.85L227.06,114.9C226.77,114.47 225.5,112.76 223.1,112.76C220.05,112.76 217.65,115.11 217.65,118.52C217.65,121.93 220.05,124.28 223.1,124.28C225.88,124.28 227.16,121.98 227.16,121.98L227.16,124L228.28,124ZM209.56,112.76C206.87,112.76 205.82,115.04 205.82,115.04L205.82,113.05L204.69,113.05L204.69,123.99L205.94,123.99L205.94,116.43C205.94,116.43 206.9,113.98 209.32,113.98C211.1,113.98 212.42,114.94 212.42,117.2L212.42,123.99L213.67,123.99L213.67,117.01C213.67,114.03 211.6,112.76 209.56,112.76M194.9,124.28C197.59,124.28 198.64,122.05 198.64,122.05L198.64,123.99L199.77,123.99L199.77,113.05L198.52,113.05L198.52,120.66C198.52,120.66 197.56,123.06 195.14,123.06C193.32,123.06 192.04,122.1 192.04,119.84L192.04,113.05L190.79,113.05L190.79,120.03C190.79,123.01 192.81,124.28 194.9,124.28M173.97,112.76C171.28,112.76 170.23,115.04 170.23,115.04L170.23,113.05L169.1,113.05L169.1,123.99L170.35,123.99L170.35,116.43C170.35,116.43 171.31,113.98 173.73,113.98C175.51,113.98 176.83,114.94 176.83,117.2L176.83,123.99L178.08,123.99L178.08,117.01C178.07,114.03 176.01,112.76 173.97,112.76M159.55,123.05C156.81,123.05 155.28,120.99 155.28,118.51C155.28,116.03 156.82,113.97 159.55,113.97C162.29,113.97 163.82,116.03 163.82,118.51C163.82,120.99 162.28,123.05 159.55,123.05M159.55,112.76C156.29,112.76 153.98,115.35 153.98,118.52C153.98,121.69 156.28,124.28 159.55,124.28C162.81,124.28 165.12,121.69 165.12,118.52C165.12,115.35 162.81,112.76 159.55,112.76M148.1,109.49C148.1,110.02 148.53,110.45 149.06,110.45C149.59,110.45 150.02,110.02 150.02,109.49C150.02,108.96 149.59,108.53 149.06,108.53C148.53,108.53 148.1,108.97 148.1,109.49M148.43,123.99L149.68,123.99L149.68,113.05L148.43,113.05L148.43,123.99ZM136.55,114.2L138.93,114.2L138.93,121.04C138.93,122.84 139.91,124.28 142.05,124.28C143.15,124.28 144.21,123.63 144.21,123.63L143.73,122.55C143.73,122.55 142.96,123.05 142.1,123.05C140.61,123.05 140.18,122.02 140.18,120.79L140.18,114.19L143.9,114.19L143.9,113.04L140.18,113.04L140.18,109.51L138.93,109.51L138.93,113.04L136.55,113.04L136.55,114.2ZM127.72,123.05C126.3,123.05 124.74,122.31 124.74,120.58C124.74,118.85 126.52,118.08 127.96,118.08C130.14,118.08 131.44,118.99 131.44,118.99L131.44,120.84C131.44,120.85 130.12,123.05 127.72,123.05M128.2,112.76C125.9,112.76 124.1,113.91 124.1,113.91L124.65,114.99C124.65,114.99 126.23,113.98 128.23,113.98C129.43,113.98 131.45,114.44 131.45,117.1L131.45,117.92C131.45,117.92 130.03,116.89 127.8,116.89C125.66,116.89 123.46,118.19 123.46,120.59C123.46,123.01 125.6,124.29 127.44,124.29C130.13,124.29 131.57,122.11 131.57,122.11L131.57,124.01L132.7,124.01L132.7,116.83C132.69,114.58 131.25,112.76 128.2,112.76M109.75,113.05L115.22,124.47L120.69,113.05L119.39,113.05L115.24,121.86L111.09,113.05L109.75,113.05ZM102.14,123.05C99.4,123.05 97.87,120.99 97.87,118.51C97.87,116.03 99.41,113.97 102.14,113.97C104.87,113.97 106.41,116.03 106.41,118.51C106.41,120.99 104.88,123.05 102.14,123.05M102.14,112.76C98.88,112.76 96.57,115.35 96.57,118.52C96.57,121.69 98.87,124.28 102.14,124.28C105.41,124.28 107.71,121.69 107.71,118.52C107.71,115.35 105.4,112.76 102.14,112.76M88.48,112.76C85.79,112.76 84.74,115.04 84.74,115.04L84.74,113.05L83.61,113.05L83.61,123.99L84.86,123.99L84.86,116.43C84.86,116.43 85.82,113.98 88.24,113.98C90.02,113.98 91.34,114.94 91.34,117.2L91.34,123.99L92.59,123.99L92.59,117.01C92.59,114.03 90.52,112.76 88.48,112.76M74.59,112.76C71.9,112.76 70.85,115.04 70.85,115.04L70.85,113.05L69.72,113.05L69.72,123.99L70.97,123.99L70.97,116.43C70.97,116.43 71.93,113.98 74.35,113.98C76.13,113.98 77.45,114.94 77.45,117.2L77.45,123.99L78.7,123.99L78.7,117.01C78.69,114.03 76.63,112.76 74.59,112.76M62.85,123.99L64.1,123.99L64.1,107.19L62.85,107.19L62.85,123.99Z" style="fill-rule:nonzero;"/>
        <path d="M267.07,97.52L268.17,97.9L270.21,92.28L269.06,91.87L267.07,97.52ZM256.46,84.2L258.84,84.2L258.84,91.04C258.84,92.84 259.82,94.28 261.96,94.28C263.06,94.28 264.12,93.63 264.12,93.63L263.64,92.55C263.64,92.55 262.87,93.05 262.01,93.05C260.52,93.05 260.09,92.02 260.09,90.79L260.09,84.19L263.81,84.19L263.81,83.04L260.09,83.04L260.09,79.51L258.84,79.51L258.84,83.04L256.46,83.04L256.46,84.2ZM249.67,79.49C249.67,80.02 250.1,80.45 250.63,80.45C251.16,80.45 251.59,80.02 251.59,79.49C251.59,78.96 251.16,78.53 250.63,78.53C250.1,78.53 249.67,78.97 249.67,79.49M245.32,79.49C245.32,80.02 245.75,80.45 246.28,80.45C246.81,80.45 247.24,80.02 247.24,79.49C247.24,78.96 246.81,78.53 246.28,78.53C245.75,78.53 245.32,78.97 245.32,79.49M247.63,93.05C246.21,93.05 244.65,92.31 244.65,90.58C244.65,88.85 246.43,88.08 247.87,88.08C250.05,88.08 251.35,88.99 251.35,88.99L251.35,90.84C251.35,90.85 250.03,93.05 247.63,93.05M248.11,82.76C245.81,82.76 244.01,83.91 244.01,83.91L244.56,84.99C244.56,84.99 246.14,83.98 248.14,83.98C249.34,83.98 251.36,84.44 251.36,87.1L251.36,87.92C251.36,87.92 249.94,86.89 247.71,86.89C245.57,86.89 243.37,88.19 243.37,90.59C243.37,93.01 245.51,94.29 247.35,94.29C250.04,94.29 251.48,92.11 251.48,92.11L251.48,94.01L252.61,94.01L252.61,86.83C252.59,84.58 251.15,82.76 248.11,82.76M232.39,84.2L234.77,84.2L234.77,91.04C234.77,92.84 235.75,94.28 237.89,94.28C238.99,94.28 240.05,93.63 240.05,93.63L239.57,92.55C239.57,92.55 238.8,93.05 237.94,93.05C236.45,93.05 236.02,92.02 236.02,90.79L236.02,84.19L239.74,84.19L239.74,83.04L236.02,83.04L236.02,79.51L234.77,79.51L234.77,83.04L232.39,83.04L232.39,84.2ZM226.63,79.49C226.63,80.02 227.06,80.45 227.59,80.45C228.12,80.45 228.55,80.02 228.55,79.49C228.55,78.96 228.12,78.53 227.59,78.53C227.06,78.53 226.63,78.97 226.63,79.49M226.96,93.99L228.21,93.99L228.21,83.05L226.96,83.05L226.96,93.99ZM220.1,93.99L221.35,93.99L221.35,75.85L220.15,75.85L220.1,93.99ZM212.9,79.49C212.9,80.02 213.33,80.45 213.86,80.45C214.39,80.45 214.82,80.02 214.82,79.49C214.82,78.96 214.39,78.53 213.86,78.53C213.33,78.53 212.9,78.97 212.9,79.49M213.23,93.99L214.48,93.99L214.48,83.05L213.23,83.05L213.23,93.99ZM199.56,86.31C199.56,86.31 200.66,83.98 203.5,83.98C205.95,83.98 207.65,85.97 207.65,88.52C207.65,91.07 205.95,93.06 203.5,93.06C200.67,93.06 199.56,90.73 199.56,90.73L199.56,86.31ZM199.44,93.99L199.44,92.14C199.44,92.14 200.62,94.28 203.5,94.28C206.55,94.28 208.95,91.93 208.95,88.52C208.95,85.11 206.55,82.76 203.5,82.76C201,82.76 199.83,84.34 199.54,84.78L199.54,75.85L198.32,75.85L198.32,93.99L199.44,93.99ZM188.32,93.05C185.58,93.05 184.05,90.99 184.05,88.51C184.05,86.03 185.59,83.97 188.32,83.97C191.06,83.97 192.59,86.03 192.59,88.51C192.59,90.99 191.06,93.05 188.32,93.05M188.32,82.76C185.06,82.76 182.75,85.35 182.75,88.52C182.75,91.69 185.05,94.28 188.32,94.28C191.58,94.28 193.89,91.69 193.89,88.52C193.89,85.35 191.59,82.76 188.32,82.76M163.2,77.19L163.2,93.99L164.42,93.99L164.42,79.69L170.8,89.79L177.16,79.66L177.16,93.99L178.41,93.99L178.41,77.19L177.23,77.19L170.8,87.51L164.37,77.19L163.2,77.19ZM147.36,97.52L148.46,97.9L150.5,92.28L149.35,91.87L147.36,97.52ZM134.92,87.87C134.97,86.67 135.98,83.98 139.02,83.98C141.9,83.98 142.98,86.62 143.03,87.87L134.92,87.87ZM139.03,82.76C135.77,82.76 133.63,85.42 133.63,88.52C133.63,91.64 135.98,94.28 139.25,94.28C141.05,94.28 142.78,93.32 143.83,92.05L142.99,91.19C142.25,92.13 140.93,93.06 139.25,93.06C136.35,93.06 134.98,90.68 134.88,89.03L144.31,89.03C144.33,88.77 144.33,88.74 144.33,88.53C144.33,85.16 141.93,82.76 139.03,82.76M127.75,79.49C127.75,80.02 128.18,80.45 128.71,80.45C129.24,80.45 129.67,80.02 129.67,79.49C129.67,78.96 129.24,78.53 128.71,78.53C128.18,78.53 127.75,78.97 127.75,79.49M128.08,93.99L129.33,93.99L129.33,83.05L128.08,83.05L128.08,93.99ZM121.6,90.51C121.6,90.51 120.47,93.05 117.64,93.05C115.19,93.05 113.51,91.06 113.51,88.51C113.51,85.96 115.19,83.97 117.64,83.97C120.47,83.97 121.6,86.51 121.6,86.51L121.6,90.51ZM121.72,83.05L121.72,85.07C121.72,85.07 120.52,82.77 117.64,82.77C114.62,82.77 112.22,85.12 112.22,88.53C112.22,91.94 114.62,94.29 117.64,94.29C120.06,94.29 121.24,92.68 121.6,92.18L121.6,94.32C121.6,96.77 120.3,98.59 117.5,98.59C114.72,98.59 113.32,96.69 113.32,96.69L112.48,97.58C112.48,97.58 114.28,99.81 117.5,99.81C120.69,99.81 122.85,97.7 122.85,94.27L122.85,83.05L121.72,83.05ZM108.48,82.76C106.22,82.76 105.29,84.82 105.29,84.82L105.29,83.04L104.16,83.04L104.16,93.98L105.41,93.98L105.41,86.08C105.41,86.08 106.3,83.97 108.19,83.97C109.2,83.97 109.65,84.23 109.65,84.23L110.18,83.03C110.18,83.05 109.51,82.76 108.48,82.76M90.76,87.87C90.81,86.67 91.82,83.98 94.86,83.98C97.74,83.98 98.82,86.62 98.87,87.87L90.76,87.87ZM94.87,82.76C91.61,82.76 89.47,85.42 89.47,88.52C89.47,91.64 91.82,94.28 95.09,94.28C96.89,94.28 98.62,93.32 99.67,92.05L98.83,91.19C98.09,92.13 96.77,93.06 95.09,93.06C92.19,93.06 90.82,90.68 90.72,89.03L100.15,89.03C100.17,88.77 100.17,88.74 100.17,88.53C100.17,85.16 97.77,82.76 94.87,82.76M81.38,82.76C78.69,82.76 77.64,85.04 77.64,85.04L77.64,83.05L76.51,83.05L76.51,93.99L77.76,93.99L77.76,86.43C77.76,86.43 78.72,83.98 81.14,83.98C82.92,83.98 84.24,84.94 84.24,87.2L84.24,93.99L85.49,93.99L85.49,87.01C85.48,84.03 83.42,82.76 81.38,82.76M63.76,78.34L71.82,78.34L71.82,77.19L62.51,77.19L62.51,93.99L71.97,93.99L71.97,92.84L63.76,92.84L63.76,85.95L71.25,85.95L71.25,84.8L63.76,84.8L63.76,78.34Z" style="fill-rule:nonzero;"/>
        <path d="M302.11,67.52L303.21,67.9L305.25,62.28L304.1,61.87L302.11,67.52ZM291.5,54.2L293.88,54.2L293.88,61.04C293.88,62.84 294.86,64.28 297,64.28C298.1,64.28 299.16,63.63 299.16,63.63L298.68,62.55C298.68,62.55 297.91,63.05 297.05,63.05C295.56,63.05 295.13,62.02 295.13,60.79L295.13,54.19L298.85,54.19L298.85,53.04L295.13,53.04L295.13,49.51L293.88,49.51L293.88,53.04L291.5,53.04L291.5,54.2ZM286,63.99L287.25,63.99L287.25,45.85L286.05,45.85L286,63.99ZM272.23,57.87C272.28,56.67 273.29,53.98 276.33,53.98C279.21,53.98 280.29,56.62 280.34,57.87L272.23,57.87ZM276.33,52.76C273.07,52.76 270.93,55.42 270.93,58.52C270.93,61.64 273.28,64.28 276.55,64.28C278.35,64.28 280.08,63.32 281.13,62.05L280.29,61.19C279.55,62.13 278.23,63.06 276.55,63.06C273.65,63.06 272.28,60.68 272.18,59.03L281.61,59.03C281.63,58.77 281.63,58.74 281.63,58.53C281.63,55.16 279.23,52.76 276.33,52.76M251.27,53.05L256.14,64.47L259.96,55.33L263.75,64.47L268.65,53.05L267.35,53.05L263.82,61.62L260.36,53.05L259.64,53.05L256.16,61.62L252.61,53.05L251.27,53.05ZM241.05,56.09C241.05,56.09 241.89,53.98 243.95,53.98C245.61,53.98 246.61,54.94 246.61,57.17L246.61,63.99L247.86,63.99L247.86,56.79C247.86,53.72 245.92,52.76 244.24,52.76C241.82,52.76 240.81,54.75 240.74,54.9C240.09,53.36 238.77,52.76 237.43,52.76C234.98,52.76 234.02,54.9 234.02,54.9L234.02,53.05L232.89,53.05L232.89,63.99L234.14,63.99L234.14,56.09C234.14,56.09 235.08,53.98 237.14,53.98C238.8,53.98 239.8,54.94 239.8,57.17L239.8,63.99L241.05,63.99L241.05,56.09ZM226.36,57.56C226.36,60.82 224.97,63.06 221.63,63.06C218.29,63.06 216.9,60.83 216.9,57.56L216.9,47.19L215.65,47.19L215.65,57.68C215.65,61.59 217.79,64.28 221.63,64.28C225.47,64.28 227.61,61.59 227.61,57.68L227.61,47.19L226.36,47.19L226.36,57.56ZM199.82,67.52L200.92,67.9L202.96,62.28L201.81,61.87L199.82,67.52ZM187.87,53.05L187.87,54.2L194.59,54.2L187.37,63.99L196.54,63.99L196.54,62.84L189.58,62.84L196.8,53.05L187.87,53.05ZM176.63,54.2L179.01,54.2L179.01,61.04C179.01,62.84 179.99,64.28 182.13,64.28C183.23,64.28 184.29,63.63 184.29,63.63L183.81,62.55C183.81,62.55 183.04,63.05 182.18,63.05C180.69,63.05 180.26,62.02 180.26,60.79L180.26,54.19L183.98,54.19L183.98,53.04L180.26,53.04L180.26,49.51L179.01,49.51L179.01,53.04L176.63,53.04L176.63,54.2ZM167.9,64.28C170.59,64.28 171.64,62.05 171.64,62.05L171.64,63.99L172.77,63.99L172.77,53.05L171.52,53.05L171.52,60.66C171.52,60.66 170.56,63.06 168.14,63.06C166.32,63.06 165.04,62.1 165.04,59.84L165.04,53.05L163.79,53.05L163.79,60.03C163.8,63.01 165.81,64.28 167.9,64.28M151.15,54.85L151.15,45.85L149.9,45.85L149.9,63.99L151.15,63.99L151.15,56.43C151.15,56.43 152.11,53.98 154.53,53.98C156.31,53.98 157.63,54.94 157.63,57.2L157.63,63.99L158.88,63.99L158.88,57.01C158.88,54.03 156.82,52.76 154.78,52.76C152.2,52.76 151.15,54.85 151.15,54.85M141.28,63.05C138.66,63.05 136.94,60.94 136.94,58.51C136.94,56.09 138.67,53.97 141.28,53.97C143.58,53.97 144.76,55.6 144.76,55.6L145.65,54.81C145.65,54.81 144.14,52.75 141.28,52.75C138.02,52.75 135.64,55.34 135.64,58.51C135.64,61.68 138.02,64.27 141.28,64.27C144.26,64.27 145.77,62.04 145.77,62.04L144.91,61.22C144.91,61.23 143.71,63.05 141.28,63.05M123.6,61.95C123.6,61.95 125.04,64.28 128.28,64.28C130.34,64.28 132.43,63.22 132.43,61.14C132.43,59.17 130.8,58.45 128.76,58C126.91,57.59 125.47,57.21 125.47,55.86C125.47,54.73 126.57,53.99 128.06,53.99C130.03,53.99 131.16,55.21 131.16,55.21L131.98,54.3C131.98,54.3 130.64,52.76 128.07,52.76C125.67,52.76 124.21,54.3 124.21,55.86C124.21,57.68 125.7,58.6 128.1,59.12C129.8,59.5 131.15,59.89 131.15,61.14C131.15,62.58 129.49,63.06 128.29,63.06C125.7,63.06 124.59,61.12 124.59,61.12L123.6,61.95ZM114.55,63.05C113.13,63.05 111.57,62.31 111.57,60.58C111.57,58.85 113.35,58.08 114.79,58.08C116.97,58.08 118.27,58.99 118.27,58.99L118.27,60.84C118.27,60.85 116.95,63.05 114.55,63.05M115.03,52.76C112.73,52.76 110.93,53.91 110.93,53.91L111.48,54.99C111.48,54.99 113.06,53.98 115.06,53.98C116.26,53.98 118.28,54.44 118.28,57.1L118.28,57.92C118.28,57.92 116.86,56.89 114.63,56.89C112.49,56.89 110.29,58.19 110.29,60.59C110.29,63.01 112.43,64.29 114.27,64.29C116.96,64.29 118.4,62.11 118.4,62.11L118.4,64.01L119.53,64.01L119.53,56.83C119.52,54.58 118.08,52.76 115.03,52.76M99.14,56.09C99.14,56.09 99.98,53.98 102.04,53.98C103.7,53.98 104.7,54.94 104.7,57.17L104.7,63.99L105.95,63.99L105.95,56.79C105.95,53.72 104.01,52.76 102.33,52.76C99.9,52.76 98.9,54.75 98.82,54.9C98.17,53.36 96.85,52.76 95.51,52.76C93.06,52.76 92.1,54.9 92.1,54.9L92.1,53.05L90.97,53.05L90.97,63.99L92.22,63.99L92.22,56.09C92.22,56.09 93.16,53.98 95.22,53.98C96.87,53.98 97.88,54.94 97.88,57.17L97.88,63.99L99.13,63.99L99.13,56.09L99.14,56.09ZM84.16,49.49C84.16,50.02 84.59,50.45 85.12,50.45C85.65,50.45 86.08,50.02 86.08,49.49C86.08,48.96 85.65,48.53 85.12,48.53C84.59,48.53 84.16,48.97 84.16,49.49M84.5,63.99L85.75,63.99L85.75,53.05L84.5,53.05L84.5,63.99ZM77.64,63.99L78.89,63.99L78.89,45.85L77.69,45.85L77.64,63.99ZM63.77,47.19L62.51,47.19L62.51,63.99L63.76,63.99L63.76,55.76L72.26,63.99L74.06,63.99L65.25,55.42L72.86,47.19L71.23,47.19L63.77,55.28L63.77,47.19Z" style="fill-rule:nonzero;"/>
        <path d="M273.88,22.61C271.46,22.61 270.57,24.67 270.57,24.67C270.57,24.67 269.87,22.61 267.11,22.61C264.85,22.61 264.04,24.53 264.04,24.53L264.04,22.9L262.17,22.9L262.17,33.99L264.19,33.99L264.19,26.26C264.19,26.26 264.93,24.48 266.57,24.48C268.01,24.48 268.95,25.37 268.95,27.17L268.95,33.99L270.97,33.99L270.97,26.26C270.97,26.26 271.69,24.48 273.35,24.48C274.79,24.48 275.73,25.37 275.73,27.17L275.73,33.99L277.75,33.99L277.75,26.86C277.72,24.13 276.18,22.61 273.88,22.61M252.38,34.28C254.78,34.28 255.79,32.29 255.79,32.29L255.79,33.99L257.66,33.99L257.66,22.9L255.64,22.9L255.64,30.58C255.64,30.58 254.75,32.4 252.88,32.4C251.39,32.4 250.22,31.58 250.22,29.69L250.22,22.9L248.2,22.9L248.2,30.03C248.2,32.77 250.17,34.28 252.38,34.28M240.95,19.35C240.95,20.09 241.57,20.72 242.32,20.72C243.06,20.72 243.69,20.1 243.69,19.35C243.69,18.61 243.07,17.98 242.32,17.98C241.58,17.98 240.95,18.61 240.95,19.35M241.31,33.99L243.33,33.99L243.33,22.9L241.31,22.9L241.31,33.99ZM236.32,22.61C234.21,22.61 233.22,24.6 233.22,24.6L233.22,22.9L231.35,22.9L231.35,33.99L233.37,33.99L233.37,26.36C233.37,26.36 234.16,24.49 235.91,24.49C236.75,24.49 237.18,24.73 237.18,24.73L237.92,22.91C237.93,22.9 237.23,22.61 236.32,22.61M218.68,27.49C218.82,26.34 219.81,24.49 222.21,24.49C224.44,24.49 225.57,26.24 225.64,27.49L218.68,27.49ZM222.21,22.61C218.87,22.61 216.67,25.2 216.67,28.44C216.67,31.73 219.09,34.27 222.45,34.27C225.38,34.27 227.06,32.09 227.06,32.09L225.79,30.77C225.79,30.77 224.64,32.4 222.45,32.4C220.36,32.4 218.75,30.84 218.63,29.16L227.58,29.16C227.6,28.9 227.6,28.73 227.6,28.51C227.61,24.94 225.31,22.61 222.21,22.61M206.01,24.73L208.17,24.73L208.17,30.8C208.17,33.25 209.92,34.28 211.51,34.28C212.16,34.28 212.85,34.14 213.81,33.61L213.07,31.95C213.07,31.95 212.42,32.41 211.8,32.41C210.72,32.41 210.19,31.79 210.19,30.71L210.19,24.73L213.65,24.73L213.65,22.9L210.19,22.9L210.19,19.52L208.17,19.52L208.17,22.9L206.01,22.9L206.01,24.73ZM193.89,31.95C193.89,31.95 195.52,34.28 198.64,34.28C200.78,34.28 203.03,33.18 203.03,31.04C203.03,28.78 201.23,27.99 199.12,27.54C197.3,27.16 196.43,26.7 196.43,25.86C196.43,25.14 197.13,24.44 198.54,24.44C200.22,24.44 201.32,25.66 201.32,25.66L202.64,24.29C202.64,24.29 201.15,22.61 198.54,22.61C196.07,22.61 194.46,24.19 194.46,25.8C194.46,27.89 196.14,28.82 198.52,29.3C200.22,29.64 201.04,30.12 201.04,31.08C201.04,31.97 199.77,32.45 198.64,32.45C196.46,32.45 195.28,30.65 195.28,30.65L193.89,31.95ZM187.36,19.35C187.36,20.09 187.98,20.72 188.73,20.72C189.48,20.72 190.1,20.1 190.1,19.35C190.1,18.61 189.48,17.98 188.73,17.98C187.98,17.98 187.36,18.61 187.36,19.35M187.72,33.99L189.74,33.99L189.74,22.9L187.72,22.9L187.72,33.99ZM178.67,22.61C176.27,22.61 175.26,24.46 175.26,24.46L175.26,22.9L173.39,22.9L173.39,33.99L175.41,33.99L175.41,26.36C175.41,26.36 176.37,24.49 178.17,24.49C179.66,24.49 180.83,25.31 180.83,27.2L180.83,33.99L182.85,33.99L182.85,26.86C182.85,24.13 180.88,22.61 178.67,22.61M166.15,19.35C166.15,20.09 166.77,20.72 167.52,20.72C168.26,20.72 168.89,20.1 168.89,19.35C168.89,18.61 168.27,17.98 167.52,17.98C166.77,17.98 166.15,18.61 166.15,19.35M166.51,33.99L168.53,33.99L168.53,22.9L166.51,22.9L166.51,33.99ZM157.8,22.61C155.38,22.61 154.49,24.67 154.49,24.67C154.49,24.67 153.79,22.61 151.03,22.61C148.77,22.61 147.96,24.53 147.96,24.53L147.96,22.9L146.09,22.9L146.09,33.99L148.11,33.99L148.11,26.26C148.11,26.26 148.85,24.48 150.49,24.48C151.93,24.48 152.87,25.37 152.87,27.17L152.87,33.99L154.89,33.99L154.89,26.26C154.89,26.26 155.61,24.48 157.27,24.48C158.71,24.48 159.65,25.37 159.65,27.17L159.65,33.99L161.67,33.99L161.67,26.86C161.64,24.13 160.1,22.61 157.8,22.61M133,31.95C133,31.95 134.63,34.28 137.75,34.28C139.89,34.28 142.14,33.18 142.14,31.04C142.14,28.78 140.34,27.99 138.23,27.54C136.41,27.16 135.54,26.7 135.54,25.86C135.54,25.14 136.24,24.44 137.65,24.44C139.33,24.44 140.43,25.66 140.43,25.66L141.75,24.29C141.75,24.29 140.26,22.61 137.65,22.61C135.18,22.61 133.57,24.19 133.57,25.8C133.57,27.89 135.25,28.82 137.63,29.3C139.33,29.64 140.15,30.12 140.15,31.08C140.15,31.97 138.88,32.45 137.75,32.45C135.57,32.45 134.39,30.65 134.39,30.65L133,31.95ZM121.05,27.49C121.19,26.34 122.18,24.49 124.58,24.49C126.81,24.49 127.94,26.24 128.01,27.49L121.05,27.49ZM124.58,22.61C121.24,22.61 119.04,25.2 119.04,28.44C119.04,31.73 121.46,34.27 124.82,34.27C127.75,34.27 129.43,32.09 129.43,32.09L128.16,30.77C128.16,30.77 127.01,32.4 124.82,32.4C122.73,32.4 121.12,30.84 121,29.16L129.95,29.16C129.97,28.9 129.97,28.73 129.97,28.51C129.98,24.94 127.68,22.61 124.58,22.61M112.84,30.49C112.84,30.49 111.78,32.41 109.58,32.41C107.32,32.41 105.91,30.63 105.91,28.45C105.91,26.27 107.37,24.49 109.58,24.49C111.79,24.49 112.84,26.41 112.84,26.41L112.84,30.49ZM109.27,22.61C106.27,22.61 103.89,25.18 103.89,28.44C103.89,31.7 106.27,34.27 109.27,34.27C111.93,34.27 113.01,32.37 113.01,32.37L113.01,33.98L114.86,33.98L114.86,15.85L112.84,15.85L112.84,24.27C112.84,24.27 111.72,22.61 109.27,22.61M95.97,22.61C93.57,22.61 92.56,24.46 92.56,24.46L92.56,22.9L90.69,22.9L90.69,33.99L92.71,33.99L92.71,26.36C92.71,26.36 93.67,24.49 95.47,24.49C96.96,24.49 98.13,25.31 98.13,27.2L98.13,33.99L100.15,33.99L100.15,26.86C100.15,24.13 98.18,22.61 95.97,22.61M80.9,34.28C83.3,34.28 84.31,32.29 84.31,32.29L84.31,33.99L86.18,33.99L86.18,22.9L84.16,22.9L84.16,30.58C84.16,30.58 83.27,32.4 81.4,32.4C79.91,32.4 78.74,31.58 78.74,29.69L78.74,22.9L76.72,22.9L76.72,30.03C76.72,32.77 78.69,34.28 80.9,34.28M64.22,24.44L64.22,19.11L66.96,19.11C68.86,19.11 70.01,20.14 70.01,21.77C70.01,23.4 68.86,24.43 66.96,24.43L64.22,24.43L64.22,24.44ZM67.46,32.07L64.22,32.07L64.22,26.31L67.46,26.31C69.86,26.31 70.92,27.61 70.92,29.19C70.92,30.77 69.86,32.07 67.46,32.07M62.2,33.99L67.46,33.99C70.77,33.99 72.93,32.12 72.93,29.19C72.93,25.85 70.36,25.11 70.12,25.06C70.36,25.01 72.02,24.05 72.02,21.77C72.02,18.96 70.08,17.19 66.62,17.19L62.2,17.19L62.2,33.99Z" style="fill-rule:nonzero;"/>
    </g>
    <path d="M43.23,22.68L43.23,17.01L17.01,17.01L19.65,22.68L43.23,22.68Z" style="fill:rgb(230,50,15);fill-rule:nonzero;"/>
    <path d="M24.94,34.02L43.23,34.02L43.23,28.35L22.29,28.35L24.94,34.02Z" style="fill:rgb(230,50,15);fill-rule:nonzero;"/>
</svg>
