<?xml version="1.0" encoding="UTF-8" standalone="no"?>
<!DOCTYPE svg PUBLIC "-//W3C//DTD SVG 1.1//EN" "http://www.w3.org/Graphics/SVG/1.1/DTD/svg11.dtd">
<svg width="100%" height="100%" viewBox="0 0 1342 600" version="1.1" xmlns="http://www.w3.org/2000/svg" xmlns:xlink="http://www.w3.org/1999/xlink" xml:space="preserve" xmlns:serif="http://www.serif.com/" style="fill-rule:evenodd;clip-rule:evenodd;stroke-linejoin:round;stroke-miterlimit:2;">
    <g transform="matrix(0.821288,0,0,0.821288,-11.1654,25.372)">
        <g transform="matrix(3.79302,0,0,3.79302,-218.151,-263.524)">
            <path d="M292.137,173.158L292.137,171.377L280.552,171.377L280.552,190.037L282.545,190.037L282.545,181.807L290.723,181.807L290.723,180.025L282.545,180.025L282.545,173.158L292.137,173.158ZM305.19,183.589C305.19,181.597 304.928,179.789 303.616,178.453C302.726,177.562 301.494,176.985 299.921,176.985C298.35,176.985 297.117,177.562 296.226,178.453C294.915,179.789 294.653,181.597 294.653,183.589C294.653,185.582 294.915,187.39 296.226,188.725C297.117,189.617 298.35,190.194 299.921,190.194C301.494,190.194 302.726,189.617 303.616,188.725C304.928,187.39 305.19,185.582 305.19,183.589ZM303.302,183.589C303.302,185.031 303.225,186.63 302.281,187.573C301.677,188.177 300.838,188.515 299.921,188.515C299.004,188.515 298.192,188.177 297.589,187.573C296.646,186.63 296.539,185.031 296.539,183.589C296.539,182.148 296.646,180.55 297.589,179.606C298.192,179.003 299.004,178.663 299.921,178.663C300.838,178.663 301.677,179.003 302.281,179.606C303.225,180.55 303.302,182.148 303.302,183.589ZM317.864,178.191C316.948,177.273 316.004,176.985 314.772,176.985C313.278,176.985 311.863,177.639 311.155,178.715L311.155,177.141L309.269,177.141L309.269,190.037L311.155,190.037L311.155,182.122C311.155,180.155 312.361,178.663 314.247,178.663C315.243,178.663 315.769,178.897 316.477,179.606L317.864,178.191ZM330.181,186.263C330.181,183.851 328.635,182.987 326.379,182.777L324.31,182.594C322.685,182.463 322.056,181.807 322.056,180.707C322.056,179.396 323.051,178.583 324.939,178.583C326.275,178.583 327.454,178.897 328.371,179.606L329.604,178.374C328.45,177.43 326.799,176.985 324.964,176.985C322.212,176.985 320.221,178.4 320.221,180.759C320.221,182.883 321.559,184.01 324.074,184.22L326.197,184.402C327.69,184.534 328.346,185.163 328.346,186.289C328.346,187.809 327.035,188.569 324.912,188.569C323.313,188.569 321.925,188.15 320.902,187.075L319.646,188.334C321.06,189.697 322.764,190.194 324.939,190.194C328.058,190.194 330.181,188.754 330.181,186.263ZM343.366,188.282L342.081,187.05C341.113,188.125 340.353,188.515 339.12,188.515C337.862,188.515 336.814,188.018 336.132,187.05C335.531,186.211 335.293,185.215 335.293,183.589C335.293,181.965 335.531,180.969 336.132,180.13C336.814,179.16 337.862,178.663 339.12,178.663C340.353,178.663 341.113,179.029 342.081,180.102L343.366,178.897C342.029,177.457 340.903,176.985 339.12,176.985C335.87,176.985 333.407,179.185 333.407,183.589C333.407,187.993 335.87,190.194 339.12,190.194C340.903,190.194 342.029,189.722 343.366,188.282ZM357.114,190.037L357.114,181.755C357.114,178.845 355.382,176.985 352.474,176.985C351.033,176.985 349.8,177.482 348.857,178.557L348.857,171.377L346.97,171.377L346.97,190.037L348.857,190.037L348.857,182.069C348.857,179.841 350.143,178.663 352.08,178.663C354.021,178.663 355.226,179.815 355.226,182.069L355.226,190.037L357.114,190.037ZM371.659,190.037L371.659,177.141L369.773,177.141L369.773,185.084C369.773,187.339 368.488,188.515 366.548,188.515C364.61,188.515 363.404,187.364 363.404,185.084L363.404,177.141L361.517,177.141L361.517,185.372C361.517,186.865 361.909,188.097 362.826,188.988C363.614,189.774 364.768,190.194 366.155,190.194C367.598,190.194 368.881,189.643 369.798,188.596L369.798,190.037L371.659,190.037ZM386.442,190.037L386.442,181.782C386.442,180.287 386.022,179.082 385.106,178.191C384.318,177.405 383.192,176.985 381.802,176.985C380.361,176.985 379.104,177.51 378.187,178.557L378.187,177.141L376.298,177.141L376.298,190.037L378.187,190.037L378.187,182.096C378.187,179.841 379.444,178.663 381.383,178.663C383.323,178.663 384.556,179.815 384.556,182.096L384.556,190.037L386.442,190.037ZM400.616,190.43L400.616,177.141L398.754,177.141L398.754,178.663C397.706,177.3 396.553,176.985 395.139,176.985C393.828,176.985 392.675,177.43 391.992,178.111C390.709,179.396 390.42,181.387 390.42,183.484C390.42,185.582 390.709,187.573 391.992,188.858C392.675,189.54 393.801,190.012 395.112,190.012C396.501,190.012 397.682,189.67 398.729,188.334L398.729,190.35C398.729,192.554 397.682,194.309 395.191,194.309C393.697,194.309 393.042,193.864 392.098,193.025L390.866,194.231C392.229,195.464 393.305,195.961 395.243,195.961C398.624,195.961 400.616,193.628 400.616,190.43ZM398.729,183.484C398.729,185.896 398.335,188.307 395.531,188.307C392.729,188.307 392.308,185.896 392.308,183.484C392.308,181.073 392.729,178.663 395.531,178.663C398.335,178.663 398.729,181.073 398.729,183.484ZM428.712,177.141L426.669,177.141L423.733,187.496L420.325,177.141L418.701,177.141L415.32,187.496L412.358,177.141L410.313,177.141L414.402,190.037L416.158,190.037L419.514,180.025L422.895,190.037L424.651,190.037L428.712,177.141ZM433.9,171.348L431.777,171.348L431.777,173.472L433.9,173.472L433.9,171.348ZM433.771,177.141L431.883,177.141L431.883,190.038L433.771,190.038L433.771,177.141ZM446.991,178.191C446.074,177.273 445.13,176.985 443.899,176.985C442.405,176.985 440.99,177.639 440.282,178.715L440.282,177.141L438.396,177.141L438.396,190.037L440.282,190.037L440.282,182.122C440.282,180.155 441.487,178.663 443.373,178.663C444.37,178.663 444.896,178.897 445.603,179.606L446.991,178.191ZM460.841,190.037L455.703,182.069L460.08,177.141L457.723,177.141L451.903,183.851L451.903,171.377L450.017,171.377L450.017,190.037L451.903,190.037L451.903,186.315L454.418,183.431L458.508,190.037L460.841,190.037ZM469.5,190.037L469.5,188.412L468.504,188.412C467.299,188.412 466.747,187.705 466.747,186.525L466.747,178.663L469.5,178.663L469.5,177.22L466.747,177.22L466.747,173.182L464.861,173.182L464.861,177.22L463.237,177.22L463.237,178.663L464.861,178.663L464.861,186.578C464.861,188.491 465.961,190.037 468.163,190.037L469.5,190.037ZM475.777,187.573L473.314,187.573L473.314,190.037L475.777,190.037L475.777,187.573Z" style="fill:rgb(35,31,32);fill-rule:nonzero;"/>
        </g>
        <g transform="matrix(3.79302,0,0,3.79302,-218.151,-263.524)">
            <path d="M331.316,91.465L331.316,78.032L280.511,78.032L280.511,155.16L295.569,155.16L295.569,123.854L326.008,123.854L326.008,110.421L295.569,110.421L295.569,91.465L331.316,91.465ZM399.011,91.465L399.011,78.032L348.205,78.032L348.205,155.16L363.262,155.16L363.262,123.854L393.703,123.854L393.703,110.421L363.262,110.421L363.262,91.465L399.011,91.465ZM469.208,123.53L469.208,112.263L440.065,112.263L440.065,124.829L454.257,124.829L454.257,127.753C454.257,131.762 453.283,135.228 450.791,138.045C448.299,140.754 444.616,142.378 440.065,142.378C435.95,142.378 432.591,140.862 430.424,138.369C427.501,135.12 426.743,131.437 426.743,116.597C426.743,101.757 427.501,98.181 430.424,94.931C432.591,92.44 435.95,90.815 440.065,90.815C447.757,90.815 452.2,94.823 453.932,102.08L469.098,102.08C467.041,89.081 457.94,77.382 440.065,77.382C431.399,77.382 424.684,80.416 419.268,85.832C411.467,93.632 411.685,103.272 411.685,116.597C411.685,129.92 411.467,139.562 419.268,147.362C424.684,152.778 431.617,155.811 440.065,155.811C448.299,155.811 455.667,153.428 461.84,147.036C467.256,141.404 469.208,134.686 469.208,123.53Z" style="fill:rgb(35,31,32);fill-rule:nonzero;"/>
        </g>
        <g transform="matrix(3.79302,0,0,3.79302,-218.151,-263.524)">
            <path d="M163.319,94.865C163.319,94.865 171.361,85.796 184.11,80.825C196.859,75.855 207.427,77.397 211.302,80.551C215.176,83.705 219.116,89.746 211.512,101.758C203.908,113.771 200.093,113.736 197.889,119.521C195.684,125.307 196.106,128.715 200.568,131.336C205.029,133.957 212.749,131.726 215.485,130.705C218.22,129.685 232.792,126.693 243.85,131.928C254.909,137.161 255.329,145.159 251.916,154.431C248.5,163.703 239.349,172.32 232.202,177.704C225.056,183.09 211.896,189.01 199.369,190.46C189.616,191.589 181.26,190.8 176.429,188.653C171.599,186.507 168.345,185.928 160.012,189.929C151.679,193.931 145.673,197.525 143.683,201.788C141.693,206.053 139.856,214.787 130.307,223.664C120.758,232.54 104.844,237.487 94.537,237.87C84.23,238.256 77.879,232.221 77.236,225.438C76.593,218.656 79.459,211.748 87.292,203.507C95.125,195.265 105.068,190.651 113.848,188.446C122.628,186.239 128.558,186.34 133.723,187.882C136.588,188.737 139.971,191.589 145.211,189.953C151.336,188.041 158.864,185.306 162.882,181.206C166.899,177.108 168.167,173.9 168.975,170.323C169.783,166.747 173.893,158.431 179.875,152.175C185.858,145.92 189.958,143.599 191.166,138.699C192.374,133.797 191.936,130.299 188.336,128.471C184.736,126.641 180.375,126.989 172.141,129.565C163.909,132.141 152.72,128.873 151.452,120.628C150.184,112.382 154.292,104.314 163.319,94.865Z" style="fill:rgb(237,25,58);fill-rule:nonzero;"/>
        </g>
    </g>
</svg>
