<?xml version="1.0" encoding="UTF-8" standalone="no"?>
<!DOCTYPE svg PUBLIC "-//W3C//DTD SVG 1.1//EN" "http://www.w3.org/Graphics/SVG/1.1/DTD/svg11.dtd">
<svg width="100%" height="100%" viewBox="0 0 419 419" version="1.1" xmlns="http://www.w3.org/2000/svg" xmlns:xlink="http://www.w3.org/1999/xlink" xml:space="preserve" xmlns:serif="http://www.serif.com/" style="fill-rule:evenodd;clip-rule:evenodd;stroke-linejoin:round;stroke-miterlimit:2;">
    <g id="Ebene_x0020_1">
        <g>
            <path d="M411.024,209.236L418.493,209.236L418.221,220.001L417.413,230.627L416.082,241.099L414.242,251.404L411.905,261.53L409.085,271.461L405.795,281.185L402.048,290.688L397.857,299.958L393.236,308.981L388.197,317.744L382.755,326.234L376.921,334.437L370.71,342.341L364.134,349.933L357.206,357.199L349.94,364.127L342.348,370.703L334.444,376.914L326.241,382.748L317.751,388.19L308.988,393.228L299.965,397.849L290.696,402.04L281.192,405.787L271.469,409.077L261.538,411.897L251.413,414.233L241.109,416.074L230.637,417.404L220.012,418.212L209.248,418.484L209.248,411.015L219.636,410.752L229.884,409.973L239.982,408.689L249.917,406.915L259.678,404.663L269.251,401.944L278.625,398.772L287.787,395.16L296.724,391.12L305.423,386.664L313.873,381.806L322.059,376.558L329.971,370.932L337.594,364.942L344.916,358.599L351.924,351.917L358.606,344.909L364.949,337.587L370.939,329.964L376.565,322.053L381.814,313.866L386.672,305.416L391.128,296.717L395.168,287.779L398.781,278.617L401.953,269.243L404.672,259.669L406.924,249.908L408.698,239.972L409.982,229.873L410.761,219.624L411.024,209.236L411.024,209.236ZM209.248,7.47L209.248,0L220.011,0.272L230.637,1.08L241.108,2.41L251.413,4.251L261.538,6.587L271.469,9.407L281.192,12.697L290.696,16.444L299.965,20.634L308.988,25.255L317.751,30.293L326.24,35.736L334.444,41.569L342.348,47.78L349.939,54.356L357.206,61.283L364.133,68.549L370.709,76.14L376.921,84.043L382.755,92.247L388.197,100.736L393.235,109.499L397.857,118.521L402.048,127.79L405.795,137.293L409.085,147.017L411.905,156.947L414.242,167.071L416.082,177.376L417.413,187.848L418.221,198.473L418.493,209.236L411.023,209.236L410.76,198.849L409.981,188.601L408.698,178.503L406.924,168.568L404.671,158.807L401.952,149.234L398.78,139.861L395.168,130.699L391.127,121.763L386.672,113.063L381.813,104.614L376.565,96.428L370.939,88.517L364.948,80.894L358.606,73.573L351.924,66.565L344.916,59.883L337.593,53.541L329.97,47.551L322.059,41.925L313.872,36.677L305.423,31.819L296.723,27.363L287.786,23.323L278.625,19.711L269.251,16.54L259.677,13.821L249.917,11.568L239.981,9.794L229.883,8.511L219.635,7.732L209.248,7.469L209.248,7.47ZM7.469,209.236L0,209.236L0.272,198.473L1.08,187.848L2.41,177.376L4.251,167.072L6.588,156.947L9.408,147.017L12.698,137.293L16.445,127.79L20.636,118.521L25.257,109.499L30.296,100.736L35.739,92.247L41.572,84.044L47.784,76.14L54.36,68.549L61.288,61.283L68.554,54.356L76.146,47.78L84.05,41.569L92.254,35.736L100.743,30.294L109.507,25.256L118.529,20.635L127.799,16.444L137.303,12.697L147.026,9.407L156.957,6.587L167.082,4.251L177.387,2.411L187.859,1.08L198.484,0.272L209.248,0L209.248,7.47L198.861,7.733L188.612,8.512L178.514,9.795L168.578,11.569L158.817,13.822L149.244,16.54L139.87,19.712L130.708,23.324L121.771,27.364L113.071,31.819L104.622,36.678L96.435,41.926L88.523,47.551L80.9,53.541L73.578,59.884L66.569,66.565L59.888,73.573L53.545,80.895L47.554,88.518L41.928,96.428L36.679,104.615L31.821,113.064L27.365,121.763L23.325,130.7L19.712,139.861L16.54,149.235L13.822,158.808L11.569,168.568L9.795,178.504L8.511,188.601L7.732,198.85L7.469,209.237L7.469,209.236ZM209.248,411.015L209.248,418.484L198.485,418.212L187.859,417.404L177.387,416.074L167.082,414.233L156.958,411.897L147.027,409.077L137.303,405.787L127.799,402.04L118.53,397.85L109.507,393.228L100.744,388.19L92.254,382.748L84.051,376.914L76.146,370.703L68.555,364.127L61.288,357.2L54.36,349.933L47.784,342.342L41.572,334.438L35.739,326.234L30.296,317.745L25.258,308.982L20.636,299.959L16.446,290.689L12.698,281.185L9.408,271.461L6.588,261.53L4.251,251.405L2.411,241.099L1.08,230.627L0.272,220.001L0,209.237L7.47,209.237L7.732,219.625L8.512,229.874L9.795,239.972L11.569,249.909L13.822,259.67L16.541,269.244L19.713,278.617L23.325,287.78L27.366,296.717L31.822,305.417L36.68,313.866L41.929,322.053L47.555,329.964L53.545,337.587L59.888,344.909L66.57,351.918L73.578,358.6L80.901,364.942L88.524,370.932L96.435,376.558L104.622,381.807L113.072,386.665L121.771,391.121L130.709,395.161L139.871,398.773L149.244,401.945L158.818,404.663L168.579,406.916L178.515,408.69L188.613,409.973L198.861,410.752L209.248,411.015L209.248,411.015Z" style="fill:rgb(43,42,41);fill-rule:nonzero;"/>
        </g>
        <path d="M376.883,202.403L376.859,202.39C376.883,200.658 376.706,198.176 376.445,195.89C376.05,195.653 375.567,195.529 375.148,195.323C372.558,197.519 370.485,200.015 369.488,203.338C368.22,207.569 368.803,212.699 368.803,212.699C368.803,212.699 365.007,208.842 366.311,201.302C366.861,198.135 368.011,195.578 369.303,193.477C365.696,192.857 361.962,192.894 359.003,193.612C358.588,193.714 358.211,193.912 357.8,194.035C356.299,197.232 356.307,200.284 357.308,202.927C358.252,205.427 360.53,208.571 360.53,208.571C360.53,208.571 355.227,207.298 353.13,202.444C352.273,200.45 352.06,198.476 352.12,196.661C349.121,198.599 346.618,201.179 345.23,204.475C341.294,213.824 343.962,221.507 346.018,225.45C347.384,227.428 350.024,230.457 354.333,232.405C359.146,234.585 363.221,234.823 363.221,234.823C363.221,234.823 360.567,236.448 354.308,236.045C350.955,235.829 348.111,234.215 346.228,232.829C343.412,238.771 338.492,240.248 334.305,240.635C322.482,241.729 308.402,232.319 296.169,222.437C296.177,222.417 296.18,222.393 296.185,222.372C288.564,216.491 281.776,210.019 277.57,205.517C273.844,201.52 269.633,195.459 269.633,195.459L277.997,185.827C277.997,185.827 279.967,196.148 290.488,207.558C293.451,210.774 295.865,213.277 297.896,215.112C299.414,206.429 299.645,197.023 299.69,196.998C305.193,193.584 319.589,185.002 330.308,180.21C346.457,172.979 361.588,172.104 372.829,172.805C371.022,165.48 369.566,158.143 363.398,143.205C359.282,133.229 353.29,123.256 348.845,116.648L348.853,116.648C348.853,116.648 348.784,116.551 348.722,116.46C348.464,116.078 348.189,115.66 347.939,115.299L347.902,115.299C347.714,115.028 347.545,114.789 347.48,114.708C345.969,112.664 338.18,102.54 333.493,97.291C332.155,95.784 330.538,94.081 328.909,92.411C328.905,92.411 328.876,92.375 328.876,92.375L328.863,92.37C325.261,88.669 321.616,85.155 320.869,84.438C320.197,83.768 318.879,82.574 316.227,80.476C315.834,80.584 315.461,80.818 315.067,80.954C314.8,84.043 315.083,87.019 316.498,89.888C318.456,93.848 322.384,97.205 322.384,97.205C322.384,97.205 316.976,96.971 312.789,90.565C311.25,88.209 310.355,85.878 309.822,83.703C306.782,85.849 304.134,88.583 302.562,91.296C302.382,91.603 302.296,91.94 302.132,92.255C303.296,94.919 305.111,96.807 307.314,97.894C309.707,99.076 313.516,99.823 313.516,99.823C313.516,99.823 308.772,102.511 303.929,100.389C302.439,99.737 301.225,98.834 300.194,97.853C299.468,101.482 299.591,105.232 300.843,108.757C303.075,115.037 308.164,119.74 314.964,122.165C317.361,122.625 321.071,122.891 325.24,121.484C330.247,119.793 333.391,117.186 333.391,117.186C333.391,117.186 332.554,120.191 327.703,124.164C325.835,125.69 323.665,126.506 321.72,126.954C324.613,133.541 322.306,138.481 319.34,141.703C312.941,148.627 300.097,153.096 284.875,153.752C281.309,148.45 278.075,144.773 276.515,143.118C276.396,142.992 275.703,142.253 274.796,141.337C274.044,140.365 269.891,136.709 265.509,132.95C264.171,134.866 262.057,137.611 259.152,140.517C253.726,145.943 244.123,148.823 244.123,148.823C244.123,148.823 233.006,146.96 223.933,140.316C220.189,137.574 215.536,133.004 213.697,129.392C207.566,120.798 210.398,107.773 210.398,107.773C210.398,107.773 207.402,107.456 203.757,105.737C198.455,103.234 193.888,98.087 192.381,93.483C190.662,88.221 190.765,75.733 204.579,71.134C210.878,69.487 213.722,72.343 213.722,72.343C213.722,72.343 203.999,72.767 200.327,79.07C196.658,85.373 198.505,91.017 202.153,94.049C206.54,97.964 217.247,99.421 217.247,99.421C217.247,99.421 213.914,111.216 217.3,118.36C219.139,122.243 225.557,129.305 232.657,132.593C237.163,134.689 241.132,136.36 245.277,137.148C251.867,134.09 257.174,126.429 257.411,126.08C257.395,126.063 257.367,126.043 257.346,126.026C257.506,125.825 257.678,125.649 257.834,125.443C261.647,120.425 263.596,113.911 263.588,113.903L263.534,113.928C263.554,113.854 263.572,113.805 263.572,113.805C263.572,113.805 250.689,106.771 255.388,97.968C258.679,91.792 267.248,95.473 271.081,97.705L275.583,100.324L287.498,75.889C287.498,75.889 271.065,68.711 263.014,65.597L267.831,52.206L262.303,50.359C234.541,41.08 208.998,39.623 183.842,43.817C159.994,47.794 140.012,61.017 129.018,80.092C117.897,99.392 116.484,126.063 125.428,146.283C131.822,160.741 140.571,169.826 142.18,188.692C143.41,203.138 136.569,214.806 131.615,225.311C134.948,225.626 138.876,226.254 138.876,226.254C144.001,226.915 153.851,227.366 162.165,227.651C168.055,221.921 175.974,211.8 177.887,197.482C179.545,181.908 173.887,169.338 169.203,160.983C164.722,152.992 156.124,141.111 151.524,132.059C143.579,116.452 141.954,101.788 146.082,88.34C148.631,80.03 153.924,73.094 160.4,67.969C166.108,63.771 169.121,63.426 174.362,61.829C165.272,67.222 157.999,75.253 154.762,85.8C150.633,99.249 152.045,113.911 159.989,129.518C164.59,138.572 173.824,149.607 178.306,157.593C182.988,165.952 189.082,178.515 188.261,193.034C187.909,202.731 183.402,215.248 177.747,223.828C176.377,225.901 175.528,227.116 174.87,228.007C174.924,228.007 175.006,228.011 175.059,228.011C170.549,234.175 159.038,245.69 143.694,251.44C127.397,257.542 109.306,257.998 101.71,252.761C101.328,252.495 100.971,252.219 100.635,251.941C110.526,250.803 120.733,245.259 124.294,234.031C128.279,221.47 123.617,213.138 115.91,206.022C127.569,190.506 128.337,170.755 117.568,158.516C116.164,156.916 114.63,155.512 113.013,154.305C116.657,137.783 114.076,116.723 104.242,109.537C98.908,105.642 92.859,104.431 86.752,106.019C71.469,110.016 61.587,128.275 56.974,138.415C52.353,148.543 48.508,158.939 44.223,179.055C40.616,196.021 40.009,229.041 47.134,252.322C48.208,255.815 50.482,255.581 50.581,253.664C50.966,245.371 52.149,238.615 53.626,233.173C55.357,226.783 57.503,222.211 59.265,219.13C64.858,209.346 70.107,188.421 63.282,171.163C60.75,164.754 61.825,154.831 65.675,144.243C71.334,132.037 80.813,118.88 89.514,116.604C92.456,115.831 95.087,116.394 97.791,118.367C101.591,121.15 105.687,134.68 102.843,149.68C100.86,149.274 98.834,149.122 96.806,149.244C89.895,149.652 83.645,153.222 79.644,159.024C73.491,167.983 73.545,181.583 83.456,193.584C74.855,205.817 68.346,217.172 70.307,231.322C71.604,240.659 77.998,247.778 87.219,250.708C88.64,255.194 91.455,258.978 95.501,261.773C100.868,265.466 108.744,267.309 117.822,267.309C122.886,267.309 128.323,266.714 133.9,265.56C132.468,272.197 127.002,278.951 122.796,281.475C113.197,287.237 99.863,286.232 87.482,274.379C87.482,274.379 84.848,271.79 83.107,270.182C75.942,278.012 69.72,292.548 69.716,302.898L75.769,311.577C101.763,344.051 129.198,359.009 152.106,367.209C152.106,367.205 152.109,367.201 152.114,367.197C152.614,367.377 162.107,370.804 170.244,372.963C179.979,375.544 190.099,376.069 190.099,376.069L190.145,375.946C190.497,375.593 190.76,375.121 191.083,374.732C188.818,371.161 186.164,368.264 182.24,366.783C178.108,365.219 172.949,365.445 172.949,365.445C172.949,365.445 177.061,361.928 184.489,363.753C188.983,364.857 192.192,367.078 194.437,369.192C195.767,366.044 196.546,362.687 196.555,359.806C196.558,359.531 196.485,359.272 196.472,359.002C196.074,358.617 195.676,358.222 195.201,357.8C191.166,354.225 187.042,353.597 183.497,354.66C180.94,355.428 177.647,357.479 177.647,357.479C177.647,357.479 179.282,352.28 184.276,350.527C188.351,349.1 192.254,350.068 194.72,351.053C193.493,348.291 191.674,345.816 189.344,343.826C185.372,340.419 178.49,337.534 172.83,338.175C167.167,338.815 164.804,339.804 161.544,341.896C158.241,344.023 156.353,345.833 154.301,349.633C151.79,354.287 151.272,358.338 151.272,358.338C151.272,358.338 149.832,355.571 150.673,349.358C151.346,344.351 155.089,340.674 156.267,339.62C149.812,334.904 143.233,325.177 142.806,318.612C156.127,322.137 169.477,321.94 180.282,318.025C181.386,317.503 182.602,316.904 183.66,316.17C192.143,310.317 194.507,305.857 197.223,299.836C201.668,289.979 203.818,274.212 200.293,266.28C196.903,258.659 183.988,250.611 183.988,250.611L193.304,248.283C193.304,248.283 198.397,251.353 201.881,255.06C205.362,258.761 209.244,262.466 209.244,262.466C209.244,262.466 215.535,270.408 222.31,272.311C228.81,274.143 230.895,273.831 236.283,273.477C238.126,273.355 240.486,272.936 243.215,272.353C243.215,272.341 243.211,272.337 243.207,272.329C249.244,270.489 253.775,269.053 259.04,266.32C253.455,263.484 248.378,259.232 244.225,254.53C236.283,245.53 233.535,229.332 233.535,229.332L243.059,225.125C243.059,225.125 242.953,238.118 249.622,248.189C253.171,253.548 257.222,257.994 264.761,262.574C269.87,265.676 276.173,267.937 280.33,269.238C283.663,270.17 286.966,270.97 289.4,271.425C297.411,272.928 302.684,273.371 314.918,273.641C318.119,273.707 324.271,274.261 328.063,275.743C332.031,277.282 336.648,280.097 340.436,283.757C343.899,287.098 349.025,294.726 350.528,300.045C353.133,296.631 359.277,286.466 365.88,270.744C370.476,259.799 374.481,239.357 374.392,239.247C375.154,235.894 376.296,226.189 376.447,220.908C376.603,215.445 376.882,202.403 376.882,202.403L376.883,202.403ZM91.475,201.2C91.767,201.426 92.066,201.652 92.375,201.869C93.941,203.014 95.489,204.118 97,205.189C98.338,206.146 99.597,207.048 100.783,207.927C95.079,216.085 88.348,227.605 86.608,238.447C84.015,236.785 81.741,234.109 81.142,229.813C79.779,220.001 84.52,211.251 91.475,201.201L91.475,201.2ZM99.737,158.697C99.547,159.301 99.364,159.9 99.182,160.486C96.17,170.212 93.954,176.577 89.707,183.184C84.918,175.942 84.913,168.616 88.238,163.777C90.387,160.65 93.584,158.807 97.237,158.59C97.479,158.574 97.718,158.566 97.959,158.566C98.55,158.566 99.146,158.611 99.737,158.697L99.737,158.697ZM107.374,199.177C106.053,198.217 104.699,197.252 103.348,196.288C101.867,195.234 100.356,194.154 98.822,193.029C98.481,192.784 98.152,192.542 97.825,192.295C104.153,183.192 106.73,175.153 109.578,165.985C116.604,174.279 115.648,187.97 107.375,199.177L107.374,199.177ZM97.016,241.608C97.911,233.65 103.168,223.571 109.389,214.563C114.531,219.545 116.209,224.051 114.051,230.859C110.899,240.795 105.056,241.452 97.016,241.608ZM227.473,73.365C227.473,73.365 237.836,74.276 244.122,77.166C234.897,79.935 230.941,84.897 225.709,85.627C224.934,81.671 227.473,73.365 227.473,73.365ZM297.383,125.423C292.216,127.975 286.491,127.068 284.403,124.729C282.309,122.39 281.854,120.986 280.64,118.532C279.346,116.078 278.009,113.411 276.313,110.85C274.582,108.326 272.472,105.846 269.821,104.132C267.196,102.387 263.465,101.025 261.376,101.082C259.291,101.14 260.148,101.927 261.007,102.338C261.869,102.744 265.545,105.252 267.105,107.193C268.689,109.126 269.715,111.391 270.487,113.805C272.201,118.655 272.387,124.043 275.674,130.478C276.096,131.287 276.56,132.087 277.205,132.899L278.111,134.102L279.101,135.16C280.414,136.597 282.072,137.836 283.926,138.862C287.662,140.914 292.635,141.074 296.575,139.31C300.588,137.626 303.374,134.327 304.757,130.978C306.137,127.58 306.219,123.009 305.181,120.834C304.15,118.667 301.553,123.309 297.383,125.422L297.383,125.423ZM179.516,331.256C202.699,335.474 214.44,351.435 220.25,376.903C260.26,374.339 289.04,359.141 308.603,344.77L308.611,344.811C308.611,344.811 318.469,337.005 325.018,331.001C327.328,328.879 329.615,326.413 331.54,324.214C331.54,324.251 331.556,324.296 331.556,324.333C331.556,324.333 334.572,321.021 336.493,318.653C336.423,318.288 336.234,317.936 336.136,317.573C332.315,317.106 328.687,317.291 325.277,319.125C321.387,321.223 318.174,325.261 318.174,325.261C318.174,325.261 318.218,319.852 324.473,315.44C327.603,313.232 330.764,312.165 333.505,311.693C331.592,308.656 329.139,305.969 326.639,304.277C326.34,304.072 325.999,303.962 325.692,303.772C321.186,304.728 318.338,307.159 316.955,310.224C315.859,312.662 315.247,316.491 315.247,316.491C315.247,316.491 312.391,311.845 314.349,306.928C315.387,304.306 317.156,302.426 318.916,301.08C315.757,300.441 312.49,300.478 309.342,301.352C301.947,303.415 294.388,308.961 292.737,321.337C292.685,323.504 292.943,326.139 294.006,328.963C295.869,333.908 298.586,336.957 298.586,336.957C298.586,336.957 295.557,336.231 291.417,331.519C289.997,329.902 289.135,328.014 288.597,326.254C281.379,330.062 269.281,332.422 263.034,333.403C255.237,334.626 249.573,335.085 245.826,332.865C241.899,330.534 240.507,328.732 238.6,325.006C236.182,320.27 237.119,312.449 238.169,309.264C240.147,303.313 249.573,294.593 246.102,282.847C245.814,281.305 245.548,280.139 245.28,279.089C244.111,279.618 242.97,280.098 241.898,280.464C228.664,285.018 212.995,279.196 212.995,279.196C212.995,279.196 211.957,292.254 206.856,300.154C200.507,309.999 195.62,314.025 190.087,318.091C186.627,320.632 183.394,322.204 180.723,323.212C180.698,325.86 180.369,328.748 179.516,331.256L179.516,331.256Z" style="fill:rgb(43,42,41);fill-rule:nonzero;"/>
    </g>
</svg>
