<?xml version="1.0" encoding="UTF-8" standalone="no"?>
<!DOCTYPE svg PUBLIC "-//W3C//DTD SVG 1.1//EN" "http://www.w3.org/Graphics/SVG/1.1/DTD/svg11.dtd">
<svg width="100%" height="100%" viewBox="0 0 171 86" version="1.1" xmlns="http://www.w3.org/2000/svg" xmlns:xlink="http://www.w3.org/1999/xlink" xml:space="preserve" xmlns:serif="http://www.serif.com/" style="fill-rule:evenodd;clip-rule:evenodd;stroke-linejoin:round;stroke-miterlimit:2;">
    <g id="Ebene_x0020_1" transform="matrix(1.20132,0,0,1.20132,-17.1016,-8.59938)">
        <g>
            <path d="M59.315,50.208L60.025,50.208L59.999,51.231L59.922,52.241L59.796,53.237L59.621,54.217L59.398,55.179L59.13,56.123L58.817,57.047L58.461,57.951L58.062,58.832L57.623,59.69L57.144,60.523L56.626,61.33L56.072,62.11L55.481,62.861L54.856,63.583L54.197,64.274L53.506,64.933L52.784,65.558L52.032,66.149L51.252,66.704L50.445,67.221L49.613,67.7L48.755,68.139L47.874,68.538L46.97,68.894L46.046,69.207L45.102,69.475L44.139,69.698L43.16,69.872L42.164,69.999L41.154,70.076L40.131,70.102L40.131,69.392L41.118,69.366L42.093,69.292L43.053,69.17L43.997,69.002L44.925,68.787L45.835,68.529L46.726,68.228L47.597,67.884L48.446,67.5L49.273,67.076L50.077,66.614L50.855,66.115L51.607,65.58L52.332,65.01L53.029,64.407L53.695,63.772L54.33,63.106L54.934,62.409L55.503,61.685L56.038,60.932L56.537,60.154L56.999,59.35L57.423,58.524L57.807,57.674L58.151,56.803L58.452,55.912L58.711,55.002L58.925,54.074L59.094,53.13L59.216,52.17L59.29,51.195L59.315,50.208L59.315,50.208ZM40.131,31.025L40.131,30.315L41.154,30.341L42.164,30.418L43.16,30.544L44.139,30.719L45.102,30.941L46.046,31.21L46.97,31.522L47.874,31.878L48.755,32.277L49.613,32.716L50.445,33.196L51.252,33.713L52.032,34.268L52.784,34.858L53.506,35.484L54.197,36.142L54.856,36.833L55.481,37.555L56.072,38.307L56.626,39.087L57.144,39.894L57.623,40.727L58.062,41.585L58.461,42.465L58.817,43.369L59.13,44.293L59.398,45.237L59.621,46.2L59.796,47.179L59.922,48.175L59.999,49.185L60.025,50.208L59.315,50.208L59.289,49.22L59.215,48.246L59.094,47.286L58.925,46.342L58.71,45.414L58.452,44.504L58.15,43.613L57.807,42.742L57.423,41.892L56.999,41.066L56.537,40.262L56.038,39.484L55.503,38.732L54.933,38.007L54.33,37.311L53.695,36.644L53.028,36.009L52.332,35.406L51.607,34.836L50.855,34.301L50.076,33.802L49.273,33.34L48.446,32.917L47.597,32.532L46.726,32.189L45.835,31.887L44.925,31.629L43.997,31.415L43.052,31.246L42.092,31.124L41.118,31.05L40.131,31.025L40.131,31.025ZM20.947,50.208L20.237,50.208L20.263,49.185L20.34,48.175L20.466,47.179L20.641,46.2L20.863,45.237L21.131,44.293L21.444,43.369L21.801,42.465L22.199,41.584L22.639,40.727L23.118,39.894L23.635,39.087L24.19,38.307L24.781,37.555L25.406,36.833L26.065,36.142L26.756,35.484L27.478,34.858L28.229,34.268L29.01,33.713L29.816,33.196L30.649,32.716L31.507,32.277L32.388,31.878L33.292,31.522L34.216,31.21L35.16,30.941L36.123,30.719L37.102,30.544L38.098,30.418L39.108,30.341L40.131,30.315L40.131,31.025L39.143,31.05L38.169,31.124L37.209,31.246L36.265,31.415L35.337,31.629L34.427,31.888L33.536,32.189L32.665,32.533L31.815,32.917L30.988,33.341L30.185,33.802L29.407,34.302L28.654,34.837L27.929,35.406L27.233,36.009L26.567,36.645L25.931,37.311L25.328,38.007L24.758,38.732L24.223,39.484L23.724,40.263L23.263,41.066L22.839,41.893L22.455,42.742L22.111,43.613L21.809,44.504L21.551,45.414L21.336,46.342L21.168,47.287L21.046,48.247L20.972,49.221L20.947,50.208L20.947,50.208ZM40.131,69.392L40.131,70.102L39.108,70.076L38.098,69.999L37.102,69.872L36.123,69.698L35.16,69.475L34.216,69.207L33.292,68.894L32.388,68.538L31.507,68.139L30.649,67.7L29.816,67.221L29.01,66.704L28.229,66.149L27.478,65.558L26.756,64.933L26.065,64.274L25.406,63.583L24.781,62.861L24.19,62.11L23.635,61.33L23.118,60.523L22.639,59.69L22.199,58.832L21.801,57.951L21.444,57.047L21.131,56.123L20.863,55.179L20.641,54.217L20.466,53.237L20.34,52.241L20.263,51.231L20.237,50.208L20.947,50.208L20.972,51.195L21.046,52.17L21.168,53.13L21.337,54.074L21.551,55.002L21.81,55.912L22.111,56.804L22.455,57.674L22.839,58.524L23.263,59.351L23.725,60.154L24.224,60.932L24.759,61.685L25.328,62.41L25.932,63.106L26.567,63.772L27.233,64.407L27.93,65.011L28.655,65.58L29.407,66.115L30.185,66.615L30.989,67.076L31.816,67.5L32.665,67.884L33.536,68.228L34.427,68.529L35.337,68.788L36.265,69.002L37.21,69.171L38.17,69.293L39.144,69.367L40.131,69.392L40.131,69.392Z" style="fill:rgb(24,21,18);fill-rule:nonzero;"/>
        </g>
        <path d="M66.183,50.207L66.183,15.473L14.08,15.473L14.08,50.207L16.685,50.207C16.685,37.258 27.182,26.761 40.131,26.761C53.08,26.761 63.577,37.258 63.577,50.207L66.183,50.207Z" style="fill:rgb(0,87,64);fill-rule:nonzero;"/>
        <path d="M71.927,24.283L74.373,24.283L74.373,21.119L75.955,21.107C76.429,21.107 77.488,21.107 78.17,20.73C78.511,20.547 79.496,19.878 79.496,18.332C79.496,17.188 78.997,16.397 78.255,15.947C77.537,15.496 76.648,15.496 75.967,15.496L71.927,15.496L71.927,24.283ZM74.373,17.127L75.444,17.127C76.149,17.127 77.013,17.188 77.013,18.259C77.013,19.439 76.052,19.439 75.456,19.439L74.373,19.439L74.373,17.127L74.373,17.127Z" style="fill:rgb(24,21,18);fill-rule:nonzero;"/>
        <path d="M80.421,24.283L81.675,24.283L82.624,21.995L86.701,21.995L87.65,24.283L88.976,24.283L85.423,15.497L84.12,15.497L80.421,24.283ZM84.717,16.702L86.336,21.01L83.013,21.01L84.717,16.702ZM90.632,24.283L91.836,24.283L91.836,20.316L93.37,20.316C94.842,20.316 95.146,20.681 95.293,21.959C95.378,22.628 95.499,23.699 95.694,24.283L96.996,24.283C96.656,23.31 96.57,22.555 96.449,21.521C96.327,20.426 95.95,20.048 95.11,19.829C95.378,19.756 95.767,19.635 96.144,19.257C96.534,18.868 96.765,18.32 96.765,17.7C96.765,16.994 96.449,16.324 95.792,15.911C95.146,15.497 94.222,15.497 93.771,15.497L90.632,15.497L90.632,24.283ZM91.812,16.519L93.735,16.519C94.222,16.519 95.487,16.519 95.487,17.943C95.487,18.673 95.061,18.989 94.891,19.087C94.562,19.282 93.869,19.282 93.735,19.282L91.812,19.282L91.812,16.519ZM99.26,24.283L100.477,24.283L100.477,15.497L99.26,15.497L99.26,24.283ZM102.74,21.716C102.74,22.142 102.753,22.847 103.252,23.492C103.945,24.381 105.308,24.49 105.977,24.49C108.229,24.49 109.446,23.31 109.446,21.752C109.446,21.387 109.385,20.535 108.57,20C108.058,19.659 107.827,19.61 105.734,19.075C104.663,18.819 104.152,18.551 104.152,17.773C104.152,16.897 104.883,16.349 106.099,16.349C106.963,16.349 107.888,16.592 107.949,17.688L109.215,17.688C109.191,17.322 109.166,16.726 108.679,16.191C107.973,15.424 106.793,15.327 106.209,15.327C104.554,15.327 102.862,16.106 102.862,17.894C102.862,18.479 103.057,19.136 103.775,19.623C104.225,19.927 104.821,20.073 106.16,20.401C107.389,20.706 108.18,20.901 108.18,21.886C108.18,22.325 107.949,23.456 106.124,23.456C104.103,23.456 104.03,22.325 104.006,21.716L102.741,21.716L102.74,21.716Z" style="fill:rgb(120,120,120);fill-rule:nonzero;"/>
        <path d="M71.854,38.887L78.267,38.887L78.267,37.159L74.324,37.159L74.324,30.1L71.854,30.1L71.854,38.887Z" style="fill:rgb(24,21,18);fill-rule:nonzero;"/>
        <path d="M79.679,34.554C79.679,36.964 80.652,39.094 83.646,39.094C86.774,39.094 87.711,36.745 87.711,34.408C87.711,31.427 86.177,29.869 83.743,29.869C82.928,29.869 81.723,30.064 80.81,31.049C79.849,32.084 79.679,33.556 79.679,34.554ZM80.956,34.481C80.956,32.68 81.529,30.891 83.755,30.891C85.763,30.891 86.42,32.4 86.42,34.396C86.42,34.993 86.348,36.38 85.629,37.256C85.118,37.865 84.4,38.059 83.682,38.059C82.988,38.059 82.234,37.876 81.735,37.256C81.126,36.501 80.956,35.443 80.956,34.481L80.956,34.481ZM89.986,38.887L92.456,38.887C93.746,38.887 94.83,38.887 95.694,38.168C96.363,37.633 97.154,36.465 97.154,34.566C97.154,33.361 96.85,32.157 96.071,31.244C95.097,30.1 93.71,30.1 92.53,30.1L89.986,30.1L89.986,38.887ZM91.203,31.11L92.663,31.11C93.734,31.11 94.44,31.256 95,31.877C95.827,32.79 95.852,34.287 95.852,34.615C95.852,35.126 95.815,36.562 94.696,37.402C94.112,37.84 93.235,37.889 92.396,37.889L91.203,37.889L91.203,31.11ZM99.235,38.887L100.44,38.887L100.44,34.919L101.973,34.919C103.445,34.919 103.75,35.284 103.896,36.562C103.981,37.231 104.103,38.302 104.298,38.887L105.6,38.887C105.259,37.913 105.174,37.159 105.052,36.124C104.93,35.029 104.553,34.652 103.713,34.433C103.981,34.36 104.371,34.238 104.748,33.86C105.137,33.471 105.369,32.924 105.369,32.303C105.369,31.597 105.052,30.928 104.395,30.514C103.75,30.1 102.825,30.1 102.375,30.1L99.235,30.1L99.235,38.887ZM100.415,31.123L102.338,31.123C102.825,31.123 104.091,31.123 104.091,32.546C104.091,33.277 103.665,33.593 103.494,33.69C103.166,33.885 102.472,33.885 102.338,33.885L100.415,33.885L100.415,31.123ZM107.51,34.554C107.51,36.964 108.484,39.094 111.478,39.094C114.605,39.094 115.542,36.745 115.542,34.408C115.542,31.427 114.009,29.869 111.575,29.869C110.76,29.869 109.555,30.064 108.642,31.049C107.681,32.084 107.51,33.556 107.51,34.554ZM108.788,34.481C108.788,32.68 109.36,30.891 111.587,30.891C113.595,30.891 114.252,32.4 114.252,34.396C114.252,34.993 114.179,36.38 113.461,37.256C112.95,37.865 112.232,38.059 111.514,38.059C110.82,38.059 110.065,37.876 109.567,37.256C108.958,36.501 108.787,35.443 108.787,34.481L108.788,34.481ZM117.903,38.887L119.01,38.887L119.01,31.427L123.477,38.887L125.034,38.887L125.034,30.1L123.915,30.1L123.915,37.365L119.595,30.1L117.903,30.1L117.903,38.887Z" style="fill:rgb(120,120,120);fill-rule:nonzero;"/>
        <path d="M71.914,44.704L71.902,49.706C71.902,51.142 71.914,53.721 76.064,53.721C77.172,53.721 78.741,53.515 79.594,52.468C80.141,51.823 80.275,50.764 80.275,49.791L80.275,44.704L77.902,44.704L77.902,49.84C77.902,50.716 77.695,51.969 76.149,51.969C75.553,51.969 74.981,51.738 74.653,51.251C74.409,50.886 74.373,50.4 74.373,49.925L74.373,44.704L71.914,44.704Z" style="fill:rgb(24,21,18);fill-rule:nonzero;"/>
        <path d="M82.819,53.491L83.926,53.491L83.926,46.031L88.392,53.491L89.95,53.491L89.95,44.704L88.831,44.704L88.831,51.969L84.51,44.704L82.819,44.704L82.819,53.491ZM92.688,53.491L93.905,53.491L93.905,44.704L92.688,44.704L92.688,53.491ZM103.361,44.704L102.132,44.704L99.503,52.213L97.009,44.704L95.658,44.704L98.785,53.491L100.124,53.491L103.361,44.704ZM105.016,53.491L110.626,53.491L110.626,52.42L106.233,52.42L106.233,49.499L110.322,49.499L110.322,48.477L106.233,48.477L106.233,45.739L110.529,45.739L110.529,44.705L105.016,44.705L105.016,53.491L105.016,53.491ZM113.06,53.491L114.265,53.491L114.265,49.523L115.798,49.523C117.27,49.523 117.575,49.888 117.721,51.166C117.806,51.836 117.928,52.906 118.123,53.491L119.425,53.491C119.084,52.517 118.998,51.762 118.877,50.728C118.755,49.633 118.378,49.256 117.538,49.037C117.806,48.964 118.196,48.842 118.573,48.465C118.962,48.075 119.194,47.528 119.194,46.907C119.194,46.201 118.877,45.532 118.22,45.118C117.575,44.704 116.65,44.704 116.2,44.704L113.06,44.704L113.06,53.491ZM114.24,45.726L116.163,45.726C116.65,45.726 117.916,45.726 117.916,47.15C117.916,47.881 117.49,48.197 117.319,48.294C116.991,48.489 116.297,48.489 116.163,48.489L114.24,48.489L114.24,45.726ZM121.299,50.923C121.299,51.349 121.311,52.055 121.81,52.7C122.504,53.588 123.867,53.698 124.536,53.698C126.787,53.698 128.004,52.517 128.004,50.959C128.004,50.594 127.943,49.743 127.128,49.207C126.617,48.866 126.386,48.818 124.293,48.282C123.222,48.027 122.711,47.759 122.711,46.98C122.711,46.104 123.441,45.556 124.658,45.556C125.522,45.556 126.447,45.8 126.508,46.895L127.774,46.895C127.749,46.53 127.725,45.934 127.238,45.398C126.532,44.631 125.351,44.534 124.767,44.534C123.113,44.534 121.421,45.313 121.421,47.102C121.421,47.686 121.616,48.343 122.333,48.83C122.784,49.134 123.38,49.28 124.719,49.609C125.948,49.913 126.739,50.108 126.739,51.094C126.739,51.532 126.508,52.663 124.682,52.663C122.662,52.663 122.589,51.532 122.565,50.923L121.299,50.923L121.299,50.923ZM130.292,53.491L131.509,53.491L131.509,44.704L130.292,44.704L130.292,53.491ZM137.497,53.491L137.497,45.739L140.442,45.739L140.442,44.704L133.347,44.704L133.347,45.739L136.292,45.739L136.292,53.491L137.497,53.491ZM140.21,53.491L141.464,53.491L142.413,51.202L146.489,51.202L147.439,53.491L148.765,53.491L145.211,44.704L143.909,44.704L140.21,53.491ZM144.506,45.909L146.125,50.217L142.802,50.217L144.506,45.909ZM142.766,43.791L143.885,43.791L143.885,42.55L142.766,42.55L142.766,43.791ZM145.066,43.791L146.198,43.791L146.198,42.55L145.066,42.55L145.066,43.791ZM152.867,53.491L152.867,45.739L155.812,45.739L155.812,44.704L148.717,44.704L148.717,45.739L151.662,45.739L151.662,53.491L152.867,53.491Z" style="fill:rgb(120,120,120);fill-rule:nonzero;"/>
        <path d="M71.549,65.295C71.561,65.672 71.574,66.536 72.219,67.242C73.022,68.142 74.495,68.288 75.407,68.288C77.61,68.288 79.289,67.412 79.289,65.453C79.289,63.591 77.902,63.226 76.734,62.922L75.091,62.496C74.738,62.398 74.203,62.24 74.203,61.595C74.203,61.072 74.653,60.671 75.359,60.671C76.527,60.671 76.515,61.62 76.515,61.888L78.985,61.888C78.973,60.951 78.827,59.088 75.395,59.088C72.767,59.088 71.695,60.415 71.695,61.839C71.695,63.677 73.265,64.09 73.874,64.248L76.028,64.808C76.612,64.966 76.783,65.246 76.783,65.66C76.783,66.658 75.687,66.658 75.48,66.658C74.032,66.658 74.008,65.648 73.996,65.295L71.549,65.295Z" style="fill:rgb(24,21,18);fill-rule:nonzero;"/>
        <path d="M80.421,68.094L81.675,68.094L82.624,65.806L86.701,65.806L87.65,68.094L88.976,68.094L85.423,59.307L84.12,59.307L80.421,68.094ZM84.717,60.512L86.336,64.82L83.013,64.82L84.717,60.512ZM90.717,68.094L96.011,68.094L96.011,67.011L91.922,67.011L91.922,59.308L90.717,59.308L90.717,68.094L90.717,68.094ZM97.264,68.094L103.872,68.094L103.872,67.023L98.664,67.023L103.787,60.512L103.787,59.308L97.398,59.308L97.398,60.378L102.339,60.378L97.264,66.877L97.264,68.094ZM105.917,68.094L109.117,68.094C109.811,68.094 110.492,68.094 111.101,67.692C111.393,67.497 112.16,66.889 112.16,65.696C112.16,64.017 110.918,63.652 110.407,63.506C110.833,63.347 111.892,62.97 111.892,61.522C111.892,60.828 111.648,60.317 111.271,59.952C110.723,59.416 110.127,59.307 109.056,59.307L105.916,59.307L105.916,68.094L105.917,68.094ZM107.097,60.306L108.849,60.306C109.519,60.306 110.626,60.306 110.626,61.632C110.626,63.019 109.215,63.019 108.801,63.019L107.097,63.019L107.097,60.306ZM107.097,64.066L109.227,64.066C110.298,64.066 110.906,64.711 110.906,65.587C110.906,66.597 110.139,67.108 109.178,67.108L107.097,67.108L107.097,64.066ZM114.496,59.308L114.496,64.662C114.496,65.977 114.74,66.488 115.007,66.877C115.823,68.046 117.283,68.277 118.111,68.277C118.743,68.277 120.082,68.143 120.946,67.06C121.652,66.184 121.664,65.198 121.664,64.723L121.664,59.308L120.484,59.308L120.484,64.699C120.484,65.332 120.484,67.194 118.111,67.194C117.502,67.194 116.65,67.059 116.103,66.33C115.92,66.074 115.713,65.684 115.713,64.748L115.713,59.308L114.496,59.308ZM124.365,68.094L125.57,68.094L125.57,64.127L127.104,64.127C128.576,64.127 128.88,64.492 129.026,65.77C129.112,66.439 129.233,67.51 129.428,68.094L130.73,68.094C130.389,67.121 130.304,66.366 130.183,65.332C130.061,64.236 129.684,63.859 128.844,63.64C129.112,63.567 129.501,63.445 129.878,63.068C130.268,62.679 130.499,62.131 130.499,61.51C130.499,60.805 130.183,60.135 129.525,59.722C128.88,59.308 127.956,59.308 127.505,59.308L124.365,59.308L124.365,68.094ZM125.546,60.33L127.469,60.33C127.956,60.33 129.221,60.33 129.221,61.754C129.221,62.484 128.795,62.8 128.625,62.898C128.296,63.093 127.603,63.093 127.469,63.093L125.546,63.093L125.546,60.33ZM140.271,61.498C140.247,61.158 140.21,60.646 139.687,60.099C138.847,59.247 137.788,59.162 137.095,59.162C136.657,59.162 135.513,59.198 134.649,59.782C132.982,60.902 132.763,62.971 132.763,63.847C132.763,65.088 133.128,66.317 133.992,67.194C134.612,67.827 135.562,68.289 137.18,68.289C138.677,68.289 139.797,67.924 140.308,67.753L140.308,63.421L137.083,63.421L137.083,64.431L139.091,64.431L139.091,67.035C138.811,67.12 138.178,67.315 137.18,67.315C136.304,67.315 135.416,67.108 134.844,66.451C134.198,65.684 134.04,64.431 134.04,63.689C134.04,62.861 134.211,61.717 134.977,60.865C135.44,60.342 136.134,60.123 136.961,60.123C138.154,60.123 138.811,60.683 138.945,61.498L140.271,61.498Z" style="fill:rgb(120,120,120);fill-rule:nonzero;"/>
        <path d="M56.069,49.558L56.066,49.557C56.069,49.392 56.052,49.156 56.027,48.939C55.99,48.916 55.943,48.904 55.904,48.885C55.657,49.094 55.46,49.331 55.366,49.647C55.245,50.049 55.3,50.537 55.3,50.537C55.3,50.537 54.939,50.17 55.063,49.453C55.116,49.152 55.225,48.909 55.348,48.709C55.005,48.65 54.65,48.654 54.369,48.722C54.329,48.732 54.293,48.751 54.254,48.762C54.112,49.066 54.112,49.356 54.208,49.608C54.297,49.845 54.514,50.144 54.514,50.144C54.514,50.144 54.01,50.023 53.81,49.561C53.729,49.372 53.708,49.184 53.714,49.012C53.429,49.196 53.191,49.441 53.059,49.755C52.685,50.643 52.938,51.374 53.134,51.749C53.264,51.937 53.515,52.225 53.924,52.411C54.382,52.618 54.77,52.64 54.77,52.64C54.77,52.64 54.517,52.795 53.922,52.756C53.604,52.736 53.333,52.583 53.154,52.451C52.886,53.016 52.418,53.156 52.02,53.193C50.897,53.297 49.558,52.402 48.395,51.463C48.395,51.461 48.396,51.458 48.396,51.456C47.672,50.897 47.026,50.282 46.626,49.854C46.272,49.474 45.872,48.898 45.872,48.898L46.667,47.982C46.667,47.982 46.854,48.964 47.854,50.049C48.136,50.354 48.366,50.592 48.559,50.767C48.703,49.941 48.725,49.047 48.729,49.045C49.253,48.72 50.622,47.904 51.64,47.448C53.176,46.761 54.614,46.678 55.683,46.744C55.511,46.048 55.373,45.35 54.786,43.93C54.395,42.982 53.826,42.034 53.403,41.406L53.404,41.406C53.404,41.406 53.397,41.396 53.391,41.387C53.367,41.351 53.34,41.311 53.317,41.277L53.313,41.277C53.295,41.251 53.279,41.229 53.273,41.221C53.129,41.027 52.389,40.064 51.943,39.565C51.816,39.422 51.662,39.26 51.507,39.101C51.507,39.101 51.504,39.098 51.504,39.098L51.503,39.097C51.161,38.745 50.814,38.411 50.743,38.343C50.679,38.279 50.553,38.166 50.301,37.966C50.264,37.977 50.229,37.999 50.191,38.012C50.166,38.305 50.193,38.588 50.327,38.861C50.514,39.237 50.887,39.557 50.887,39.557C50.887,39.557 50.373,39.534 49.975,38.925C49.829,38.701 49.743,38.479 49.693,38.273C49.404,38.477 49.152,38.737 49.002,38.995C48.985,39.024 48.977,39.056 48.961,39.086C49.072,39.339 49.245,39.519 49.454,39.622C49.682,39.735 50.044,39.805 50.044,39.805C50.044,39.805 49.593,40.061 49.133,39.859C48.991,39.797 48.875,39.711 48.777,39.618C48.708,39.963 48.72,40.32 48.839,40.655C49.051,41.252 49.535,41.699 50.182,41.93C50.409,41.973 50.762,41.998 51.159,41.865C51.635,41.704 51.934,41.456 51.934,41.456C51.934,41.456 51.854,41.742 51.393,42.12C51.215,42.265 51.009,42.342 50.824,42.385C51.099,43.011 50.88,43.481 50.597,43.787C49.989,44.445 48.768,44.87 47.321,44.933C46.981,44.428 46.674,44.079 46.526,43.922C46.515,43.91 46.448,43.839 46.362,43.752C46.291,43.66 45.896,43.312 45.479,42.955C45.352,43.137 45.151,43.398 44.875,43.674C44.359,44.19 43.446,44.464 43.446,44.464C43.446,44.464 42.389,44.287 41.526,43.656C41.171,43.395 40.728,42.96 40.553,42.617C39.97,41.8 40.24,40.562 40.24,40.562C40.24,40.562 39.955,40.531 39.608,40.368C39.104,40.13 38.67,39.64 38.527,39.203C38.363,38.703 38.373,37.516 39.686,37.078C40.285,36.922 40.556,37.193 40.556,37.193C40.556,37.193 39.631,37.233 39.282,37.833C38.933,38.432 39.109,38.969 39.456,39.257C39.873,39.629 40.891,39.768 40.891,39.768C40.891,39.768 40.574,40.889 40.896,41.568C41.07,41.937 41.681,42.609 42.356,42.921C42.784,43.121 43.161,43.28 43.556,43.354C44.182,43.064 44.686,42.336 44.709,42.302C44.708,42.301 44.705,42.299 44.703,42.297C44.718,42.278 44.735,42.261 44.749,42.242C45.112,41.765 45.297,41.145 45.297,41.145L45.291,41.147C45.293,41.14 45.295,41.135 45.295,41.135C45.295,41.135 44.07,40.467 44.517,39.63C44.83,39.043 45.644,39.392 46.009,39.605L46.437,39.854L47.57,37.531C47.57,37.531 46.007,36.848 45.242,36.552L45.7,35.279L45.174,35.103C42.535,34.221 40.106,34.083 37.715,34.481C35.447,34.86 33.547,36.117 32.502,37.93C31.445,39.765 31.311,42.301 32.161,44.223C32.769,45.598 33.6,46.462 33.753,48.255C33.87,49.628 33.22,50.737 32.749,51.737C33.066,51.767 33.439,51.826 33.439,51.826C33.927,51.889 34.863,51.932 35.654,51.959C36.214,51.414 36.967,50.452 37.149,49.091C37.306,47.61 36.768,46.415 36.323,45.621C35.897,44.861 35.08,43.731 34.642,42.871C33.887,41.387 33.733,39.993 34.125,38.714C34.367,37.924 34.871,37.265 35.486,36.778C36.029,36.378 36.315,36.346 36.813,36.194C35.949,36.707 35.258,37.47 34.95,38.473C34.557,39.752 34.691,41.145 35.447,42.629C35.884,43.49 36.762,44.539 37.188,45.298C37.634,46.093 38.213,47.288 38.135,48.668C38.101,49.59 37.673,50.78 37.135,51.596C37.005,51.793 36.924,51.908 36.862,51.993C36.867,51.993 36.875,51.993 36.88,51.993C36.451,52.579 35.357,53.674 33.898,54.221C32.348,54.801 30.628,54.844 29.906,54.347C29.87,54.321 29.836,54.295 29.804,54.269C30.744,54.16 31.715,53.633 32.053,52.566C32.432,51.372 31.989,50.579 31.256,49.903C32.364,48.428 32.437,46.55 31.414,45.386C31.28,45.234 31.134,45.101 30.98,44.986C31.327,43.415 31.082,41.413 30.147,40.73C29.639,40.359 29.065,40.244 28.484,40.395C27.031,40.775 26.091,42.511 25.653,43.475C25.214,44.438 24.848,45.427 24.441,47.339C24.098,48.952 24.04,52.092 24.717,54.305C24.82,54.637 25.036,54.615 25.045,54.433C25.082,53.644 25.194,53.002 25.335,52.485C25.499,51.877 25.703,51.442 25.871,51.149C26.403,50.22 26.902,48.23 26.253,46.589C26.012,45.98 26.115,45.036 26.481,44.03C27.019,42.869 27.92,41.619 28.747,41.402C29.027,41.329 29.277,41.382 29.534,41.57C29.895,41.835 30.285,43.121 30.015,44.547C29.826,44.508 29.634,44.494 29.441,44.505C28.784,44.544 28.189,44.883 27.809,45.435C27.224,46.287 27.229,47.58 28.171,48.721C27.354,49.884 26.735,50.963 26.921,52.309C27.045,53.196 27.653,53.873 28.529,54.152C28.664,54.579 28.932,54.938 29.317,55.204C29.827,55.555 30.576,55.73 31.439,55.73C31.921,55.73 32.437,55.674 32.968,55.564C32.832,56.195 32.312,56.837 31.912,57.077C30.999,57.625 29.732,57.529 28.554,56.402C28.554,56.402 28.304,56.156 28.139,56.003C27.457,56.748 26.866,58.13 26.866,59.114L27.441,59.939C29.912,63.026 32.521,64.448 34.699,65.228C34.699,65.227 34.699,65.227 34.699,65.227C34.747,65.244 35.649,65.57 36.423,65.775C37.349,66.02 38.311,66.07 38.311,66.07L38.315,66.059C38.348,66.025 38.374,65.98 38.404,65.943C38.189,65.604 37.937,65.328 37.564,65.187C37.171,65.039 36.681,65.06 36.681,65.06C36.681,65.06 37.072,64.726 37.777,64.899C38.205,65.004 38.51,65.215 38.723,65.416C38.85,65.117 38.924,64.798 38.925,64.524C38.925,64.498 38.918,64.474 38.917,64.448C38.879,64.411 38.841,64.373 38.796,64.333C38.412,63.994 38.02,63.934 37.683,64.035C37.44,64.108 37.127,64.303 37.127,64.303C37.127,64.303 37.282,63.808 37.757,63.642C38.145,63.506 38.516,63.598 38.75,63.692C38.633,63.429 38.46,63.194 38.239,63.005C37.861,62.681 37.207,62.406 36.669,62.467C36.131,62.528 35.906,62.622 35.596,62.821C35.282,63.023 35.103,63.195 34.907,63.557C34.668,63.999 34.619,64.384 34.619,64.384C34.619,64.384 34.482,64.121 34.562,63.531C34.626,63.055 34.982,62.705 35.094,62.605C34.48,62.156 33.855,61.232 33.815,60.607C35.081,60.943 36.35,60.924 37.377,60.552C37.483,60.502 37.598,60.445 37.699,60.375C38.505,59.819 38.73,59.395 38.988,58.822C39.411,57.885 39.615,56.386 39.28,55.632C38.958,54.907 37.73,54.143 37.73,54.143L38.616,53.921C38.616,53.921 39.1,54.213 39.431,54.566C39.762,54.917 40.131,55.27 40.131,55.27C40.131,55.27 40.729,56.025 41.373,56.206C41.991,56.38 42.189,56.35 42.702,56.317C42.877,56.305 43.101,56.265 43.361,56.21C43.361,56.208 43.36,56.208 43.36,56.207C43.934,56.032 44.365,55.896 44.865,55.636C44.334,55.366 43.852,54.962 43.457,54.515C42.702,53.659 42.44,52.119 42.44,52.119L43.346,51.719C43.346,51.719 43.336,52.955 43.97,53.912C44.307,54.422 44.693,54.844 45.409,55.28C45.895,55.575 46.494,55.79 46.89,55.913C47.206,56.002 47.52,56.078 47.752,56.121C48.513,56.264 49.015,56.306 50.178,56.332C50.482,56.338 51.067,56.391 51.427,56.532C51.805,56.678 52.243,56.946 52.604,57.294C52.933,57.612 53.42,58.337 53.563,58.843C53.811,58.518 54.395,57.551 55.023,56.057C55.459,55.016 55.84,53.073 55.832,53.062C55.904,52.744 56.013,51.821 56.027,51.319C56.042,50.799 56.068,49.559 56.068,49.559L56.069,49.558ZM28.934,49.444C28.962,49.465 28.99,49.487 29.019,49.507C29.169,49.616 29.316,49.721 29.459,49.823C29.586,49.914 29.706,50 29.819,50.083C29.277,50.859 28.637,51.954 28.471,52.985C28.225,52.827 28.008,52.572 27.952,52.164C27.822,51.231 28.273,50.399 28.934,49.444L28.934,49.444ZM29.719,45.403C29.702,45.46 29.684,45.517 29.667,45.573C29.38,46.498 29.17,47.103 28.766,47.731C28.311,47.042 28.31,46.346 28.626,45.886C28.831,45.589 29.135,45.413 29.482,45.393C29.505,45.391 29.527,45.39 29.55,45.39C29.607,45.39 29.663,45.395 29.719,45.403ZM30.446,49.252C30.32,49.16 30.191,49.068 30.063,48.977C29.922,48.877 29.778,48.774 29.632,48.667C29.6,48.643 29.569,48.62 29.538,48.597C30.14,47.732 30.384,46.967 30.655,46.096C31.323,46.885 31.232,48.186 30.446,49.252L30.446,49.252ZM29.461,53.285C29.546,52.529 30.046,51.57 30.637,50.714C31.126,51.188 31.286,51.616 31.081,52.264C30.781,53.208 30.225,53.27 29.461,53.285ZM41.864,37.29C41.864,37.29 42.849,37.377 43.447,37.651C42.57,37.915 42.194,38.386 41.696,38.456C41.623,38.079 41.864,37.29 41.864,37.29ZM48.511,42.239C48.019,42.482 47.475,42.396 47.277,42.173C47.078,41.951 47.034,41.817 46.919,41.584C46.796,41.351 46.668,41.097 46.507,40.854C46.343,40.613 46.142,40.378 45.89,40.215C45.64,40.049 45.286,39.919 45.087,39.925C44.889,39.93 44.971,40.005 45.052,40.044C45.134,40.083 45.484,40.321 45.632,40.506C45.783,40.69 45.88,40.905 45.954,41.135C46.117,41.596 46.134,42.108 46.447,42.72C46.487,42.797 46.531,42.873 46.593,42.95L46.679,43.064L46.773,43.165C46.898,43.302 47.055,43.419 47.232,43.517C47.587,43.712 48.059,43.727 48.434,43.559C48.816,43.4 49.081,43.086 49.212,42.767C49.343,42.444 49.351,42.01 49.252,41.803C49.154,41.597 48.907,42.038 48.511,42.239L48.511,42.239ZM37.305,61.809C39.509,62.21 40.625,63.727 41.177,66.149C44.982,65.905 47.718,64.46 49.578,63.093L49.578,63.097C49.578,63.097 50.516,62.355 51.138,61.784C51.358,61.583 51.575,61.348 51.758,61.139C51.758,61.142 51.76,61.147 51.76,61.15C51.76,61.15 52.047,60.835 52.229,60.61C52.223,60.575 52.205,60.542 52.195,60.508C51.832,60.463 51.487,60.481 51.163,60.655C50.793,60.855 50.488,61.239 50.488,61.239C50.488,61.239 50.492,60.724 51.087,60.305C51.384,60.095 51.685,59.994 51.945,59.949C51.763,59.66 51.53,59.404 51.292,59.244C51.264,59.224 51.231,59.213 51.202,59.196C50.774,59.286 50.503,59.517 50.372,59.809C50.267,60.041 50.209,60.405 50.209,60.405C50.209,60.405 49.938,59.963 50.124,59.496C50.223,59.247 50.391,59.068 50.558,58.94C50.258,58.879 49.947,58.883 49.648,58.966C48.945,59.162 48.226,59.689 48.069,60.866C48.065,61.072 48.089,61.322 48.19,61.591C48.367,62.061 48.626,62.351 48.626,62.351C48.626,62.351 48.338,62.282 47.944,61.834C47.809,61.68 47.727,61.501 47.676,61.333C46.989,61.695 45.839,61.92 45.246,62.013C44.504,62.129 43.966,62.173 43.609,61.962C43.236,61.74 43.104,61.569 42.922,61.214C42.692,60.764 42.782,60.021 42.881,59.718C43.07,59.152 43.965,58.323 43.636,57.206C43.608,57.06 43.583,56.949 43.557,56.849C43.446,56.899 43.338,56.945 43.236,56.98C41.978,57.413 40.488,56.859 40.488,56.859C40.488,56.859 40.389,58.101 39.904,58.852C39.301,59.788 38.836,60.171 38.31,60.557C37.981,60.799 37.674,60.949 37.42,61.044C37.418,61.296 37.386,61.571 37.305,61.809L37.305,61.809Z" style="fill:rgb(24,21,18);fill-rule:nonzero;"/>
    </g>
</svg>
