<?xml version="1.0" encoding="UTF-8" standalone="no"?><!DOCTYPE svg PUBLIC "-//W3C//DTD SVG 1.1//EN" "http://www.w3.org/Graphics/SVG/1.1/DTD/svg11.dtd"><svg width="100%" height="100%" viewBox="0 0 100 100" version="1.1" xmlns="http://www.w3.org/2000/svg" xmlns:xlink="http://www.w3.org/1999/xlink" xml:space="preserve" xmlns:serif="http://www.serif.com/" style="fill-rule:evenodd;clip-rule:evenodd;stroke-linecap:round;stroke-linejoin:round;stroke-miterlimit:1.5;"><g><path d="M3.463,93.188c0,-24.336 17.716,-44.095 39.537,-44.095c9.436,0 18.104,3.695 24.904,9.856" style="fill:none;stroke:#000;stroke-width:5px;"/><circle cx="43" cy="25.881" r="20.277" style="fill:none;stroke:#000;stroke-width:5px;"/><path d="M49.075,37.785c0,0 0.905,-0.302 2.017,-0.673c2.465,-0.822 4.185,-3.055 4.352,-5.647c0,-0.001 0,-0.002 0,-0.002" style="fill:none;stroke:#000;stroke-width:5px;"/><path d="M75.99,61.776c1.421,-0.395 2.917,-0.606 4.462,-0.606c1.548,0 3.045,0.212 4.467,0.609l-0.363,4.046l4.27,2.466l3.3,-2.323c2.1,2.074 3.65,4.702 4.411,7.646l-3.674,1.704l0,4.93l3.674,1.704c-0.764,2.951 -2.319,5.584 -4.425,7.66l-3.286,-2.312l-4.27,2.465l0.361,4.024c-1.421,0.396 -2.919,0.607 -4.465,0.607c-1.545,0 -3.04,-0.21 -4.459,-0.606l0.361,-4.025l-4.269,-2.465l-3.29,2.314c-2.108,-2.076 -3.662,-4.709 -4.427,-7.659l3.679,-1.707l0,-4.93l-3.679,-1.706c0.762,-2.944 2.313,-5.573 4.412,-7.646l3.305,2.325l4.269,-2.466l-0.364,-4.049Zm4.462,9.362c3.667,0 6.645,2.978 6.645,6.645c0,3.668 -2.978,6.646 -6.645,6.646c-3.668,0 -6.646,-2.978 -6.646,-6.646c0,-3.667 2.978,-6.645 6.646,-6.645Z"/></g></svg>