<?xml version="1.0" encoding="UTF-8" standalone="no"?><!DOCTYPE svg PUBLIC "-//W3C//DTD SVG 1.1//EN" "http://www.w3.org/Graphics/SVG/1.1/DTD/svg11.dtd"><svg width="100%" height="100%" viewBox="0 0 100 100" version="1.1" xmlns="http://www.w3.org/2000/svg" xmlns:xlink="http://www.w3.org/1999/xlink" xml:space="preserve" xmlns:serif="http://www.serif.com/" style="fill-rule:evenodd;clip-rule:evenodd;stroke-linecap:round;stroke-linejoin:round;stroke-miterlimit:1.5;"><path d="M92.5,29.663l0,60.837c0,2.76 -2.24,5 -5,5l-75,0c-2.76,0 -5,-2.24 -5,-5l0,-60.837l85,0Zm-5,-19.163c2.76,0 5,2.24 5,5l0,5.292l-85,0l0,-5.292c0,-2.76 2.24,-5 5,-5l75,0Z" style="fill:none;stroke:#000;stroke-width:5px;"/><path d="M36.305,45c0,-2.76 -2.241,-5 -5,-5l-8,0c-2.76,0 -5,2.24 -5,5l0,8c0,2.76 2.24,5 5,5l8,0c2.759,0 5,-2.24 5,-5l0,-8Z" style="fill:none;stroke:#000;stroke-width:5px;"/><path d="M36.305,73.003c0,-2.759 -2.241,-5 -5,-5l-8,0c-2.76,0 -5,2.241 -5,5l0,8c0,2.76 2.24,5 5,5l8,0c2.759,0 5,-2.24 5,-5l0,-8Z" style="fill:none;stroke:#000;stroke-width:5px;"/><path d="M64.308,45c0,-2.76 -2.24,-5 -5,-5l-8,0c-2.76,0 -5,2.24 -5,5l0,8c0,2.76 2.24,5 5,5l8,0c2.76,0 5,-2.24 5,-5l0,-8Z" style="fill:none;stroke:#000;stroke-width:5px;"/><path d="M20,5l0,5.5" style="fill:none;stroke:#000;stroke-width:5px;"/><path d="M80,5l0,5.5" style="fill:none;stroke:#000;stroke-width:5px;"/></svg>