<?xml version="1.0" encoding="UTF-8" standalone="no"?><!DOCTYPE svg PUBLIC "-//W3C//DTD SVG 1.1//EN" "http://www.w3.org/Graphics/SVG/1.1/DTD/svg11.dtd"><svg width="100%" height="100%" viewBox="0 0 100 100" version="1.1" xmlns="http://www.w3.org/2000/svg" xmlns:xlink="http://www.w3.org/1999/xlink" xml:space="preserve" xmlns:serif="http://www.serif.com/" style="fill-rule:evenodd;clip-rule:evenodd;stroke-linecap:round;stroke-linejoin:round;stroke-miterlimit:1.5;"><path d="M61.805,44.563l0,-17.031l-14.298,0l0,-14.299l-34.337,0c-4.509,0 -8.17,3.661 -8.17,8.171l0,57.192c0,4.51 3.661,8.171 8.17,8.171l40.464,0c2.836,0 5.335,-1.448 6.801,-3.643" style="fill:none;stroke:#000;stroke-width:5px;"/><path d="M47.521,13.233l14.284,14.27" style="fill:none;stroke:#000;stroke-width:5px;"/><g><path d="M37.35,72.174l-2.399,0l-6.165,-6.165l5.663,-5.647l28.49,0c0.732,-2.579 2.111,-5.012 4.14,-7.041c6.344,-6.344 16.644,-6.344 22.987,0c6.344,6.343 6.344,16.643 0,22.986c-6.343,6.344 -16.643,6.344 -22.987,0c-1.245,-1.245 -2.246,-2.643 -3.002,-4.133l-7.34,0" style="fill:none;stroke:#000;stroke-width:5px;"/><path d="M38.318,72.174l5.544,-5.544l5.607,5.544l3.717,-3.654l3.654,3.654" style="fill:none;stroke:#000;stroke-width:5px;"/><path d="M88.792,62.263c1.411,1.412 1.411,3.703 0,5.115c-1.412,1.411 -3.703,1.411 -5.115,0c-1.411,-1.412 -1.411,-3.703 0,-5.115c1.412,-1.411 3.703,-1.411 5.115,0Z" style="fill:none;stroke:#000;stroke-width:5px;"/></g></svg>