<?xml version="1.0" encoding="UTF-8" standalone="no"?><!DOCTYPE svg PUBLIC "-//W3C//DTD SVG 1.1//EN" "http://www.w3.org/Graphics/SVG/1.1/DTD/svg11.dtd"><svg width="100%" height="100%" viewBox="0 0 100 100" version="1.1" xmlns="http://www.w3.org/2000/svg" xmlns:xlink="http://www.w3.org/1999/xlink" xml:space="preserve" xmlns:serif="http://www.serif.com/" style="fill-rule:evenodd;clip-rule:evenodd;stroke-linecap:round;stroke-linejoin:round;stroke-miterlimit:1.5;"><path d="M95,25c0,-2.76 -2.24,-5 -5,-5l-80,0c-2.76,0 -5,2.24 -5,5l0,50c0,2.76 2.24,5 5,5l80,0c2.76,0 5,-2.24 5,-5l0,-50Z" style="fill:none;stroke:#000;stroke-width:5px;"/><path d="M15,65.507c0,-8.618 6.273,-15.614 14,-15.614c7.727,0 14,6.996 14,15.614" style="fill:none;stroke:#000;stroke-width:5px;"/><circle cx="29" cy="41.673" r="7.18" style="fill:none;stroke:#000;stroke-width:5px;"/><g><path d="M58,39.154l26.866,0" style="fill:none;stroke:#000;stroke-width:5px;"/><path d="M66.902,50l17.964,0" style="fill:none;stroke:#000;stroke-width:5px;"/><path d="M61.66,60.846l23.206,0" style="fill:none;stroke:#000;stroke-width:5px;"/></g></svg>