<?xml version="1.0" encoding="UTF-8" standalone="no"?><!DOCTYPE svg PUBLIC "-//W3C//DTD SVG 1.1//EN" "http://www.w3.org/Graphics/SVG/1.1/DTD/svg11.dtd"><svg width="100%" height="100%" viewBox="0 0 100 100" version="1.1" xmlns="http://www.w3.org/2000/svg" xmlns:xlink="http://www.w3.org/1999/xlink" xml:space="preserve" xmlns:serif="http://www.serif.com/" style="fill-rule:evenodd;clip-rule:evenodd;stroke-linecap:round;stroke-linejoin:round;stroke-miterlimit:1.5;"><path d="M52.995,78.872c-0.794,0.795 -1.872,1.241 -2.995,1.241c-1.123,0 -2.201,-0.446 -2.995,-1.241c-0.001,0 -0.001,-0.001 -0.002,-0.001c-0.433,-0.433 -0.676,-1.021 -0.676,-1.633c0,-2.802 0,-10.792 0,-10.792c0,0 -0.423,-0.584 -0.996,-1.375c-1.731,-2.389 -1.28,-5.716 1.024,-7.558c0,0 0,0 0,0c2.131,-1.704 5.159,-1.704 7.29,0c0,0 0,0 0,0c2.304,1.842 2.755,5.169 1.024,7.558c-0.573,0.791 -0.996,1.375 -0.996,1.375c0,0 0,7.99 0,10.792c0,0.612 -0.243,1.2 -0.676,1.633c-0.001,0 -0.001,0.001 -0.002,0.001Z" style="fill:none;stroke:#000;stroke-width:5px;"/><g><path d="M24.398,40.369l0,-12.155c0,0 0,0 0,-0.001c0,-13.426 10.884,-24.31 24.31,-24.31c0.861,0 1.723,0 2.584,0c13.426,0 24.31,10.884 24.31,24.31c0,0.001 0,0.001 0,0.001" style="fill:none;stroke:#000;stroke-width:5px;"/><path d="M81.807,45.369c0,-2.76 -2.24,-5 -5,-5l-53.614,0c-2.76,0 -5,2.24 -5,5l0,45.728c0,2.759 2.24,5 5,5l53.614,0c2.76,0 5,-2.241 5,-5l0,-45.728Z" style="fill:none;stroke:#000;stroke-width:5px;"/></g></svg>