<?xml version="1.0" encoding="UTF-8" standalone="no"?><!DOCTYPE svg PUBLIC "-//W3C//DTD SVG 1.1//EN" "http://www.w3.org/Graphics/SVG/1.1/DTD/svg11.dtd"><svg width="100%" height="100%" viewBox="0 0 417 417" version="1.1" xmlns="http://www.w3.org/2000/svg" xmlns:xlink="http://www.w3.org/1999/xlink" xml:space="preserve" xmlns:serif="http://www.serif.com/" style="fill-rule:evenodd;clip-rule:evenodd;stroke-linecap:round;stroke-linejoin:round;stroke-miterlimit:1.5;"><g><path d="M270.833,169.913l0,-78.246c0,-9.2 -7.466,-16.667 -16.666,-16.667l-216.667,-0c-9.2,-0 -16.667,7.467 -16.667,16.667l0,233.333c0,9.2 7.467,16.667 16.667,16.667l191.667,-0l41.666,-41.667l0,-16.667" style="fill:none;stroke:#000;stroke-width:20.83px;"/><path d="M85.833,341.667l0,-83.334l120,0l0,83.334" style="fill:none;stroke:#000;stroke-width:20.83px;"/><path d="M70.833,125l120.246,0" style="fill:none;stroke:#000;stroke-width:20.83px;"/><path d="M70.833,158.333l81.009,0" style="fill:none;stroke:#000;stroke-width:20.83px;"/><path d="M70.833,191.667l104.088,-0" style="fill:none;stroke:#000;stroke-width:20.83px;"/><path d="M112.5,283.333l0.292,33.334" style="fill:none;stroke:#000;stroke-width:20.83px;"/></g><g><path d="M395.813,137.974l-108.192,108.192l-56.238,-56.238" style="fill:none;stroke:#000;stroke-width:20.83px;"/></g></svg>