<?xml version="1.0" encoding="UTF-8" standalone="no"?><!DOCTYPE svg PUBLIC "-//W3C//DTD SVG 1.1//EN" "http://www.w3.org/Graphics/SVG/1.1/DTD/svg11.dtd"><svg width="100%" height="100%" viewBox="0 0 100 100" version="1.1" xmlns="http://www.w3.org/2000/svg" xmlns:xlink="http://www.w3.org/1999/xlink" xml:space="preserve" xmlns:serif="http://www.serif.com/" style="fill-rule:evenodd;clip-rule:evenodd;stroke-linecap:round;stroke-linejoin:round;stroke-miterlimit:1.5;"><g><circle cx="50" cy="84.014" r="7.006"/><path d="M10,35.582c0,0 0,0 0.001,-0.001c24.473,-15.295 55.525,-15.295 79.998,0c0.001,0.001 0.001,0.001 0.001,0.001" style="fill:none;stroke:#000;stroke-width:7.5px;"/><path d="M20,50.582c0,0 0,0 0.001,0c18.166,-12.111 41.832,-12.111 59.998,0c0.001,0 0.001,0 0.001,0" style="fill:none;stroke:#000;stroke-width:7.5px;"/><path d="M30,65.582c0,0 0,0 0.001,-0.001c11.851,-8.888 28.147,-8.888 39.998,0c0.001,0.001 0.001,0.001 0.001,0.001" style="fill:none;stroke:#000;stroke-width:7.5px;"/></g><path d="M10,90l80,-80" style="fill:none;stroke:#000;stroke-width:7.5px;"/></svg>