<?xml version="1.0" encoding="UTF-8" standalone="no"?><!DOCTYPE svg PUBLIC "-//W3C//DTD SVG 1.1//EN" "http://www.w3.org/Graphics/SVG/1.1/DTD/svg11.dtd"><svg width="100%" height="100%" viewBox="0 0 100 100" version="1.1" xmlns="http://www.w3.org/2000/svg" xmlns:xlink="http://www.w3.org/1999/xlink" xml:space="preserve" xmlns:serif="http://www.serif.com/" style="fill-rule:evenodd;clip-rule:evenodd;stroke-linecap:round;stroke-linejoin:round;stroke-miterlimit:1.5;"><path d="M22.506,33.285c0,0 0,27.943 0,43.99c0,2.917 1.16,5.714 3.222,7.776c2.062,2.062 4.859,3.221 7.776,3.221c9.583,0 23.409,0 32.992,0c2.917,0 5.714,-1.159 7.776,-3.221c2.062,-2.062 3.222,-4.859 3.222,-7.776c0,-16.047 0,-43.99 0,-43.99" style="fill:none;stroke:#000;stroke-width:5px;"/><path d="M36.803,35.485l0,40.69" style="fill:none;stroke:#000;stroke-width:5px;"/><path d="M50,35.485l0,40.69" style="fill:none;stroke:#000;stroke-width:5px;"/><path d="M63.197,35.485l0,40.69" style="fill:none;stroke:#000;stroke-width:5px;"/><path d="M22.506,24.824l54.988,0" style="fill:none;stroke:#000;stroke-width:5px;"/><path d="M41.202,24.824l0,-2.536c0,0 0,-0.001 0.001,-0.002c1.337,-3.707 4.856,-6.178 8.797,-6.178c3.941,0 7.46,2.471 8.797,6.178c0.001,0.001 0.001,0.002 0.001,0.002l0,2.536" style="fill:none;stroke:#000;stroke-width:5px;"/></svg>