<?xml version="1.0" encoding="UTF-8" standalone="no"?><!DOCTYPE svg PUBLIC "-//W3C//DTD SVG 1.1//EN" "http://www.w3.org/Graphics/SVG/1.1/DTD/svg11.dtd"><svg width="100%" height="100%" viewBox="0 0 100 100" version="1.1" xmlns="http://www.w3.org/2000/svg" xmlns:xlink="http://www.w3.org/1999/xlink" xml:space="preserve" xmlns:serif="http://www.serif.com/" style="fill-rule:evenodd;clip-rule:evenodd;stroke-linecap:round;stroke-linejoin:round;stroke-miterlimit:1.5;"><g><path d="M50.426,10.604c1.438,-1.785 3.636,-2.782 5.926,-2.689c2.29,0.093 4.4,1.266 5.688,3.161c0.165,0.241 0.259,0.38 0.259,0.38c0,0 2.723,-0.404 6.128,-0.91c2.965,-0.439 5.955,0.626 7.974,2.842c2.018,2.216 2.801,5.292 2.087,8.204c-0.5,2.042 -0.856,3.493 -0.856,3.493c0,0 1.208,1.335 2.747,3.034c1.664,1.839 2.496,4.283 2.299,6.755c-0.197,2.472 -1.405,4.753 -3.339,6.305c-1.01,0.81 -1.707,1.369 -1.707,1.369c0,0 0.511,0.94 1.216,2.238c2.298,4.229 0.863,9.517 -3.257,12.003c-2.645,1.596 -4.987,3.009 -4.987,3.009l0,0.001c-3.573,5.791 -10.784,8.186 -17.112,5.684c-1.786,-0.706 -3.066,-1.212 -3.066,-1.212c0,0 -1.762,0.327 -4.084,0.759c-6.65,1.237 -13.359,-1.842 -16.758,-7.689c-0.379,-0.652 -0.614,-1.057 -0.614,-1.057c-2.658,-0.469 -4.963,-2.11 -6.275,-4.468c-1.313,-2.359 -1.493,-5.183 -0.49,-7.688c0.104,-0.261 0.163,-0.408 0.163,-0.408c0,0 -0.231,-0.164 -0.62,-0.44c-2.103,-1.492 -3.431,-3.845 -3.62,-6.418c-0.189,-2.572 0.78,-5.094 2.642,-6.878c0.001,0 0.001,-0.001 0.001,-0.001c0,0 -0.244,-1.156 -0.578,-2.738c-0.495,-2.346 -0.034,-4.793 1.282,-6.798c1.316,-2.004 3.378,-3.401 5.727,-3.879c1.52,-0.31 2.62,-0.534 2.62,-0.534c0,0 0.801,-1.119 1.92,-2.684c3.917,-5.473 11.363,-7.053 17.164,-3.64c0.924,0.543 1.52,0.894 1.52,0.894Z" style="fill:none;stroke:#000;stroke-width:5px;"/><path d="M57.471,51.133c0,0 0.594,0.167 1.469,0.412c4.175,1.171 8.606,-0.688 10.694,-4.488" style="fill:none;stroke:#000;stroke-width:5px;"/><path d="M66.844,38.871c0,0 0.528,-0.344 1.246,-0.813c2.309,-1.507 3.373,-4.339 2.627,-6.994" style="fill:none;stroke:#000;stroke-width:5px;"/><path d="M35.27,49.989c0,0 0.422,0.529 0.982,1.23c1.637,2.047 4.394,2.827 6.86,1.94c0,-0.001 0.001,-0.001 0.001,-0.001" style="fill:none;stroke:#000;stroke-width:5px;"/><path d="M50,66.178c0.218,2.435 0.654,7.304 0.701,10.932c0.048,3.615 -0.392,8.078 -0.416,10.836c-0.017,1.906 0.176,4.444 0.272,5.713" style="fill:none;stroke:#000;stroke-width:7px;"/></g></svg>