<?xml version="1.0" encoding="UTF-8" standalone="no"?><!DOCTYPE svg PUBLIC "-//W3C//DTD SVG 1.1//EN" "http://www.w3.org/Graphics/SVG/1.1/DTD/svg11.dtd"><svg width="100%" height="100%" viewBox="0 0 100 60" version="1.1" xmlns="http://www.w3.org/2000/svg" xmlns:xlink="http://www.w3.org/1999/xlink" xml:space="preserve" xmlns:serif="http://www.serif.com/" style="fill-rule:evenodd;clip-rule:evenodd;stroke-linejoin:round;stroke-miterlimit:1.41421;"><path d="M100,5c0,-2.761 -2.239,-5 -5,-5l-90,0c-2.761,0 -5,2.239 -5,5l0,50c0,2.761 2.239,5 5,5l90,0c2.761,0 5,-2.239 5,-5l0,-50Z" style="fill:#00f;"/><g><path d="M10,0c0,0 -2.5,0 -5,0c-1.326,0 -2.598,0.527 -3.536,1.464c-0.937,0.938 -1.464,2.21 -1.464,3.536c0,1.616 0,3 0,3l90,52c0,0 2.5,0 5,0c1.326,0 2.598,-0.527 3.536,-1.464c0.937,-0.938 1.464,-2.21 1.464,-3.536c0,-1.616 0,-3 0,-3l-90,-52Z" style="fill:#fff;"/><path d="M5,0l-0.002,0c-1.326,0 -2.597,0.527 -3.534,1.464c-0.937,0.937 -1.464,2.208 -1.464,3.534l0,0.002l95,55l0.002,0c1.326,0 2.597,-0.527 3.534,-1.464c0.937,-0.937 1.464,-2.208 1.464,-3.534l0,-0.002l-95,-55Z" style="fill:#f00;"/></g><g><path d="M90,0c0,0 2.5,0 5,0c1.326,0 2.598,0.527 3.536,1.464c0.937,0.938 1.464,2.21 1.464,3.536c0,1.616 0,3 0,3l-90,52c0,0 -2.5,0 -5,0c-1.326,0 -2.598,-0.527 -3.536,-1.464c-0.937,-0.938 -1.464,-2.21 -1.464,-3.536c0,-1.616 0,-3 0,-3l90,-52Z" style="fill:#fff;"/><path d="M95,0l0.002,0c1.326,0 2.597,0.527 3.534,1.464c0.937,0.937 1.464,2.208 1.464,3.534l0,0.002l-95,55l-0.002,0c-1.326,0 -2.597,-0.527 -3.534,-1.464c-0.937,-0.937 -1.464,-2.208 -1.464,-3.534l0,-0.002l95,-55Z" style="fill:#f00;"/></g><path d="M54,0l-8,0l0,26.004l-46,0l0,7.996l46,0l0,26l8,0l0,-26l46,0l0,-7.996l-46,-0.008l0,-25.996Z" style="fill:#f00;"/><path d="M57,-3l0,25.997l46,0.007l0,13.996l-46,0l0,26l-14,0l0,-26l-46,0l0,-13.996l46,0l0,-26.004l14,0Zm-11,3l0,26.004l-46,0l0,7.996l46,0l0,26l8,0l0,-26l46,0l0,-7.996l-46,-0.008l0,-25.996l-8,0Z" style="fill:#fff;"/></svg>