<?xml version="1.0" encoding="UTF-8" standalone="no"?>
<!DOCTYPE svg PUBLIC "-//W3C//DTD SVG 1.1//EN" "http://www.w3.org/Graphics/SVG/1.1/DTD/svg11.dtd">
<svg width="100%" height="100%" viewBox="0 0 512 512" version="1.1" xmlns="http://www.w3.org/2000/svg" xmlns:xlink="http://www.w3.org/1999/xlink" xml:space="preserve" xmlns:serif="http://www.serif.com/" style="fill-rule:evenodd;clip-rule:evenodd;stroke-linejoin:round;stroke-miterlimit:2;">
    <g>
        <path d="M326.623,133.062C340.408,133.062 351.623,121.847 351.623,108.062C351.623,94.277 340.408,83.061 326.623,83.061C312.838,83.061 301.623,94.277 301.623,108.062C301.623,113.692 303.495,118.892 306.648,123.076L265.572,180.477C263.121,179.672 260.506,179.23 257.788,179.23C251.219,179.23 245.237,181.781 240.771,185.939L213.392,170.403C213.757,168.707 213.953,166.949 213.953,165.146C213.953,151.361 202.738,140.146 188.953,140.146C175.168,140.146 163.953,151.361 163.953,165.146C163.953,166.949 164.149,168.707 164.514,170.403L137.135,185.939C132.669,181.781 126.687,179.231 120.118,179.231C106.333,179.231 95.118,190.447 95.118,204.232C95.118,218.017 106.333,229.233 120.118,229.233C133.903,229.233 145.118,218.017 145.118,204.232C145.118,202.429 144.922,200.671 144.557,198.975L171.936,183.439C176.402,187.597 182.384,190.148 188.953,190.148C195.522,190.148 201.503,187.597 205.97,183.44L233.349,198.976C232.984,200.672 232.788,202.43 232.788,204.233C232.788,218.018 244.003,229.234 257.788,229.234C271.574,229.234 282.789,218.018 282.789,204.233C282.789,198.602 280.916,193.401 277.763,189.217L318.839,131.816C321.289,132.62 323.905,133.062 326.623,133.062ZM326.623,98.061C332.137,98.061 336.623,102.547 336.623,108.062C336.623,113.576 332.137,118.062 326.623,118.062C321.109,118.062 316.623,113.576 316.623,108.062C316.622,102.547 321.108,98.061 326.623,98.061ZM120.115,214.231C114.601,214.231 110.115,209.745 110.115,204.23C110.115,198.715 114.601,194.229 120.115,194.229C125.629,194.229 130.115,198.715 130.115,204.23C130.115,209.745 125.629,214.231 120.115,214.231ZM188.951,175.146C183.437,175.146 178.951,170.66 178.951,165.145C178.951,159.631 183.437,155.145 188.951,155.145C194.465,155.145 198.951,159.631 198.951,165.145C198.952,170.66 194.465,175.146 188.951,175.146ZM257.787,214.231C252.273,214.231 247.787,209.745 247.787,204.23C247.787,198.715 252.273,194.229 257.787,194.229C263.302,194.229 267.788,198.715 267.788,204.23C267.788,209.745 263.301,214.231 257.787,214.231Z" style="fill:white;fill-rule:nonzero;"/>
        <path d="M418.796,376.965L21.215,376.965C17.788,376.965 15,374.177 15,370.75L15,61.331C15,57.904 17.788,55.116 21.215,55.116L56.571,55.116C60.713,55.116 64.071,51.759 64.071,47.616C64.071,43.473 60.713,40.116 56.571,40.116L21.215,40.116C9.517,40.116 0,49.633 0,61.331L0,370.75C0,382.448 9.517,391.965 21.215,391.965L72.928,391.965L72.928,408.471C72.928,417.874 80.578,425.524 89.981,425.524L165.055,425.524L129.715,494.522C127.827,498.209 129.284,502.728 132.971,504.617C134.065,505.178 135.233,505.443 136.384,505.443C139.109,505.443 141.738,503.953 143.065,501.36L181.908,425.524L264.83,425.524L303.673,501.36C305.001,503.953 307.629,505.443 310.354,505.443C311.505,505.443 312.673,505.176 313.767,504.617C317.454,502.728 318.912,498.209 317.023,494.522L281.683,425.524L356.757,425.524C366.16,425.524 373.81,417.875 373.81,408.471L373.81,391.965L418.796,391.965C422.938,391.965 426.296,388.608 426.296,384.465C426.296,380.322 422.938,376.965 418.796,376.965ZM358.81,408.471C358.81,409.603 357.889,410.524 356.757,410.524L89.981,410.524C88.849,410.524 87.928,409.603 87.928,408.471L87.928,391.965L358.81,391.965L358.81,408.471Z" style="fill:white;fill-rule:nonzero;"/>
        <path d="M86.571,55.116L425.522,55.116C428.949,55.116 431.737,57.904 431.737,61.331L431.737,132.642C431.737,136.785 435.095,140.142 439.237,140.142C443.379,140.142 446.737,136.785 446.737,132.642L446.737,61.331C446.737,49.633 437.22,40.116 425.522,40.116L264.995,40.116L264.995,25.374C264.995,14.999 256.554,6.558 246.178,6.558L200.56,6.558C190.185,6.558 181.743,14.999 181.743,25.374L181.743,40.116L86.571,40.116C82.429,40.116 79.071,43.473 79.071,47.616C79.071,51.759 82.429,55.116 86.571,55.116ZM196.743,25.374C196.743,23.27 198.455,21.558 200.56,21.558L246.178,21.558C248.282,21.558 249.995,23.27 249.995,25.374L249.995,40.116L196.744,40.116L196.744,25.374L196.743,25.374Z" style="fill:white;fill-rule:nonzero;"/>
        <path d="M104.902,267.576C100.76,267.576 97.402,270.933 97.402,275.076L97.402,341.348C97.402,345.491 100.76,348.848 104.902,348.848L135.329,348.848C139.471,348.848 142.829,345.491 142.829,341.348L142.829,275.076C142.829,270.933 139.471,267.576 135.329,267.576L104.902,267.576ZM127.829,333.849L112.402,333.849L112.402,282.577L127.829,282.577L127.829,333.849Z" style="fill:white;fill-rule:nonzero;"/>
        <path d="M173.737,229.248C169.595,229.248 166.237,232.605 166.237,236.748L166.237,341.349C166.237,345.492 169.595,348.849 173.737,348.849L204.164,348.849C208.306,348.849 211.664,345.492 211.664,341.349L211.664,236.748C211.664,232.605 208.306,229.248 204.164,229.248L173.737,229.248ZM196.665,333.849L181.238,333.849L181.238,244.248L196.665,244.248L196.665,333.849Z" style="fill:white;fill-rule:nonzero;"/>
        <path d="M242.573,267.576C238.431,267.576 235.073,270.933 235.073,275.076L235.073,341.348C235.073,345.491 238.431,348.848 242.573,348.848L273,348.848C277.142,348.848 280.5,345.491 280.5,341.348L280.5,275.076C280.5,270.933 277.142,267.576 273,267.576L242.573,267.576ZM265.5,333.849L250.073,333.849L250.073,282.577L265.5,282.577L265.5,333.849Z" style="fill:white;fill-rule:nonzero;"/>
        <path d="M311.409,311.832C307.267,311.832 303.909,315.189 303.909,319.332L303.909,341.349C303.909,345.492 307.267,348.849 311.409,348.849L341.836,348.849C345.978,348.849 349.336,345.492 349.336,341.349C349.336,337.206 345.978,333.849 341.836,333.849L318.909,333.849L318.909,319.332C318.909,315.189 315.551,311.832 311.409,311.832Z" style="fill:white;fill-rule:nonzero;"/>
        <path d="M508.175,384.019L465.148,309.493C476.049,297.874 483.987,283.677 488.227,267.853C495.004,242.562 491.526,216.145 478.434,193.469C451.408,146.656 391.337,130.563 344.527,157.588C297.716,184.613 281.621,244.684 308.647,291.495C321.739,314.171 342.878,330.391 368.169,337.169C376.615,339.432 385.184,340.551 393.699,340.551C401.141,340.551 408.54,339.695 415.776,338.001L458.794,412.529C464.067,421.666 473.669,426.779 483.531,426.778C488.364,426.778 493.26,425.549 497.739,422.965C506.535,417.888 512,408.421 512,398.259C512,393.28 510.678,388.357 508.175,384.019ZM372.051,322.68C350.63,316.94 332.725,303.201 321.636,283.995C298.746,244.347 312.379,193.469 352.026,170.578C365.069,163.048 379.322,159.472 393.4,159.472C422.115,159.472 450.083,174.365 465.443,200.969C476.531,220.175 479.477,242.549 473.737,263.971C467.997,285.393 454.258,303.296 435.052,314.385C415.847,325.474 393.473,328.418 372.051,322.68ZM490.242,409.973C483.789,413.699 475.509,411.481 471.786,405.031L430.398,333.327C434.546,331.634 438.608,329.654 442.554,327.376C446.503,325.096 450.243,322.558 453.784,319.81L495.184,391.517C496.372,393.578 497,395.91 497,398.26C497,403.078 494.41,407.567 490.242,409.973Z" style="fill:white;fill-rule:nonzero;"/>
        <path d="M461.542,263.611C466.837,246.555 465.576,228.295 457.991,212.195C456.225,208.447 451.757,206.841 448.01,208.606C444.262,210.372 442.656,214.84 444.422,218.587C450.405,231.287 451.398,245.696 447.217,259.162C443.013,272.702 433.931,284.065 421.644,291.159C408.642,298.667 393.493,300.659 378.992,296.774C364.49,292.888 352.368,283.587 344.862,270.585C329.365,243.744 338.595,209.3 365.436,193.803C385.061,182.474 409.416,183.988 427.487,197.66C430.791,200.16 435.494,199.509 437.993,196.205C440.492,192.902 439.841,188.198 436.537,185.699C413.646,168.378 382.792,166.461 357.935,180.812C341.463,190.322 329.68,205.678 324.757,224.05C319.834,242.422 322.361,261.612 331.871,278.084C341.381,294.557 356.737,306.339 375.109,311.263C381.244,312.907 387.47,313.72 393.655,313.72C405.993,313.72 418.172,310.484 429.143,304.149C444.71,295.163 456.216,280.767 461.542,263.611Z" style="fill:white;fill-rule:nonzero;"/>
    </g>
</svg>
