<?xml version="1.0" encoding="UTF-8" standalone="no"?>
<!DOCTYPE svg PUBLIC "-//W3C//DTD SVG 1.1//EN" "http://www.w3.org/Graphics/SVG/1.1/DTD/svg11.dtd">
<svg width="100%" height="100%" viewBox="0 0 683 567" version="1.1" xmlns="http://www.w3.org/2000/svg" xmlns:xlink="http://www.w3.org/1999/xlink" xml:space="preserve" xmlns:serif="http://www.serif.com/" style="fill-rule:evenodd;clip-rule:evenodd;stroke-linecap:round;stroke-linejoin:round;stroke-miterlimit:10;">
    <g>
        <g>
            <g id="Tafel">
                <g>
                    <path d="M527.652,391.044L527.652,520.721C527.652,539.09 516.655,549.953 503.093,549.953L39.174,549.953C25.613,549.953 14.616,539.09 14.616,520.721L14.616,48.081C14.616,29.71 25.613,19.857 39.174,19.857L503.094,19.857C516.656,19.857 527.653,29.71 527.653,48.081L527.653,84.538" style="fill:none;fill-rule:nonzero;stroke:white;stroke-width:20px;"/>
                    <g>
                        <path d="M277.52,436.839C277.52,443.517 272.135,448.931 265.497,448.931L232.426,448.931C225.786,448.931 220.401,443.517 220.401,436.839L220.401,103.405C220.401,96.728 225.787,91.315 232.426,91.315L265.497,91.315C272.136,91.315 277.52,96.728 277.52,103.405L277.52,436.839Z" style="fill:none;fill-rule:nonzero;stroke:white;stroke-width:20px;"/>
                        <path d="M175.537,436.839C175.537,443.517 170.711,448.931 164.756,448.931L129.196,448.931C123.242,448.931 118.415,443.517 118.415,436.839L118.415,254.43C118.415,247.75 123.242,242.336 129.196,242.336L164.756,242.336C170.711,242.336 175.537,247.75 175.537,254.43L175.537,436.839Z" style="fill:none;fill-rule:nonzero;stroke:white;stroke-width:20px;"/>
                        <path d="M379.504,436.839C379.504,443.517 374.422,448.931 368.154,448.931L333.732,448.931C327.464,448.931 322.382,443.517 322.382,436.839L322.382,190.567C322.382,183.888 327.464,178.473 333.732,178.473L368.154,178.473C374.422,178.473 379.504,183.888 379.504,190.567L379.504,436.839Z" style="fill:none;fill-rule:nonzero;stroke:white;stroke-width:20px;"/>
                    </g>
                    <g>
                        <path d="M649.263,186.464C673.796,238.491 657.946,299.199 614.409,333.151C607.471,338.568 599.83,343.297 591.541,347.207C583.252,351.117 574.74,354.006 566.145,355.915C512.256,367.902 455.332,341.519 430.798,289.489C402.347,229.16 428.19,157.194 488.519,128.745C548.847,100.294 620.813,126.139 649.263,186.464Z" style="fill:none;fill-rule:nonzero;stroke:white;stroke-width:20px;"/>
                        <path d="M611.024,204.491C629.52,243.701 612.72,290.481 573.505,308.973C534.294,327.468 487.52,310.667 469.025,271.453C450.532,232.243 467.33,185.467 506.543,166.972C545.753,148.48 592.531,165.276 611.024,204.491Z" style="fill:none;fill-rule:nonzero;stroke:white;stroke-width:20px;"/>
                        <path d="M614.409,333.15L659.669,429.125C665.475,441.431 660.203,456.107 647.898,461.907L644.189,463.655C631.886,469.459 617.209,464.19 611.405,451.885L566.144,355.913C574.74,354.004 583.251,351.115 591.54,347.205C599.83,343.297 607.471,338.567 614.409,333.15Z" style="fill:none;fill-rule:nonzero;stroke:white;stroke-width:20px;"/>
                    </g>
                    <g>
                        <path d="M69.709,90.152L69.709,495.218" style="fill:none;fill-rule:nonzero;stroke:white;stroke-width:20px;"/>
                        <path d="M69.709,495.218L457.713,495.218" style="fill:none;fill-rule:nonzero;stroke:white;stroke-width:20px;"/>
                        <path d="M430.294,467.797L457.713,495.218" style="fill:none;fill-rule:nonzero;stroke:white;stroke-width:20px;"/>
                        <path d="M69.709,90.152L97.129,117.575" style="fill:none;fill-rule:nonzero;stroke:white;stroke-width:20px;"/>
                    </g>
                </g>
            </g>
        </g>
    </g>
</svg>
