<?xml version="1.0" encoding="UTF-8" standalone="no"?>
<!DOCTYPE svg PUBLIC "-//W3C//DTD SVG 1.1//EN" "http://www.w3.org/Graphics/SVG/1.1/DTD/svg11.dtd">
<svg width="100%" height="100%" viewBox="0 0 567 567" version="1.1" xmlns="http://www.w3.org/2000/svg" xmlns:xlink="http://www.w3.org/1999/xlink" xml:space="preserve" xmlns:serif="http://www.serif.com/" style="fill-rule:evenodd;clip-rule:evenodd;stroke-linecap:round;stroke-linejoin:round;stroke-miterlimit:10;">
    <g>
        <g>
            <g id="Glühbirne">
                <g>
                    <path d="M163.675,493.511L61.701,485.03C45.111,485.03 31.662,496.134 31.662,509.838L31.662,512.939C31.662,526.64 45.111,537.753 61.701,537.753L271.985,556.231C274.66,556.231 277.247,555.939 279.715,555.395C291.335,553.024 443.472,519.027 446.748,519.027C450.151,519.027 552.742,511.247 552.742,511.247L552.742,369.759L398.612,363.439C398.612,363.439 364.091,361.494 277.06,440.26L186.208,463.56C172.467,466.992 164.104,480.907 167.528,494.646L168.051,496.729C168.665,499.169 169.598,501.444 170.822,503.507" style="fill:none;fill-rule:nonzero;stroke:white;stroke-width:20px;"/>
                    <path d="M199.142,515.396C187.843,518.217 176.417,513.064 170.826,503.506" style="fill:none;fill-rule:nonzero;stroke:white;stroke-width:20px;"/>
                    <path d="M340.917,472.349L283.937,498.604L199.142,515.397C187.843,518.218 176.417,513.065 170.826,503.507" style="fill:none;fill-rule:nonzero;stroke:white;stroke-width:20px;"/>
                </g>
                <g>
                    <g>
                        <g>
                            <path d="M91.102,199.362C91.102,141.72 137.831,94.99 195.476,94.99C253.119,94.99 299.848,141.72 299.848,199.362C299.848,239.855 281.954,274.961 248.249,292.267C248.711,293.752 247.941,295.355 247.941,297.037L243.809,318.927C243.809,326.421 238.801,332.5 232.623,332.5L158.323,332.5C152.146,332.5 147.141,326.421 147.141,318.927L143.005,297.037C143.005,295.355 142.235,293.753 142.695,292.267C108.995,274.96 91.102,239.855 91.102,199.362Z" style="fill:none;fill-rule:nonzero;stroke:white;stroke-width:20px;"/>
                            <path d="M148.145,361.031C148.145,361.031 161.232,401.678 195.505,401.678C229.776,401.678 241.884,361.031 241.884,361.031L148.145,361.031Z" style="fill:none;fill-rule:nonzero;stroke:white;stroke-width:20px;"/>
                        </g>
                        <path d="M195.476,14.809L195.476,60.164" style="fill:none;fill-rule:nonzero;stroke:white;stroke-width:20px;"/>
                        <path d="M64.372,68.807L96.404,100.838" style="fill:none;fill-rule:nonzero;stroke:white;stroke-width:20px;"/>
                        <path d="M11.22,200.259L56.574,200.259" style="fill:none;fill-rule:nonzero;stroke:white;stroke-width:20px;"/>
                        <path d="M65.218,331.362L97.249,299.33" style="fill:none;fill-rule:nonzero;stroke:white;stroke-width:20px;"/>
                        <path d="M326.925,67.961L294.893,99.992" style="fill:none;fill-rule:nonzero;stroke:white;stroke-width:20px;"/>
                        <path d="M380.923,199.064L335.568,199.064" style="fill:none;fill-rule:nonzero;stroke:white;stroke-width:20px;"/>
                        <path d="M327.769,330.518L295.737,298.482" style="fill:none;fill-rule:nonzero;stroke:white;stroke-width:20px;"/>
                    </g>
                    <g>
                        <g>
                            <path d="M182.297,206.671C182.297,200.217 176.127,194.986 168.517,194.986C160.908,194.986 154.739,200.217 154.739,206.671" style="fill:none;fill-rule:nonzero;stroke:white;stroke-width:20px;stroke-linejoin:miter;"/>
                            <path d="M209.851,206.671C209.851,200.217 203.684,194.986 196.07,194.986C188.464,194.986 182.298,200.217 182.298,206.671" style="fill:none;fill-rule:nonzero;stroke:white;stroke-width:20px;stroke-linejoin:miter;"/>
                            <path d="M237.405,206.671C237.405,200.217 231.238,194.986 223.627,194.986C216.018,194.986 209.851,200.217 209.851,206.671" style="fill:none;fill-rule:nonzero;stroke:white;stroke-width:20px;stroke-linejoin:miter;"/>
                        </g>
                        <path d="M181.472,299.067L154.738,206.671" style="fill:none;fill-rule:nonzero;stroke:white;stroke-width:20px;"/>
                        <path d="M237.405,206.671L210.674,299.067" style="fill:none;fill-rule:nonzero;stroke:white;stroke-width:20px;"/>
                    </g>
                </g>
            </g>
        </g>
    </g>
</svg>
