<?xml version="1.0" encoding="UTF-8" standalone="no"?>
<!DOCTYPE svg PUBLIC "-//W3C//DTD SVG 1.1//EN" "http://www.w3.org/Graphics/SVG/1.1/DTD/svg11.dtd">
<svg width="100%" height="100%" viewBox="0 0 512 512" version="1.1" xmlns="http://www.w3.org/2000/svg" xmlns:xlink="http://www.w3.org/1999/xlink" xml:space="preserve" xmlns:serif="http://www.serif.com/" style="fill-rule:evenodd;clip-rule:evenodd;stroke-linejoin:round;stroke-miterlimit:2;">
    <path d="M389.028,237.01C410.539,221.4 423.299,196.375 423.299,169.797C423.299,147.695 414.475,126.482 398.8,110.9C383.789,95.941 363.344,87.678 342.155,88.007C298.588,88.628 263.212,125.412 263.296,170.007C263.281,196.54 276.06,221.514 297.588,237.023C298.69,237.855 299.326,239.169 299.296,240.549L299.296,251.229C291.877,255.507 287.291,263.445 287.291,272.009C287.291,282.155 293.728,291.253 303.296,294.629L303.296,304C303.311,317.16 314.136,327.985 327.296,328L359.296,328C372.456,327.985 383.281,317.16 383.296,304L383.296,294.624C392.864,291.248 399.301,282.15 399.301,272.004C399.301,263.44 394.715,255.502 387.296,251.224L387.296,240.548C387.269,239.16 387.915,237.841 389.028,237.01ZM279.3,169.978C279.232,134.099 307.533,104.504 342.388,104.007C342.688,104.007 342.996,104 343.301,104C359.892,104 375.823,110.585 387.571,122.3C400.196,134.876 407.3,151.98 407.3,169.8C407.3,191.214 397.041,211.381 379.733,223.99C374.421,227.826 371.278,234 371.3,240.552L371.3,248L315.3,248L315.3,240.549C315.326,234.004 312.188,227.833 306.882,224C289.548,211.488 279.269,191.356 279.3,169.978ZM359.3,312L327.3,312C322.913,311.995 319.305,308.387 319.3,304L319.3,296L367.3,296L367.3,304C367.295,308.387 363.687,311.995 359.3,312ZM375.3,280L311.3,280C306.911,280 303.3,276.389 303.3,272C303.3,267.611 306.911,264 311.3,264L375.3,264C379.689,264 383.3,267.611 383.3,272C383.3,276.389 379.689,280 375.3,280Z" style="fill:white;fill-rule:nonzero;"/>
    <path d="M356.27,138.543C366.455,142.817 374.14,151.529 377.109,162.167C378.115,165.55 381.247,167.886 384.777,167.886C389.165,167.886 392.777,164.274 392.777,159.886C392.777,159.193 392.687,158.503 392.509,157.833C388.19,142.462 377.058,129.886 362.325,123.733C361.364,123.34 360.335,123.137 359.296,123.137C354.907,123.137 351.296,126.749 351.296,131.138C351.296,134.379 353.266,137.315 356.267,138.542L356.27,138.543Z" style="fill:white;fill-rule:nonzero;"/>
    <path d="M351.3,64L351.3,48C351.3,43.611 347.689,40 343.3,40C338.911,40 335.3,43.611 335.3,48L335.3,64C335.3,68.389 338.911,72 343.3,72C347.689,72 351.3,68.389 351.3,64Z" style="fill:white;fill-rule:nonzero;"/>
    <path d="M297.749,81.685C302.135,81.677 305.739,78.066 305.739,73.68C305.739,72.56 305.504,71.452 305.049,70.429L298.541,55.812C297.258,52.931 294.386,51.066 291.233,51.066C286.844,51.066 283.232,54.677 283.232,59.066C283.232,60.187 283.468,61.296 283.924,62.32L290.432,76.937C291.715,79.822 294.592,81.688 297.749,81.685Z" style="fill:white;fill-rule:nonzero;"/>
    <path d="M260.064,109.058C260.065,109.058 260.066,109.058 260.067,109.058C264.456,109.058 268.067,105.447 268.067,101.058C268.067,98.791 267.104,96.628 265.419,95.112L253.529,84.406C252.06,83.084 250.152,82.352 248.176,82.352C243.787,82.352 240.175,85.964 240.175,90.353C240.175,92.62 241.138,94.783 242.823,96.3L254.713,107C256.179,108.326 258.087,109.059 260.064,109.058Z" style="fill:white;fill-rule:nonzero;"/>
    <path d="M244.389,143.861C245.745,139.687 243.426,135.137 239.252,133.781L224.035,128.838C223.223,128.569 222.373,128.431 221.517,128.431C217.128,128.431 213.517,132.043 213.517,136.431C213.517,139.906 215.781,143.002 219.092,144.055L234.309,149C235.109,149.261 235.945,149.394 236.787,149.394C240.243,149.394 243.325,147.151 244.389,143.863L244.389,143.861Z" style="fill:white;fill-rule:nonzero;"/>
    <path d="M231.076,179.751L215.164,181.424C211.088,181.823 207.944,185.291 207.944,189.386C207.944,193.775 211.555,197.386 215.944,197.386C216.242,197.386 216.54,197.369 216.836,197.336L232.749,195.663C236.78,195.215 239.864,191.768 239.864,187.712C239.864,183.323 236.253,179.712 231.864,179.712C231.601,179.712 231.338,179.725 231.076,179.751Z" style="fill:white;fill-rule:nonzero;"/>
    <path d="M453.849,195.663L469.761,197.336C470.026,197.363 470.293,197.376 470.56,197.376C474.948,197.376 478.56,193.765 478.56,189.376C478.56,185.317 475.47,181.868 471.435,181.424L455.522,179.751C455.228,179.718 454.933,179.702 454.637,179.702C450.249,179.702 446.637,183.313 446.637,187.702C446.637,191.794 449.777,195.26 453.849,195.663Z" style="fill:white;fill-rule:nonzero;"/>
    <path d="M449.815,149.392C450.655,149.392 451.49,149.259 452.289,148.998L467.506,144.055C470.794,142.987 473.034,139.903 473.034,136.446C473.034,132.058 469.423,128.446 465.034,128.446C464.195,128.446 463.36,128.579 462.562,128.838L447.346,133.781C444.055,134.847 441.81,137.932 441.81,141.392C441.81,145.781 445.422,149.392 449.81,149.392C449.812,149.392 449.813,149.392 449.815,149.392Z" style="fill:white;fill-rule:nonzero;"/>
    <path d="M431.885,107L443.774,96.3C445.458,94.784 446.421,92.621 446.421,90.354C446.421,85.966 442.809,82.354 438.421,82.354C436.444,82.354 434.536,83.086 433.067,84.409L421.178,95.112C419.537,96.626 418.602,98.76 418.602,100.993C418.602,105.382 422.213,108.993 426.602,108.993C428.546,108.993 430.425,108.284 431.885,107Z" style="fill:white;fill-rule:nonzero;"/>
    <path d="M388.849,81.685C392.005,81.686 394.879,79.82 396.162,76.937L402.67,62.32C403.126,61.296 403.362,60.187 403.362,59.066C403.362,54.677 399.75,51.066 395.361,51.066C392.208,51.066 389.336,52.931 388.053,55.812L381.545,70.429C381.09,71.452 380.855,72.56 380.855,73.68C380.855,78.066 384.459,81.677 388.845,81.685L388.849,81.685Z" style="fill:white;fill-rule:nonzero;"/>
    <path d="M472,424L368,424L368,416C368,403.989 352.368,395.24 347.578,392.845C347.167,392.639 346.739,392.47 346.299,392.337L267.999,368.846C263.044,364.469 245.333,349.099 223.679,333.508C189.107,308.619 162.3,296 144,296L80,296L80,288C80,283.611 76.389,280 72,280L24,280C19.611,280 16,283.611 16,288L16,464C16,468.389 19.611,472 24,472L72,472C76.389,472 80,468.389 80,464L80,456L103.627,456C108.618,456.664 149.444,464.724 185.532,471.849C257.715,486.1 267.912,488 270.163,488L472,488C485.16,487.985 495.985,477.16 496,464L496,448C495.985,434.84 485.16,424.015 472,424ZM64,456L32,456L32,296L64,296L64,456ZM480,464C479.995,468.387 476.387,471.995 472,472L270.536,472C265.545,471.336 224.719,463.276 188.636,456.151C116.448,441.9 106.251,440 104,440L80,440L80,312L144,312C174.271,312 237.023,362.491 258.649,381.947C259.527,382.737 260.57,383.323 261.701,383.663L341.001,407.454C345.982,410.06 351.234,414.247 351.995,416.244L351.995,432C351.99,436.139 348.778,439.628 344.653,439.974L266.842,424.41L211.969,393.054C210.758,392.36 209.386,391.994 207.99,391.994C203.602,391.994 199.99,395.606 199.99,399.994C199.99,402.866 201.536,405.525 204.031,406.946L260.031,438.946C260.777,439.373 261.588,439.677 262.431,439.846L342.431,455.846C342.948,455.949 343.473,456 344,456C354.143,455.988 363.236,449.559 366.629,440L472,440C476.387,440.005 479.995,443.613 480,448L480,464Z" style="fill:white;fill-rule:nonzero;"/>
</svg>
