<?xml version="1.0" encoding="iso-8859-1"?>
<!-- Generator: Adobe Illustrator 19.0.0, SVG Export Plug-In . SVG Version: 6.00 Build 0)  -->
<svg version="1.1" id="Layer_1" xmlns="http://www.w3.org/2000/svg" xmlns:xlink="http://www.w3.org/1999/xlink" x="0px" y="0px"
	 viewBox="0 0 512 512" style="enable-background:new 0 0 512 512;" xml:space="preserve">
<g>
	<g>
		<path d="M273.511,201.298H142.226c-4.533,0-8.205,3.673-8.205,8.205c0,4.533,3.673,8.205,8.205,8.205h131.285
			c4.533,0,8.205-3.673,8.205-8.205S278.043,201.298,273.511,201.298z"/>
	</g>
</g>
<g>
	<g>
		<path d="M350.094,201.298h-21.881c-4.533,0-8.205,3.673-8.205,8.205c0,4.533,3.673,8.205,8.205,8.205h21.881
			c4.533,0,8.205-3.673,8.205-8.205C358.299,204.97,354.626,201.298,350.094,201.298z"/>
	</g>
</g>
<g>
	<g>
		<path d="M508.185,264.59c-4.5-7.092-12.2-11.326-20.599-11.326h-22.618v-86.981c0-12.364-10.059-22.422-22.422-22.422h-21.339
			v-14.96c0-15.882-12.921-28.802-28.802-28.802H170.716c-9.384,0-17.82-5.214-22.017-13.608l-3.738-7.477
			c-6.995-13.988-21.055-22.678-36.694-22.678h-67.24C18.404,56.337,0,74.742,0,97.363c0,0,0.098,337.056,0.265,337.395
			c0.487,3.348,1.668,6.611,3.552,9.579c4.5,7.09,12.201,11.326,20.6,11.326h390.885c9.405,0,18.07-5.499,22.076-14.009
			l72.283-153.603C513.237,280.452,512.686,271.681,508.185,264.59z M16.411,97.363c0-13.573,11.042-24.615,24.615-24.615h67.24
			c9.384,0,17.82,5.214,22.017,13.608l3.738,7.477c6.994,13.988,21.055,22.678,36.694,22.678h221.689
			c6.832,0,12.391,5.559,12.391,12.391v14.96H73.959c-16.651,0-30.198,13.546-30.198,30.198v158.801l-27.351,58.121V97.363z
			 M494.692,281.32l-72.163,153.346c-1.311,2.785-4.147,4.585-7.226,4.585H24.699c-2.805,0-5.512-1.33-7.019-3.697
			c-1.502-2.358-1.679-5.163-0.49-7.691l72.283-153.603c1.311-2.785,4.149-4.585,7.227-4.585h74.296
			c4.531,0,8.205-3.674,8.205-8.205c0-4.532-3.674-8.205-8.205-8.205H96.7c-9.45,0-18.051,5.458-22.075,14.009l-14.453,30.711
			V174.058c0-7.613,6.173-13.787,13.787-13.787h368.586c3.32,0,6.012,2.691,6.012,6.012v86.982H207.177
			c-4.532,0-8.205,3.674-8.205,8.205c0,4.531,3.674,8.205,8.205,8.205h280.41c2.795,0,5.256,1.355,6.749,3.719
			C495.836,275.766,495.887,278.782,494.692,281.32z"/>
	</g>
</g>
<g>
</g>
<g>
</g>
<g>
</g>
<g>
</g>
<g>
</g>
<g>
</g>
<g>
</g>
<g>
</g>
<g>
</g>
<g>
</g>
<g>
</g>
<g>
</g>
<g>
</g>
<g>
</g>
<g>
</g>
</svg>
