<?xml version="1.0" encoding="UTF-8" standalone="no"?>
<!DOCTYPE svg PUBLIC "-//W3C//DTD SVG 1.1//EN" "http://www.w3.org/Graphics/SVG/1.1/DTD/svg11.dtd">
<svg width="100%" height="100%" viewBox="0 0 512 512" version="1.1" xmlns="http://www.w3.org/2000/svg" xmlns:xlink="http://www.w3.org/1999/xlink" xml:space="preserve" xmlns:serif="http://www.serif.com/" style="fill-rule:evenodd;clip-rule:evenodd;stroke-linejoin:round;stroke-miterlimit:2;">
    <g transform="matrix(0.702425,0,0,0.702425,-103.978,76.1793)">
        <g transform="matrix(1.09723,0,0,1.09723,-14.3933,58.6677)">
            <path d="M203.294,273.494C207.436,273.494 210.794,270.136 210.794,265.994L210.794,60.206C210.794,35.28 231.073,15 256.001,15C280.927,15 301.207,35.28 301.207,60.206L301.207,90.407C301.207,94.549 304.564,97.907 308.707,97.907C312.85,97.907 316.207,94.549 316.207,90.407L316.207,60.206C316.207,27.009 289.199,0 256.001,0C222.803,0 195.794,27.009 195.794,60.206L195.794,265.994C195.794,270.136 199.152,273.494 203.294,273.494Z" style="fill:white;fill-rule:nonzero;"/>
        </g>
        <g transform="matrix(1.09723,0,0,1.09723,-14.3933,58.6677)">
            <path d="M323.507,319.764C318.866,316.044 316.206,310.601 316.206,304.831L316.206,120.408C316.206,116.266 312.849,112.908 308.706,112.908C304.563,112.908 301.206,116.266 301.206,120.408L301.206,304.831C301.206,315.176 305.914,324.885 314.121,331.466C336.269,349.229 348.971,375.677 348.971,404.028C348.971,429.107 339.136,452.617 321.279,470.228C303.424,487.835 279.756,497.316 254.673,496.991C204.608,496.294 163.498,454.987 163.032,404.912C162.765,376.179 175.49,349.389 197.944,331.414C206.109,324.876 210.793,315.188 210.793,304.835L210.793,295.994C210.793,291.852 207.435,288.494 203.293,288.494C199.151,288.494 195.793,291.852 195.793,295.994L195.793,304.835C195.793,310.608 193.16,316.027 188.568,319.703C162.497,340.575 147.721,371.684 148.031,405.052C148.293,433.285 159.492,459.94 179.561,480.106C199.632,500.273 226.232,511.597 254.463,511.989C254.981,511.997 255.496,512 256.013,512C284.578,512 311.444,500.994 331.811,480.908C352.549,460.456 363.971,433.153 363.971,404.028C363.972,371.104 349.223,340.39 323.507,319.764Z" style="fill:white;fill-rule:nonzero;"/>
        </g>
        <g transform="matrix(1.09723,0,0,1.09723,-14.3933,58.6677)">
            <path d="M275.555,39.893C269.98,34.525 262.648,31.728 254.918,32.022C239.709,32.597 227.794,45.2 227.794,60.715L227.794,321.591C227.794,328.203 224.435,334.224 218.809,337.697L216.166,339.329C193.291,353.452 179.783,377.911 180.033,404.754C180.412,445.67 214.002,479.421 254.91,479.991C255.277,479.997 256.003,479.999 256.004,479.999C277.74,479.999 297.769,471.096 312.403,454.93C324.081,442.03 330.994,425.355 331.872,407.977C333.272,380.221 319.463,353.916 295.836,339.329L293.191,337.696C287.565,334.223 284.207,328.202 284.207,321.59L284.207,60.206C284.207,52.479 281.134,45.265 275.555,39.893ZM255.485,47.011C255.657,47.005 255.829,47.001 256,47.001C259.431,47.001 262.663,48.303 265.151,50.698C267.765,53.216 269.206,56.593 269.206,60.206L269.206,92.345L242.796,92.345L242.796,60.714C242.795,53.422 248.488,47.275 255.485,47.011ZM285.31,350.46L287.955,352.093C307.215,363.985 318.031,384.593 316.891,407.221C316.187,421.153 310.644,434.521 301.283,444.863C289.53,457.849 273.449,465 256.027,465C256.006,465 255.421,464.999 255.128,464.994L255.121,464.994C222.293,464.537 195.339,437.452 195.035,404.617C194.834,383.07 205.68,363.435 224.049,352.094L226.692,350.462C236.777,344.236 242.797,333.444 242.797,321.592L242.797,107.347L269.207,107.347L269.207,123.936L263.502,123.936C259.359,123.936 256.002,127.294 256.002,131.436C256.002,135.578 259.359,138.936 263.502,138.936L269.207,138.936L269.207,159.928L263.502,159.928C259.359,159.928 256.002,163.286 256.002,167.428C256.002,171.57 259.359,174.928 263.502,174.928L269.207,174.928L269.207,195.92L263.502,195.92C259.359,195.92 256.002,199.278 256.002,203.42C256.002,207.562 259.359,210.92 263.502,210.92L269.207,210.92L269.207,231.911L263.502,231.911C259.359,231.911 256.002,235.27 256.002,239.412C256.002,243.554 259.359,246.912 263.502,246.912L269.207,246.912L269.207,267.903L263.502,267.903C259.359,267.903 256.002,271.261 256.002,275.403C256.002,279.546 259.359,282.904 263.502,282.904L269.207,282.904L269.207,321.592C269.206,333.442 275.226,344.234 285.31,350.46Z" style="fill:white;fill-rule:nonzero;"/>
        </g>
        <g transform="matrix(0.916379,0,0,0.916379,407.744,-52.0391)">
            <path d="M45.84,92.871C43.363,92.871 40.883,91.957 38.945,90.113C34.945,86.309 34.789,79.977 38.598,75.977L38.875,75.684C42.695,71.695 49.023,71.555 53.016,75.371C57.004,79.191 57.145,85.52 53.324,89.512L53.086,89.766C51.121,91.828 48.48,92.871 45.84,92.871Z" style="fill:white;fill-rule:nonzero;"/>
        </g>
        <g transform="matrix(0.916379,0,0,0.916379,407.744,-52.0391)">
            <path d="M311.422,512C264.988,512 221.762,490.371 193.906,453.672C174.059,465.691 151.473,472 128,472C57.672,472 0.457,414.785 0.457,344.457C0.457,313.449 11.441,284.145 31.57,260.969C11.148,236.023 0,204.938 0,172.457C0,151.297 4.609,130.961 13.699,112.016C16.086,107.039 22.059,104.934 27.039,107.328C32.02,109.719 34.117,115.691 31.73,120.672C23.945,136.891 20,154.313 20,172.457C20,202.98 31.488,232.066 52.344,254.352C56.035,258.293 55.926,264.453 52.102,268.27C31.695,288.598 20.453,315.656 20.453,344.457C20.457,403.758 68.699,452 128,452C150.645,452 172.305,445.043 190.645,431.879C192.855,430.289 195.617,429.672 198.293,430.168C200.969,430.66 203.328,432.227 204.828,434.5C228.539,470.504 268.387,492 311.426,492C372.336,492 424.98,448.676 436.605,388.98C437.324,385.281 440.066,382.297 443.695,381.273C472.137,373.223 492,346.949 492,317.371C492,294.758 480.637,273.902 461.605,261.582C459.191,260.02 457.566,257.496 457.148,254.648C456.727,251.805 457.551,248.918 459.41,246.723C480.426,221.906 492,190.312 492,157.758C492,81.797 430.203,20 354.242,20C306.906,20 263.438,43.871 237.969,83.859C236.363,86.383 233.711,88.055 230.738,88.414C227.77,88.773 224.797,87.785 222.633,85.723C200.234,64.348 170.848,52.578 139.879,52.578C119.996,52.578 100.309,57.539 82.941,66.934C78.082,69.562 72.016,67.754 69.387,62.895C66.762,58.035 68.566,51.969 73.426,49.344C93.707,38.375 116.684,32.578 139.879,32.578C172.105,32.578 202.871,43.504 227.684,63.559C257.418,23.555 303.918,0 354.242,0C441.23,0 512,70.77 512,157.758C512,191.477 501.152,224.305 481.27,251.301C500.684,267.629 512,291.621 512,317.371C512,353.801 488.84,386.379 454.977,398.637C439.32,464.676 379.883,512 311.422,512Z" style="fill:white;fill-rule:nonzero;"/>
        </g>
        <g transform="matrix(0.916379,0,0,0.916379,407.744,-52.0391)">
            <path d="M354.242,74L354.168,74C348.652,73.957 344.141,69.457 344.172,63.941C344.203,58.441 348.746,54 354.242,54L354.281,54C359.797,54.02 364.328,58.504 364.316,64.02C364.309,69.535 359.758,74 354.242,74Z" style="fill:white;fill-rule:nonzero;"/>
        </g>
        <g transform="matrix(0.916379,0,0,0.916379,407.744,-52.0391)">
            <path d="M448,167.758C442.477,167.758 438,163.277 438,157.758C438,125.859 419.441,96.258 390.723,82.336C385.754,79.93 383.676,73.945 386.086,68.977C388.492,64.008 394.477,61.934 399.445,64.34C416.73,72.719 431.344,85.715 441.711,101.926C452.367,118.586 458,137.895 458,157.758C458,163.277 453.523,167.758 448,167.758Z" style="fill:white;fill-rule:nonzero;"/>
        </g>
        <g transform="matrix(0.916379,0,0,0.916379,407.744,-52.0391)">
            <path d="M128,418C87.445,418 54.457,385.008 54.457,344.457C54.457,338.934 58.934,334.457 64.457,334.457C69.98,334.457 74.457,338.934 74.457,344.457C74.457,373.98 98.477,398 128,398C133.523,398 138,402.477 138,408C138,413.523 133.523,418 128,418Z" style="fill:white;fill-rule:nonzero;"/>
        </g>
        <g transform="matrix(0.916379,0,0,0.916379,407.744,-52.0391)">
            <path d="M300.328,305.109C261.73,305.109 230.328,273.707 230.328,235.109C230.328,196.512 261.73,165.109 300.328,165.109C338.93,165.109 370.328,196.512 370.328,235.109C370.328,273.707 338.93,305.109 300.328,305.109ZM300.328,185.109C272.762,185.109 250.328,207.539 250.328,235.109C250.328,262.68 272.762,285.109 300.328,285.109C327.898,285.109 350.328,262.68 350.328,235.109C350.328,207.539 327.898,185.109 300.328,185.109Z" style="fill:white;fill-rule:nonzero;"/>
        </g>
        <g transform="matrix(0.916379,0,0,0.916379,407.744,-52.0391)">
            <path d="M158.316,305.078C140.395,305.078 122.469,298.254 108.82,284.609C81.527,257.316 81.527,212.906 108.82,185.613C136.113,158.32 180.523,158.32 207.816,185.613C211.723,189.52 211.723,195.852 207.816,199.758C203.91,203.66 197.578,203.66 193.672,199.758C184.23,190.313 171.672,185.109 158.316,185.109C144.965,185.109 132.406,190.313 122.965,199.758C103.469,219.25 103.469,250.973 122.965,270.465C132.406,279.91 144.965,285.109 158.316,285.109C171.672,285.109 184.23,279.91 193.672,270.465C197.578,266.562 203.91,266.562 207.816,270.465C211.723,274.371 211.723,280.703 207.816,284.609C194.168,298.254 176.242,305.078 158.316,305.078Z" style="fill:white;fill-rule:nonzero;"/>
        </g>
        <g transform="matrix(0.916379,0,0,0.916379,407.744,-52.0391)">
            <path d="M413.684,346.891L381.539,346.891C377.219,346.891 373.387,344.113 372.039,340.008C370.691,335.902 372.137,331.395 375.617,328.832C384.77,322.074 403.68,304.188 403.68,292.055C403.68,288.211 402.688,285.984 397.609,285.984C394.266,285.984 391.539,288.707 391.539,292.055C391.539,297.578 387.063,302.055 381.539,302.055C376.02,302.055 371.539,297.578 371.539,292.055C371.539,277.68 383.234,265.984 397.609,265.984C413.203,265.984 423.68,276.461 423.68,292.055C423.68,304.746 415.645,317.223 407.105,326.891L413.68,326.891C419.203,326.891 423.68,331.367 423.68,336.891C423.68,342.414 419.203,346.891 413.684,346.891Z" style="fill:white;fill-rule:nonzero;"/>
        </g>
    </g>
</svg>
