<?xml version="1.0" encoding="UTF-8" standalone="no"?>
<!DOCTYPE svg PUBLIC "-//W3C//DTD SVG 1.1//EN" "http://www.w3.org/Graphics/SVG/1.1/DTD/svg11.dtd">
<svg width="100%" height="100%" viewBox="0 0 552 567" version="1.1" xmlns="http://www.w3.org/2000/svg" xmlns:xlink="http://www.w3.org/1999/xlink" xml:space="preserve" xmlns:serif="http://www.serif.com/" style="fill-rule:evenodd;clip-rule:evenodd;stroke-miterlimit:10;">
    <g>
        <g>
            <g id="Thermometer">
                <g>
                    <path d="M161.677,379.784L161.677,66.729C161.677,37.419 137.914,13.658 108.604,13.658C79.294,13.658 55.531,37.419 55.531,66.729L55.531,379.784C29.38,397.042 12.12,426.686 12.12,460.362C12.12,513.649 55.317,556.848 108.604,556.848C161.891,556.848 205.088,513.649 205.088,460.362C205.087,426.686 187.829,397.043 161.677,379.784Z" style="fill:none;fill-rule:nonzero;stroke:white;stroke-width:20px;"/>
                    <path d="M116.551,411.866L116.551,75.16C116.551,69.344 112.993,64.628 108.605,64.628C104.216,64.628 100.658,69.343 100.658,75.16L100.658,411.867C77.295,415.666 59.457,435.93 59.457,460.364C59.457,487.508 81.46,509.511 108.604,509.511C135.747,509.511 157.751,487.507 157.751,460.364C157.751,435.929 139.914,415.665 116.551,411.866Z" style="fill:white;fill-rule:nonzero;stroke:white;stroke-width:12px;"/>
                    <path d="M74.266,103.52L55.69,103.52" style="fill:none;fill-rule:nonzero;stroke:white;stroke-width:20px;stroke-linecap:round;"/>
                    <path d="M74.266,148.926L55.69,148.926" style="fill:none;fill-rule:nonzero;stroke:white;stroke-width:20px;stroke-linecap:round;"/>
                    <path d="M74.266,194.33L55.69,194.33" style="fill:none;fill-rule:nonzero;stroke:white;stroke-width:20px;stroke-linecap:round;"/>
                    <path d="M74.266,239.736L55.69,239.736" style="fill:none;fill-rule:nonzero;stroke:white;stroke-width:20px;stroke-linecap:round;"/>
                    <path d="M74.266,285.141L55.69,285.141" style="fill:none;fill-rule:nonzero;stroke:white;stroke-width:20px;stroke-linecap:round;"/>
                    <path d="M74.266,375.95L55.69,375.95" style="fill:none;fill-rule:nonzero;stroke:white;stroke-width:20px;stroke-linecap:round;"/>
                    <path d="M74.266,330.545L55.69,330.545" style="fill:none;fill-rule:nonzero;stroke:white;stroke-width:20px;stroke-linecap:round;"/>
                </g>
                <g>
                    <circle cx="375.438" cy="255.653" r="162.091" style="fill:none;stroke:white;stroke-width:20px;stroke-linecap:round;"/>
                    <g transform="matrix(1,0,0,1,234.482,298.285)">
                        <path d="M90.822,-103.707C93.126,-102.554 94.462,-100.774 94.829,-98.364C95.195,-95.955 94.593,-93.755 93.022,-91.765C91.869,-90.193 90.377,-89.303 88.543,-89.093C86.71,-88.884 84.903,-89.251 83.122,-90.193C80.085,-91.765 76.89,-93.022 73.537,-93.965C70.185,-94.907 66.624,-95.379 62.853,-95.379C56.882,-95.379 51.513,-94.41 46.747,-92.472C41.98,-90.534 37.869,-87.758 34.412,-84.144C30.955,-80.53 28.31,-76.261 26.477,-71.338C24.643,-66.414 23.727,-60.967 23.727,-54.996C23.727,-48.396 24.722,-42.556 26.712,-37.476C28.703,-32.395 31.452,-28.1 34.962,-24.591C38.471,-21.082 42.609,-18.463 47.375,-16.734C52.141,-15.006 57.301,-14.142 62.853,-14.142C66.414,-14.142 69.897,-14.561 73.302,-15.399C76.706,-16.237 79.927,-17.494 82.965,-19.17C84.851,-20.113 86.71,-20.453 88.543,-20.191C90.377,-19.929 91.869,-19.013 93.022,-17.442C94.803,-15.242 95.457,-13.016 94.986,-10.763C94.514,-8.511 93.179,-6.809 90.979,-5.657C88.36,-4.19 85.479,-2.933 82.337,-1.886C79.194,-0.838 75.999,-0 72.752,0.629C69.504,1.257 66.205,1.571 62.853,1.571C55.31,1.571 48.187,0.314 41.483,-2.2C34.778,-4.714 28.807,-8.38 23.57,-13.199C18.332,-18.018 14.22,-23.936 11.235,-30.955C8.249,-37.973 6.757,-45.987 6.757,-54.996C6.757,-63.062 8.145,-70.526 10.921,-77.387C13.697,-84.249 17.625,-90.167 22.705,-95.143C27.786,-100.119 33.731,-103.995 40.54,-106.771C47.349,-109.547 54.786,-110.935 62.853,-110.935C67.881,-110.935 72.778,-110.306 77.544,-109.049C82.311,-107.792 86.736,-106.011 90.822,-103.707Z" style="fill:white;fill-rule:nonzero;stroke:white;stroke-width:1px;stroke-linejoin:round;stroke-miterlimit:2;"/>
                        <path d="M212.913,-54.996C212.913,-47.035 211.603,-39.623 208.985,-32.762C206.366,-25.9 202.673,-19.903 197.907,-14.77C193.141,-9.637 187.51,-5.631 181.015,-2.75C174.52,0.131 167.397,1.571 159.645,1.571C151.998,1.571 144.927,0.131 138.433,-2.75C131.938,-5.631 126.307,-9.637 121.541,-14.77C116.775,-19.903 113.108,-25.9 110.542,-32.762C107.975,-39.623 106.692,-47.035 106.692,-54.996C106.692,-62.957 107.975,-70.369 110.542,-77.23C113.108,-84.091 116.775,-90.089 121.541,-95.222C126.307,-100.355 131.938,-104.361 138.433,-107.242C144.927,-110.123 151.998,-111.563 159.645,-111.563C167.397,-111.563 174.52,-110.123 181.015,-107.242C187.51,-104.361 193.141,-100.355 197.907,-95.222C202.673,-90.089 206.366,-84.091 208.985,-77.23C211.603,-70.369 212.913,-62.957 212.913,-54.996ZM195.943,-54.996C195.943,-62.748 194.398,-69.714 191.307,-75.894C188.217,-82.075 183.948,-86.946 178.501,-90.508C173.054,-94.069 166.769,-95.85 159.645,-95.85C152.627,-95.85 146.394,-94.069 140.947,-90.508C135.5,-86.946 131.257,-82.101 128.219,-75.973C125.181,-69.845 123.662,-62.853 123.662,-54.996C123.662,-47.244 125.181,-40.278 128.219,-34.097C131.257,-27.917 135.5,-23.046 140.947,-19.484C146.394,-15.923 152.627,-14.142 159.645,-14.142C166.769,-14.142 173.054,-15.923 178.501,-19.484C183.948,-23.046 188.217,-27.917 191.307,-34.097C194.398,-40.278 195.943,-47.244 195.943,-54.996Z" style="fill:white;fill-rule:nonzero;stroke:white;stroke-width:1px;stroke-linejoin:round;stroke-miterlimit:2;"/>
                        <g transform="matrix(1,0,0,1,219.508,15.788)">
                            <path d="M47.139,-11.523C48.815,-11.523 50.212,-10.964 51.33,-9.847C52.447,-8.73 53.006,-7.333 53.006,-5.657C53.006,-4.05 52.447,-2.706 51.33,-1.624C50.212,-0.541 48.815,0 47.139,0L11.523,0C9.707,0 8.276,-0.559 7.228,-1.676C6.18,-2.793 5.657,-4.225 5.657,-5.971C5.657,-7.717 6.285,-9.253 7.542,-10.58L30.379,-34.988C32.893,-37.712 34.918,-40.487 36.454,-43.316C37.991,-46.144 38.759,-48.781 38.759,-51.225C38.759,-53.39 38.235,-55.345 37.188,-57.091C36.14,-58.837 34.778,-60.234 33.102,-61.281C31.426,-62.329 29.611,-62.853 27.655,-62.853C25.63,-62.853 23.57,-62.172 21.475,-60.81C19.38,-59.448 17.529,-57.65 15.923,-55.415C15.085,-54.298 14.247,-53.599 13.409,-53.32C12.571,-53.041 11.802,-52.901 11.104,-52.901C9.568,-52.901 8.153,-53.477 6.861,-54.629C5.569,-55.782 4.923,-57.126 4.923,-58.662C4.923,-59.85 5.325,-61.002 6.128,-62.119C6.931,-63.237 7.926,-64.389 9.114,-65.576C11.767,-68.23 14.84,-70.36 18.332,-71.966C21.824,-73.572 25.176,-74.375 28.388,-74.375C33.137,-74.375 37.223,-73.398 40.645,-71.442C44.067,-69.487 46.72,-66.798 48.606,-63.376C50.492,-59.954 51.434,-56.078 51.434,-51.749C51.434,-48.815 50.893,-45.83 49.811,-42.792C48.728,-39.754 47.244,-36.804 45.359,-33.94C43.473,-31.077 41.308,-28.319 38.864,-25.665L24.722,-10.58L23.57,-11.523L47.139,-11.523Z" style="fill:white;fill-rule:nonzero;stroke:white;stroke-width:4px;stroke-miterlimit:4;"/>
                        </g>
                    </g>
                </g>
            </g>
        </g>
    </g>
</svg>
