<?xml version="1.0" encoding="UTF-8" standalone="no"?>
<!DOCTYPE svg PUBLIC "-//W3C//DTD SVG 1.1//EN" "http://www.w3.org/Graphics/SVG/1.1/DTD/svg11.dtd">
<svg width="100%" height="100%" viewBox="0 0 636 567" version="1.1" xmlns="http://www.w3.org/2000/svg" xmlns:xlink="http://www.w3.org/1999/xlink" xml:space="preserve" xmlns:serif="http://www.serif.com/" style="fill-rule:evenodd;clip-rule:evenodd;stroke-linecap:round;stroke-linejoin:round;stroke-miterlimit:10;">
    <g>
        <g>
            <g id="Mircocontroller">
                <g>
                    <g>
                        <path d="M205.705,31.274L205.705,61.921C205.705,71.148 197.048,78.626 186.36,78.626L97.171,78.626C86.484,78.626 77.823,71.148 77.823,61.921L77.823,31.274C77.823,22.047 86.484,14.569 97.171,14.569L186.36,14.569C197.048,14.569 205.705,22.047 205.705,31.274Z" style="fill:none;fill-rule:nonzero;stroke:white;stroke-width:20px;"/>
                        <path d="M619.373,149.639L619.373,511.161C619.373,535.39 595.971,555.026 567.097,555.026L66.022,555.026C37.147,555.026 13.744,535.389 13.744,511.161L13.744,90.785C13.744,66.557 37.147,46.921 66.022,46.921L77.823,46.921L77.823,61.921C77.823,71.148 86.484,78.626 97.171,78.626L186.36,78.626C197.048,78.626 205.705,71.148 205.705,61.921L205.705,46.921L516.668,46.921C510.471,46.921 505.444,51.947 505.444,58.143L505.444,149.639C505.444,155.834 510.47,160.849 516.668,160.849L608.163,160.849C614.359,160.85 619.373,155.834 619.373,149.639Z" style="fill:none;fill-rule:nonzero;stroke:white;stroke-width:20px;"/>
                        <circle cx="552.023" cy="492.514" r="27.96" style="fill:none;stroke:white;stroke-width:20px;"/>
                        <circle cx="83.64" cy="492.514" r="27.959" style="fill:none;stroke:white;stroke-width:20px;"/>
                        <circle cx="200.735" cy="492.514" r="27.959" style="fill:none;stroke:white;stroke-width:20px;"/>
                        <circle cx="317.833" cy="492.514" r="27.96" style="fill:none;stroke:white;stroke-width:20px;"/>
                        <circle cx="434.927" cy="492.514" r="27.959" style="fill:none;stroke:white;stroke-width:20px;"/>
                    </g>
                    <path d="M584.639,399.99C584.639,407.377 578.651,413.363 571.264,413.363L518.818,413.363C511.434,413.363 505.445,407.377 505.445,399.99L505.445,347.543C505.445,340.158 511.434,334.17 518.818,334.17L571.264,334.17C578.651,334.17 584.639,340.158 584.639,347.543L584.639,399.99Z" style="fill:none;fill-rule:nonzero;stroke:white;stroke-width:20px;"/>
                    <path d="M584.639,276.693C584.639,284.08 578.651,290.066 571.264,290.066L518.818,290.066C511.434,290.066 505.445,284.08 505.445,276.693L505.445,224.247C505.445,216.862 511.434,210.874 518.818,210.874L571.264,210.874C578.651,210.874 584.639,216.862 584.639,224.247L584.639,276.693Z" style="fill:none;fill-rule:nonzero;stroke:white;stroke-width:20px;"/>
                    <path d="M619.373,90.785L619.373,149.639C619.373,155.834 614.359,160.849 608.163,160.849L516.668,160.849C510.471,160.849 505.444,155.834 505.444,149.639L505.444,58.144C505.444,51.948 510.47,46.922 516.668,46.922L567.097,46.922C595.971,46.921 619.373,66.557 619.373,90.785Z" style="fill:none;fill-rule:nonzero;stroke:white;stroke-width:20px;"/>
                    <g>
                        <g>
                            <g>
                                <path d="M330.608,357.229C330.608,364.588 324.641,370.556 317.279,370.556L142.364,370.556C135.005,370.556 129.038,364.588 129.038,357.229L129.038,182.314C129.038,174.954 135.005,168.988 142.364,168.988L317.279,168.988C324.641,168.988 330.608,174.954 330.608,182.314L330.608,357.229Z" style="fill:none;fill-rule:nonzero;stroke:white;stroke-width:20px;"/>
                                <g>
                                    <path d="M200.671,168.206L200.671,114.688" style="fill:none;fill-rule:nonzero;stroke:white;stroke-width:20px;"/>
                                    <path d="M258.977,168.206L258.977,114.688" style="fill:none;fill-rule:nonzero;stroke:white;stroke-width:20px;"/>
                                    <path d="M317.279,168.206L317.279,114.688" style="fill:none;fill-rule:nonzero;stroke:white;stroke-width:20px;"/>
                                    <path d="M142.364,168.206L142.364,114.688" style="fill:none;fill-rule:nonzero;stroke:white;stroke-width:20px;"/>
                                </g>
                                <g>
                                    <path d="M200.671,424.854L200.671,371.336" style="fill:none;fill-rule:nonzero;stroke:white;stroke-width:20px;"/>
                                    <path d="M258.977,424.854L258.977,371.336" style="fill:none;fill-rule:nonzero;stroke:white;stroke-width:20px;"/>
                                    <path d="M317.279,424.854L317.279,371.336" style="fill:none;fill-rule:nonzero;stroke:white;stroke-width:20px;"/>
                                    <path d="M142.364,424.854L142.364,371.336" style="fill:none;fill-rule:nonzero;stroke:white;stroke-width:20px;"/>
                                </g>
                            </g>
                            <g>
                                <path d="M128.258,298.924L74.739,298.924" style="fill:none;fill-rule:nonzero;stroke:white;stroke-width:20px;"/>
                                <path d="M128.258,240.62L74.739,240.62" style="fill:none;fill-rule:nonzero;stroke:white;stroke-width:20px;"/>
                                <path d="M128.258,182.314L74.739,182.314" style="fill:none;fill-rule:nonzero;stroke:white;stroke-width:20px;"/>
                                <path d="M128.258,357.229L74.739,357.229" style="fill:none;fill-rule:nonzero;stroke:white;stroke-width:20px;"/>
                            </g>
                            <g>
                                <path d="M384.906,298.924L331.389,298.924" style="fill:none;fill-rule:nonzero;stroke:white;stroke-width:20px;"/>
                                <path d="M384.906,240.62L331.389,240.62" style="fill:none;fill-rule:nonzero;stroke:white;stroke-width:20px;"/>
                                <path d="M384.906,182.314L331.389,182.314" style="fill:none;fill-rule:nonzero;stroke:white;stroke-width:20px;"/>
                                <path d="M384.906,357.229L331.389,357.229" style="fill:none;fill-rule:nonzero;stroke:white;stroke-width:20px;"/>
                            </g>
                        </g>
                        <path d="M278.688,305.309C278.688,312.669 272.721,318.635 265.361,318.635L194.284,318.635C186.926,318.635 180.956,312.669 180.956,305.309L180.956,234.233C180.956,226.873 186.926,220.906 194.284,220.906L265.361,220.906C272.721,220.906 278.688,226.872 278.688,234.233L278.688,305.309Z" style="fill:none;fill-rule:nonzero;stroke:white;stroke-width:20px;"/>
                    </g>
                </g>
            </g>
        </g>
    </g>
</svg>
