<?xml version="1.0" encoding="UTF-8" standalone="no"?><!DOCTYPE svg PUBLIC "-//W3C//DTD SVG 1.1//EN" "http://www.w3.org/Graphics/SVG/1.1/DTD/svg11.dtd"><svg width="100%" height="100%" viewBox="0 0 100 100" version="1.1" xmlns="http://www.w3.org/2000/svg" xmlns:xlink="http://www.w3.org/1999/xlink" xml:space="preserve" xmlns:serif="http://www.serif.com/" style="fill-rule:evenodd;clip-rule:evenodd;stroke-linecap:round;stroke-linejoin:round;stroke-miterlimit:1.5;"><g><g><path d="M12.515,81.012c0,-18.333 13.346,-33.218 29.784,-33.218c7.598,0 14.535,3.18 19.8,8.41" style="fill:none;stroke:#fff;stroke-width:5px;"/><circle cx="42.299" cy="30.308" r="15.275" style="fill:none;stroke:#fff;stroke-width:5px;"/><path d="M45.793,38.159c0,0 0.704,-0.147 1.568,-0.328c1.916,-0.4 3.398,-1.922 3.749,-3.847c0,-0.001 0,-0.001 0,-0.001" style="fill:none;stroke:#fff;stroke-width:5px;"/></g><path d="M68.672,60.707c-0.175,-0.44 -0.158,-0.932 0.047,-1.358c0.206,-0.426 0.58,-0.747 1.033,-0.884c1.292,-0.346 3,-0.756 4.104,-0.756c1.296,0 2.55,0.182 3.738,0.52c0.501,0.148 0.917,0.5 1.146,0.97c0.229,0.47 0.249,1.015 0.056,1.501c0.015,0.007 0.015,0.007 0.015,0.007c-0.385,0.97 -0.054,2.077 0.8,2.675c0.855,0.598 2.008,0.531 2.787,-0.163c0,0 0,0 0,0c0.377,-0.336 0.879,-0.497 1.381,-0.442c0.502,0.054 0.957,0.319 1.254,0.727c0.676,0.999 1.241,2.081 1.656,3.235c0.169,0.491 0.122,1.031 -0.128,1.486c-0.251,0.455 -0.682,0.783 -1.188,0.903c0.005,0.021 0.005,0.021 0.005,0.021c-1.014,0.241 -1.731,1.148 -1.731,2.191c0.001,1.043 0.718,1.949 1.733,2.189c0,0 0,0 0,0c0.511,0.121 0.947,0.452 1.201,0.913c0.253,0.46 0.3,1.006 0.129,1.503c-0.421,1.106 -0.961,2.153 -1.621,3.111c-0.285,0.401 -0.728,0.662 -1.217,0.718c-0.489,0.055 -0.978,-0.1 -1.346,-0.428c-0.013,0.014 -0.013,0.014 -0.013,0.014c-0.779,-0.694 -1.932,-0.761 -2.787,-0.163c-0.854,0.599 -1.185,1.706 -0.8,2.675c0,0 0,0 0,0c0.2,0.503 0.18,1.068 -0.056,1.556c-0.235,0.488 -0.664,0.855 -1.183,1.012c-1.219,0.337 -2.503,0.528 -3.831,0.528c-1.328,0 -2.611,-0.191 -3.825,-0.545c-0.514,-0.156 -0.939,-0.519 -1.173,-1.003c-0.233,-0.484 -0.253,-1.043 -0.055,-1.542c-0.016,-0.006 -0.016,-0.006 -0.016,-0.006c0.385,-0.969 0.054,-2.076 -0.801,-2.675c-0.854,-0.598 -2.008,-0.531 -2.787,0.163c0,0 0,0 0,0c-0.372,0.332 -0.867,0.489 -1.361,0.433c-0.495,-0.056 -0.942,-0.32 -1.23,-0.726c-0.644,-0.969 -1.185,-2.016 -1.584,-3.13c-0.169,-0.49 -0.123,-1.03 0.127,-1.485c0.251,-0.455 0.682,-0.783 1.187,-0.902c-0.005,-0.021 -0.005,-0.021 -0.005,-0.021c1.015,-0.24 1.732,-1.146 1.732,-2.189c0,-1.043 -0.716,-1.95 -1.731,-2.191c0,0 0,0 0,0c-0.512,-0.121 -0.948,-0.453 -1.202,-0.914c-0.254,-0.46 -0.3,-1.007 -0.129,-1.504c0.44,-1.16 1.014,-2.253 1.717,-3.248c0.266,-0.364 0.673,-0.599 1.121,-0.647c0.448,-0.048 0.896,0.095 1.233,0.395c0.01,-0.012 0.01,-0.012 0.01,-0.012c0.779,0.694 1.933,0.761 2.787,0.163c0.855,-0.598 1.186,-1.705 0.801,-2.675c0,0 0,0 0,0Zm5.184,6.159c2.469,0 4.473,2.004 4.473,4.473c0,2.468 -2.004,4.472 -4.473,4.472c-2.468,0 -4.472,-2.004 -4.472,-4.472c0,-2.469 2.004,-4.473 4.472,-4.473Zm-13.628,4.329l0,0.28c-0.001,-0.046 -0.001,-0.091 -0.001,-0.136c0,-0.049 0,-0.097 0.001,-0.144Zm27.257,0.001c0,0.047 0,0.095 0,0.143c0,0.045 0,0.09 0,0.136l0,-0.279Z" style="fill:#fff;"/></g></svg>