<?xml version="1.0" encoding="UTF-8" standalone="no"?><!DOCTYPE svg PUBLIC "-//W3C//DTD SVG 1.1//EN" "http://www.w3.org/Graphics/SVG/1.1/DTD/svg11.dtd"><svg width="100%" height="100%" viewBox="0 0 100 100" version="1.1" xmlns="http://www.w3.org/2000/svg" xmlns:xlink="http://www.w3.org/1999/xlink" xml:space="preserve" xmlns:serif="http://www.serif.com/" style="fill-rule:evenodd;clip-rule:evenodd;stroke-linecap:round;stroke-linejoin:round;stroke-miterlimit:1.5;"><g><g><path d="M12.515,81.012c0,-18.333 13.346,-33.218 29.784,-33.218c7.598,0 14.535,3.18 19.8,8.41" style="fill:none;stroke:#fff;stroke-width:5px;"/><circle cx="42.299" cy="30.308" r="15.275" style="fill:none;stroke:#fff;stroke-width:5px;"/><path d="M45.793,38.159c0,0 0.704,-0.147 1.568,-0.328c1.916,-0.4 3.398,-1.922 3.749,-3.847l0,-0.001" style="fill:none;stroke:#fff;stroke-width:5px;"/></g><path d="M68.054,59.203c1.142,-0.318 2.345,-0.487 3.587,-0.487c1.244,0 2.448,0.17 3.591,0.489l-0.292,3.253l3.433,1.982l2.653,-1.867c1.688,1.667 2.934,3.78 3.546,6.147l-2.954,1.37l0,3.963l2.954,1.37c-0.614,2.372 -1.864,4.489 -3.557,6.158l-2.642,-1.859l-3.433,1.982l0.29,3.235c-1.142,0.318 -2.346,0.488 -3.589,0.488c-1.242,0 -2.444,-0.169 -3.585,-0.487l0.29,-3.236l-3.432,-1.982l-2.645,1.861c-1.694,-1.669 -2.944,-3.786 -3.559,-6.158l2.958,-1.372l0,-3.963l-2.958,-1.372c0.613,-2.367 1.86,-4.48 3.547,-6.147l2.657,1.869l3.432,-1.982l-0.292,-3.255Zm3.587,7.526c2.948,0 5.342,2.394 5.342,5.342c0,2.949 -2.394,5.343 -5.342,5.343c-2.949,0 -5.343,-2.394 -5.343,-5.343c0,-2.948 2.394,-5.342 5.343,-5.342Z" style="fill:#fff;"/></g></svg>