<?xml version="1.0" encoding="UTF-8" standalone="no"?>
<!DOCTYPE svg PUBLIC "-//W3C//DTD SVG 1.1//EN" "http://www.w3.org/Graphics/SVG/1.1/DTD/svg11.dtd">
<svg width="100%" height="100%" viewBox="0 0 100 100" version="1.1" xmlns="http://www.w3.org/2000/svg" xmlns:xlink="http://www.w3.org/1999/xlink" xml:space="preserve" xmlns:serif="http://www.serif.com/" style="fill-rule:evenodd;clip-rule:evenodd;stroke-linecap:round;stroke-linejoin:round;stroke-miterlimit:1.5;">
    <g transform="matrix(1,0,0,1,1.29199,0.689061)">
        <path d="M92.851,11.262C92.851,7.851 90.082,5.082 86.671,5.082L10.745,5.082C7.334,5.082 4.565,7.851 4.565,11.262L4.565,87.36C4.565,90.771 7.334,93.54 10.745,93.54L86.671,93.54C90.082,93.54 92.851,90.771 92.851,87.36L92.851,11.262Z" style="fill:none;stroke:white;stroke-width:5px;"/>
    </g>
    <circle cx="24.203" cy="24.203" r="8.786" style="fill:none;stroke:white;stroke-width:5px;"/>
    <g transform="matrix(1,0,0,1,0,-4.84887)">
        <path d="M15.418,49.009L84.6,49.009" style="fill:none;stroke:white;stroke-width:5px;"/>
    </g>
    <g transform="matrix(1,0,0,1,0,5.14251)">
        <path d="M15.418,49.009L84.6,49.009" style="fill:none;stroke:white;stroke-width:5px;"/>
    </g>
    <g transform="matrix(1,0,0,1,0,15.1339)">
        <path d="M15.418,49.009L84.6,49.009" style="fill:none;stroke:white;stroke-width:5px;"/>
    </g>
    <g transform="matrix(0.438666,0,0,0.438666,47.48,52.636)">
        <path d="M15.418,49.009L84.6,49.009" style="fill:none;stroke:white;stroke-width:11.4px;"/>
    </g>
    <g transform="matrix(0.438666,0,0,0.438666,47.4889,62.6274)">
        <path d="M15.418,49.009L84.6,49.009" style="fill:none;stroke:white;stroke-width:11.4px;"/>
    </g>
    <g transform="matrix(1,0,0,1,0,-2.2649)">
        <path d="M43.411,76.4L15.418,76.4L15.418,86.305L43.4,86.391L43.411,76.4Z" style="fill:white;stroke:white;stroke-width:5px;"/>
    </g>
</svg>
