<?xml version="1.0" encoding="UTF-8" standalone="no"?><!DOCTYPE svg PUBLIC "-//W3C//DTD SVG 1.1//EN" "http://www.w3.org/Graphics/SVG/1.1/DTD/svg11.dtd"><svg width="100%" height="100%" viewBox="0 0 100 100" version="1.1" xmlns="http://www.w3.org/2000/svg" xmlns:xlink="http://www.w3.org/1999/xlink" xml:space="preserve" xmlns:serif="http://www.serif.com/" style="fill-rule:evenodd;clip-rule:evenodd;stroke-linecap:round;stroke-linejoin:round;stroke-miterlimit:1.5;"><g><path d="M38.391,46.72c-0.237,1.056 -0.362,2.153 -0.362,3.28c0,8.258 6.705,14.963 14.964,14.963l23.941,0c8.258,0 14.963,-6.705 14.963,-14.963c0,-8.258 -6.705,-14.963 -14.963,-14.963l-7.024,0" style="fill:none;stroke:#fff;stroke-width:5px;"/><path d="M61.609,53.28c0.237,-1.056 0.362,-2.153 0.362,-3.28c0,-8.258 -6.705,-14.963 -14.964,-14.963l-23.941,0c-8.258,0 -14.963,6.705 -14.963,14.963c0,8.258 6.705,14.963 14.963,14.963l7.024,0" style="fill:none;stroke:#fff;stroke-width:5px;"/></g></svg>