<?xml version="1.0" encoding="UTF-8" standalone="no"?><!DOCTYPE svg PUBLIC "-//W3C//DTD SVG 1.1//EN" "http://www.w3.org/Graphics/SVG/1.1/DTD/svg11.dtd"><svg width="100%" height="100%" viewBox="0 0 100 100" version="1.1" xmlns="http://www.w3.org/2000/svg" xmlns:xlink="http://www.w3.org/1999/xlink" xml:space="preserve" xmlns:serif="http://www.serif.com/" style="fill-rule:evenodd;clip-rule:evenodd;stroke-linecap:round;stroke-linejoin:round;stroke-miterlimit:1.5;"><path d="M52.589,74.961c-0.687,0.687 -1.618,1.072 -2.589,1.072c-0.971,0 -1.902,-0.385 -2.589,-1.072c-0.001,0 -0.001,-0.001 -0.002,-0.001c-0.374,-0.374 -0.585,-0.883 -0.585,-1.412c0,-2.423 0,-9.331 0,-9.331c0,0 -0.364,-0.504 -0.861,-1.187c-1.496,-2.066 -1.106,-4.942 0.886,-6.535c1.842,-1.473 4.46,-1.473 6.302,0c1.992,1.593 2.382,4.469 0.886,6.535c-0.497,0.683 -0.861,1.187 -0.861,1.187c0,0 0,6.908 0,9.331c0,0.529 -0.211,1.038 -0.585,1.412c-0.001,0 -0.001,0.001 -0.002,0.001Z" style="fill:none;stroke:#fff;stroke-width:5px;"/><g><path d="M27.866,41.674l0,-10.509l0,0c0,-11.607 9.409,-21.016 21.017,-21.016c0.744,0 1.49,0 2.234,0c11.608,0 21.017,9.409 21.017,21.016l0,10.509" style="fill:none;stroke:#fff;stroke-width:5px;"/><path d="M77.498,45.996c0,-2.385 -1.936,-4.322 -4.323,-4.322l-46.35,0c-2.387,0 -4.323,1.937 -4.323,4.322l0,39.534c0,2.384 1.936,4.321 4.323,4.321l46.35,0c2.387,0 4.323,-1.937 4.323,-4.321l0,-39.534Z" style="fill:none;stroke:#fff;stroke-width:5px;"/></g></svg>