<?xml version="1.0" encoding="UTF-8" standalone="no"?><!DOCTYPE svg PUBLIC "-//W3C//DTD SVG 1.1//EN" "http://www.w3.org/Graphics/SVG/1.1/DTD/svg11.dtd"><svg width="100%" height="100%" viewBox="0 0 100 100" version="1.1" xmlns="http://www.w3.org/2000/svg" xmlns:xlink="http://www.w3.org/1999/xlink" xml:space="preserve" xmlns:serif="http://www.serif.com/" style="fill-rule:evenodd;clip-rule:evenodd;stroke-linecap:round;stroke-linejoin:round;stroke-miterlimit:1.5;"><g><path d="M49.102,63.607c-0.375,0.375 -0.882,0.585 -1.412,0.585c-0.529,0 -1.037,-0.21 -1.411,-0.585l-0.001,0c-0.205,-0.205 -0.319,-0.481 -0.319,-0.77c0,-1.32 0,-5.086 0,-5.086c0,0 -0.199,-0.275 -0.469,-0.648c-0.816,-1.126 -0.604,-2.694 0.482,-3.562c1.005,-0.803 2.432,-0.803 3.436,0c1.086,0.868 1.299,2.436 0.483,3.562c-0.271,0.373 -0.469,0.648 -0.469,0.648c0,0 0,3.766 0,5.086c0,0.289 -0.115,0.565 -0.319,0.77l-0.001,0Z" style="fill:none;stroke:#fff;stroke-width:4.29px;"/><g><path d="M35.624,45.461l0,-5.729c0,-6.327 5.13,-11.458 11.457,-11.458c0.406,0 0.812,0 1.219,0c6.327,0 11.457,5.131 11.457,11.458l0,5.729" style="fill:none;stroke:#fff;stroke-width:5px;"/><path d="M62.681,47.818c0,-1.302 -1.055,-2.357 -2.357,-2.357l-25.267,0c-1.302,0 -2.357,1.055 -2.357,2.357l0,21.551c0,1.3 1.055,2.357 2.357,2.357l25.267,0c1.302,0 2.357,-1.057 2.357,-2.357l0,-21.551Z" style="fill:none;stroke:#fff;stroke-width:5px;"/></g></g><g><path d="M83.975,69.751c-7.01,12.84 -20.637,21.559 -36.285,21.559c-22.799,0 -41.309,-18.511 -41.309,-41.31c0,-22.799 18.51,-41.31 41.309,-41.31c22.8,0 41.31,18.511 41.31,41.31c0,0.809 -0.023,1.613 -0.069,2.411" style="fill:none;stroke:#fff;stroke-width:5px;"/><path d="M81,46.369l7.924,7.262l8.076,-7.201" style="fill:none;stroke:#fff;stroke-width:5px;"/></g></svg>