<?xml version="1.0" encoding="UTF-8" standalone="no"?><!DOCTYPE svg PUBLIC "-//W3C//DTD SVG 1.1//EN" "http://www.w3.org/Graphics/SVG/1.1/DTD/svg11.dtd"><svg width="100%" height="100%" viewBox="0 0 417 417" version="1.1" xmlns="http://www.w3.org/2000/svg" xmlns:xlink="http://www.w3.org/1999/xlink" xml:space="preserve" xmlns:serif="http://www.serif.com/" style="fill-rule:evenodd;clip-rule:evenodd;stroke-linejoin:round;stroke-miterlimit:2;"><path d="M0,0l0,250l250,-0l-0,-250l-250,0Zm41.667,41.667l166.666,-0c0,-0 0,166.666 0,166.666c0,0 -166.666,0 -166.666,0c-0,0 -0,-166.666 -0,-166.666Z" style="fill:#fff;"/><path d="M72.917,72.917l-0,104.166l104.166,0l0,-104.166l-104.166,-0Zm41.666,41.666l20.834,0c-0,0 -0,20.834 -0,20.834c-0,-0 -20.834,-0 -20.834,-0l0,-20.834Z" style="fill:#fff;"/><rect x="375" y="0" width="41.667" height="41.667" style="fill:#fff;"/><rect x="333.333" y="41.667" width="41.667" height="41.667" style="fill:#fff;"/><rect x="291.667" y="41.667" width="41.667" height="41.667" style="fill:#fff;"/><rect x="291.667" y="83.333" width="41.667" height="41.667" style="fill:#fff;"/><rect x="333.333" y="166.667" width="41.667" height="41.667" style="fill:#fff;"/><rect x="291.667" y="125" width="41.667" height="41.667" style="fill:#fff;"/><rect x="375" y="125" width="41.667" height="41.667" style="fill:#fff;"/><rect x="41.667" y="291.667" width="41.667" height="41.667" style="fill:#fff;"/><rect x="41.667" y="333.333" width="41.667" height="41.667" style="fill:#fff;"/><rect x="83.333" y="375" width="41.667" height="41.667" style="fill:#fff;"/><rect x="83.333" y="291.667" width="41.667" height="41.667" style="fill:#fff;"/><rect x="166.667" y="333.333" width="41.667" height="41.667" style="fill:#fff;"/><rect x="208.333" y="375" width="41.667" height="41.667" style="fill:#fff;"/><rect x="208.333" y="333.333" width="41.667" height="41.667" style="fill:#fff;"/><rect x="250" y="333.333" width="41.667" height="41.667" style="fill:#fff;"/><rect x="333.333" y="291.667" width="41.667" height="41.667" style="fill:#fff;"/><rect x="375" y="333.333" width="41.667" height="41.667" style="fill:#fff;"/><rect x="375" y="375" width="41.667" height="41.667" style="fill:#fff;"/><rect x="291.667" y="375" width="41.667" height="41.667" style="fill:#fff;"/><rect x="291.667" y="208.333" width="41.667" height="41.667" style="fill:#fff;"/><rect x="333.333" y="208.333" width="41.667" height="41.667" style="fill:#fff;"/><rect x="166.667" y="291.667" width="41.667" height="41.667" style="fill:#fff;"/><rect x="125" y="375" width="41.667" height="41.667" style="fill:#fff;"/><rect x="0" y="333.333" width="41.667" height="41.667" style="fill:#fff;"/><rect x="375" y="208.333" width="41.667" height="41.667" style="fill:#fff;"/><rect x="375" y="250" width="41.667" height="41.667" style="fill:#fff;"/></svg>