<?xml version="1.0" encoding="UTF-8" standalone="no"?><!DOCTYPE svg PUBLIC "-//W3C//DTD SVG 1.1//EN" "http://www.w3.org/Graphics/SVG/1.1/DTD/svg11.dtd"><svg width="100%" height="100%" viewBox="0 0 100 100" version="1.1" xmlns="http://www.w3.org/2000/svg" xmlns:xlink="http://www.w3.org/1999/xlink" xml:space="preserve" xmlns:serif="http://www.serif.com/" style="fill-rule:evenodd;clip-rule:evenodd;stroke-linecap:round;stroke-linejoin:round;stroke-miterlimit:1.5;"><g><path d="M43.038,25.02c2.216,-0.618 4.551,-0.948 6.962,-0.948c2.415,0 4.753,0.331 6.972,0.95l-0.567,6.315l6.663,3.848l5.152,-3.625c3.276,3.237 5.694,7.339 6.883,11.934l-5.734,2.659l0,7.694l5.734,2.659c-1.191,4.605 -3.618,8.715 -6.905,11.955l-5.13,-3.608l-6.663,3.847l0.563,6.279c-2.217,0.618 -4.554,0.949 -6.968,0.949c-2.41,0 -4.744,-0.33 -6.959,-0.946l0.564,-6.282l-6.664,-3.847l-5.135,3.612c-3.288,-3.24 -5.715,-7.35 -6.908,-11.955l5.743,-2.663l0,-7.694l-5.743,-2.663c1.19,-4.595 3.61,-8.697 6.886,-11.933l5.157,3.628l6.664,-3.848l-0.567,-6.317Zm6.962,14.609c5.724,0 10.371,4.647 10.371,10.371c0,5.724 -4.647,10.371 -10.371,10.371c-5.724,0 -10.371,-4.647 -10.371,-10.371c0,-5.724 4.647,-10.371 10.371,-10.371Z" style="fill:none;stroke:#fff;stroke-width:5px;"/><path d="M50,4.472c-25.112,0 -45.5,20.388 -45.5,45.5c0,25.112 20.388,45.5 45.5,45.5c4.277,0 0,0 0,0l45.442,0.056l0.058,-45.556c0,0 0,1.503 0,0c0,-25.112 -20.388,-45.5 -45.5,-45.5Z" style="fill:none;stroke:#fff;stroke-width:5px;"/></g></svg>