<?xml version="1.0" encoding="UTF-8" standalone="no"?><!DOCTYPE svg PUBLIC "-//W3C//DTD SVG 1.1//EN" "http://www.w3.org/Graphics/SVG/1.1/DTD/svg11.dtd"><svg width="100%" height="100%" viewBox="0 0 100 100" version="1.1" xmlns="http://www.w3.org/2000/svg" xmlns:xlink="http://www.w3.org/1999/xlink" xml:space="preserve" xmlns:serif="http://www.serif.com/" style="fill-rule:evenodd;clip-rule:evenodd;stroke-linecap:round;stroke-linejoin:round;stroke-miterlimit:1.5;">

<style>
.animate {
  animation: -anim-save 1s infinite;
}


@keyframes -anim-save {
  0% {
    transform: translate(2.5px, 0);
  }
  50% {
    transform: translate(-5px, 0);
  }
  100% {
    transform: translate(2.5px, 0);
  }
}
  </style>

<g><path d="M65,29l0,-7c0,-2.208 -1.792,-4 -4,-4l-52,0c-2.208,0 -4,1.792 -4,4l0,56c0,2.208 1.792,4 4,4l46,0l10,-10l0,-0.963" style="fill:none;stroke:#ffffff;stroke-width:5px;"/><path d="M20.6,82l0,-20l28.8,0l0,20" style="fill:none;stroke:#ffffff;stroke-width:5px;"/><path d="M17,30l28.859,0" style="fill:none;stroke:#ffffff;stroke-width:5px;"/><path d="M17,38l19.442,0" style="fill:none;stroke:#ffffff;stroke-width:5px;"/><path d="M17,46l24.981,0" style="fill:none;stroke:#ffffff;stroke-width:5px;"/><path d="M27,68l0.07,8" style="fill:none;stroke:#ffffff;stroke-width:5px;"/></g><g class="animate"><path d="M95.018,50l-39.486,0l39.486,0Z" style="fill:none;stroke:#ffffff;stroke-width:5px;"/><path d="M69.029,36.503l-13.497,13.497" style="fill:none;stroke:#ffffff;stroke-width:5px;"/><path d="M69.029,63.497l-13.497,-13.497" style="fill:none;stroke:#ffffff;stroke-width:5px;"/></g></svg>