<?xml version="1.0" encoding="UTF-8" standalone="no"?><!DOCTYPE svg PUBLIC "-//W3C//DTD SVG 1.1//EN" "http://www.w3.org/Graphics/SVG/1.1/DTD/svg11.dtd"><svg width="100%" height="100%" viewBox="0 0 100 100" version="1.1" xmlns="http://www.w3.org/2000/svg" xmlns:xlink="http://www.w3.org/1999/xlink" xml:space="preserve" xmlns:serif="http://www.serif.com/" style="fill-rule:evenodd;clip-rule:evenodd;stroke-linecap:round;stroke-linejoin:round;stroke-miterlimit:1.5;"><g><g><path d="M35.973,76.7l0.257,0.049l0.251,0.075l0.241,0.101l0.229,0.126l0.147,0.091l0.162,0.099l0.162,0.097l0.163,0.097l0.164,0.096l0.164,0.095l0.165,0.094l0.165,0.093l0.166,0.092l0.167,0.092l0.167,0.09l0.168,0.089l0.169,0.088l0.169,0.087l0.169,0.087l0.17,0.085l0.171,0.084l0.171,0.084l0.172,0.082l0.173,0.081l0.173,0.08l0.173,0.08l0.174,0.078l0.175,0.077l0.175,0.076l0.176,0.076l0.176,0.074l0.177,0.073l0.177,0.072l0.178,0.071l0.178,0.07l0.179,0.069l0.18,0.068l0.18,0.067l0.18,0.066l0.181,0.064l0.181,0.064l0.182,0.063l0.183,0.061l0.183,0.061l0.183,0.059l0.184,0.058l0.184,0.058l0.185,0.056l0.185,0.055l0.186,0.054l0.186,0.053l0.187,0.051l0.187,0.051l0.188,0.049l0.188,0.049l0.188,0.047l0.189,0.046l0.19,0.045l0.19,0.044l0.19,0.043l0.19,0.042l0.192,0.04l0.191,0.039l0.192,0.039l0.192,0.037l0.193,0.035l0.193,0.035l0.194,0.034l0.194,0.032l0.194,0.031l0.195,0.03l0.195,0.029l0.196,0.028l0.196,0.026l0.196,0.026l0.197,0.024l0.197,0.022l0.198,0.022l0.197,0.021l0.199,0.019l0.198,0.018l0.199,0.017l0.2,0.015l0.199,0.015l0.2,0.013l0.201,0.012l0.2,0.011l0.201,0.009l0.202,0.008l0.201,0.007l0.203,0.006l0.202,0.004l0.203,0.003l0.203,0.002l0.203,0.001l0.206,-0.001l0.206,-0.002l0.205,-0.003l0.205,-0.004l0.205,-0.006l0.204,-0.007l0.204,-0.009l0.204,-0.01l0.203,-0.01l0.203,-0.013l0.203,-0.013l0.202,-0.015l0.202,-0.016l0.201,-0.017l0.202,-0.019l0.2,-0.02l0.201,-0.021l0.2,-0.022l0.199,-0.023l0.2,-0.025l0.198,-0.026l0.199,-0.027l0.198,-0.029l0.198,-0.029l0.197,-0.031l0.197,-0.032l0.196,-0.033l0.038,-0.007l0.26,-0.032l0.261,-0.004l0.261,0.023l0.257,0.05l0.25,0.077l0.241,0.102l0.228,0.127l0.215,0.151l0.197,0.171l0.178,0.192l0.158,0.209l0.134,0.224l0.111,0.238l0.085,0.247l0.058,0.255l0.032,0.26l0.005,0.262l-0.023,0.26l-0.051,0.257l-0.076,0.25l-0.103,0.241l-0.127,0.229l-0.15,0.214l-0.172,0.197l-0.191,0.179l-0.209,0.157l-0.225,0.135l-0.237,0.11l-0.247,0.085l-0.255,0.059l-0.054,0.009l-0.227,0.039l-0.228,0.037l-0.228,0.035l-0.229,0.035l-0.229,0.032l-0.23,0.032l-0.23,0.03l-0.231,0.029l-0.231,0.027l-0.231,0.025l-0.232,0.025l-0.232,0.023l-0.233,0.021l-0.233,0.02l-0.233,0.019l-0.234,0.017l-0.234,0.015l-0.235,0.014l-0.235,0.013l-0.235,0.011l-0.236,0.01l-0.236,0.008l-0.236,0.007l-0.237,0.005l-0.237,0.004l-0.237,0.002l-0.238,0.001l-0.235,-0.001l-0.234,-0.002l-0.234,-0.004l-0.234,-0.005l-0.233,-0.006l-0.233,-0.008l-0.233,-0.01l-0.232,-0.011l-0.232,-0.012l-0.231,-0.014l-0.232,-0.015l-0.23,-0.017l-0.231,-0.018l-0.23,-0.019l-0.229,-0.021l-0.23,-0.022l-0.229,-0.024l-0.228,-0.025l-0.228,-0.027l-0.228,-0.027l-0.227,-0.03l-0.227,-0.03l-0.226,-0.032l-0.226,-0.034l-0.226,-0.034l-0.225,-0.037l-0.224,-0.037l-0.224,-0.039l-0.224,-0.04l-0.223,-0.042l-0.223,-0.043l-0.222,-0.044l-0.222,-0.045l-0.222,-0.047l-0.22,-0.048l-0.221,-0.05l-0.22,-0.051l-0.219,-0.052l-0.219,-0.053l-0.218,-0.055l-0.218,-0.056l-0.217,-0.058l-0.093,-0.024l-0.124,-0.034l-0.217,-0.06l-0.215,-0.061l-0.216,-0.063l-0.214,-0.064l-0.214,-0.065l-0.214,-0.066l-0.213,-0.067l-0.212,-0.069l-0.212,-0.07l-0.211,-0.072l-0.211,-0.072l-0.21,-0.074l-0.21,-0.075l-0.209,-0.076l-0.208,-0.078l-0.208,-0.078l-0.207,-0.08l-0.207,-0.081l-0.206,-0.083l-0.205,-0.083l-0.205,-0.085l-0.204,-0.086l-0.204,-0.087l-0.203,-0.088l-0.202,-0.089l-0.201,-0.091l-0.201,-0.092l-0.201,-0.093l-0.199,-0.094l-0.199,-0.095l-0.199,-0.097l-0.197,-0.097l-0.197,-0.099l-0.197,-0.1l-0.195,-0.101l-0.195,-0.102l-0.194,-0.103l-0.194,-0.104l-0.193,-0.106l-0.192,-0.107l-0.191,-0.107l-0.191,-0.109l-0.19,-0.11l-0.19,-0.111l-0.188,-0.112l-0.188,-0.113l-0.187,-0.114l-0.16,-0.099l-0.215,-0.149l-0.198,-0.171l-0.179,-0.191l-0.159,-0.208l-0.135,-0.224l-0.112,-0.236l-0.086,-0.247l-0.06,-0.255l-0.033,-0.26l-0.006,-0.261l0.022,-0.261l0.048,-0.257l0.076,-0.251l0.101,-0.241l0.126,-0.229l0.149,-0.215l0.171,-0.199l0.19,-0.179l0.209,-0.158l0.223,-0.136l0.237,-0.112l0.247,-0.086l0.255,-0.06l0.259,-0.033l0.262,-0.006l0.261,0.022Zm51.485,-21.255l0.258,0.046l0.251,0.073l0.242,0.099l0.231,0.123l0.216,0.147l0.2,0.169l0.181,0.189l0.161,0.207l0.138,0.222l0.114,0.236l0.088,0.246l0.063,0.254l0.035,0.259l0.009,0.262l-0.02,0.261l-0.046,0.257l-0.009,0.04l-0.054,0.222l-0.055,0.222l-0.056,0.221l-0.057,0.22l-0.059,0.22l-0.06,0.219l-0.062,0.219l-0.063,0.219l-0.064,0.217l-0.065,0.218l-0.067,0.216l-0.068,0.216l-0.069,0.216l-0.071,0.214l-0.071,0.215l-0.074,0.214l-0.074,0.213l-0.076,0.212l-0.076,0.212l-0.079,0.211l-0.079,0.211l-0.081,0.21l-0.082,0.21l-0.083,0.209l-0.084,0.208l-0.086,0.207l-0.087,0.207l-0.088,0.207l-0.089,0.205l-0.091,0.205l-0.091,0.205l-0.093,0.203l-0.094,0.203l-0.096,0.203l-0.096,0.201l-0.098,0.201l-0.099,0.201l-0.1,0.199l-0.101,0.199l-0.102,0.198l-0.104,0.198l-0.104,0.197l-0.106,0.196l-0.107,0.195l-0.108,0.195l-0.109,0.194l-0.111,0.193l-0.111,0.192l-0.113,0.192l-0.114,0.191l-0.114,0.19l-0.116,0.19l-0.117,0.188l-0.119,0.188l-0.119,0.188l-0.12,0.186l-0.122,0.186l-0.122,0.184l-0.124,0.185l-0.125,0.183l-0.125,0.182l-0.127,0.182l-0.128,0.181l-0.129,0.18l-0.13,0.179l-0.131,0.179l-0.132,0.177l-0.133,0.177l-0.134,0.176l-0.135,0.175l-0.137,0.175l-0.098,0.124l-0.039,0.049l-0.138,0.173l-0.139,0.172l-0.14,0.171l-0.142,0.17l-0.142,0.169l-0.143,0.168l-0.144,0.168l-0.146,0.166l-0.146,0.166l-0.147,0.165l-0.148,0.164l-0.149,0.163l-0.15,0.162l-0.151,0.161l-0.152,0.16l-0.153,0.16l-0.154,0.158l-0.155,0.158l-0.155,0.157l-0.157,0.155l-0.158,0.155l-0.158,0.154l-0.159,0.153l-0.161,0.152l-0.161,0.151l-0.162,0.15l-0.163,0.149l-0.164,0.148l-0.165,0.147l-0.166,0.146l-0.166,0.146l-0.168,0.144l-0.168,0.143l-0.169,0.142l-0.17,0.142l-0.171,0.14l-0.172,0.139l-0.173,0.138l-0.173,0.137l-0.175,0.137l-0.175,0.135l-0.176,0.134l-0.177,0.133l-0.177,0.132l-0.179,0.131l-0.179,0.13l-0.18,0.129l-0.181,0.128l-0.047,0.033l-0.222,0.138l-0.236,0.115l-0.246,0.089l-0.254,0.063l-0.259,0.036l-0.261,0.008l-0.262,-0.018l-0.257,-0.046l-0.252,-0.073l-0.242,-0.098l-0.231,-0.123l-0.217,-0.147l-0.2,-0.168l-0.181,-0.189l-0.161,-0.206l-0.138,-0.223l-0.115,-0.235l-0.089,-0.246l-0.063,-0.254l-0.036,-0.259l-0.009,-0.262l0.019,-0.261l0.046,-0.257l0.072,-0.252l0.099,-0.242l0.123,-0.231l0.147,-0.217l0.168,-0.2l0.189,-0.182l0.206,-0.16l0.035,-0.025l0.157,-0.11l0.155,-0.112l0.155,-0.112l0.155,-0.113l0.153,-0.115l0.153,-0.115l0.153,-0.116l0.151,-0.117l0.151,-0.118l0.15,-0.118l0.149,-0.12l0.149,-0.12l0.148,-0.121l0.147,-0.123l0.146,-0.123l0.146,-0.124l0.145,-0.124l0.144,-0.126l0.143,-0.126l0.143,-0.128l0.142,-0.128l0.141,-0.129l0.14,-0.13l0.139,-0.13l0.139,-0.132l0.138,-0.132l0.137,-0.133l0.137,-0.134l0.135,-0.135l0.135,-0.135l0.134,-0.137l0.133,-0.137l0.132,-0.138l0.132,-0.139l0.13,-0.139l0.13,-0.14l0.129,-0.141l0.128,-0.142l0.128,-0.143l0.126,-0.143l0.126,-0.144l0.124,-0.145l0.124,-0.146l0.123,-0.146l0.122,-0.147l0.122,-0.148l0.12,-0.149l0.12,-0.149l0.029,-0.037l0.09,-0.113l0.117,-0.151l0.117,-0.151l0.116,-0.153l0.115,-0.153l0.115,-0.153l0.113,-0.155l0.112,-0.155l0.112,-0.155l0.11,-0.157l0.11,-0.157l0.109,-0.158l0.107,-0.158l0.107,-0.159l0.106,-0.16l0.105,-0.161l0.104,-0.161l0.103,-0.162l0.103,-0.162l0.101,-0.163l0.1,-0.164l0.099,-0.164l0.099,-0.166l0.097,-0.165l0.096,-0.167l0.096,-0.167l0.094,-0.167l0.093,-0.168l0.093,-0.169l0.091,-0.17l0.091,-0.17l0.089,-0.17l0.089,-0.171l0.087,-0.172l0.086,-0.173l0.086,-0.173l0.084,-0.173l0.083,-0.175l0.083,-0.174l0.081,-0.176l0.08,-0.175l0.079,-0.177l0.079,-0.177l0.077,-0.178l0.076,-0.178l0.075,-0.178l0.074,-0.18l0.073,-0.179l0.071,-0.181l0.071,-0.181l0.07,-0.181l0.068,-0.182l0.068,-0.182l0.066,-0.183l0.065,-0.184l0.065,-0.184l0.063,-0.184l0.062,-0.185l0.061,-0.186l0.06,-0.186l0.058,-0.186l0.058,-0.187l0.056,-0.188l0.056,-0.187l0.054,-0.189l0.053,-0.189l0.052,-0.189l0.051,-0.19l0.049,-0.19l0.049,-0.191l0.047,-0.191l0.046,-0.192l0.006,-0.025l0.073,-0.251l0.099,-0.242l0.123,-0.231l0.147,-0.216l0.169,-0.2l0.189,-0.181l0.207,-0.161l0.222,-0.138l0.236,-0.114l0.246,-0.088l0.254,-0.063l0.259,-0.035l0.262,-0.009l0.261,0.02Zm-61.698,-27.535l0.259,0.036l0.254,0.063l0.246,0.089l0.235,0.114l0.223,0.139l0.206,0.16l0.189,0.182l0.168,0.2l0.147,0.217l0.123,0.231l0.098,0.242l0.073,0.252l0.046,0.257l0.018,0.261l-0.008,0.262l-0.036,0.259l-0.063,0.254l-0.089,0.246l-0.115,0.235l-0.138,0.222l-0.043,0.062l-0.109,0.158l-0.108,0.158l-0.106,0.159l-0.106,0.16l-0.105,0.161l-0.104,0.161l-0.103,0.162l-0.103,0.162l-0.101,0.163l-0.1,0.164l-0.099,0.164l-0.099,0.166l-0.097,0.165l-0.096,0.167l-0.096,0.166l-0.094,0.168l-0.093,0.168l-0.093,0.169l-0.091,0.17l-0.091,0.17l-0.089,0.17l-0.089,0.171l-0.087,0.172l-0.086,0.173l-0.086,0.173l-0.084,0.173l-0.083,0.174l-0.083,0.175l-0.081,0.176l-0.08,0.175l-0.079,0.177l-0.079,0.177l-0.077,0.178l-0.076,0.178l-0.075,0.178l-0.074,0.18l-0.073,0.179l-0.071,0.181l-0.071,0.181l-0.07,0.181l-0.068,0.182l-0.068,0.182l-0.066,0.183l-0.066,0.184l-0.064,0.184l-0.063,0.184l-0.062,0.185l-0.038,0.116l-0.023,0.07l-0.06,0.186l-0.058,0.186l-0.058,0.187l-0.056,0.188l-0.056,0.188l-0.054,0.188l-0.053,0.189l-0.052,0.189l-0.051,0.19l-0.049,0.19l-0.049,0.191l-0.047,0.191l-0.046,0.192l-0.045,0.192l-0.044,0.193l-0.043,0.193l-0.041,0.193l-0.041,0.194l-0.039,0.194l-0.038,0.195l-0.037,0.195l-0.035,0.196l-0.035,0.196l-0.033,0.196l-0.032,0.197l-0.031,0.197l-0.029,0.198l-0.029,0.198l-0.027,0.199l-0.026,0.198l-0.025,0.2l-0.023,0.199l-0.022,0.2l-0.021,0.201l-0.02,0.2l-0.019,0.202l-0.017,0.201l-0.016,0.202l-0.015,0.202l-0.013,0.203l-0.013,0.203l-0.01,0.203l-0.01,0.204l-0.009,0.204l-0.007,0.204l-0.006,0.205l-0.004,0.205l-0.003,0.205l-0.002,0.206l-0.001,0.205l0.001,0.244l0.003,0.242l0.004,0.242l0.007,0.241l0.008,0.242l0.01,0.24l0.011,0.24l0.014,0.24l0.015,0.239l0.017,0.239l0.019,0.238l0.02,0.238l0.022,0.237l0.024,0.237l0.026,0.236l0.028,0.245l0.017,0.261l-0.011,0.262l-0.038,0.258l-0.065,0.254l-0.091,0.245l-0.117,0.235l-0.14,0.221l-0.162,0.205l-0.183,0.187l-0.202,0.167l-0.218,0.144l-0.232,0.122l-0.243,0.096l-0.252,0.071l-0.258,0.043l-0.261,0.017l-0.262,-0.011l-0.258,-0.038l-0.254,-0.065l-0.245,-0.091l-0.235,-0.117l-0.221,-0.14l-0.205,-0.162l-0.187,-0.183l-0.167,-0.202l-0.144,-0.218l-0.122,-0.232l-0.096,-0.243l-0.071,-0.252l-0.043,-0.258l-0.031,-0.263l-0.029,-0.273l-0.028,-0.274l-0.026,-0.274l-0.023,-0.274l-0.022,-0.276l-0.02,-0.275l-0.017,-0.277l-0.016,-0.277l-0.013,-0.277l-0.012,-0.278l-0.009,-0.278l-0.008,-0.279l-0.005,-0.28l-0.003,-0.28l-0.001,-0.279l0.001,-0.239l0.002,-0.237l0.004,-0.237l0.005,-0.237l0.007,-0.236l0.008,-0.236l0.01,-0.236l0.011,-0.235l0.013,-0.235l0.014,-0.235l0.015,-0.234l0.017,-0.234l0.019,-0.233l0.02,-0.233l0.021,-0.233l0.023,-0.232l0.025,-0.232l0.025,-0.231l0.027,-0.231l0.029,-0.231l0.03,-0.23l0.032,-0.23l0.032,-0.229l0.035,-0.229l0.035,-0.228l0.037,-0.228l0.039,-0.227l0.04,-0.227l0.041,-0.227l0.043,-0.226l0.044,-0.225l0.045,-0.225l0.047,-0.225l0.048,-0.224l0.049,-0.224l0.051,-0.223l0.052,-0.222l0.054,-0.222l0.055,-0.222l0.056,-0.221l0.057,-0.22l0.059,-0.22l0.06,-0.219l0.062,-0.219l0.063,-0.219l0.064,-0.217l0.065,-0.218l0.067,-0.216l0.068,-0.216l0.069,-0.216l0.028,-0.084l0.043,-0.131l0.071,-0.214l0.074,-0.214l0.074,-0.213l0.076,-0.212l0.076,-0.212l0.079,-0.211l0.079,-0.211l0.081,-0.21l0.082,-0.21l0.083,-0.209l0.084,-0.208l0.086,-0.207l0.087,-0.207l0.088,-0.207l0.089,-0.205l0.091,-0.205l0.091,-0.205l0.093,-0.203l0.094,-0.203l0.096,-0.203l0.096,-0.201l0.098,-0.201l0.099,-0.201l0.1,-0.199l0.101,-0.199l0.102,-0.198l0.104,-0.198l0.104,-0.197l0.106,-0.196l0.107,-0.195l0.108,-0.195l0.109,-0.194l0.111,-0.193l0.111,-0.192l0.113,-0.192l0.114,-0.191l0.114,-0.19l0.116,-0.19l0.117,-0.188l0.119,-0.188l0.119,-0.188l0.12,-0.186l0.122,-0.186l0.122,-0.184l0.124,-0.185l0.125,-0.183l0.125,-0.182l0.052,-0.074l0.161,-0.207l0.181,-0.188l0.2,-0.169l0.217,-0.146l0.231,-0.123l0.242,-0.099l0.252,-0.072l0.257,-0.046l0.261,-0.019l0.262,0.009Zm48.725,-7.956l0.258,0.044l0.252,0.07l0.243,0.096l0.232,0.122l0.218,0.145l0.078,0.058l0.177,0.133l0.176,0.134l0.175,0.135l0.175,0.137l0.173,0.137l0.173,0.138l0.172,0.139l0.171,0.14l0.17,0.142l0.169,0.142l0.168,0.143l0.168,0.144l0.166,0.146l0.166,0.146l0.165,0.147l0.164,0.148l0.163,0.149l0.162,0.15l0.161,0.151l0.161,0.152l0.159,0.153l0.158,0.154l0.158,0.155l0.157,0.155l0.155,0.157l0.155,0.158l0.154,0.158l0.153,0.159l0.152,0.161l0.151,0.161l0.15,0.162l0.149,0.163l0.148,0.164l0.147,0.165l0.146,0.166l0.146,0.166l0.144,0.168l0.143,0.168l0.142,0.169l0.142,0.17l0.14,0.171l0.139,0.172l0.138,0.173l0.137,0.173l0.137,0.175l0.135,0.175l0.134,0.176l0.133,0.177l0.132,0.177l0.131,0.179l0.13,0.179l0.129,0.18l0.128,0.181l0.127,0.182l0.125,0.182l0.125,0.183l0.124,0.185l0.122,0.184l0.122,0.186l0.12,0.186l0.119,0.188l0.119,0.188l0.117,0.188l0.116,0.19l0.114,0.19l0.114,0.191l0.113,0.192l0.111,0.192l0.111,0.193l0.109,0.194l0.108,0.195l0.107,0.195l0.106,0.196l0.104,0.197l0.104,0.198l0.102,0.198l0.101,0.199l0.1,0.199l0.099,0.201l0.098,0.201l0.096,0.201l0.096,0.203l0.094,0.203l0.093,0.203l0.091,0.205l0.091,0.205l0.089,0.205l0.088,0.207l0.087,0.207l0.086,0.207l0.084,0.208l0.083,0.209l0.082,0.21l0.081,0.21l0.079,0.211l0.079,0.211l0.076,0.212l0.076,0.212l0.074,0.213l0.074,0.214l0.071,0.215l0.071,0.214l0.069,0.216l0.068,0.216l0.067,0.216l0.065,0.218l0.064,0.217l0.063,0.219l0.062,0.219l0.06,0.219l0.059,0.22l0.057,0.22l0.056,0.221l0.055,0.222l0.054,0.222l0.052,0.222l0.051,0.223l0.049,0.224l0.048,0.224l0.037,0.177l0.04,0.258l0.013,0.262l-0.015,0.261l-0.042,0.258l-0.069,0.253l-0.095,0.244l-0.12,0.232l-0.143,0.219l-0.166,0.203l-0.185,0.184l-0.205,0.164l-0.22,0.141l-0.233,0.118l-0.245,0.093l-0.253,0.067l-0.259,0.039l-0.261,0.013l-0.261,-0.015l-0.259,-0.042l-0.252,-0.069l-0.244,-0.094l-0.233,-0.12l-0.218,-0.144l-0.203,-0.165l-0.184,-0.186l-0.164,-0.204l-0.142,-0.22l-0.118,-0.234l-0.092,-0.244l-0.067,-0.253l-0.034,-0.162l-0.041,-0.193l-0.043,-0.193l-0.044,-0.193l-0.045,-0.192l-0.046,-0.192l-0.047,-0.191l-0.049,-0.191l-0.049,-0.19l-0.051,-0.19l-0.052,-0.189l-0.053,-0.189l-0.054,-0.189l-0.056,-0.187l-0.056,-0.188l-0.058,-0.187l-0.058,-0.186l-0.06,-0.186l-0.061,-0.186l-0.062,-0.185l-0.063,-0.184l-0.065,-0.184l-0.065,-0.184l-0.066,-0.183l-0.068,-0.182l-0.068,-0.182l-0.07,-0.181l-0.071,-0.181l-0.071,-0.181l-0.073,-0.179l-0.074,-0.18l-0.075,-0.178l-0.076,-0.178l-0.077,-0.178l-0.079,-0.177l-0.079,-0.177l-0.08,-0.175l-0.081,-0.176l-0.083,-0.174l-0.083,-0.175l-0.084,-0.173l-0.086,-0.173l-0.086,-0.173l-0.087,-0.172l-0.089,-0.171l-0.089,-0.17l-0.091,-0.17l-0.071,-0.133l-0.02,-0.037l-0.093,-0.169l-0.093,-0.168l-0.094,-0.167l-0.096,-0.167l-0.096,-0.167l-0.097,-0.165l-0.099,-0.166l-0.099,-0.164l-0.1,-0.164l-0.101,-0.163l-0.103,-0.162l-0.103,-0.162l-0.104,-0.161l-0.105,-0.161l-0.106,-0.16l-0.107,-0.159l-0.107,-0.158l-0.109,-0.158l-0.11,-0.157l-0.11,-0.157l-0.112,-0.155l-0.112,-0.155l-0.113,-0.155l-0.115,-0.153l-0.115,-0.153l-0.116,-0.153l-0.117,-0.151l-0.118,-0.151l-0.118,-0.15l-0.12,-0.149l-0.12,-0.149l-0.122,-0.148l-0.122,-0.147l-0.123,-0.146l-0.124,-0.146l-0.124,-0.145l-0.126,-0.144l-0.126,-0.143l-0.128,-0.143l-0.128,-0.142l-0.129,-0.141l-0.13,-0.14l-0.13,-0.139l-0.132,-0.139l-0.132,-0.138l-0.133,-0.137l-0.134,-0.137l-0.135,-0.135l-0.135,-0.135l-0.137,-0.134l-0.137,-0.133l-0.138,-0.132l-0.139,-0.132l-0.139,-0.13l-0.14,-0.13l-0.141,-0.129l-0.142,-0.128l-0.143,-0.128l-0.143,-0.126l-0.144,-0.126l-0.145,-0.124l-0.146,-0.124l-0.146,-0.123l-0.147,-0.123l-0.148,-0.121l-0.149,-0.12l-0.149,-0.12l-0.15,-0.118l-0.151,-0.118l-0.151,-0.117l-0.153,-0.116l-0.153,-0.115l-0.066,-0.05l-0.201,-0.166l-0.183,-0.187l-0.163,-0.206l-0.14,-0.221l-0.116,-0.234l-0.091,-0.245l-0.065,-0.254l-0.038,-0.259l-0.011,-0.261l0.016,-0.261l0.044,-0.258l0.071,-0.252l0.096,-0.244l0.121,-0.231l0.145,-0.218l0.167,-0.202l0.187,-0.183l0.205,-0.162l0.221,-0.14l0.235,-0.117l0.245,-0.091l0.254,-0.065l0.259,-0.038l0.261,-0.011l0.261,0.017Zm-20.515,-6.787l0.237,0.002l0.237,0.004l0.237,0.005l0.236,0.007l0.236,0.008l0.236,0.01l0.235,0.011l0.235,0.013l0.235,0.014l0.234,0.015l0.234,0.017l0.233,0.019l0.233,0.02l0.233,0.021l0.232,0.023l0.232,0.025l0.231,0.025l0.231,0.027l0.231,0.029l0.23,0.03l0.23,0.032l0.229,0.032l0.229,0.035l0.228,0.035l0.228,0.037l0.227,0.039l0.227,0.04l0.227,0.041l0.226,0.043l0.225,0.044l0.185,0.037l0.254,0.065l0.245,0.091l0.235,0.116l0.221,0.141l0.205,0.162l0.187,0.183l0.166,0.202l0.145,0.218l0.121,0.232l0.097,0.243l0.07,0.252l0.044,0.258l0.016,0.261l-0.011,0.262l-0.038,0.259l-0.065,0.253l-0.091,0.245l-0.117,0.235l-0.14,0.221l-0.162,0.205l-0.183,0.187l-0.202,0.167l-0.218,0.144l-0.232,0.122l-0.243,0.096l-0.252,0.07l-0.258,0.044l-0.261,0.016l-0.262,-0.011l-0.259,-0.038l-0.169,-0.034l-0.195,-0.038l-0.195,-0.037l-0.196,-0.035l-0.196,-0.035l-0.196,-0.033l-0.197,-0.032l-0.197,-0.031l-0.198,-0.029l-0.198,-0.029l-0.199,-0.027l-0.198,-0.026l-0.2,-0.025l-0.199,-0.023l-0.2,-0.022l-0.201,-0.021l-0.2,-0.02l-0.202,-0.019l-0.201,-0.017l-0.202,-0.016l-0.202,-0.015l-0.203,-0.013l-0.203,-0.013l-0.203,-0.01l-0.204,-0.01l-0.204,-0.009l-0.204,-0.007l-0.205,-0.006l-0.205,-0.004l-0.205,-0.003l-0.206,-0.002l-0.206,-0.001l-0.206,0.001l-0.206,0.002l-0.205,0.003l-0.205,0.004l-0.205,0.006l-0.204,0.007l-0.204,0.009l-0.204,0.01l-0.203,0.01l-0.203,0.013l-0.203,0.013l-0.202,0.015l-0.202,0.016l-0.201,0.017l0,0l-0.202,0.019l-0.2,0.02l-0.201,0.021l-0.2,0.022l-0.199,0.023l-0.2,0.025l-0.198,0.026l-0.199,0.027l-0.198,0.029l-0.198,0.029l-0.197,0.031l-0.197,0.032l-0.196,0.033l-0.196,0.035l-0.196,0.035l-0.195,0.037l-0.195,0.038l-0.194,0.039l-0.194,0.041l-0.193,0.041l-0.193,0.043l-0.193,0.044l-0.192,0.045l-0.192,0.046l-0.191,0.047l-0.191,0.049l-0.19,0.049l-0.19,0.051l-0.189,0.052l-0.189,0.053l-0.188,0.054l-0.188,0.056l-0.188,0.056l-0.187,0.058l-0.186,0.058l-0.186,0.06l-0.186,0.061l-0.185,0.062l-0.184,0.063l-0.184,0.064l-0.184,0.066l-0.183,0.066l-0.182,0.068l-0.182,0.068l-0.181,0.07l-0.181,0.071l-0.181,0.071l-0.179,0.073l-0.18,0.074l-0.178,0.075l-0.178,0.076l-0.178,0.077l-0.177,0.079l-0.177,0.079l-0.175,0.08l-0.176,0.081l-0.175,0.083l-0.174,0.083l-0.173,0.084l-0.173,0.086l-0.173,0.086l-0.172,0.087l-0.171,0.089l-0.17,0.089l-0.171,0.091l-0.169,0.091l-0.169,0.093l-0.168,0.093l-0.168,0.094l-0.166,0.096l-0.156,0.09l-0.233,0.119l-0.244,0.094l-0.252,0.068l-0.259,0.041l-0.261,0.014l-0.261,-0.013l-0.259,-0.04l-0.253,-0.068l-0.244,-0.093l-0.234,-0.119l-0.219,-0.142l-0.204,-0.164l-0.185,-0.185l-0.165,-0.203l-0.143,-0.219l-0.119,-0.233l-0.094,-0.245l-0.068,-0.252l-0.042,-0.259l-0.014,-0.261l0.014,-0.261l0.04,-0.259l0.067,-0.253l0.094,-0.244l0.118,-0.233l0.142,-0.22l0.165,-0.204l0.185,-0.185l0.203,-0.165l0.219,-0.143l0.168,-0.097l0.193,-0.111l0.194,-0.109l0.195,-0.108l0.195,-0.107l0.196,-0.106l0.197,-0.104l0.198,-0.104l0.198,-0.102l0.199,-0.101l0.199,-0.1l0.201,-0.099l0.201,-0.098l0.201,-0.096l0.203,-0.096l0.203,-0.094l0.203,-0.093l0.205,-0.091l0.205,-0.091l0.205,-0.089l0.207,-0.088l0.207,-0.087l0.207,-0.086l0.208,-0.084l0.209,-0.083l0.21,-0.082l0.21,-0.081l0.211,-0.079l0.211,-0.079l0.212,-0.076l0.212,-0.076l0.213,-0.074l0.214,-0.074l0.214,-0.071l0.215,-0.071l0.216,-0.069l0.216,-0.068l0.216,-0.067l0.218,-0.065l0.217,-0.064l0.219,-0.063l0.218,-0.062l0.22,-0.06l0.22,-0.059l0.22,-0.057l0.221,-0.056l0.222,-0.055l0.222,-0.054l0.222,-0.052l0.223,-0.051l0.224,-0.049l0.224,-0.048l0.225,-0.047l0.225,-0.045l0.225,-0.044l0.226,-0.043l0.227,-0.041l0.227,-0.04l0.227,-0.039l0.228,-0.037l0.228,-0.035l0.229,-0.035l0.229,-0.032l0.23,-0.032l0.23,-0.03l0.231,-0.029l0.231,-0.027l0.231,-0.025l0.232,-0.025l0.232,-0.023l0.233,-0.021l0.016,-0.001l0.217,-0.019l0.233,-0.019l0.234,-0.017l0.234,-0.015l0.235,-0.014l0.235,-0.013l0.235,-0.011l0.236,-0.01l0.236,-0.008l0.236,-0.007l0.237,-0.005l0.237,-0.004l0.237,-0.002l0.238,-0.001l0.238,0.001Z" style="fill:#fff;"/><path d="M11.934,48.674l7.924,7.263l8.076,-7.201" style="fill:none;stroke:#fff;stroke-width:5px;"/></g><g><path d="M45.423,58.309l16.618,-16.618" style="fill:none;stroke:#fff;stroke-width:5px;"/><path d="M62.041,58.309l-16.618,-16.618" style="fill:none;stroke:#fff;stroke-width:5px;"/></g></g></svg>