<?xml version="1.0" encoding="UTF-8" standalone="no"?><!DOCTYPE svg PUBLIC "-//W3C//DTD SVG 1.1//EN" "http://www.w3.org/Graphics/SVG/1.1/DTD/svg11.dtd"><svg width="100%" height="100%" viewBox="0 0 100 100" version="1.1" xmlns="http://www.w3.org/2000/svg" xmlns:xlink="http://www.w3.org/1999/xlink" xml:space="preserve" xmlns:serif="http://www.serif.com/" style="fill-rule:evenodd;clip-rule:evenodd;stroke-linejoin:round;stroke-miterlimit:2;"><g><path d="M76.154,16.002l0.153,0.006l0.152,0.009l0.152,0.014l0.151,0.017l0.149,0.021l0.149,0.025l0.147,0.028l0.146,0.032l0.145,0.035l0.143,0.039l0.142,0.042l0.141,0.046l0.139,0.049l0.137,0.052l0.136,0.055l0.134,0.059l0.132,0.062l0.131,0.065l0.128,0.068l0.127,0.07l0.124,0.074l0.123,0.077l0.121,0.079l0.118,0.082l0.117,0.085l0.114,0.088l0.112,0.09l0.11,0.093l0.107,0.095l0.106,0.098l0.102,0.101l0.101,0.102l0.098,0.106l0.095,0.107l0.093,0.11l0.09,0.112l0.088,0.114l0.085,0.117l0.082,0.118l0.079,0.121l0.077,0.122l0.074,0.125l0.07,0.127l0.068,0.128l0.065,0.131l0.062,0.132l0.059,0.134l0.055,0.136l0.052,0.137l0.049,0.139l0.046,0.141l0.042,0.142l0.039,0.143l0.035,0.145l0.032,0.146l0.028,0.147l0.025,0.149l0.021,0.149l0.017,0.151l0.014,0.152l0.009,0.152l0.006,0.153l0.002,0.141l0,50.841l-11.172,11.172l-46.841,0l-0.141,-0.002l-0.153,-0.006l-0.152,-0.009l-0.152,-0.014l-0.151,-0.017l-0.149,-0.021l-0.149,-0.025l-0.147,-0.028l-0.146,-0.032l-0.145,-0.035l-0.143,-0.039l-0.142,-0.042l-0.141,-0.046l-0.139,-0.049l-0.137,-0.052l-0.136,-0.055l-0.134,-0.059l-0.132,-0.062l-0.131,-0.065l-0.128,-0.068l-0.127,-0.07l-0.125,-0.074l-0.122,-0.077l-0.121,-0.079l-0.118,-0.082l-0.117,-0.085l-0.114,-0.088l-0.112,-0.09l-0.11,-0.093l-0.107,-0.095l-0.106,-0.098l-0.102,-0.101l-0.101,-0.102l-0.098,-0.106l-0.095,-0.107l-0.093,-0.11l-0.09,-0.112l-0.088,-0.114l-0.085,-0.117l-0.082,-0.118l-0.079,-0.121l-0.077,-0.123l-0.074,-0.124l-0.07,-0.127l-0.068,-0.128l-0.065,-0.131l-0.062,-0.132l-0.059,-0.134l-0.055,-0.136l-0.052,-0.137l-0.049,-0.139l-0.046,-0.141l-0.042,-0.142l-0.039,-0.143l-0.035,-0.145l-0.032,-0.146l-0.028,-0.147l-0.025,-0.149l-0.021,-0.149l-0.017,-0.151l-0.014,-0.152l-0.009,-0.152l-0.006,-0.153l-0.002,-0.141l0,-56.026l0.002,-0.141l0.006,-0.153l0.009,-0.152l0.014,-0.152l0.017,-0.151l0.021,-0.149l0.025,-0.149l0.028,-0.147l0.032,-0.146l0.035,-0.145l0.039,-0.143l0.042,-0.142l0.046,-0.141l0.049,-0.139l0.052,-0.137l0.055,-0.136l0.059,-0.134l0.062,-0.132l0.065,-0.131l0.068,-0.128l0.07,-0.127l0.074,-0.124l0.077,-0.123l0.079,-0.121l0.082,-0.118l0.085,-0.117l0.088,-0.114l0.09,-0.112l0.093,-0.11l0.095,-0.107l0.098,-0.106l0.101,-0.102l0.102,-0.101l0.106,-0.098l0.107,-0.095l0.11,-0.093l0.112,-0.09l0.114,-0.088l0.117,-0.085l0.118,-0.082l0.121,-0.079l0.123,-0.077l0.124,-0.074l0.127,-0.07l0.128,-0.068l0.131,-0.065l0.132,-0.062l0.134,-0.059l0.136,-0.055l0.137,-0.052l0.139,-0.049l0.141,-0.046l0.142,-0.042l0.143,-0.039l0.145,-0.035l0.146,-0.032l0.147,-0.028l0.149,-0.025l0.149,-0.021l0.151,-0.017l0.152,-0.014l0.152,-0.009l0.153,-0.006l0.141,-0.002l52.026,0l0.141,0.002Zm-52.141,3.998l-0.066,0.001l-0.051,0.002l-0.052,0.003l-0.051,0.005l-0.05,0.005l-0.05,0.007l-0.049,0.008l-0.049,0.01l-0.048,0.01l-0.048,0.012l-0.047,0.013l-0.047,0.014l-0.046,0.015l-0.046,0.016l-0.045,0.017l-0.045,0.019l-0.044,0.019l-0.044,0.02l-0.043,0.022l-0.043,0.022l-0.042,0.024l-0.042,0.025l-0.041,0.025l-0.04,0.027l-0.04,0.027l-0.039,0.029l-0.038,0.029l-0.038,0.03l-0.037,0.032l-0.036,0.032l-0.035,0.033l-0.035,0.033l-0.033,0.035l-0.033,0.035l-0.032,0.036l-0.032,0.037l-0.03,0.038l-0.029,0.038l-0.029,0.039l-0.027,0.04l-0.027,0.04l-0.025,0.041l-0.025,0.042l-0.024,0.042l-0.022,0.043l-0.022,0.043l-0.02,0.044l-0.019,0.044l-0.019,0.045l-0.017,0.045l-0.016,0.046l-0.015,0.046l-0.014,0.047l-0.013,0.047l-0.012,0.048l-0.01,0.048l-0.01,0.049l-0.008,0.049l-0.007,0.05l-0.005,0.05l-0.005,0.051l-0.003,0.052l-0.002,0.051l-0.001,0.066l0,55.974l0.001,0.066l0.002,0.051l0.003,0.052l0.005,0.051l0.005,0.05l0.007,0.05l0.008,0.049l0.01,0.049l0.01,0.048l0.012,0.048l0.013,0.047l0.014,0.047l0.015,0.046l0.016,0.046l0.017,0.045l0.019,0.045l0.019,0.044l0.02,0.044l0.022,0.043l0.022,0.043l0.024,0.042l0.025,0.042l0.025,0.041l0.027,0.04l0.027,0.04l0.029,0.039l0.029,0.038l0.03,0.038l0.032,0.037l0.032,0.036l0.033,0.035l0.033,0.035l0.035,0.033l0.035,0.033l0.036,0.032l0.037,0.032l0.038,0.03l0.038,0.029l0.039,0.029l0.04,0.027l0.04,0.027l0.041,0.025l0.042,0.025l0.042,0.024l0.043,0.022l0.043,0.022l0.044,0.02l0.044,0.019l0.045,0.019l0.045,0.017l0.046,0.016l0.046,0.015l0.047,0.014l0.047,0.013l0.048,0.012l0.048,0.01l0.049,0.01l0.049,0.008l0.05,0.007l0.05,0.005l0.051,0.005l0.052,0.003l0.051,0.002l0.066,0.001l45.159,0l8.828,-8.828l0,-49.159l-0.001,-0.066l-0.002,-0.051l-0.003,-0.052l-0.005,-0.051l-0.005,-0.05l-0.007,-0.05l-0.008,-0.049l-0.01,-0.049l-0.01,-0.048l-0.012,-0.048l-0.013,-0.047l-0.014,-0.047l-0.015,-0.046l-0.016,-0.046l-0.017,-0.045l-0.019,-0.045l-0.019,-0.044l-0.02,-0.044l-0.022,-0.043l-0.022,-0.043l-0.024,-0.042l-0.025,-0.042l-0.025,-0.041l-0.027,-0.04l-0.027,-0.04l-0.029,-0.039l-0.029,-0.038l-0.03,-0.038l-0.032,-0.037l-0.032,-0.036l-0.033,-0.035l-0.033,-0.035l-0.035,-0.033l-0.035,-0.033l-0.036,-0.032l-0.037,-0.032l-0.038,-0.03l-0.038,-0.029l-0.039,-0.029l-0.04,-0.027l-0.04,-0.027l-0.041,-0.025l-0.042,-0.025l-0.042,-0.024l-0.043,-0.022l-0.043,-0.022l-0.044,-0.02l-0.044,-0.019l-0.045,-0.019l-0.045,-0.017l-0.046,-0.016l-0.046,-0.015l-0.047,-0.014l-0.047,-0.013l-0.048,-0.012l-0.048,-0.01l-0.049,-0.01l-0.049,-0.008l-0.05,-0.007l-0.05,-0.005l-0.051,-0.005l-0.052,-0.003l-0.051,-0.002l-0.066,-0.001l-51.974,0Z"/><path d="M66.4,84l-4,0l0,-20l-24.8,0l0,20l-4,0l0,-24l32.8,0l0,24Z"/><rect x="30" y="28" width="32.859" height="4"/><rect x="30" y="36" width="23.442" height="4"/><rect x="30" y="44" width="28.981" height="4"/><path d="M44.087,77.982l-3.999,0.035l-0.105,-11.999l3.999,-0.035l0.105,11.999Z"/></g></svg>