<?xml version="1.0" encoding="UTF-8" standalone="no"?><!DOCTYPE svg PUBLIC "-//W3C//DTD SVG 1.1//EN" "http://www.w3.org/Graphics/SVG/1.1/DTD/svg11.dtd"><svg width="100%" height="100%" viewBox="0 0 100 100" version="1.1" xmlns="http://www.w3.org/2000/svg" xmlns:xlink="http://www.w3.org/1999/xlink" xml:space="preserve" xmlns:serif="http://www.serif.com/" style="fill-rule:evenodd;clip-rule:evenodd;stroke-linecap:round;stroke-linejoin:round;stroke-miterlimit:1.5;"><g><path d="M55.476,39.369l-5.811,-3.57l0,9.184" style="fill:none;stroke:#959595;stroke-width:2.5px;"/><path d="M49.665,55.507l0,8.694l11.559,-7.101l-7.945,-4.88" style="fill:none;stroke:#959595;stroke-width:2.5px;"/><path d="M46.243,47.898l-7.38,-4.533" style="fill:none;stroke:#959595;stroke-width:2.5px;"/><path d="M23.936,69.408c-4.042,-5.417 -6.436,-12.135 -6.436,-19.408c0,-17.937 14.563,-32.5 32.5,-32.5c7.499,0 14.409,2.546 19.911,6.819" style="fill:none;stroke:#c6c6c6;stroke-width:2.5px;"/><path d="M75.563,29.938c4.344,5.526 6.937,12.494 6.937,20.062c0,17.937 -14.563,32.5 -32.5,32.5c-7.489,0 -14.389,-2.538 -19.887,-6.801" style="fill:none;stroke:#c6c6c6;stroke-width:2.5px;"/><path d="M59.615,76.694c6.152,-2.425 11.384,-6.729 14.95,-12.299c0.405,-0.632 0.659,-1.029 0.659,-1.029" style="fill:none;stroke:#c6c6c6;stroke-width:2.5px;"/></g><path d="M17.5,82.5l65,-65" style="fill:none;stroke:#959595;stroke-width:2.5px;"/></svg>