<?xml version="1.0" encoding="UTF-8" standalone="no"?><!DOCTYPE svg PUBLIC "-//W3C//DTD SVG 1.1//EN" "http://www.w3.org/Graphics/SVG/1.1/DTD/svg11.dtd"><svg width="100%" height="100%" viewBox="0 0 100 140" version="1.1" xmlns="http://www.w3.org/2000/svg" xmlns:xlink="http://www.w3.org/1999/xlink" xml:space="preserve" xmlns:serif="http://www.serif.com/" style="fill-rule:evenodd;clip-rule:evenodd;stroke-linecap:round;stroke-linejoin:round;stroke-miterlimit:1.5;"><path d="M65,51.394l0,27.083" style="fill:none;stroke:#7c7c7d;stroke-width:5px;"/><path d="M65,101.523l0,29.861l11.523,-11.523l-11.523,11.523l-11.523,-11.523" style="fill:none;stroke:#7c7c7d;stroke-width:5px;"/><path d="M35,131.384l0,-79.99l-11.523,11.523l11.523,-11.523l11.523,11.523" style="fill:none;stroke:#7c7c7d;stroke-width:5px;"/><path d="M65,131.384l11.523,-11.523l-11.523,11.523l-11.523,-11.523" style="fill:none;stroke:#7c7c7d;stroke-width:5px;"/><g><path d="M53.477,101.523l23.046,-23.046" style="fill:none;stroke:#d77f7f;stroke-width:5px;"/><path d="M76.523,101.523l-23.046,-23.046" style="fill:none;stroke:#d77f7f;stroke-width:5px;"/></g><path d="M91.945,18.858c1.906,20.654 -22.109,21.888 -27.631,13.804l0,0.044c-11.448,14.484 -32.706,8.8 -35.673,-4.05l0,-0.104c-14.172,1.189 -22.968,-7.851 -20.178,-22.354" style="fill:none;stroke:#c6c6c6;stroke-width:5px;"/><path d="M62.886,23.342c4.922,3.249 14.646,1.443 16.18,-4.045" style="fill:none;stroke:#c6c6c6;stroke-width:5px;"/></svg>