<?xml version="1.0" encoding="UTF-8" standalone="no"?><!DOCTYPE svg PUBLIC "-//W3C//DTD SVG 1.1//EN" "http://www.w3.org/Graphics/SVG/1.1/DTD/svg11.dtd"><svg width="100%" height="100%" viewBox="0 0 100 100" version="1.1" xmlns="http://www.w3.org/2000/svg" xmlns:xlink="http://www.w3.org/1999/xlink" xml:space="preserve" xmlns:serif="http://www.serif.com/" style="fill-rule:evenodd;clip-rule:evenodd;stroke-linecap:round;stroke-linejoin:round;stroke-miterlimit:1.5;"><g><path d="M41.081,17.097l0,20.16c0,3.917 -6.964,7.097 -15.541,7.097c-8.577,0 -15.54,-3.18 -15.54,-7.097l0,-20.16" style="fill:none;stroke:#7c7c7d;stroke-width:2.5px;"/><path d="M41.081,17.097c0,3.917 -6.964,7.098 -15.541,7.098c-8.577,0 -15.54,-3.181 -15.54,-7.098" style="fill:none;stroke:#7c7c7d;stroke-width:2.5px;"/><path d="M41.081,27.177c0,3.917 -6.964,7.097 -15.541,7.097c-8.577,0 -15.54,-3.18 -15.54,-7.097" style="fill:none;stroke:#7c7c7d;stroke-width:2.5px;"/><path d="M10,17.097c0,-3.917 6.963,-7.097 15.54,-7.097c8.577,0 15.541,3.18 15.541,7.097" style="fill:none;stroke:#7c7c7d;stroke-width:2.5px;"/></g><path d="M50,25l40,0" style="fill:none;stroke:#c6c6c6;stroke-width:2.5px;"/><path d="M50,40l40,0" style="fill:none;stroke:#c6c6c6;stroke-width:2.5px;"/><path d="M10,55l80,0" style="fill:none;stroke:#c6c6c6;stroke-width:2.5px;"/><path d="M10,70l40,0" style="fill:none;stroke:#c6c6c6;stroke-width:2.5px;"/><g><path d="M61.444,78.556l17.112,-17.112" style="fill:none;stroke:#d77f7f;stroke-width:2.5px;"/><path d="M78.556,78.556l-17.112,-17.112" style="fill:none;stroke:#d77f7f;stroke-width:2.5px;"/></g></svg>