<?xml version="1.0" encoding="UTF-8" standalone="no"?><!DOCTYPE svg PUBLIC "-//W3C//DTD SVG 1.1//EN" "http://www.w3.org/Graphics/SVG/1.1/DTD/svg11.dtd"><svg width="100%" height="100%" viewBox="0 0 1042 335" version="1.1" xmlns="http://www.w3.org/2000/svg" xmlns:xlink="http://www.w3.org/1999/xlink" xml:space="preserve" xmlns:serif="http://www.serif.com/" style="fill-rule:evenodd;clip-rule:evenodd;stroke-linecap:round;stroke-linejoin:round;stroke-miterlimit:1.5;"><g><path d="M42.22,42.22l-0,150l150,-0l-0,-150l-150,-0Zm25,25l99.999,-0l0,99.999l-99.999,0l-0,-99.999l-0,-0Z" style="fill:#7c7c7d;"/><path d="M85.97,85.97l-0,62.499l62.499,0l0,-62.499l-62.499,-0Zm24.999,24.999l12.501,0l-0,12.501l-12.501,-0l0,-12.501Z" style="fill:#7c7c7d;"/><rect x="267.219" y="42.22" width="25" height="25" style="fill:#7c7c7d;"/><rect x="242.22" y="67.22" width="25" height="25" style="fill:#7c7c7d;"/><rect x="217.22" y="67.22" width="25" height="25" style="fill:#7c7c7d;"/><rect x="217.22" y="92.219" width="25" height="25" style="fill:#7c7c7d;"/><rect x="242.22" y="142.22" width="25" height="25" style="fill:#7c7c7d;"/><rect x="217.22" y="117.219" width="25" height="25" style="fill:#7c7c7d;"/><rect x="267.219" y="117.219" width="25" height="25" style="fill:#7c7c7d;"/><rect x="67.22" y="217.22" width="25" height="25" style="fill:#7c7c7d;"/><rect x="67.22" y="242.22" width="25" height="25" style="fill:#7c7c7d;"/><rect x="92.219" y="267.219" width="25" height="25" style="fill:#7c7c7d;"/><rect x="92.219" y="217.22" width="25" height="25" style="fill:#7c7c7d;"/><rect x="142.22" y="242.22" width="25" height="25" style="fill:#7c7c7d;"/><rect x="167.219" y="267.219" width="25" height="25" style="fill:#7c7c7d;"/><rect x="167.219" y="242.22" width="25" height="25" style="fill:#7c7c7d;"/><rect x="192.22" y="242.22" width="25" height="25" style="fill:#7c7c7d;"/><rect x="242.22" y="217.22" width="25" height="25" style="fill:#7c7c7d;"/><rect x="267.219" y="242.22" width="25" height="25" style="fill:#7c7c7d;"/><rect x="267.219" y="267.219" width="25" height="25" style="fill:#7c7c7d;"/><rect x="217.22" y="267.219" width="25" height="25" style="fill:#7c7c7d;"/><rect x="217.22" y="167.219" width="25" height="25" style="fill:#7c7c7d;"/><rect x="242.22" y="167.219" width="25" height="25" style="fill:#7c7c7d;"/><rect x="142.22" y="217.22" width="25" height="25" style="fill:#7c7c7d;"/><rect x="117.219" y="267.219" width="25" height="25" style="fill:#7c7c7d;"/><rect x="42.22" y="242.22" width="25" height="25" style="fill:#7c7c7d;"/><rect x="267.219" y="167.219" width="25" height="25" style="fill:#7c7c7d;"/><rect x="267.219" y="192.22" width="25" height="25" style="fill:#7c7c7d;"/></g><g><path d="M480.549,98.384l0,137.671" style="fill:none;stroke:#7c7c7d;stroke-width:27.87px;"/><path d="M411.713,167.22l137.672,-0" style="fill:none;stroke:#7c7c7d;stroke-width:27.87px;"/></g><path d="M695.634,220.172l-14.27,-9.81l21.627,-35.004l-34.113,-15.162l5.128,-15.83l36.12,9.588l2.675,-39.687l17.391,-0l2.676,39.687l36.119,-9.588l5.128,15.83l-34.113,15.162l21.628,35.004l-14.27,9.81l-25.863,-31.66l-25.863,31.66Z" style="fill:#7c7c7d;fill-rule:nonzero;"/><path d="M829.409,220.172l-14.269,-9.81l21.627,-35.004l-34.113,-15.162l5.128,-15.83l36.12,9.588l2.675,-39.687l17.391,-0l2.675,39.687l36.12,-9.588l5.128,15.83l-34.113,15.162l21.627,35.004l-14.269,9.81l-25.863,-31.66l-25.864,31.66Z" style="fill:#7c7c7d;fill-rule:nonzero;"/><path d="M963.185,220.172l-14.269,-9.81l21.627,-35.004l-34.113,-15.162l5.128,-15.83l36.119,9.588l2.676,-39.687l17.391,-0l2.675,39.687l36.12,-9.588l5.128,15.83l-34.113,15.162l21.627,35.004l-14.269,9.81l-25.864,-31.66l-25.863,31.66Z" style="fill:#7c7c7d;fill-rule:nonzero;"/></svg>