<?xml version="1.0" encoding="UTF-8" standalone="no"?><!DOCTYPE svg PUBLIC "-//W3C//DTD SVG 1.1//EN" "http://www.w3.org/Graphics/SVG/1.1/DTD/svg11.dtd"><svg width="100%" height="100%" viewBox="0 0 1459 1459" version="1.1" xmlns="http://www.w3.org/2000/svg" xmlns:xlink="http://www.w3.org/1999/xlink" xml:space="preserve" xmlns:serif="http://www.serif.com/" style="fill-rule:evenodd;clip-rule:evenodd;stroke-linejoin:round;stroke-miterlimit:2;"><g><path d="M208.331,208.329l0,625l625,0l0,-625l-625,0Zm104.167,104.167l416.662,-0l0,416.662l-416.662,0l-0,-416.662Z" style="fill:#7c7c7d;"/><path d="M390.623,390.621l-0,260.412l260.412,0l0,-260.412l-260.412,-0Zm104.162,104.162l52.088,0l-0,52.088l-52.088,-0l0,-52.088Z" style="fill:#7c7c7d;"/><rect x="1145.83" y="208.329" width="104.167" height="104.167" style="fill:#7c7c7d;"/><path d="M1458.33,0l-104.167,0l-312.491,1.4l-0.004,102.771l312.495,-0l0,312.492l104.167,-0l0,-416.663Z" style="fill:#7c7c7d;"/><path d="M1458.32,1458.32l-0,-104.167l-1.4,-312.491l-102.771,-0.005l0,312.496l-312.492,0l0,104.167l416.663,-0Z" style="fill:#7c7c7d;"/><path d="M0,1458.32l104.167,-0l312.491,-1.4l0.005,-102.771l-312.496,0l-0,-312.492l-104.167,0l0,416.663Z" style="fill:#7c7c7d;"/><path d="M0.002,0l0,104.167l1.4,312.491l102.771,0.004l-0,-312.495l312.492,-0l-0,-104.167l-416.663,-0Z" style="fill:#7c7c7d;"/><rect x="1041.66" y="312.496" width="104.167" height="104.167" style="fill:#7c7c7d;"/><rect x="937.498" y="312.496" width="104.167" height="104.167" style="fill:#7c7c7d;"/><rect x="937.498" y="416.658" width="104.167" height="104.167" style="fill:#7c7c7d;"/><rect x="1041.66" y="624.996" width="104.167" height="104.167" style="fill:#7c7c7d;"/><rect x="937.498" y="520.825" width="104.167" height="104.167" style="fill:#7c7c7d;"/><rect x="1145.83" y="520.825" width="104.167" height="104.167" style="fill:#7c7c7d;"/><rect x="312.498" y="937.496" width="104.167" height="104.167" style="fill:#7c7c7d;"/><rect x="312.498" y="1041.66" width="104.167" height="104.167" style="fill:#7c7c7d;"/><rect x="416.66" y="1145.83" width="104.167" height="104.167" style="fill:#7c7c7d;"/><rect x="416.66" y="937.496" width="104.167" height="104.167" style="fill:#7c7c7d;"/><rect x="624.998" y="1041.66" width="104.167" height="104.167" style="fill:#7c7c7d;"/><rect x="729.16" y="1145.83" width="104.167" height="104.167" style="fill:#7c7c7d;"/><rect x="729.16" y="1041.66" width="104.167" height="104.167" style="fill:#7c7c7d;"/><rect x="833.331" y="1041.66" width="104.167" height="104.167" style="fill:#7c7c7d;"/><rect x="1041.66" y="937.496" width="104.167" height="104.167" style="fill:#7c7c7d;"/><rect x="1145.83" y="1041.66" width="104.167" height="104.167" style="fill:#7c7c7d;"/><rect x="1145.83" y="1145.83" width="104.167" height="104.167" style="fill:#7c7c7d;"/><rect x="937.498" y="1145.83" width="104.167" height="104.167" style="fill:#7c7c7d;"/><rect x="937.498" y="729.158" width="104.167" height="104.167" style="fill:#7c7c7d;"/><rect x="1041.66" y="729.158" width="104.167" height="104.167" style="fill:#7c7c7d;"/><rect x="624.998" y="937.496" width="104.167" height="104.167" style="fill:#7c7c7d;"/><rect x="520.827" y="1145.83" width="104.167" height="104.167" style="fill:#7c7c7d;"/><rect x="208.331" y="1041.66" width="104.167" height="104.167" style="fill:#7c7c7d;"/><rect x="1145.83" y="729.158" width="104.167" height="104.167" style="fill:#7c7c7d;"/><rect x="1145.83" y="833.329" width="104.167" height="104.167" style="fill:#7c7c7d;"/></g></svg>