<?xml version="1.0" encoding="UTF-8" standalone="no"?><!DOCTYPE svg PUBLIC "-//W3C//DTD SVG 1.1//EN" "http://www.w3.org/Graphics/SVG/1.1/DTD/svg11.dtd"><svg width="100%" height="100%" viewBox="0 0 150 100" version="1.1" xmlns="http://www.w3.org/2000/svg" xmlns:xlink="http://www.w3.org/1999/xlink" xml:space="preserve" xmlns:serif="http://www.serif.com/" style="fill-rule:evenodd;clip-rule:evenodd;stroke-linecap:round;stroke-linejoin:round;stroke-miterlimit:1;"><g><path d="M62.924,24.126c0,0 -2.648,-4.353 -4.63,-7.613c-0.454,-0.746 -1.264,-1.201 -2.136,-1.201c-0.873,0 -1.683,0.455 -2.136,1.201c-7.525,12.373 -32.764,53.877 -40.554,66.688c-0.47,0.772 -0.486,1.737 -0.043,2.524c0.442,0.788 1.276,1.275 2.179,1.275c15.317,0 65.79,0 81.107,0c0.904,0 1.737,-0.487 2.18,-1.275c0.442,-0.787 0.426,-1.752 -0.044,-2.524c-2.647,-4.353 -6.623,-10.892 -6.623,-10.892" style="fill:none;stroke:#c6c6c6;stroke-width:2.5px;"/><path d="M77.218,21.427c1.577,-0.439 3.239,-0.674 4.955,-0.674c1.718,0 3.382,0.235 4.961,0.676l-0.403,4.494l4.741,2.738l3.666,-2.579c2.332,2.303 4.053,5.222 4.898,8.492l-4.08,1.892l0,5.475l4.08,1.893c-0.847,3.277 -2.574,6.202 -4.913,8.507l-3.651,-2.568l-4.741,2.738l0.4,4.468c-1.578,0.44 -3.241,0.676 -4.958,0.676c-1.715,0 -3.376,-0.235 -4.952,-0.674l0.401,-4.47l-4.743,-2.738l-3.654,2.571c-2.339,-2.305 -4.067,-5.231 -4.916,-8.507l4.087,-1.896l0,-5.475l-4.087,-1.895c0.847,-3.27 2.569,-6.189 4.901,-8.492l3.669,2.582l4.743,-2.738l-0.404,-4.496Zm4.955,10.396c4.073,0 7.38,3.307 7.38,7.381c0,4.073 -3.307,7.38 -7.38,7.38c-4.074,0 -7.381,-3.307 -7.381,-7.38c0,-4.074 3.307,-7.381 7.381,-7.381Z" style="fill:none;stroke:#7c7c7d;stroke-width:2.46px;stroke-miterlimit:1.5;"/><path d="M46.451,55.451c0.807,-0.914 1.751,-1.734 2.824,-2.429c1.074,-0.697 2.209,-1.224 3.375,-1.589l1.569,2.972l4.074,-0.21l1.246,-3.098c2.391,0.495 4.65,1.622 6.504,3.323l-1.783,2.837l2.219,3.422l3.318,-0.471c0.798,2.392 0.904,4.92 0.376,7.31l-3.322,-0.126l-1.854,3.633l2.061,2.631c-0.808,0.915 -1.752,1.736 -2.826,2.432c-1.072,0.695 -2.205,1.222 -3.368,1.587l-1.561,-2.957l-4.074,0.211l-1.243,3.087c-2.396,-0.492 -4.662,-1.62 -6.521,-3.325l1.787,-2.841l-2.22,-3.422l-3.322,0.472c-0.796,-2.387 -0.903,-4.91 -0.379,-7.295l3.34,0.126l1.854,-3.633l-2.074,-2.647Zm7.311,4.49c2.546,-1.651 5.954,-0.924 7.605,1.622c1.651,2.546 0.924,5.954 -1.622,7.605c-2.546,1.651 -5.954,0.925 -7.605,-1.622c-1.651,-2.546 -0.924,-5.953 1.622,-7.605Z" style="fill:none;stroke:#7c7c7d;stroke-width:2.5px;stroke-miterlimit:1.5;"/><g><path d="M137.836,82.251c0,0 -0.365,0.949 -0.752,1.954c-0.237,0.619 -0.711,1.118 -1.317,1.388c-0.606,0.269 -1.294,0.287 -1.913,0.049c-7.159,-2.752 -28.656,-11.015 -34.127,-13.117c-0.796,-0.306 -1.381,-0.997 -1.552,-1.832c-0.235,-1.145 -0.534,-2.606 -0.534,-2.606l-27.141,-10.432l2.653,0.364l24.707,9.496c0,0 1.202,-0.884 2.142,-1.577c0.687,-0.506 1.584,-0.627 2.38,-0.321c5.471,2.103 26.968,10.366 34.127,13.118c0.619,0.238 1.118,0.712 1.387,1.317c0.27,0.606 0.287,1.294 0.049,1.913c-0.386,1.005 -0.751,1.955 -0.751,1.955" style="fill:none;stroke:#7c7c7d;stroke-width:2.5px;"/><path d="M108.987,72.12l22.639,8.702" style="fill:none;stroke:#7c7c7d;stroke-width:2.5px;"/></g></g><path d="M60.358,43.349c0.138,1.404 0.551,2.607 1.056,3.742" style="fill:none;stroke:#c6c6c6;stroke-width:2.5px;"/><path d="M49.506,80.395c1.25,0.653 2.482,0.966 3.709,1.164" style="fill:none;stroke:#c6c6c6;stroke-width:2.5px;"/></svg>