<?xml version="1.0" encoding="UTF-8" standalone="no"?>
<!DOCTYPE svg PUBLIC "-//W3C//DTD SVG 1.1//EN" "http://www.w3.org/Graphics/SVG/1.1/DTD/svg11.dtd">
<svg width="100%" height="100%" viewBox="0 0 100 100" version="1.1" xmlns="http://www.w3.org/2000/svg" xmlns:xlink="http://www.w3.org/1999/xlink" xml:space="preserve" xmlns:serif="http://www.serif.com/" style="fill-rule:evenodd;clip-rule:evenodd;stroke-linecap:round;stroke-linejoin:round;stroke-miterlimit:1.5;">
    <g transform="matrix(1,0,0,1,1.537,0.896)">
        <g transform="matrix(1.27452,0,0,1.27452,-26.5012,-25.9135)">
            <path d="M75.99,61.776C77.411,61.381 78.907,61.17 80.452,61.17C82,61.17 83.497,61.382 84.919,61.779L84.556,65.825L88.826,68.291L92.126,65.968C94.226,68.042 95.776,70.67 96.537,73.614L92.863,75.318L92.863,80.248L96.537,81.952C95.773,84.903 94.218,87.536 92.112,89.612L88.826,87.3L84.556,89.765L84.917,93.789C83.496,94.185 81.998,94.396 80.452,94.396C78.907,94.396 77.412,94.186 75.993,93.79L76.354,89.765L72.085,87.3L68.795,89.614C66.687,87.538 65.133,84.905 64.368,81.955L68.047,80.248L68.047,75.318L64.368,73.612C65.13,70.668 66.681,68.039 68.78,65.966L72.085,68.291L76.354,65.825L75.99,61.776ZM80.452,71.138C84.119,71.138 87.097,74.116 87.097,77.783C87.097,81.451 84.119,84.429 80.452,84.429C76.784,84.429 73.806,81.451 73.806,77.783C73.806,74.116 76.784,71.138 80.452,71.138Z" style="fill:rgb(124,124,125);"/>
        </g>
        <g transform="matrix(1,0,0,1,-1.537,-0.896)">
            <path d="M43,3.104C30.429,3.104 20.223,13.31 20.223,25.881C20.223,38.452 30.429,48.658 43,48.658C55.571,48.658 65.777,38.452 65.777,25.881C65.777,13.31 55.571,3.104 43,3.104ZM43,8.104C52.811,8.104 60.777,16.07 60.777,25.881C60.777,35.692 52.811,43.658 43,43.658C33.189,43.658 25.223,35.692 25.223,25.881C25.223,16.07 33.189,8.104 43,8.104Z" style="fill:rgb(124,124,125);"/>
        </g>
        <g transform="matrix(1,0,0,1,-1.537,-0.896)">
            <path d="M49.866,40.156C49.866,40.156 50.771,39.854 51.883,39.483C55.313,38.34 57.706,35.233 57.939,31.626C58.028,30.249 56.982,29.059 55.605,28.97C54.228,28.881 53.038,29.927 52.949,31.304C52.848,32.881 51.801,34.24 50.301,34.74C49.189,35.112 48.284,35.414 48.284,35.414C46.975,35.85 46.267,37.268 46.704,38.576C47.14,39.885 48.558,40.593 49.866,40.156Z" style="fill:rgb(124,124,125);"/>
        </g>
        <path d="M54.584,93.2L3.463,93.188C3.463,68.852 21.179,49.093 43,49.093C47.372,49.093 51.579,49.886 55.511,51.351C49.68,56.825 46.036,64.602 46.036,73.223C46.036,81.378 49.296,87.79 54.584,93.2Z" style="fill:none;stroke:rgb(124,124,125);stroke-width:5px;"/>
    </g>
</svg>
