<?xml version="1.0" encoding="UTF-8" standalone="no"?><!DOCTYPE svg PUBLIC "-//W3C//DTD SVG 1.1//EN" "http://www.w3.org/Graphics/SVG/1.1/DTD/svg11.dtd"><svg width="100%" height="100%" viewBox="0 0 417 417" version="1.1" xmlns="http://www.w3.org/2000/svg" xmlns:xlink="http://www.w3.org/1999/xlink" xml:space="preserve" xmlns:serif="http://www.serif.com/" style="fill-rule:evenodd;clip-rule:evenodd;stroke-linecap:round;stroke-linejoin:round;stroke-miterlimit:1.5;"><path d="M254.167,106.218l-212.5,0c-11.499,0 -20.834,9.335 -20.834,20.833l0,208.334c0,11.498 9.335,20.833 20.834,20.833l333.333,0c11.498,0 20.833,-9.335 20.833,-20.833l0,-208.334c0,-11.498 -9.335,-20.833 -20.833,-20.833l-45.833,0l-0,-24.936c-0,-11.496 -9.338,-20.833 -20.834,-20.833l-33.333,-0c-11.5,-0 -20.833,9.337 -20.833,20.833l-0,24.936Z" style="fill:none;stroke:#7c7c7d;stroke-width:20.83px;"/><ellipse cx="208.333" cy="231.069" rx="60.106" ry="58.999" style="fill:none;stroke:#7c7c7d;stroke-width:20.83px;"/></svg>