<?xml version="1.0" encoding="UTF-8" standalone="no"?><!DOCTYPE svg PUBLIC "-//W3C//DTD SVG 1.1//EN" "http://www.w3.org/Graphics/SVG/1.1/DTD/svg11.dtd"><svg width="100%" height="100%" viewBox="0 0 100 100" version="1.1" xmlns="http://www.w3.org/2000/svg" xmlns:xlink="http://www.w3.org/1999/xlink" xml:space="preserve" xmlns:serif="http://www.serif.com/" style="fill-rule:evenodd;clip-rule:evenodd;stroke-linecap:round;stroke-linejoin:round;stroke-miterlimit:1.5;"><g><path d="M25.747,29.952l33.725,0" style="fill:none;stroke:#7c7c7d;stroke-width:5px;"/><path d="M25.747,44l46.282,0" style="fill:none;stroke:#7c7c7d;stroke-width:5px;"/><path d="M25.747,58l14.2,0" style="fill:none;stroke:#7c7c7d;stroke-width:5px;"/><path d="M25.747,72l28.4,0" style="fill:none;stroke:#7c7c7d;stroke-width:5px;"/><path d="M13.62,26.157l0,58.824c0,5.519 4.481,10 10,10l52.76,0c5.519,0 10,-4.481 10,-10l0,-58.824" style="fill:none;stroke:#7c7c7d;stroke-width:5px;"/><path d="M86.38,26.157c0,-5.519 -4.481,-10 -10,-10l-52.76,0c-5.519,0 -10,4.481 -10,10" style="fill:none;stroke:#7c7c7d;stroke-width:5px;"/><path d="M40.905,14.116c0,-5.019 4.076,-8.997 9.095,-9.095c5.109,-0.1 9.141,4.024 9.095,9.095" style="fill:none;stroke:#7c7c7d;stroke-width:5px;"/></g></svg>