<?xml version="1.0" encoding="UTF-8" standalone="no"?>
<!DOCTYPE svg PUBLIC "-//W3C//DTD SVG 1.1//EN" "http://www.w3.org/Graphics/SVG/1.1/DTD/svg11.dtd">
<svg width="100%" height="100%" viewBox="0 0 100 100" version="1.1" xmlns="http://www.w3.org/2000/svg" xmlns:xlink="http://www.w3.org/1999/xlink" xml:space="preserve" xmlns:serif="http://www.serif.com/" style="fill-rule:evenodd;clip-rule:evenodd;stroke-miterlimit:3;">
    <g transform="matrix(1,0,0,1,-27.9397,44.9554)">
        <g transform="matrix(75,0,0,75,41.5647,31.2946)">
            <path d="M0.305,0C0.293,0 0.283,-0.004 0.275,-0.012C0.267,-0.02 0.263,-0.03 0.263,-0.041L0.263,-0.659L0.348,-0.659L0.348,-0.041C0.348,-0.03 0.344,-0.02 0.336,-0.012C0.328,-0.004 0.318,0 0.305,0ZM0.073,-0.624C0.062,-0.624 0.052,-0.627 0.045,-0.634C0.037,-0.642 0.033,-0.651 0.033,-0.662C0.033,-0.673 0.037,-0.683 0.045,-0.69C0.052,-0.697 0.062,-0.7 0.073,-0.7L0.538,-0.7C0.549,-0.7 0.559,-0.697 0.567,-0.69C0.575,-0.683 0.579,-0.673 0.579,-0.662C0.579,-0.65 0.575,-0.641 0.567,-0.634C0.559,-0.627 0.549,-0.624 0.538,-0.624L0.073,-0.624Z" style="fill:rgb(124,124,125);fill-rule:nonzero;"/>
        </g>
        <g transform="matrix(75,0,0,75,87.3897,31.2946)">
            <path d="M0.054,-0.514L0.289,-0.514C0.3,-0.514 0.309,-0.51 0.316,-0.503C0.323,-0.496 0.326,-0.487 0.326,-0.477C0.326,-0.466 0.323,-0.458 0.316,-0.451C0.309,-0.444 0.3,-0.44 0.289,-0.44L0.054,-0.44C0.044,-0.44 0.035,-0.444 0.028,-0.451C0.021,-0.458 0.017,-0.467 0.017,-0.478C0.017,-0.488 0.021,-0.497 0.028,-0.503C0.035,-0.51 0.044,-0.514 0.054,-0.514ZM0.159,-0.65C0.17,-0.65 0.18,-0.646 0.187,-0.639C0.194,-0.631 0.198,-0.621 0.198,-0.61L0.198,-0.127C0.198,-0.111 0.2,-0.099 0.205,-0.091C0.21,-0.083 0.216,-0.078 0.224,-0.075C0.231,-0.071 0.239,-0.07 0.246,-0.07C0.253,-0.07 0.259,-0.071 0.264,-0.074C0.269,-0.076 0.274,-0.077 0.281,-0.077C0.288,-0.077 0.294,-0.074 0.3,-0.068C0.305,-0.061 0.308,-0.053 0.308,-0.043C0.308,-0.031 0.301,-0.021 0.287,-0.013C0.273,-0.004 0.257,0 0.24,0C0.231,0 0.219,-0.001 0.205,-0.002C0.192,-0.003 0.178,-0.008 0.165,-0.015C0.152,-0.022 0.141,-0.035 0.132,-0.051C0.123,-0.069 0.118,-0.092 0.118,-0.123L0.118,-0.61C0.118,-0.621 0.122,-0.631 0.13,-0.639C0.138,-0.646 0.148,-0.65 0.159,-0.65Z" style="fill:rgb(124,124,125);fill-rule:nonzero;"/>
        </g>
    </g>
    <path d="M5,17.545L5,81.842C5,84.602 7.24,86.842 10,86.842L90,86.842C92.76,86.842 95,84.602 95,81.842L95,17.545C95,14.786 92.76,12.545 90,12.545L10,12.545C7.24,12.545 5,14.786 5,17.545Z" style="fill:none;stroke:rgb(124,124,125);stroke-width:6.25px;"/>
</svg>
