<?xml version="1.0" encoding="UTF-8" standalone="no"?><!DOCTYPE svg PUBLIC "-//W3C//DTD SVG 1.1//EN" "http://www.w3.org/Graphics/SVG/1.1/DTD/svg11.dtd"><svg width="100%" height="100%" viewBox="0 0 100 100" version="1.1" xmlns="http://www.w3.org/2000/svg" xmlns:xlink="http://www.w3.org/1999/xlink" xml:space="preserve" xmlns:serif="http://www.serif.com/" style="fill-rule:evenodd;clip-rule:evenodd;stroke-linecap:round;stroke-linejoin:round;stroke-miterlimit:1.5;"><path d="M94.143,11.951c0,-3.411 -2.769,-6.18 -6.18,-6.18l-75.926,0c-3.411,0 -6.18,2.769 -6.18,6.18l0,76.098c0,3.411 2.769,6.18 6.18,6.18l75.926,0c3.411,0 6.18,-2.769 6.18,-6.18l0,-76.098Z" style="fill:none;stroke:#7c7c7d;stroke-width:5px;"/><circle cx="24.203" cy="24.203" r="8.786" style="fill:none;stroke:#7c7c7d;stroke-width:5px;"/><path d="M15.418,44.16l69.182,0" style="fill:none;stroke:#7c7c7d;stroke-width:5px;"/><path d="M15.418,54.152l69.182,0" style="fill:none;stroke:#7c7c7d;stroke-width:5px;"/><path d="M15.418,64.143l69.182,0" style="fill:none;stroke:#7c7c7d;stroke-width:5px;"/><path d="M54.243,74.135l30.348,0" style="fill:none;stroke:#7c7c7d;stroke-width:5px;"/><path d="M54.252,84.126l30.348,0" style="fill:none;stroke:#7c7c7d;stroke-width:5px;"/><path d="M43.411,74.135l-27.993,0l0,9.905l27.982,0.086l0.011,-9.991Z" style="fill:#7c7c7d;stroke:#7c7c7d;stroke-width:5px;"/></svg>