<?xml version="1.0" encoding="UTF-8" standalone="no"?><!DOCTYPE svg PUBLIC "-//W3C//DTD SVG 1.1//EN" "http://www.w3.org/Graphics/SVG/1.1/DTD/svg11.dtd"><svg width="100%" height="100%" viewBox="0 0 100 100" version="1.1" xmlns="http://www.w3.org/2000/svg" xmlns:xlink="http://www.w3.org/1999/xlink" xml:space="preserve" xmlns:serif="http://www.serif.com/" style="fill-rule:evenodd;clip-rule:evenodd;stroke-linecap:round;stroke-linejoin:round;stroke-miterlimit:1.5;"><g><path d="M45.958,20c0,-2.761 2.239,-5 5,-5l34.189,0c1.327,0 2.6,0.528 3.538,1.467c0.938,0.94 1.464,2.214 1.462,3.541c-0.004,2.497 -0.009,4.992 -0.009,4.992l-0.165,50c0,0 -0.004,2.505 -0.007,5.008c-0.005,2.758 -2.242,4.992 -5,4.992l-34.008,0c-2.761,0 -5,-2.239 -5,-5" style="fill:none;stroke:#808080;stroke-width:5px;"/><g><path d="M42.893,35l16,15l-16,15" style="fill:none;stroke:#808080;stroke-width:5px;"/><path d="M13.036,50l45.857,0" style="fill:none;stroke:#808080;stroke-width:5px;"/></g></g></svg>