<?xml version="1.0" encoding="UTF-8" standalone="no"?><!DOCTYPE svg PUBLIC "-//W3C//DTD SVG 1.1//EN" "http://www.w3.org/Graphics/SVG/1.1/DTD/svg11.dtd"><svg width="100%" height="100%" viewBox="0 0 100 100" version="1.1" xmlns="http://www.w3.org/2000/svg" xmlns:xlink="http://www.w3.org/1999/xlink" xml:space="preserve" xmlns:serif="http://www.serif.com/" style="fill-rule:evenodd;clip-rule:evenodd;stroke-linecap:round;stroke-linejoin:round;stroke-miterlimit:1.5;"><g><path d="M87.5,17.5c0,-2.76 -2.24,-5 -5,-5l-65,0c-2.76,0 -5,2.24 -5,5l0,48.333c0,2.76 2.24,5 5,5l65,0c2.76,0 5,-2.24 5,-5l0,-48.333Z" style="fill:none;stroke:#7c7c7d;stroke-width:5px;"/><path d="M50,70.833l0,16.667l-25,0l50,0" style="fill:none;stroke:#7c7c7d;stroke-width:5px;"/></g><clipPath id="_clip1"><path d="M95.618,0.038l0.408,0.068l0.401,0.102l0.391,0.134l0.378,0.166l0.363,0.197l0.346,0.226l0.326,0.254l0.305,0.279l0.279,0.305l0.254,0.326l0.226,0.346l0.197,0.363l0.166,0.378l0.134,0.391l0.102,0.401l0.068,0.408l0.034,0.411l0,0.414l-0.034,0.411l-0.068,0.408l-0.102,0.401l-0.134,0.391l-0.166,0.378l-0.197,0.363l-0.226,0.346l-0.254,0.326l-0.279,0.305l-90,90l-0.305,0.279l-0.326,0.254l-0.346,0.226l-0.363,0.197l-0.378,0.166l-0.391,0.134l-0.401,0.102l-0.408,0.068l-0.411,0.034l-0.414,0l-0.411,-0.034l-0.408,-0.068l-0.401,-0.102l-0.391,-0.134l-0.378,-0.166l-0.363,-0.197l-0.346,-0.226l-0.326,-0.254l-0.305,-0.279l-0.279,-0.305l-0.254,-0.326l-0.226,-0.346l-0.197,-0.363l-0.166,-0.378l-0.134,-0.391l-0.102,-0.401l-0.068,-0.408l-0.034,-0.411l0,-0.414l0.034,-0.411l0.068,-0.408l0.102,-0.401l0.134,-0.391l0.166,-0.378l0.197,-0.363l0.226,-0.346l0.254,-0.326l0.279,-0.305l90,-90l0.305,-0.279l0.326,-0.254l0.346,-0.226l0.363,-0.197l0.378,-0.166l0.391,-0.134l0.401,-0.102l0.408,-0.068l0.411,-0.034l0.414,0l0.411,0.034Z"/></clipPath><g clip-path="url(#_clip1)"></g><path d="M5,95l90,-90" style="fill:none;stroke:#7c7c7d;stroke-width:5px;"/></svg>