<?xml version="1.0" encoding="UTF-8" standalone="no"?><!DOCTYPE svg PUBLIC "-//W3C//DTD SVG 1.1//EN" "http://www.w3.org/Graphics/SVG/1.1/DTD/svg11.dtd"><svg width="100%" height="100%" viewBox="0 0 1738 1738" version="1.1" xmlns="http://www.w3.org/2000/svg" xmlns:xlink="http://www.w3.org/1999/xlink" xml:space="preserve" xmlns:serif="http://www.serif.com/" style="fill-rule:evenodd;clip-rule:evenodd;stroke-linejoin:round;stroke-miterlimit:2;"><path d="M0,0l0,1041.67l1041.67,-0l-0,-1041.67l-1041.67,0Zm173.613,173.613l694.441,-0l0,694.441l-694.442,0l0,-694.442Z" style="fill:#7c7c7d;"/><path d="M303.821,303.821l-0,434.025l434.025,-0l-0,-434.025l-434.025,-0Zm173.608,173.608l86.809,0l-0,86.809l-86.809,-0l0,-86.809Z" style="fill:#7c7c7d;"/><rect x="1562.5" y="0" width="173.613" height="173.613" style="fill:#7c7c7d;"/><rect x="1388.89" y="173.613" width="173.612" height="173.613" style="fill:#7c7c7d;"/><rect x="1215.28" y="173.613" width="173.612" height="173.613" style="fill:#7c7c7d;"/><rect x="1215.28" y="347.221" width="173.612" height="173.613" style="fill:#7c7c7d;"/><rect x="1388.89" y="694.446" width="173.612" height="173.612" style="fill:#7c7c7d;"/><rect x="1215.28" y="520.833" width="173.612" height="173.613" style="fill:#7c7c7d;"/><rect x="1562.5" y="520.833" width="173.613" height="173.613" style="fill:#7c7c7d;"/><rect x="173.613" y="1215.28" width="173.613" height="173.612" style="fill:#7c7c7d;"/><rect x="173.613" y="1388.89" width="173.613" height="173.612" style="fill:#7c7c7d;"/><rect x="347.221" y="1562.5" width="173.613" height="173.613" style="fill:#7c7c7d;"/><rect x="347.221" y="1215.28" width="173.613" height="173.612" style="fill:#7c7c7d;"/><rect x="694.446" y="1388.89" width="173.612" height="173.612" style="fill:#7c7c7d;"/><rect x="868.054" y="1562.5" width="173.613" height="173.613" style="fill:#7c7c7d;"/><rect x="868.054" y="1388.89" width="173.613" height="173.612" style="fill:#7c7c7d;"/><rect x="1041.67" y="1388.89" width="173.613" height="173.612" style="fill:#7c7c7d;"/><rect x="1388.89" y="1215.28" width="173.612" height="173.612" style="fill:#7c7c7d;"/><rect x="1562.5" y="1388.89" width="173.613" height="173.612" style="fill:#7c7c7d;"/><rect x="1562.5" y="1562.5" width="173.613" height="173.613" style="fill:#7c7c7d;"/><rect x="1215.28" y="1562.5" width="173.612" height="173.613" style="fill:#7c7c7d;"/><rect x="1215.28" y="868.054" width="173.612" height="173.613" style="fill:#7c7c7d;"/><rect x="1388.89" y="868.054" width="173.612" height="173.613" style="fill:#7c7c7d;"/><rect x="694.446" y="1215.28" width="173.612" height="173.612" style="fill:#7c7c7d;"/><rect x="520.833" y="1562.5" width="173.613" height="173.613" style="fill:#7c7c7d;"/><rect x="0" y="1388.89" width="173.613" height="173.612" style="fill:#7c7c7d;"/><rect x="1562.5" y="868.054" width="173.613" height="173.613" style="fill:#7c7c7d;"/><rect x="1562.5" y="1041.67" width="173.613" height="173.613" style="fill:#7c7c7d;"/></svg>