<?xml version="1.0" encoding="UTF-8" standalone="no"?><!DOCTYPE svg PUBLIC "-//W3C//DTD SVG 1.1//EN" "http://www.w3.org/Graphics/SVG/1.1/DTD/svg11.dtd"><svg width="100%" height="100%" viewBox="0 0 100 100" version="1.1" xmlns="http://www.w3.org/2000/svg" xmlns:xlink="http://www.w3.org/1999/xlink" xml:space="preserve" xmlns:serif="http://www.serif.com/" style="fill-rule:evenodd;clip-rule:evenodd;stroke-linecap:round;stroke-linejoin:round;stroke-miterlimit:1.5;"><g><g><path d="M58.975,52.197c0,4.954 -4.022,8.975 -8.975,8.975c-4.953,0 -8.975,-4.021 -8.975,-8.975c0,-5.171 4.151,-7.039 8.975,-9.467c4.824,-2.428 8.975,-4.255 8.975,-9.426c0,-4.954 -4.022,-8.975 -8.975,-8.975c-4.953,0 -8.975,4.021 -8.975,8.975" style="fill:none;stroke:#7c7c7d;stroke-width:5px;"/><circle cx="50" cy="71.901" r="3.77" style="fill:#7c7c7d;"/></g><path d="M50,4.472c-25.112,0 -45.5,20.388 -45.5,45.5c0,25.112 20.388,45.5 45.5,45.5c4.277,0 0,0 0,0l45.442,0.056l0.058,-45.556c0,0 0,1.503 0,0c0,-25.112 -20.388,-45.5 -45.5,-45.5Z" style="fill:none;stroke:#7c7c7d;stroke-width:5px;"/></g></svg>