<?xml version="1.0" encoding="UTF-8" standalone="no"?><!DOCTYPE svg PUBLIC "-//W3C//DTD SVG 1.1//EN" "http://www.w3.org/Graphics/SVG/1.1/DTD/svg11.dtd"><svg width="100%" height="100%" viewBox="0 0 100 100" version="1.1" xmlns="http://www.w3.org/2000/svg" xmlns:xlink="http://www.w3.org/1999/xlink" xml:space="preserve" xmlns:serif="http://www.serif.com/" style="fill-rule:evenodd;clip-rule:evenodd;stroke-linecap:round;stroke-linejoin:round;stroke-miterlimit:1.5;"><path d="M25,35c0,0 0,25.408 0,40c0,2.652 1.054,5.196 2.929,7.071c1.875,1.875 4.419,2.929 7.071,2.929c8.714,0 21.286,0 30,0c2.652,0 5.196,-1.054 7.071,-2.929c1.875,-1.875 2.929,-4.419 2.929,-7.071c0,-14.592 0,-40 0,-40" style="fill:none;stroke:#7c7c7d;stroke-width:5px;"/><path d="M38,37l0,37" style="fill:none;stroke:#7c7c7d;stroke-width:5px;"/><path d="M50,37l0,37" style="fill:none;stroke:#7c7c7d;stroke-width:5px;"/><path d="M62,37l0,37" style="fill:none;stroke:#7c7c7d;stroke-width:5px;"/><path d="M25,27.306l50,0" style="fill:none;stroke:#7c7c7d;stroke-width:5px;"/><path d="M42,27.306l0,-2.306c0,0 0,-0.001 0.001,-0.002c1.216,-3.371 4.415,-5.618 7.999,-5.618c3.584,0 6.783,2.247 7.999,5.618c0.001,0.001 0.001,0.002 0.001,0.002l0,2.306" style="fill:none;stroke:#7c7c7d;stroke-width:5px;"/></svg>